<?xml version="1.0" encoding="UTF-8" standalone="no"?>
<svg
   viewBox="0 0 200 40"
   version="1.1"
   id="svg1"
   sodipodi:docname="3do.svg"
   inkscape:version="1.3.2 (091e20e, 2023-11-25)"
   xmlns:inkscape="http://www.inkscape.org/namespaces/inkscape"
   xmlns:sodipodi="http://sodipodi.sourceforge.net/DTD/sodipodi-0.dtd"
   xmlns="http://www.w3.org/2000/svg"
   xmlns:svg="http://www.w3.org/2000/svg">
  <defs
     id="defs1">
    <rect
       x="0.30349014"
       y="0.60698027"
       width="199.08953"
       height="38.846737"
       id="rect3" />
    <rect
       x="0.60698027"
       y="0.60698027"
       width="198.78604"
       height="39.150228"
       id="rect2" />
    <rect
       x="0.91047041"
       y="0.60698027"
       width="198.17906"
       height="38.846737"
       id="rect1" />
  </defs>
  <sodipodi:namedview
     id="namedview1"
     pagecolor="#020202"
     bordercolor="#000000"
     borderopacity="0.25"
     inkscape:showpageshadow="2"
     inkscape:pageopacity="0.0"
     inkscape:pagecheckerboard="0"
     inkscape:deskcolor="#d1d1d1"
     inkscape:zoom="3.295"
     inkscape:cx="101.36571"
     inkscape:cy="-0.75872534"
     inkscape:window-width="1400"
     inkscape:window-height="864"
     inkscape:window-x="209"
     inkscape:window-y="25"
     inkscape:window-maximized="0"
     inkscape:current-layer="svg1" />
  <path
     style="font-weight:bold;font-size:13.3333px;font-family:BPreplay;-inkscape-font-specification:'BPreplay Bold';letter-spacing:0px;white-space:pre;fill:#ffffff;stroke-width:2.64567;stroke-linecap:square;stroke-opacity:0.988722;paint-order:markers fill stroke"
     d="m 3.7293924,2.6552368 c -1.6533292,0 -2.85332614,1.2266636 -2.85332614,2.5066604 0,0.6266651 0.34666574,0.9599975 1.10666384,0.9599975 0.6533317,0 0.8133313,-0.5599985 0.8266646,-0.7199981 0.013333,-0.1066664 0.08,-0.666665 0.8666645,-0.666665 0.533332,0 0.8399979,0.3599991 0.8399979,0.8799978 0,0.4266655 -0.2266661,1.0399973 -0.5866652,1.1466637 -0.133333,0.026667 -0.3333325,0.026667 -0.3866657,0.026667 -0.7466648,0 -1.1333305,0.2133328 -1.1333305,0.8799978 0,0.6399984 0.3733324,0.9066644 1.1333305,0.9066644 h 0.4399989 c 0.5999985,0.093333 0.8799978,0.7599981 0.8799978,1.29333 0,0.7199981 -0.5599986,1.0933311 -1.1199972,1.0933311 -0.4133323,0 -0.7733314,-0.253333 -0.9999975,-0.773332 C 2.556062,9.7618855 2.1160631,9.5218861 1.7427307,9.5218861 c -0.5199987,0 -0.98666414,0.3733324 -0.98666414,1.0666639 0,0.399999 0.133333,0.826665 0.38666574,1.186664 0.5066653,0.693331 1.4399963,1.319996 2.6133267,1.319996 2.0133282,0 3.2399918,-1.559996 3.2399918,-3.093325 0,-0.9599976 -0.4799988,-1.9066619 -1.5333295,-2.4799938 0.8133313,-0.5199987 1.1733304,-1.2933301 1.1733304,-2.0799947 0,-1.3866632 -1.1466638,-2.7866597 -2.9066593,-2.7866597 z m 4.573323,9.1733102 c 0,0.959998 0.2799993,1.119997 1.1333305,1.119997 h 2.3866611 c 2.799992,0 4.546655,-2.533327 4.546655,-5.1333202 0,-2.5866601 -1.45333,-5.2266535 -4.293323,-5.2266535 H 9.6360454 c -0.9066644,0 -1.33333,0.399999 -1.33333,1.199997 z M 11.942706,4.7218983 c 1.479996,0 2.226661,1.5199961 2.226661,3.0933255 0,1.5066629 -0.839998,2.9999922 -2.399994,2.9999922 H 10.449377 V 4.7218983 Z m 9.733297,-2.4399939 c -3.026659,0 -4.533322,2.6933266 -4.533322,5.3733198 0,2.7066598 1.519997,5.4133198 4.533322,5.4133198 3.066659,0 4.599989,-2.679993 4.599989,-5.3733199 0,-2.6933265 -1.53333,-5.4133197 -4.599989,-5.4133197 z m 0,2.1599946 c 1.626663,0 2.413328,1.6266625 2.413328,3.2799917 0,1.6399959 -0.773332,3.2266583 -2.386661,3.2266583 -1.586663,0 -2.373327,-1.6533289 -2.373327,-3.3199914 0,-1.6133293 0.759998,-3.1866586 2.34666,-3.1866586 z"
     id="text2"
     aria-label="3DO" />
</svg>
