<?xml version="1.0" encoding="UTF-8" standalone="no"?>
<svg
   viewBox="0 0 200 40"
   version="1.1"
   id="svg1"
   sodipodi:docname="amigacd32.svg"
   inkscape:version="1.3.2 (091e20e, 2023-11-25)"
   xmlns:inkscape="http://www.inkscape.org/namespaces/inkscape"
   xmlns:sodipodi="http://sodipodi.sourceforge.net/DTD/sodipodi-0.dtd"
   xmlns="http://www.w3.org/2000/svg"
   xmlns:svg="http://www.w3.org/2000/svg">
  <defs
     id="defs1">
    <rect
       x="0.30349014"
       y="0.60698027"
       width="199.08953"
       height="38.846737"
       id="rect3" />
    <rect
       x="0.60698027"
       y="0.60698027"
       width="198.78604"
       height="39.150228"
       id="rect2" />
    <rect
       x="0.91047041"
       y="0.60698027"
       width="198.17906"
       height="38.846737"
       id="rect1" />
  </defs>
  <sodipodi:namedview
     id="namedview1"
     pagecolor="#020202"
     bordercolor="#000000"
     borderopacity="0.25"
     inkscape:showpageshadow="2"
     inkscape:pageopacity="0.0"
     inkscape:pagecheckerboard="0"
     inkscape:deskcolor="#d1d1d1"
     inkscape:zoom="3.295"
     inkscape:cx="101.36571"
     inkscape:cy="-0.75872534"
     inkscape:window-width="1400"
     inkscape:window-height="864"
     inkscape:window-x="209"
     inkscape:window-y="25"
     inkscape:window-maximized="0"
     inkscape:current-layer="svg1" />
  <path
     style="font-weight:bold;font-size:13.3333px;font-family:BPreplay;-inkscape-font-specification:'BPreplay Bold';letter-spacing:0px;white-space:pre;fill:#ffffff;stroke-width:2.64567;stroke-linecap:square;stroke-opacity:0.988722;paint-order:markers fill stroke"
     d="M 4.5827236,6.268561 C 5.0627223,7.6818908 5.1560554,7.8552237 5.5160545,8.9085544 H 3.622726 Z m 2.1999944,5.999985 c 0.1733329,0.439999 0.5199987,0.679998 1.0266641,0.679998 0.666665,0 1.0399973,-0.439999 1.0399973,-1.039997 0,-0.133333 -0.026667,-0.319999 -2.9733258,-8.3733124 -0.2266661,-0.6266651 -0.6799983,-0.9466643 -1.29333,-0.9466643 -0.6133318,0 -1.066664,0.3199992 -1.2933301,0.9466643 L 0.48940057,11.455215 c -0.0399999,0.133333 -0.0799998,0.293332 -0.0799998,0.439998 0,0.546666 0.29333259,1.053331 1.01333073,1.053331 0.5466653,0 0.933331,-0.293332 1.1333305,-0.879998 0.1199997,-0.319999 0.2266661,-0.653331 0.3599991,-0.999997 H 6.3160525 Z M 9.5427169,11.92188 c 0,0.679998 0.3333325,1.026664 0.9999971,1.026664 0.706665,0 1.039998,-0.346666 1.039998,-1.026664 V 8.2018895 c 0,-0.7866647 0.519998,-1.1866637 1.05333,-1.1866637 0.479999,0 0.986665,0.3866657 0.986665,1.1866637 V 11.92188 c 0,0.679998 0.359999,1.026664 1.026664,1.026664 0.693331,0 1.039997,-0.346666 1.039997,-1.026664 V 7.9752234 c 0.08,-0.6399984 0.559999,-0.9599976 1.039997,-0.9599976 0.479999,0 0.986665,0.3866657 0.986665,1.1866637 V 11.92188 c 0,0.679998 0.359999,1.026664 1.026664,1.026664 0.693331,0 1.039997,-0.346666 1.039997,-1.026664 V 7.8285571 c 0,-1.8533287 -1.106664,-2.6133267 -2.239994,-2.6133267 -0.839998,0 -1.693329,0.4133323 -2.119995,1.1066638 -0.359999,-0.8133312 -1.026664,-1.1333304 -1.719996,-1.1333304 -0.799998,0 -1.653329,0.4266656 -2.119994,0.9599975 0,-0.4133322 -0.333333,-0.9199976 -1.039998,-0.9199976 -0.6666646,0 -0.9999971,0.5066654 -0.9999971,1.0666639 z m 11.4932971,-0.01333 c 0,0.706665 0.359999,1.039997 1.039997,1.039997 0.693332,0 1.039997,-0.333332 1.039997,-1.039997 V 6.3218942 c 0,-0.6933315 -0.373332,-1.026664 -1.05333,-1.026664 -0.666665,0 -1.026664,0.3333325 -1.026664,1.026664 z M 20.849347,3.3085685 c 0,0.666665 0.533332,1.1866637 1.186664,1.1866637 0.679998,0 1.199997,-0.5199987 1.199997,-1.1866637 0,-0.666665 -0.519999,-1.1866636 -1.199997,-1.1866636 -0.653332,0 -1.186664,0.5199986 -1.186664,1.1866636 z m 8.986655,1.7866622 c -0.666665,0 -1.026664,0.3599991 -1.05333,0.9999974 -0.413333,-0.6933315 -1.199997,-1.0133307 -1.839996,-1.0133307 -1.453329,0 -2.839993,1.5999959 -2.839993,4.0266565 0,2.3733271 1.41333,3.8533231 2.82666,3.8533231 0.719998,0 1.439996,-0.279999 1.973328,-1.226663 0,1.41333 -0.279999,2.346661 -1.466663,2.346661 -0.373332,0 -0.759998,-0.09333 -1.13333,-0.293333 -0.213333,-0.106666 -0.413332,-0.253333 -0.733332,-0.253333 -0.653331,0 -1.026664,0.519999 -1.026664,1.066664 0,0.346666 0.16,0.706665 0.506666,0.933331 0.733331,0.453332 1.519996,0.679999 2.253327,0.679999 1.919996,0 3.559991,-1.506663 3.559991,-4.293323 V 6.1618946 c 0,-0.6933315 -0.346665,-1.0666639 -1.026664,-1.0666639 z m -2.38666,6.0133183 c -0.839998,0 -1.25333,-0.973331 -1.25333,-1.9866618 0,-1.0266641 0.453332,-2.1066614 1.29333,-2.1066614 0.666665,0 1.33333,0.7599981 1.33333,2.0533282 0,1.29333 -0.706665,2.039995 -1.37333,2.039995 z m 5.493323,-5.5599861 c -0.426666,0.1733329 -0.693332,0.4666654 -0.693332,0.8399978 0,0.6799983 0.479999,0.8399979 0.986664,0.8399979 0.479999,0 0.919998,-0.1733329 1.466663,-0.1733329 0.746665,0 1.626663,0.4799988 1.626663,1.2666635 V 8.9752209 C 35.849324,8.6285551 35.142659,8.4285556 34.422661,8.4285556 c -1.706662,0 -2.70666,1.2533301 -2.70666,2.4533274 0,1.106664 0.866665,2.159994 2.386661,2.159994 0.746665,0 1.546663,-0.306666 2.173328,-0.973331 v 0.253333 c 0.04,0.546665 0.613331,0.719998 0.839998,0.719998 0.653331,0 1.039997,-0.493332 1.039997,-1.026664 V 8.0285566 c 0,-2.0399949 -1.679996,-2.8399928 -3.373325,-2.8399928 -0.613332,0 -1.25333,0.1199997 -1.839995,0.3599991 z m 0.866664,5.0666541 c 0,-0.426666 0.559999,-0.613332 1.119997,-0.613332 0.533332,0 1.119998,0.199999 1.119998,0.546665 0,0.466666 -0.639999,0.706665 -1.239997,0.706665 -0.493332,0 -0.999998,-0.213333 -0.999998,-0.639998 z m 14.546642,-0.386666 c -0.426666,0.426666 -0.986664,0.573332 -1.599996,0.573332 -1.733329,0 -2.62666,-1.5333295 -2.62666,-3.1599921 0,-1.5866627 0.853331,-3.159992 2.613327,-3.159992 0.613332,0 1.21333,0.2133328 1.626662,0.6266651 0.186667,0.1999995 0.546666,0.3199992 0.813332,0.3199992 0.586665,0 1.05333,-0.4266656 1.05333,-1.1066639 0,-0.3466658 -0.146666,-0.6533317 -0.413332,-0.9066644 -0.879998,-0.799998 -1.906662,-1.1599971 -3.039992,-1.1599971 -3.253325,0 -4.893321,2.7466598 -4.893321,5.4666529 0,2.6933263 1.599996,5.3733193 4.826654,5.3733193 1.159997,0 2.173328,-0.413332 3.039993,-1.186663 0.293332,-0.266666 0.399998,-0.573332 0.399998,-0.919998 0,-0.559998 -0.306665,-1.0799972 -1.066663,-1.0799972 -0.28,0 -0.493333,0.08 -0.733332,0.3199992 z m 2.919989,1.599996 c 0,0.959998 0.279999,1.119997 1.13333,1.119997 h 2.386661 c 2.799993,0 4.546655,-2.533327 4.546655,-5.1333202 0,-2.5866601 -1.45333,-5.2266535 -4.293323,-5.2266535 H 52.60929 c -0.906665,0 -1.33333,0.399999 -1.33333,1.199997 z m 3.63999,-7.1066487 c 1.479997,0 2.226661,1.5199961 2.226661,3.0933255 0,1.5066629 -0.839997,2.9999922 -2.399993,2.9999922 H 53.422621 V 4.7218983 Z m 8.239967,-2.0666615 c -1.653329,0 -2.853326,1.2266636 -2.853326,2.5066604 0,0.6266651 0.346666,0.9599975 1.106664,0.9599975 0.653332,0 0.813332,-0.5599985 0.826665,-0.7199981 0.01333,-0.1066664 0.08,-0.666665 0.866664,-0.666665 0.533332,0 0.839998,0.3599991 0.839998,0.8799978 0,0.4266655 -0.226666,1.0399973 -0.586665,1.1466637 -0.133333,0.026667 -0.333332,0.026667 -0.386666,0.026667 -0.746664,0 -1.13333,0.2133328 -1.13333,0.8799978 0,0.6399984 0.373332,0.9066644 1.13333,0.9066644 h 0.439999 c 0.599999,0.093333 0.879998,0.7599981 0.879998,1.29333 0,0.7199981 -0.559999,1.0933311 -1.119997,1.0933311 -0.413332,0 -0.773332,-0.253333 -0.999998,-0.773332 -0.186666,-0.4266655 -0.626665,-0.6666649 -0.999997,-0.6666649 -0.519999,0 -0.986664,0.3733324 -0.986664,1.0666639 0,0.399999 0.133333,0.826665 0.386665,1.186664 0.506666,0.693331 1.439997,1.319996 2.613327,1.319996 2.013328,0 3.239992,-1.559996 3.239992,-3.093325 0,-0.9599976 -0.479999,-1.9066619 -1.53333,-2.4799938 0.813332,-0.5199987 1.173331,-1.2933301 1.173331,-2.0799947 0,-1.3866632 -1.146664,-2.7866597 -2.90666,-2.7866597 z m 4.199995,3.0799923 c 0,0.5333319 0.36,1.2266635 1.093331,1.2266635 0.706665,0 1.053331,-0.7066649 1.053331,-1.1733303 0,-0.666665 0.466665,-0.9866642 0.946664,-0.9866642 0.466665,0 0.946664,0.2933326 0.946664,0.799998 0,0.3866656 -0.133333,0.7999979 -0.399999,1.1466637 l -3.239992,4.3866552 c -0.186666,0.253333 -0.293332,0.533332 -0.293332,0.786665 0,0.679998 0.399999,1.026664 1.239997,1.026664 h 3.946656 c 0.679999,0 1.026664,-0.373332 1.026664,-1.053331 0,-0.666664 -0.319999,-1.026664 -1.01333,-1.026664 h -2.146662 c 0.893332,-1.1999966 1.199997,-1.5866622 2.066662,-2.733326 0.599998,-0.8133313 0.973331,-1.7866622 0.973331,-2.62666 0,-1.7066624 -1.53333,-2.8133263 -3.066659,-2.8133263 -1.573329,0 -3.133326,1.1599971 -3.133326,3.0399924 z"
     id="text2"
     aria-label="Amiga CD32" />
</svg>
