<?xml version="1.0" encoding="UTF-8" standalone="no"?>
<svg
   viewBox="0 0 200 40"
   version="1.1"
   id="svg1"
   sodipodi:docname="atarixegs.svg"
   inkscape:version="1.3.2 (091e20e, 2023-11-25)"
   xmlns:inkscape="http://www.inkscape.org/namespaces/inkscape"
   xmlns:sodipodi="http://sodipodi.sourceforge.net/DTD/sodipodi-0.dtd"
   xmlns="http://www.w3.org/2000/svg"
   xmlns:svg="http://www.w3.org/2000/svg">
  <defs
     id="defs1">
    <rect
       x="0.30349014"
       y="0.60698027"
       width="199.08953"
       height="38.846737"
       id="rect3" />
    <rect
       x="0.60698027"
       y="0.60698027"
       width="198.78604"
       height="39.150228"
       id="rect2" />
    <rect
       x="0.91047041"
       y="0.60698027"
       width="198.17906"
       height="38.846737"
       id="rect1" />
  </defs>
  <sodipodi:namedview
     id="namedview1"
     pagecolor="#020202"
     bordercolor="#000000"
     borderopacity="0.25"
     inkscape:showpageshadow="2"
     inkscape:pageopacity="0.0"
     inkscape:pagecheckerboard="0"
     inkscape:deskcolor="#d1d1d1"
     inkscape:zoom="3.295"
     inkscape:cx="101.36571"
     inkscape:cy="-0.75872534"
     inkscape:window-width="1400"
     inkscape:window-height="864"
     inkscape:window-x="209"
     inkscape:window-y="25"
     inkscape:window-maximized="0"
     inkscape:current-layer="svg1" />
  <path
     style="font-weight:bold;font-size:13.3333px;font-family:BPreplay;-inkscape-font-specification:'BPreplay Bold';letter-spacing:0px;white-space:pre;fill:#ffffff;stroke-width:2.64567;stroke-linecap:square;stroke-opacity:0.988722;paint-order:markers fill stroke"
     d="M 4.5827236,6.268561 C 5.0627223,7.6818908 5.1560554,7.8552237 5.5160545,8.9085544 H 3.622726 Z m 2.1999944,5.999985 c 0.1733329,0.439999 0.5199987,0.679998 1.0266641,0.679998 0.666665,0 1.0399973,-0.439999 1.0399973,-1.039997 0,-0.133333 -0.026667,-0.319999 -2.9733258,-8.3733124 -0.2266661,-0.6266651 -0.6799983,-0.9466643 -1.29333,-0.9466643 -0.6133318,0 -1.066664,0.3199992 -1.2933301,0.9466643 L 0.48940057,11.455215 c -0.0399999,0.133333 -0.0799998,0.293332 -0.0799998,0.439998 0,0.546666 0.29333259,1.053331 1.01333073,1.053331 0.5466653,0 0.933331,-0.293332 1.1333305,-0.879998 0.1199997,-0.319999 0.2266661,-0.653331 0.3599991,-0.999997 H 6.3160525 Z M 8.7560498,6.1885612 c 0,0.5999985 0.399999,0.7866647 0.933331,0.8399979 v 3.1999919 c 0,1.759996 0.4399992,2.82666 2.3466612,2.82666 0.719998,0 1.106663,-0.346666 1.106663,-0.999998 0,-0.666665 -0.386665,-0.999997 -1.106663,-0.999997 -0.253333,0 -0.28,-0.266666 -0.28,-0.826665 V 7.0552257 h 0.599999 c 0.706665,0 1.039997,-0.1866662 1.039997,-0.8533312 0,-0.6933315 -0.359999,-0.8666644 -1.066664,-0.8666644 H 11.756042 V 4.8152314 c 0,-0.666665 -0.346666,-1.0133308 -1.039997,-1.0133308 -0.679998,0 -1.0266642,0.3466658 -1.0266642,1.0133308 v 0.5199987 c -0.5466653,0.066666 -0.933331,0.266666 -0.933331,0.8533311 z M 14.916027,5.5485629 c -0.426666,0.1733329 -0.693332,0.4666654 -0.693332,0.8399978 0,0.6799983 0.479999,0.8399979 0.986664,0.8399979 0.479999,0 0.919998,-0.1733329 1.466663,-0.1733329 0.746665,0 1.626663,0.4799988 1.626663,1.2666635 V 8.9752209 C 17.822686,8.6285551 17.116021,8.4285556 16.396023,8.4285556 c -1.706662,0 -2.70666,1.2533301 -2.70666,2.4533274 0,1.106664 0.866665,2.159994 2.386661,2.159994 0.746665,0 1.546663,-0.306666 2.173328,-0.973331 v 0.253333 c 0.04,0.546665 0.613331,0.719998 0.839998,0.719998 0.653331,0 1.039997,-0.493332 1.039997,-1.026664 V 8.0285566 c 0,-2.0399949 -1.679996,-2.8399928 -3.373325,-2.8399928 -0.613332,0 -1.25333,0.1199997 -1.839995,0.3599991 z m 0.866664,5.0666541 c 0,-0.426666 0.559999,-0.613332 1.119997,-0.613332 0.533332,0 1.119998,0.199999 1.119998,0.546665 0,0.466666 -0.639999,0.706665 -1.239997,0.706665 -0.493332,0 -0.999998,-0.213333 -0.999998,-0.639998 z m 5.573324,1.306663 c 0,0.679998 0.346666,1.026664 1.026664,1.026664 0.706665,0 1.026664,-0.346666 1.026664,-1.026664 V 8.2018895 c 0,-0.5866652 0.586665,-0.9999975 1.093331,-0.9999975 0.133333,0 0.213333,0.026667 0.306666,0.04 0.133333,0.026667 0.306666,0.04 0.493332,0.04 0.613332,0 1.053331,-0.4933321 1.053331,-1.0399974 0,-0.5466652 -0.399999,-1.1333304 -1.466663,-1.1333304 -0.559999,0 -1.426664,0.5466653 -1.65333,0.9866641 -0.02667,-0.626665 -0.439998,-0.8799977 -0.853331,-0.8799977 -0.679998,0 -1.026664,0.3466658 -1.026664,1.0666639 z m 5.586661,-0.01333 c 0,0.706665 0.359999,1.039997 1.039997,1.039997 0.693331,0 1.039997,-0.333332 1.039997,-1.039997 V 6.3218942 c 0,-0.6933315 -0.373332,-1.026664 -1.05333,-1.026664 -0.666665,0 -1.026664,0.3333325 -1.026664,1.026664 z M 26.756009,3.3085685 c 0,0.666665 0.533332,1.1866637 1.186664,1.1866637 0.679998,0 1.199997,-0.5199987 1.199997,-1.1866637 0,-0.666665 -0.519999,-1.1866636 -1.199997,-1.1866636 -0.653332,0 -1.186664,0.5199986 -1.186664,1.1866636 z m 6.120007,7.9199805 c -0.16,0.239999 -0.226666,0.493332 -0.226666,0.759998 0,0.639998 0.333332,0.97333 0.959997,0.97333 0.426666,0 0.759998,-0.173332 0.999998,-0.559998 l 2.079995,-3.2533252 2.239994,3.2799912 c 0.279999,0.36 0.586665,0.533332 0.986664,0.533332 0.639998,0 0.959998,-0.306665 0.959998,-0.959997 0,-0.266666 -0.09333,-0.519999 -0.266666,-0.786665 L 37.969336,7.3085584 39.942665,4.2685661 c 0.119999,-0.1866662 0.199999,-0.399999 0.199999,-0.6266651 0,-0.5999985 -0.506665,-1.066664 -1.05333,-1.066664 -0.399999,0 -0.693332,0.1733329 -0.906665,0.5199987 -0.493332,0.7733314 -0.999997,1.6533292 -1.506663,2.4533272 L 34.969344,3.0419025 C 34.742678,2.70857 34.422679,2.575237 34.06268,2.575237 c -0.559999,0 -1.053331,0.4266656 -1.053331,1.0399974 0,0.2266661 0.06667,0.4533322 0.213333,0.666665 l 2.173328,3.1733253 z m 8.89331,0.546665 c 0,0.933331 0.133333,1.17333 1.119997,1.17333 h 3.853324 c 0.773331,0 1.146663,-0.359999 1.146663,-1.066664 0,-0.719998 -0.373332,-1.066664 -1.146663,-1.066664 H 43.902654 V 8.6552217 h 2.146661 c 0.719998,0 1.066664,-0.3599991 1.066664,-1.0533307 0,-0.7199982 -0.346666,-1.0799973 -1.066664,-1.0799973 H 43.902654 V 4.7218983 h 2.74666 c 0.719998,0 1.066664,-0.3599991 1.066664,-1.066664 0,-0.7333315 -0.346666,-1.066664 -1.066664,-1.066664 h -3.759991 c -0.733331,0 -1.119997,0.3866657 -1.119997,1.1599971 z M 53.06263,10.908549 c -1.626662,0 -2.42666,-1.5066625 -2.42666,-3.0533253 0,-1.866662 0.826664,-3.4399913 2.519993,-3.4399913 0.519999,0 1.146664,0.1066664 1.733329,0.6399984 0.253333,0.2399994 0.546666,0.3466658 0.813332,0.3466658 0.506665,0 0.946664,-0.3866657 0.946664,-1.0533307 0,-1.2399969 -1.893329,-2.1466613 -3.453325,-2.1466613 -3.213325,0 -4.813321,2.7333265 -4.813321,5.6666524 0,2.639993 1.506663,5.226653 4.639988,5.226653 2.639994,0 4.306656,-1.919995 4.306656,-4.6133212 0,-0.8933311 -0.133333,-1.7199957 -1.399996,-1.7199957 h -2.679994 c -0.799997,0 -1.199996,0.3466658 -1.199996,1.0799973 0,0.6933316 0.386665,1.066664 1.159997,1.066664 h 1.933328 C 55.009292,10.175218 54.275961,10.908549 53.06263,10.908549 Z m 9.133308,-6.0266511 c 0.239999,0.1999995 0.506665,0.3333325 0.839997,0.3333325 0.613332,0 1.053331,-0.5733319 1.053331,-1.1199972 0,-0.4133323 -0.213333,-0.7599981 -0.599998,-1.0399974 -0.666665,-0.5066654 -1.479997,-0.7733314 -2.319995,-0.7733314 -1.893328,0 -3.146658,1.5333295 -3.146658,3.0266591 0,1.7999954 1.599996,2.5599935 2.946659,3.1866586 1.066664,0.4933321 1.426663,0.799998 1.426663,1.2533301 0,0.7599978 -0.639998,1.1466638 -1.37333,1.1466638 -0.426665,0 -0.893331,-0.146666 -1.25333,-0.373332 -0.253333,-0.146667 -0.519999,-0.226666 -0.786665,-0.226666 -0.693331,0 -1.039997,0.319999 -1.039997,1.026664 0,0.439998 0.199999,0.786664 0.613332,1.05333 0.733331,0.479999 1.559996,0.733332 2.46666,0.733332 2.053328,0 3.639991,-1.279997 3.639991,-3.4399916 0,-1.6399958 -1.146664,-2.3733273 -2.759993,-3.159992 -0.826665,-0.399999 -1.639996,-0.5999985 -1.639996,-1.2533301 0,-0.5866652 0.346666,-0.7599981 0.893331,-0.7599981 0.386666,0 0.719998,0.1466663 1.039998,0.3866657 z"
     id="text2"
     aria-label="Atari XEGS&#10;" />
</svg>
