<?xml version="1.0" encoding="UTF-8" standalone="no"?>
<svg
   viewBox="0 0 200 40"
   version="1.1"
   id="svg1"
   sodipodi:docname="atlus.svg"
   inkscape:version="1.3.2 (091e20e, 2023-11-25)"
   xmlns:inkscape="http://www.inkscape.org/namespaces/inkscape"
   xmlns:sodipodi="http://sodipodi.sourceforge.net/DTD/sodipodi-0.dtd"
   xmlns="http://www.w3.org/2000/svg"
   xmlns:svg="http://www.w3.org/2000/svg">
  <defs
     id="defs1">
    <rect
       x="0.30349014"
       y="0.60698027"
       width="199.08953"
       height="38.846737"
       id="rect3" />
    <rect
       x="0.60698027"
       y="0.60698027"
       width="198.78604"
       height="39.150228"
       id="rect2" />
    <rect
       x="0.91047041"
       y="0.60698027"
       width="198.17906"
       height="38.846737"
       id="rect1" />
  </defs>
  <sodipodi:namedview
     id="namedview1"
     pagecolor="#020202"
     bordercolor="#000000"
     borderopacity="0.25"
     inkscape:showpageshadow="2"
     inkscape:pageopacity="0.0"
     inkscape:pagecheckerboard="0"
     inkscape:deskcolor="#d1d1d1"
     inkscape:zoom="3.295"
     inkscape:cx="101.36571"
     inkscape:cy="-0.75872534"
     inkscape:window-width="1400"
     inkscape:window-height="864"
     inkscape:window-x="209"
     inkscape:window-y="25"
     inkscape:window-maximized="0"
     inkscape:current-layer="svg1" />
  <path
     style="font-weight:bold;font-size:13.3333px;font-family:BPreplay;-inkscape-font-specification:'BPreplay Bold';letter-spacing:0px;white-space:pre;fill:#ffffff;stroke-width:2.64567;stroke-linecap:square;stroke-opacity:0.988722;paint-order:markers fill stroke"
     d="M 4.5827236,6.268561 C 5.0627223,7.6818908 5.1560554,7.8552237 5.5160545,8.9085544 H 3.622726 Z m 2.1999944,5.999985 c 0.1733329,0.439999 0.5199987,0.679998 1.0266641,0.679998 0.666665,0 1.0399973,-0.439999 1.0399973,-1.039997 0,-0.133333 -0.026667,-0.319999 -2.9733258,-8.3733124 -0.2266661,-0.6266651 -0.6799983,-0.9466643 -1.29333,-0.9466643 -0.6133318,0 -1.066664,0.3199992 -1.2933301,0.9466643 L 0.48940057,11.455215 c -0.0399999,0.133333 -0.0799998,0.293332 -0.0799998,0.439998 0,0.546666 0.29333259,1.053331 1.01333073,1.053331 0.5466653,0 0.933331,-0.293332 1.1333305,-0.879998 0.1199997,-0.319999 0.2266661,-0.653331 0.3599991,-0.999997 H 6.3160525 Z M 8.7560498,6.1885612 c 0,0.5999985 0.399999,0.7866647 0.933331,0.8399979 v 3.1999919 c 0,1.759996 0.4399992,2.82666 2.3466612,2.82666 0.719998,0 1.106663,-0.346666 1.106663,-0.999998 0,-0.666665 -0.386665,-0.999997 -1.106663,-0.999997 -0.253333,0 -0.28,-0.266666 -0.28,-0.826665 V 7.0552257 h 0.599999 c 0.706665,0 1.039997,-0.1866662 1.039997,-0.8533312 0,-0.6933315 -0.359999,-0.8666644 -1.066664,-0.8666644 H 11.756042 V 4.8152314 c 0,-0.666665 -0.346666,-1.0133308 -1.039997,-1.0133308 -0.679998,0 -1.0266642,0.3466658 -1.0266642,1.0133308 v 0.5199987 c -0.5466653,0.066666 -0.933331,0.266666 -0.933331,0.8533311 z m 5.4133122,5.7199858 c 0,0.706665 0.333332,1.039997 1.039997,1.039997 0.693332,0 1.026664,-0.333332 1.026664,-1.039997 V 3.2019021 c 0,-0.6799983 -0.359999,-1.0533306 -1.039997,-1.0533306 -0.679998,0 -1.026664,0.3733323 -1.026664,1.0533306 z m 5.373309,-5.5999861 c 0,-0.7066648 -0.319999,-1.026664 -1.026664,-1.026664 -0.679998,0 -1.013331,0.3199992 -1.013331,1.026664 v 3.559991 c 0,2.0133281 1.159997,3.1599921 2.386661,3.1599921 0.733331,0 1.493329,-0.399999 2.053328,-1.146664 v 0.399999 c 0.01333,0.599999 0.426665,0.839998 0.786664,0.839998 0.693332,0 1.026665,-0.346666 1.026665,-0.986664 V 6.268561 c 0,-0.7066648 -0.333333,-1.0533306 -1.026665,-1.0533306 -0.746664,0 -0.986664,0.3866657 -0.986664,1.0533306 v 2.799993 c 0,1.279997 -0.639998,1.973328 -1.266663,1.973328 -0.466666,0 -0.919998,-0.239999 -0.919998,-1.5466624 z m 8.333316,4.9866541 c -1.039997,0 -1.426663,-0.733331 -2.226661,-0.733331 -0.479999,0 -0.959997,0.279999 -0.959997,0.879997 0,0.319999 0.133333,0.653332 0.413332,0.853331 0.746665,0.453333 1.533329,0.773332 2.54666,0.773332 1.45333,0 3.026659,-0.679998 3.026659,-2.439994 0,-2.1999944 -3.79999,-2.4399938 -3.79999,-3.3599915 0,-0.3599991 0.266666,-0.4799988 0.613332,-0.4799988 0.786664,0 1.319996,0.4399989 2.013328,0.4399989 0.599998,0 0.919998,-0.4533322 0.919998,-0.8933311 0,-0.3199992 -0.173333,-0.6533316 -0.533332,-0.8533311 -0.693332,-0.3599991 -1.439997,-0.4666655 -2.133328,-0.4666655 -1.57333,0 -2.94666,0.7333315 -2.94666,2.3733273 0,2.3066608 3.719991,2.359994 3.719991,3.4266578 0,0.346666 -0.279999,0.479999 -0.653332,0.479999 z"
     id="text2"
     aria-label="Atlus&#10;&#10;&#10;&#10;&#10;&#10;&#10;&#10;" />
</svg>
