<?xml version="1.0" encoding="UTF-8" standalone="no"?>
<svg
   viewBox="0 0 200 40"
   version="1.1"
   id="svg1"
   sodipodi:docname="atomiswave.svg"
   inkscape:version="1.3.2 (091e20e, 2023-11-25)"
   xmlns:inkscape="http://www.inkscape.org/namespaces/inkscape"
   xmlns:sodipodi="http://sodipodi.sourceforge.net/DTD/sodipodi-0.dtd"
   xmlns="http://www.w3.org/2000/svg"
   xmlns:svg="http://www.w3.org/2000/svg">
  <defs
     id="defs1">
    <rect
       x="0.30349014"
       y="0.60698027"
       width="199.08953"
       height="38.846737"
       id="rect3" />
    <rect
       x="0.60698027"
       y="0.60698027"
       width="198.78604"
       height="39.150228"
       id="rect2" />
    <rect
       x="0.91047041"
       y="0.60698027"
       width="198.17906"
       height="38.846737"
       id="rect1" />
  </defs>
  <sodipodi:namedview
     id="namedview1"
     pagecolor="#020202"
     bordercolor="#000000"
     borderopacity="0.25"
     inkscape:showpageshadow="2"
     inkscape:pageopacity="0.0"
     inkscape:pagecheckerboard="0"
     inkscape:deskcolor="#d1d1d1"
     inkscape:zoom="3.295"
     inkscape:cx="101.36571"
     inkscape:cy="-0.75872534"
     inkscape:window-width="1400"
     inkscape:window-height="864"
     inkscape:window-x="209"
     inkscape:window-y="25"
     inkscape:window-maximized="0"
     inkscape:current-layer="svg1" />
  <path
     style="font-weight:bold;font-size:13.3333px;font-family:BPreplay;-inkscape-font-specification:'BPreplay Bold';letter-spacing:0px;white-space:pre;fill:#ffffff;stroke-width:2.64567;stroke-linecap:square;stroke-opacity:0.988722;paint-order:markers fill stroke"
     d="M 4.5827236,6.268561 C 5.0627223,7.6818908 5.1560554,7.8552237 5.5160545,8.9085544 H 3.622726 Z m 2.1999944,5.999985 c 0.1733329,0.439999 0.5199987,0.679998 1.0266641,0.679998 0.666665,0 1.0399973,-0.439999 1.0399973,-1.039997 0,-0.133333 -0.026667,-0.319999 -2.9733258,-8.3733124 -0.2266661,-0.6266651 -0.6799983,-0.9466643 -1.29333,-0.9466643 -0.6133318,0 -1.066664,0.3199992 -1.2933301,0.9466643 L 0.48940057,11.455215 c -0.0399999,0.133333 -0.0799998,0.293332 -0.0799998,0.439998 0,0.546666 0.29333259,1.053331 1.01333073,1.053331 0.5466653,0 0.933331,-0.293332 1.1333305,-0.879998 0.1199997,-0.319999 0.2266661,-0.653331 0.3599991,-0.999997 H 6.3160525 Z M 8.7560498,6.1885612 c 0,0.5999985 0.399999,0.7866647 0.933331,0.8399979 v 3.1999919 c 0,1.759996 0.4399992,2.82666 2.3466612,2.82666 0.719998,0 1.106663,-0.346666 1.106663,-0.999998 0,-0.666665 -0.386665,-0.999997 -1.106663,-0.999997 -0.253333,0 -0.28,-0.266666 -0.28,-0.826665 V 7.0552257 h 0.599999 c 0.706665,0 1.039997,-0.1866662 1.039997,-0.8533312 0,-0.6933315 -0.359999,-0.8666644 -1.066664,-0.8666644 H 11.756042 V 4.8152314 c 0,-0.666665 -0.346666,-1.0133308 -1.039997,-1.0133308 -0.679998,0 -1.0266642,0.3466658 -1.0266642,1.0133308 v 0.5199987 c -0.5466653,0.066666 -0.933331,0.266666 -0.933331,0.8533311 z M 17.196029,5.108564 c -2.279994,0 -3.466657,1.8399953 -3.466657,3.9066568 0,2.0799952 1.186663,4.0533232 3.466657,4.0533232 2.253328,0 3.466658,-1.866662 3.466658,-3.9733234 0,-2.0533282 -1.199997,-3.9866566 -3.466658,-3.9866566 z m 0,1.8933285 c 0.946665,0 1.359997,1.2399969 1.359997,2.1733279 0,0.9466646 -0.413332,2.0266616 -1.359997,2.0266616 -0.946664,0 -1.359996,-1.3199968 -1.359996,-2.2533277 0,-0.9599976 0.413332,-1.9466618 1.359996,-1.9466618 z m 4.439985,4.9199875 c 0,0.679998 0.333332,1.026664 0.999997,1.026664 0.706665,0 1.039998,-0.346666 1.039998,-1.026664 V 8.2018895 c 0,-0.7866647 0.519998,-1.1866637 1.05333,-1.1866637 0.479999,0 0.986665,0.3866657 0.986665,1.1866637 V 11.92188 c 0,0.679998 0.359999,1.026664 1.026664,1.026664 0.693331,0 1.039997,-0.346666 1.039997,-1.026664 V 7.9752234 c 0.08,-0.6399984 0.559999,-0.9599976 1.039997,-0.9599976 0.479999,0 0.986665,0.3866657 0.986665,1.1866637 V 11.92188 c 0,0.679998 0.359999,1.026664 1.026664,1.026664 0.693331,0 1.039997,-0.346666 1.039997,-1.026664 V 7.8285571 c 0,-1.8533287 -1.106664,-2.6133267 -2.239994,-2.6133267 -0.839998,0 -1.693329,0.4133323 -2.119995,1.1066638 C 27.156,5.508563 26.489335,5.1885638 25.796003,5.1885638 c -0.799998,0 -1.653329,0.4266656 -2.119994,0.9599975 0,-0.4133322 -0.333333,-0.9199976 -1.039998,-0.9199976 -0.666665,0 -0.999997,0.5066654 -0.999997,1.0666639 z m 11.493296,-0.01333 c 0,0.706665 0.359999,1.039997 1.039997,1.039997 0.693332,0 1.039997,-0.333332 1.039997,-1.039997 V 6.3218942 c 0,-0.6933315 -0.373332,-1.026664 -1.05333,-1.026664 -0.666665,0 -1.026664,0.3333325 -1.026664,1.026664 z M 32.942643,3.3085685 c 0,0.666665 0.533332,1.1866637 1.186664,1.1866637 0.679998,0 1.199997,-0.5199987 1.199997,-1.1866637 0,-0.666665 -0.519999,-1.1866636 -1.199997,-1.1866636 -0.653332,0 -1.186664,0.5199986 -1.186664,1.1866636 z m 6.386664,7.9866465 c -1.039998,0 -1.426663,-0.733331 -2.226661,-0.733331 -0.479999,0 -0.959998,0.279999 -0.959998,0.879997 0,0.319999 0.133333,0.653332 0.413333,0.853331 0.746664,0.453333 1.533329,0.773332 2.54666,0.773332 1.453329,0 3.026659,-0.679998 3.026659,-2.439994 0,-2.1999944 -3.799991,-2.4399938 -3.799991,-3.3599915 0,-0.3599991 0.266666,-0.4799988 0.613332,-0.4799988 0.786665,0 1.319997,0.4399989 2.013328,0.4399989 0.599999,0 0.919998,-0.4533322 0.919998,-0.8933311 0,-0.3199992 -0.173333,-0.6533316 -0.533332,-0.8533311 -0.693331,-0.3599991 -1.439996,-0.4666655 -2.133328,-0.4666655 -1.573329,0 -2.946659,0.7333315 -2.946659,2.3733273 0,2.3066608 3.719991,2.359994 3.719991,3.4266578 0,0.346666 -0.28,0.479999 -0.653332,0.479999 z M 44.542623,5.9485618 C 44.32929,5.4285632 44.009291,5.1752305 43.475959,5.1752305 c -0.706665,0 -1.026664,0.3333325 -1.026664,1.0666639 0,0.1599996 0.226666,0.8799978 1.879995,5.8133186 0.2,0.573332 0.599999,0.893331 1.159997,0.893331 0.546665,0 0.973331,-0.306666 1.133331,-0.866664 l 0.97333,-3.3866584 c 0.519999,1.5333294 0.533332,1.8799954 1.026665,3.3599914 0.199999,0.586665 0.559998,0.879998 1.066663,0.879998 0.466666,0 0.879998,-0.266666 1.066664,-0.839998 1.466663,-4.2933225 1.746663,-5.2533201 1.813329,-5.4933195 l -0.01333,0.093333 c 0.06667,-0.1733329 0.09333,-0.3199992 0.09333,-0.4799988 0,-0.7066648 -0.226666,-1.0533306 -0.986664,-1.0533306 -0.533332,0 -0.893331,0.2533327 -1.066664,0.7866646 L 49.70261,9.6418858 C 49.209278,8.1085564 49.275944,7.5618911 48.769279,6.0418949 48.622613,5.4818964 48.022614,5.1885638 47.595948,5.1885638 c -0.466665,0 -0.906664,0.2799993 -1.09333,0.8133312 l -1.013331,3.7599905 z m 9.573313,-0.3999989 c -0.426666,0.1733329 -0.693332,0.4666654 -0.693332,0.8399978 0,0.6799983 0.479999,0.8399979 0.986665,0.8399979 0.479998,0 0.919997,-0.1733329 1.466663,-0.1733329 0.746664,0 1.626662,0.4799988 1.626662,1.2666635 V 8.9752209 C 57.022595,8.6285551 56.31593,8.4285556 55.595932,8.4285556 c -1.706662,0 -2.70666,1.2533301 -2.70666,2.4533274 0,1.106664 0.866665,2.159994 2.386661,2.159994 0.746665,0 1.546663,-0.306666 2.173328,-0.973331 v 0.253333 c 0.04,0.546665 0.613332,0.719998 0.839998,0.719998 0.653331,0 1.039997,-0.493332 1.039997,-1.026664 V 8.0285566 c 0,-2.0399949 -1.679996,-2.8399928 -3.373325,-2.8399928 -0.613331,0 -1.25333,0.1199997 -1.839995,0.3599991 z M 54.9826,10.615217 c 0,-0.426666 0.559999,-0.613332 1.119998,-0.613332 0.533332,0 1.119997,0.199999 1.119997,0.546665 0,0.466666 -0.639999,0.706665 -1.239997,0.706665 -0.493332,0 -0.999998,-0.213333 -0.999998,-0.639998 z m 7.119988,-4.5066556 c -0.16,-0.5999984 -0.506665,-0.9466642 -1.079997,-0.9466642 -0.573332,0 -1.026664,0.3866657 -1.026664,1.0133307 0,0.1066664 0.02667,0.2533327 0.06667,0.3866657 l 1.893329,5.6399854 c 0.173333,0.493332 0.506665,0.746665 1.026664,0.746665 0.546665,0 0.906664,-0.253333 1.079997,-0.746665 l 1.919995,-5.6133188 c 0.06667,-0.133333 0.08,-0.2933326 0.08,-0.4133323 0,-0.6666649 -0.399999,-1.0133307 -0.999998,-1.0133307 -0.506665,0 -0.866664,0.2933326 -1.09333,0.9066643 l -0.919998,3.6399908 z m 7.746653,-1.0399973 c -2.226661,0 -3.453325,1.9333284 -3.453325,3.95999 0,2.1999949 1.306664,4.0666559 3.653325,4.0666559 1.226663,0 2.213327,-0.453332 2.879992,-1.279996 0.173333,-0.186667 0.226666,-0.373333 0.226666,-0.613332 0,-0.613332 -0.333332,-0.879998 -0.759998,-0.879998 -0.706665,0 -1.13333,0.826665 -2.159994,0.826665 -0.573332,0 -1.759996,-0.413333 -1.759996,-1.6133296 h 3.053326 c 1.026664,0 1.653329,0 1.653329,-1.026664 0,-2.0666615 -1.186664,-3.4399913 -3.333325,-3.4399913 z m -1.266663,3.0799922 c 0,-0.8266646 0.679998,-1.2666635 1.29333,-1.2666635 0.586665,0 1.17333,0.4133323 1.17333,1.2666635 z"
     id="text2"
     aria-label="Atomiswave" />
</svg>
