<?xml version="1.0" encoding="UTF-8" standalone="no"?>
<svg
   viewBox="0 0 200 40"
   version="1.1"
   id="svg1"
   sodipodi:docname="auto-lastplayed.svg"
   inkscape:version="1.3.2 (091e20e, 2023-11-25)"
   xmlns:inkscape="http://www.inkscape.org/namespaces/inkscape"
   xmlns:sodipodi="http://sodipodi.sourceforge.net/DTD/sodipodi-0.dtd"
   xmlns="http://www.w3.org/2000/svg"
   xmlns:svg="http://www.w3.org/2000/svg">
  <defs
     id="defs1">
    <rect
       x="0.30349014"
       y="0.60698027"
       width="199.08953"
       height="38.846737"
       id="rect3" />
    <rect
       x="0.60698027"
       y="0.60698027"
       width="198.78604"
       height="39.150228"
       id="rect2" />
    <rect
       x="0.91047041"
       y="0.60698027"
       width="198.17906"
       height="38.846737"
       id="rect1" />
  </defs>
  <sodipodi:namedview
     id="namedview1"
     pagecolor="#020202"
     bordercolor="#000000"
     borderopacity="0.25"
     inkscape:showpageshadow="2"
     inkscape:pageopacity="0.0"
     inkscape:pagecheckerboard="0"
     inkscape:deskcolor="#d1d1d1"
     inkscape:zoom="3.295"
     inkscape:cx="101.36571"
     inkscape:cy="-0.75872534"
     inkscape:window-width="1400"
     inkscape:window-height="864"
     inkscape:window-x="209"
     inkscape:window-y="25"
     inkscape:window-maximized="0"
     inkscape:current-layer="svg1" />
  <path
     style="font-weight:bold;font-size:13.3333px;font-family:BPreplay;-inkscape-font-specification:'BPreplay Bold';letter-spacing:0px;white-space:pre;fill:#ffffff;stroke-width:2.64567;stroke-linecap:square;stroke-opacity:0.988722;paint-order:markers fill stroke"
     d="m 1.1160657,11.628547 c 0,0.866665 0.3999989,1.319997 1.2266635,1.319997 h 4.2533226 c 0.7333315,0 1.0799973,-0.346666 1.0799973,-1.079997 0,-0.693332 -0.3466658,-1.053331 -1.0799973,-1.053331 H 3.2493936 V 3.641901 c 0,-0.7333315 -0.3466658,-1.0799973 -1.0799973,-1.0799973 -0.6933316,0 -1.0533306,0.3466658 -1.0533306,1.0799973 z M 9.1827046,5.5485629 C 8.756039,5.7218958 8.489373,6.0152283 8.489373,6.3885607 c 0,0.6799983 0.4799988,0.8399979 0.9866642,0.8399979 0.4799988,0 0.9199978,-0.1733329 1.4666628,-0.1733329 0.746665,0 1.626663,0.4799988 1.626663,1.2666635 V 8.9752209 C 12.089364,8.6285551 11.382699,8.4285556 10.662701,8.4285556 c -1.7066625,0 -2.70666,1.2533301 -2.70666,2.4533274 0,1.106664 0.8666645,2.159994 2.386661,2.159994 0.746664,0 1.546662,-0.306666 2.173328,-0.973331 v 0.253333 c 0.04,0.546665 0.613331,0.719998 0.839997,0.719998 0.653332,0 1.039998,-0.493332 1.039998,-1.026664 V 8.0285566 c 0,-2.0399949 -1.679996,-2.8399928 -3.373325,-2.8399928 -0.613332,0 -1.2533302,0.1199997 -1.8399954,0.3599991 z m 0.8666644,5.0666541 c 0,-0.426666 0.559999,-0.613332 1.119997,-0.613332 0.533332,0 1.119997,0.199999 1.119997,0.546665 0,0.466666 -0.639998,0.706665 -1.239996,0.706665 -0.493333,0 -0.999998,-0.213333 -0.999998,-0.639998 z m 8.413317,0.679998 c -1.039998,0 -1.426663,-0.733331 -2.226661,-0.733331 -0.479999,0 -0.959998,0.279999 -0.959998,0.879997 0,0.319999 0.133333,0.653332 0.413333,0.853331 0.746664,0.453333 1.533329,0.773332 2.54666,0.773332 1.453329,0 3.026659,-0.679998 3.026659,-2.439994 0,-2.1999944 -3.799991,-2.4399938 -3.799991,-3.3599915 0,-0.3599991 0.266666,-0.4799988 0.613332,-0.4799988 0.786665,0 1.319997,0.4399989 2.013328,0.4399989 0.599999,0 0.919998,-0.4533322 0.919998,-0.8933311 0,-0.3199992 -0.173333,-0.6533316 -0.533332,-0.8533311 -0.693332,-0.3599991 -1.439996,-0.4666655 -2.133328,-0.4666655 -1.573329,0 -2.946659,0.7333315 -2.946659,2.3733273 0,2.3066608 3.719991,2.359994 3.719991,3.4266578 0,0.346666 -0.28,0.479999 -0.653332,0.479999 z m 3.226655,-5.1066538 c 0,0.5999985 0.399999,0.7866647 0.933331,0.8399979 v 3.1999919 c 0,1.759996 0.439999,2.82666 2.346661,2.82666 0.719998,0 1.106664,-0.346666 1.106664,-0.999998 0,-0.666665 -0.386666,-0.999997 -1.106664,-0.999997 -0.253333,0 -0.279999,-0.266666 -0.279999,-0.826665 V 7.0552257 h 0.599998 c 0.706665,0 1.039998,-0.1866662 1.039998,-0.8533312 0,-0.6933315 -0.36,-0.8666644 -1.066664,-0.8666644 H 24.689334 V 4.8152314 c 0,-0.666665 -0.346666,-1.0133308 -1.039998,-1.0133308 -0.679998,0 -1.026664,0.3466658 -1.026664,1.0133308 v 0.5199987 c -0.546665,0.066666 -0.933331,0.266666 -0.933331,0.8533311 z m 8.319982,5.6799858 c 0,0.733331 0.346666,1.079997 1.066664,1.079997 0.706665,0 1.066664,-0.346666 1.066664,-1.079997 V 9.3618866 h 1.853328 c 1.933329,0 3.426658,-1.4533297 3.426658,-3.3733249 0,-2.0266615 -1.466663,-3.4133247 -3.506657,-3.4133247 h -2.78666 c -0.733332,0 -1.119997,0.3466658 -1.119997,1.1066639 z m 3.733324,-7.159982 c 0.973331,0 1.506663,0.4666655 1.506663,1.2666634 0,0.7733314 -0.519999,1.2533302 -1.306664,1.2533302 H 32.142651 V 4.708565 Z m 4.613311,7.199982 c 0,0.706665 0.333332,1.039997 1.039997,1.039997 0.693332,0 1.026664,-0.333332 1.026664,-1.039997 V 3.2019021 c 0,-0.6799983 -0.359999,-1.0533306 -1.039997,-1.0533306 -0.679998,0 -1.026664,0.3733323 -1.026664,1.0533306 z m 4.146643,-6.3599841 c -0.426665,0.1733329 -0.693331,0.4666654 -0.693331,0.8399978 0,0.6799983 0.479999,0.8399979 0.986664,0.8399979 0.479999,0 0.919998,-0.1733329 1.466663,-0.1733329 0.746665,0 1.626662,0.4799988 1.626662,1.2666635 V 8.9752209 C 45.409261,8.6285551 44.702596,8.4285556 43.982598,8.4285556 c -1.706663,0 -2.70666,1.2533301 -2.70666,2.4533274 0,1.106664 0.866664,2.159994 2.38666,2.159994 0.746665,0 1.546663,-0.306666 2.173328,-0.973331 v 0.253333 c 0.04,0.546665 0.613332,0.719998 0.839998,0.719998 0.653332,0 1.039997,-0.493332 1.039997,-1.026664 V 8.0285566 c 0,-2.0399949 -1.679995,-2.8399928 -3.373324,-2.8399928 -0.613332,0 -1.253331,0.1199997 -1.839996,0.3599991 z m 0.866665,5.0666541 c 0,-0.426666 0.559998,-0.613332 1.119997,-0.613332 0.533332,0 1.119997,0.199999 1.119997,0.546665 0,0.466666 -0.639998,0.706665 -1.239997,0.706665 -0.493332,0 -0.999997,-0.213333 -0.999997,-0.639998 z m 6.306651,3.533324 c -0.05333,0.16 -0.08,0.306666 -0.08,0.479999 0,0.666665 0.32,1.013331 0.986665,1.013331 0.519998,0 0.893331,-0.253333 1.09333,-0.786665 l 2.946659,-8.1733127 c 0.06667,-0.1866662 0.06667,-0.3466658 0.06667,-0.4799988 0,-0.6933315 -0.346666,-1.026664 -1.026664,-1.026664 -0.533332,0 -0.893331,0.2533327 -1.066664,0.7733313 -0.346666,1.0533307 -0.719998,3.1733254 -1.066664,4.2133232 L 50.542582,6.0152283 c -0.16,-0.5199986 -0.546666,-0.8266645 -1.079998,-0.8266645 -0.666665,0 -0.999997,0.3199992 -0.999997,1.026664 0,0.1599996 0.02667,0.3066659 0.09333,0.4799988 0.613332,1.8533287 1.199997,3.8266574 1.826662,5.6933194 z M 58.4759,5.0685641 c -2.226661,0 -3.453324,1.9333284 -3.453324,3.95999 0,2.1999949 1.306663,4.0666559 3.653324,4.0666559 1.226663,0 2.213328,-0.453332 2.879993,-1.279996 0.173333,-0.186667 0.226666,-0.373333 0.226666,-0.613332 0,-0.613332 -0.333333,-0.879998 -0.759998,-0.879998 -0.706665,0 -1.133331,0.826665 -2.159995,0.826665 -0.573332,0 -1.759995,-0.413333 -1.759995,-1.6133296 h 3.053325 c 1.026664,0 1.653329,0 1.653329,-1.026664 0,-2.0666615 -1.186663,-3.4399913 -3.333325,-3.4399913 z m -1.266663,3.0799922 c 0,-0.8266646 0.679998,-1.2666635 1.29333,-1.2666635 0.586665,0 1.17333,0.4133323 1.17333,1.2666635 z M 67.169213,6.0952281 C 66.755881,5.4018966 65.969216,5.0818974 65.329218,5.0818974 c -1.45333,0 -2.839993,1.5999959 -2.839993,4.0266565 0,2.3733271 1.41333,3.9866561 2.826659,3.9866561 0.719999,0 1.439997,-0.413332 1.973329,-1.226663 v 0.306666 c 0,0.839998 0.573332,0.946664 0.933331,0.946664 0.679998,0 1.026664,-0.346666 1.026664,-0.986664 V 3.0952357 c 0,-0.6933316 -0.346666,-1.0666639 -1.026664,-1.0666639 -0.679999,0 -1.053331,0.3733323 -1.053331,1.0666639 z m -1.33333,5.0133209 c -0.839998,0 -1.25333,-0.973331 -1.25333,-1.9866618 0,-1.0266641 0.453332,-2.1066614 1.29333,-2.1066614 0.666665,0 1.33333,0.7599981 1.33333,2.0533282 0,1.29333 -0.706665,2.039995 -1.37333,2.039995 z"
     id="text2"
     aria-label="Last Played" />
</svg>
