<?xml version="1.0" encoding="UTF-8" standalone="no"?>
<svg
   viewBox="0 0 200 40"
   version="1.1"
   id="svg1"
   sodipodi:docname="auto-neverplayed.svg"
   inkscape:version="1.3.2 (091e20e, 2023-11-25)"
   xmlns:inkscape="http://www.inkscape.org/namespaces/inkscape"
   xmlns:sodipodi="http://sodipodi.sourceforge.net/DTD/sodipodi-0.dtd"
   xmlns="http://www.w3.org/2000/svg"
   xmlns:svg="http://www.w3.org/2000/svg">
  <defs
     id="defs1">
    <rect
       x="0.30349014"
       y="0.60698027"
       width="199.08953"
       height="38.846737"
       id="rect3" />
    <rect
       x="0.60698027"
       y="0.60698027"
       width="198.78604"
       height="39.150228"
       id="rect2" />
    <rect
       x="0.91047041"
       y="0.60698027"
       width="198.17906"
       height="38.846737"
       id="rect1" />
  </defs>
  <sodipodi:namedview
     id="namedview1"
     pagecolor="#020202"
     bordercolor="#000000"
     borderopacity="0.25"
     inkscape:showpageshadow="2"
     inkscape:pageopacity="0.0"
     inkscape:pagecheckerboard="0"
     inkscape:deskcolor="#d1d1d1"
     inkscape:zoom="3.295"
     inkscape:cx="101.36571"
     inkscape:cy="-0.75872534"
     inkscape:window-width="1400"
     inkscape:window-height="864"
     inkscape:window-x="209"
     inkscape:window-y="25"
     inkscape:window-maximized="0"
     inkscape:current-layer="svg1" />
  <path
     style="font-weight:bold;font-size:13.3333px;font-family:BPreplay;-inkscape-font-specification:'BPreplay Bold';letter-spacing:0px;white-space:pre;fill:#ffffff;stroke-width:2.64567;stroke-linecap:square;stroke-opacity:0.988722;paint-order:markers fill stroke"
     d="m 1.1160657,11.855214 c 0,0.733331 0.3466657,1.09333 1.0666639,1.09333 0.7066649,0 1.066664,-0.359999 1.066664,-1.09333 V 6.8818928 l 3.7066573,5.4399862 c 0.2933326,0.413332 0.6799983,0.626665 1.1199972,0.626665 0.7066648,0 1.0666639,-0.386666 1.0666639,-1.159997 V 3.6552343 c 0,-0.7199982 -0.3466658,-1.0799973 -1.0799972,-1.0799973 -0.6933316,0 -1.0533307,0.3599991 -1.0533307,1.0799973 V 8.7218882 L 3.3427267,3.2685686 C 3.0227275,2.8019031 2.6360618,2.5619037 2.1693963,2.5619037 c -0.6933316,0 -1.0533306,0.3866657 -1.0533306,1.1599971 z M 13.636054,5.0685641 c -2.226661,0 -3.453325,1.9333284 -3.453325,3.95999 0,2.1999949 1.306664,4.0666559 3.653324,4.0666559 1.226664,0 2.213328,-0.453332 2.879993,-1.279996 0.173333,-0.186667 0.226666,-0.373333 0.226666,-0.613332 0,-0.613332 -0.333332,-0.879998 -0.759998,-0.879998 -0.706665,0 -1.13333,0.826665 -2.159995,0.826665 -0.573331,0 -1.759995,-0.413333 -1.759995,-1.6133296 h 3.053326 c 1.026664,0 1.653329,0 1.653329,-1.026664 0,-2.0666615 -1.186664,-3.4399913 -3.333325,-3.4399913 z M 12.36939,8.1485563 c 0,-0.8266646 0.679999,-1.2666635 1.29333,-1.2666635 0.586666,0 1.173331,0.4133323 1.173331,1.2666635 z m 7.079981,-2.0399949 c -0.16,-0.5999984 -0.506666,-0.9466642 -1.079998,-0.9466642 -0.573332,0 -1.026664,0.3866657 -1.026664,1.0133307 0,0.1066664 0.02667,0.2533327 0.06667,0.3866657 l 1.893328,5.6399854 c 0.173333,0.493332 0.506666,0.746665 1.026664,0.746665 0.546666,0 0.906665,-0.253333 1.079998,-0.746665 l 1.919995,-5.6133188 c 0.06667,-0.133333 0.08,-0.2933326 0.08,-0.4133323 0,-0.6666649 -0.399999,-1.0133307 -0.999998,-1.0133307 -0.506665,0 -0.866664,0.2933326 -1.09333,0.9066643 l -0.919998,3.6399908 z m 7.746651,-1.0399973 c -2.226661,0 -3.453325,1.9333284 -3.453325,3.95999 0,2.1999949 1.306664,4.0666559 3.653324,4.0666559 1.226664,0 2.213328,-0.453332 2.879993,-1.279996 0.173333,-0.186667 0.226666,-0.373333 0.226666,-0.613332 0,-0.613332 -0.333332,-0.879998 -0.759998,-0.879998 -0.706665,0 -1.13333,0.826665 -2.159995,0.826665 -0.573331,0 -1.759995,-0.413333 -1.759995,-1.6133296 h 3.053326 c 1.026664,0 1.653329,0 1.653329,-1.026664 0,-2.0666615 -1.186664,-3.4399913 -3.333325,-3.4399913 z m -1.266664,3.0799922 c 0,-0.8266646 0.679999,-1.2666635 1.29333,-1.2666635 0.586666,0 1.173331,0.4133323 1.173331,1.2666635 z m 5.573321,3.7733237 c 0,0.679998 0.346666,1.026664 1.026664,1.026664 0.706665,0 1.026664,-0.346666 1.026664,-1.026664 V 8.2018895 c 0,-0.5866652 0.586665,-0.9999975 1.093331,-0.9999975 0.133333,0 0.213332,0.026667 0.306665,0.04 0.133333,0.026667 0.306666,0.04 0.493333,0.04 0.613331,0 1.05333,-0.4933321 1.05333,-1.0399974 0,-0.5466652 -0.399999,-1.1333304 -1.466663,-1.1333304 -0.559998,0 -1.426663,0.5466653 -1.653329,0.9866641 -0.02667,-0.626665 -0.439999,-0.8799977 -0.853331,-0.8799977 -0.679998,0 -1.026664,0.3466658 -1.026664,1.0666639 z m 8.226672,-0.05333 c 0,0.733331 0.346666,1.079997 1.066664,1.079997 0.706665,0 1.066664,-0.346666 1.066664,-1.079997 V 9.3618866 h 1.853328 c 1.933329,0 3.426658,-1.4533297 3.426658,-3.3733249 0,-2.0266615 -1.466663,-3.4133247 -3.506657,-3.4133247 h -2.78666 c -0.733332,0 -1.119997,0.3466658 -1.119997,1.1066639 z m 3.733324,-7.159982 c 0.97333,0 1.506662,0.4666655 1.506662,1.2666634 0,0.7733314 -0.519998,1.2533302 -1.306663,1.2533302 H 41.862679 V 4.708565 Z m 4.613311,7.199982 c 0,0.706665 0.333332,1.039997 1.039997,1.039997 0.693332,0 1.026664,-0.333332 1.026664,-1.039997 V 3.2019021 c 0,-0.6799983 -0.359999,-1.0533306 -1.039997,-1.0533306 -0.679998,0 -1.026664,0.3733323 -1.026664,1.0533306 z m 4.146643,-6.3599841 c -0.426665,0.1733329 -0.693331,0.4666654 -0.693331,0.8399978 0,0.6799983 0.479998,0.8399979 0.986664,0.8399979 0.479999,0 0.919997,-0.1733329 1.466663,-0.1733329 0.746665,0 1.626662,0.4799988 1.626662,1.2666635 V 8.9752209 C 55.129289,8.6285551 54.422624,8.4285556 53.702625,8.4285556 c -1.706662,0 -2.706659,1.2533301 -2.706659,2.4533274 0,1.106664 0.866664,2.159994 2.38666,2.159994 0.746665,0 1.546663,-0.306666 2.173328,-0.973331 v 0.253333 c 0.04,0.546665 0.613332,0.719998 0.839998,0.719998 0.653332,0 1.039997,-0.493332 1.039997,-1.026664 V 8.0285566 c 0,-2.0399949 -1.679995,-2.8399928 -3.373324,-2.8399928 -0.613332,0 -1.253331,0.1199997 -1.839996,0.3599991 z m 0.866665,5.0666541 c 0,-0.426666 0.559998,-0.613332 1.119997,-0.613332 0.533332,0 1.119997,0.199999 1.119997,0.546665 0,0.466666 -0.639998,0.706665 -1.239997,0.706665 -0.493332,0 -0.999997,-0.213333 -0.999997,-0.639998 z m 6.306647,3.533324 c -0.05333,0.16 -0.08,0.306666 -0.08,0.479999 0,0.666665 0.319999,1.013331 0.986664,1.013331 0.519998,0 0.893331,-0.253333 1.09333,-0.786665 l 2.94666,-8.1733127 c 0.06667,-0.1866662 0.06667,-0.3466658 0.06667,-0.4799988 0,-0.6933315 -0.346666,-1.026664 -1.026664,-1.026664 -0.533332,0 -0.893331,0.2533327 -1.066664,0.7733313 -0.346666,1.0533307 -0.719998,3.1733254 -1.066664,4.2133232 L 60.262606,6.0152283 c -0.16,-0.5199986 -0.546665,-0.8266645 -1.079997,-0.8266645 -0.666665,0 -0.999998,0.3199992 -0.999998,1.026664 0,0.1599996 0.02667,0.3066659 0.09333,0.4799988 0.613332,1.8533287 1.199997,3.8266574 1.826662,5.6933194 z m 8.799987,-9.0799769 c -2.226661,0 -3.453324,1.9333284 -3.453324,3.95999 0,2.1999949 1.306663,4.0666559 3.653324,4.0666559 1.226663,0 2.213328,-0.453332 2.879993,-1.279996 0.173332,-0.186667 0.226666,-0.373333 0.226666,-0.613332 0,-0.613332 -0.333333,-0.879998 -0.759998,-0.879998 -0.706665,0 -1.133331,0.826665 -2.159995,0.826665 -0.573332,0 -1.759996,-0.413333 -1.759996,-1.6133296 h 3.053326 c 1.026664,0 1.653329,0 1.653329,-1.026664 0,-2.0666615 -1.186663,-3.4399913 -3.333325,-3.4399913 z m -1.266663,3.0799922 c 0,-0.8266646 0.679998,-1.2666635 1.29333,-1.2666635 0.586665,0 1.17333,0.4133323 1.17333,1.2666635 z M 76.889241,6.0952281 C 76.475909,5.4018966 75.689244,5.0818974 75.049246,5.0818974 c -1.45333,0 -2.839993,1.5999959 -2.839993,4.0266565 0,2.3733271 1.41333,3.9866561 2.826659,3.9866561 0.719998,0 1.439997,-0.413332 1.973329,-1.226663 v 0.306666 c 0,0.839998 0.573332,0.946664 0.933331,0.946664 0.679998,0 1.026664,-0.346666 1.026664,-0.986664 V 3.0952357 c 0,-0.6933316 -0.346666,-1.0666639 -1.026664,-1.0666639 -0.679999,0 -1.053331,0.3733323 -1.053331,1.0666639 z m -1.33333,5.0133209 c -0.839998,0 -1.25333,-0.973331 -1.25333,-1.9866618 0,-1.0266641 0.453332,-2.1066614 1.29333,-2.1066614 0.666665,0 1.33333,0.7599981 1.33333,2.0533282 0,1.29333 -0.706665,2.039995 -1.37333,2.039995 z"
     id="text2"
     aria-label="Never Played&#10;&#10;&#10;&#10;&#10;&#10;&#10;&#10;" />
</svg>
