<?xml version="1.0" encoding="UTF-8" standalone="no"?>
<svg
   viewBox="0 0 200 40"
   version="1.1"
   id="svg1"
   sodipodi:docname="auto-at2players.svg"
   inkscape:version="1.3.2 (091e20e, 2023-11-25)"
   xmlns:inkscape="http://www.inkscape.org/namespaces/inkscape"
   xmlns:sodipodi="http://sodipodi.sourceforge.net/DTD/sodipodi-0.dtd"
   xmlns="http://www.w3.org/2000/svg"
   xmlns:svg="http://www.w3.org/2000/svg">
  <defs
     id="defs1">
    <rect
       x="0.30349014"
       y="0.60698027"
       width="199.08953"
       height="38.846737"
       id="rect3" />
    <rect
       x="0.60698027"
       y="0.60698027"
       width="198.78604"
       height="39.150228"
       id="rect2" />
    <rect
       x="0.91047041"
       y="0.60698027"
       width="198.17906"
       height="38.846737"
       id="rect1" />
  </defs>
  <sodipodi:namedview
     id="namedview1"
     pagecolor="#020202"
     bordercolor="#000000"
     borderopacity="0.25"
     inkscape:showpageshadow="2"
     inkscape:pageopacity="0.0"
     inkscape:pagecheckerboard="0"
     inkscape:deskcolor="#d1d1d1"
     inkscape:zoom="3.295"
     inkscape:cx="101.36571"
     inkscape:cy="-0.75872534"
     inkscape:window-width="1400"
     inkscape:window-height="864"
     inkscape:window-x="209"
     inkscape:window-y="25"
     inkscape:window-maximized="0"
     inkscape:current-layer="svg1" />
  <path
     style="font-weight:bold;font-size:13.3333px;font-family:BPreplay;-inkscape-font-specification:'BPreplay Bold';letter-spacing:0px;white-space:pre;fill:#ffffff;stroke-width:2.64567;stroke-linecap:square;stroke-opacity:0.988722;paint-order:markers fill stroke"
     d="m 0.75606656,5.7352291 c 0,0.5333319 0.35999914,1.2266635 1.09333054,1.2266635 0.7066649,0 1.0533307,-0.7066649 1.0533307,-1.1733303 0,-0.666665 0.4666655,-0.9866642 0.9466643,-0.9866642 0.4666655,0 0.9466643,0.2933326 0.9466643,0.799998 0,0.3866656 -0.133333,0.7999979 -0.399999,1.1466637 L 1.1560656,11.135215 c -0.18666624,0.253333 -0.29333264,0.533332 -0.29333264,0.786665 0,0.679998 0.39999894,1.026664 1.23999684,1.026664 h 3.9466567 c 0.6799983,0 1.0266641,-0.373332 1.0266641,-1.053331 0,-0.666664 -0.3199992,-1.026664 -1.0133308,-1.026664 H 3.9160586 C 4.8093897,9.6685524 5.1160555,9.2818868 5.98272,8.135223 6.5827185,7.3218917 6.9560509,6.3485608 6.9560509,5.508563 c 0,-1.7066624 -1.5333295,-2.8133263 -3.0666589,-2.8133263 -1.5733294,0 -3.13332544,1.1599971 -3.13332544,3.0399924 z M 11.142718,11.868547 c 0,0.733331 0.346666,1.079997 1.066664,1.079997 0.706665,0 1.066664,-0.346666 1.066664,-1.079997 V 9.3618866 h 1.853329 c 1.933328,0 3.426658,-1.4533297 3.426658,-3.3733249 0,-2.0266615 -1.466663,-3.4133247 -3.506658,-3.4133247 h -2.78666 c -0.733331,0 -1.119997,0.3466658 -1.119997,1.1066639 z m 3.733324,-7.159982 c 0.973331,0 1.506663,0.4666655 1.506663,1.2666634 0,0.7733314 -0.519999,1.2533302 -1.306664,1.2533302 H 13.276046 V 4.708565 Z m 4.61331,7.199982 c 0,0.706665 0.333333,1.039997 1.039998,1.039997 0.693331,0 1.026664,-0.333332 1.026664,-1.039997 V 3.2019021 c 0,-0.6799983 -0.36,-1.0533306 -1.039998,-1.0533306 -0.679998,0 -1.026664,0.3733323 -1.026664,1.0533306 z m 4.146645,-6.3599841 c -0.426665,0.1733329 -0.693331,0.4666654 -0.693331,0.8399978 0,0.6799983 0.479999,0.8399979 0.986664,0.8399979 0.479999,0 0.919998,-0.1733329 1.466663,-0.1733329 0.746665,0 1.626663,0.4799988 1.626663,1.2666635 V 8.9752209 C 26.542657,8.6285551 25.835992,8.4285556 25.115994,8.4285556 c -1.706663,0 -2.70666,1.2533301 -2.70666,2.4533274 0,1.106664 0.866664,2.159994 2.386661,2.159994 0.746664,0 1.546662,-0.306666 2.173327,-0.973331 v 0.253333 c 0.04,0.546665 0.613332,0.719998 0.839998,0.719998 0.653332,0 1.039998,-0.493332 1.039998,-1.026664 V 8.0285566 c 0,-2.0399949 -1.679996,-2.8399928 -3.373325,-2.8399928 -0.613332,0 -1.25333,0.1199997 -1.839996,0.3599991 z m 0.866665,5.0666541 c 0,-0.426666 0.559999,-0.613332 1.119997,-0.613332 0.533332,0 1.119997,0.199999 1.119997,0.546665 0,0.466666 -0.639998,0.706665 -1.239997,0.706665 -0.493332,0 -0.999997,-0.213333 -0.999997,-0.639998 z m 6.306648,3.533324 c -0.05333,0.16 -0.08,0.306666 -0.08,0.479999 0,0.666665 0.319999,1.013331 0.986664,1.013331 0.519999,0 0.893331,-0.253333 1.093331,-0.786665 l 2.946659,-8.1733127 c 0.06667,-0.1866662 0.06667,-0.3466658 0.06667,-0.4799988 0,-0.6933315 -0.346666,-1.026664 -1.026664,-1.026664 -0.533332,0 -0.893331,0.2533327 -1.066664,0.7733313 -0.346666,1.0533307 -0.719998,3.1733254 -1.066664,4.2133232 L 31.675974,6.0152283 c -0.16,-0.5199986 -0.546665,-0.8266645 -1.079997,-0.8266645 -0.666665,0 -0.999998,0.3199992 -0.999998,1.026664 0,0.1599996 0.02667,0.3066659 0.09333,0.4799988 0.613332,1.8533287 1.199997,3.8266574 1.826662,5.6933194 z m 8.799987,-9.0799769 c -2.226661,0 -3.453325,1.9333284 -3.453325,3.95999 0,2.1999949 1.306663,4.0666559 3.653324,4.0666559 1.226664,0 2.213328,-0.453332 2.879993,-1.279996 0.173333,-0.186667 0.226666,-0.373333 0.226666,-0.613332 0,-0.613332 -0.333333,-0.879998 -0.759998,-0.879998 -0.706665,0 -1.133331,0.826665 -2.159995,0.826665 -0.573332,0 -1.759995,-0.413333 -1.759995,-1.6133296 h 3.053325 c 1.026664,0 1.653329,0 1.653329,-1.026664 0,-2.0666615 -1.186663,-3.4399913 -3.333324,-3.4399913 z m -1.266664,3.0799922 c 0,-0.8266646 0.679998,-1.2666635 1.29333,-1.2666635 0.586665,0 1.173331,0.4133323 1.173331,1.2666635 z m 5.573321,3.7733237 c 0,0.679998 0.346665,1.026664 1.026664,1.026664 0.706665,0 1.026664,-0.346666 1.026664,-1.026664 V 8.2018895 c 0,-0.5866652 0.586665,-0.9999975 1.09333,-0.9999975 0.133333,0 0.213333,0.026667 0.306666,0.04 0.133333,0.026667 0.306666,0.04 0.493332,0.04 0.613332,0 1.053331,-0.4933321 1.053331,-1.0399974 0,-0.5466652 -0.399999,-1.1333304 -1.466663,-1.1333304 -0.559999,0 -1.426663,0.5466653 -1.653329,0.9866641 -0.02667,-0.626665 -0.439999,-0.8799977 -0.853331,-0.8799977 -0.679999,0 -1.026664,0.3466658 -1.026664,1.0666639 z m 8.426651,-0.626665 c -1.039997,0 -1.426663,-0.733331 -2.226661,-0.733331 -0.479999,0 -0.959998,0.279999 -0.959998,0.879997 0,0.319999 0.133333,0.653332 0.413333,0.853331 0.746664,0.453333 1.533329,0.773332 2.54666,0.773332 1.453329,0 3.026659,-0.679998 3.026659,-2.439994 0,-2.1999944 -3.799991,-2.4399938 -3.799991,-3.3599915 0,-0.3599991 0.266666,-0.4799988 0.613332,-0.4799988 0.786665,0 1.319997,0.4399989 2.013328,0.4399989 0.599999,0 0.919998,-0.4533322 0.919998,-0.8933311 0,-0.3199992 -0.173333,-0.6533316 -0.533332,-0.8533311 -0.693331,-0.3599991 -1.439996,-0.4666655 -2.133328,-0.4666655 -1.573329,0 -2.946659,0.7333315 -2.946659,2.3733273 0,2.3066608 3.719991,2.359994 3.719991,3.4266578 0,0.346666 -0.28,0.479999 -0.653332,0.479999 z"
     id="text2"
     aria-label="2 Players&#10;&#10;&#10;&#10;&#10;&#10;&#10;&#10;" />
</svg>
