<?xml version="1.0" encoding="UTF-8" standalone="no"?>
<svg
   viewBox="0 0 200 40"
   version="1.1"
   id="svg1"
   sodipodi:docname="cdimono1.svg"
   inkscape:version="1.3.2 (091e20e, 2023-11-25)"
   xmlns:inkscape="http://www.inkscape.org/namespaces/inkscape"
   xmlns:sodipodi="http://sodipodi.sourceforge.net/DTD/sodipodi-0.dtd"
   xmlns="http://www.w3.org/2000/svg"
   xmlns:svg="http://www.w3.org/2000/svg">
  <defs
     id="defs1">
    <rect
       x="0.30349014"
       y="0.60698027"
       width="199.08953"
       height="38.846737"
       id="rect3" />
    <rect
       x="0.60698027"
       y="0.60698027"
       width="198.78604"
       height="39.150228"
       id="rect2" />
    <rect
       x="0.91047041"
       y="0.60698027"
       width="198.17906"
       height="38.846737"
       id="rect1" />
  </defs>
  <sodipodi:namedview
     id="namedview1"
     pagecolor="#020202"
     bordercolor="#000000"
     borderopacity="0.25"
     inkscape:showpageshadow="2"
     inkscape:pageopacity="0.0"
     inkscape:pagecheckerboard="0"
     inkscape:deskcolor="#d1d1d1"
     inkscape:zoom="3.295"
     inkscape:cx="101.36571"
     inkscape:cy="-0.75872534"
     inkscape:window-width="1400"
     inkscape:window-height="864"
     inkscape:window-x="209"
     inkscape:window-y="25"
     inkscape:window-maximized="0"
     inkscape:current-layer="svg1" />
  <path
     style="font-weight:bold;font-size:13.3333px;font-family:BPreplay;-inkscape-font-specification:'BPreplay Bold';letter-spacing:0px;white-space:pre;fill:#ffffff;stroke-width:2.64567;stroke-linecap:square;stroke-opacity:0.988722;paint-order:markers fill stroke"
     d="m 7.1560504,10.228551 c -0.4266656,0.426666 -0.9866642,0.573332 -1.599996,0.573332 -1.7333289,0 -2.62666,-1.5333295 -2.62666,-3.1599921 0,-1.5866627 0.8533312,-3.159992 2.6133267,-3.159992 0.6133318,0 1.2133303,0.2133328 1.6266626,0.6266651 0.1866662,0.1999995 0.5466653,0.3199992 0.8133313,0.3199992 0.5866651,0 1.0533306,-0.4266656 1.0533306,-1.1066639 0,-0.3466658 -0.1466663,-0.6533317 -0.4133323,-0.9066644 C 7.7427156,2.6152369 6.7160515,2.2552378 5.582721,2.2552378 c -3.2533251,0 -4.89332094,2.7466598 -4.89332094,5.4666529 0,2.6933263 1.59999594,5.3733193 4.82665444,5.3733193 1.1599971,0 2.1733279,-0.413332 3.0399924,-1.186663 0.2933325,-0.266666 0.3999989,-0.573332 0.3999989,-0.919998 0,-0.559998 -0.3066659,-1.0799972 -1.0666639,-1.0799972 -0.2799993,0 -0.4933321,0.08 -0.7333315,0.3199992 z m 2.9199866,1.599996 c 0,0.959998 0.279999,1.119997 1.133331,1.119997 h 2.38666 c 2.799993,0 4.546655,-2.533327 4.546655,-5.1333202 0,-2.5866601 -1.453329,-5.2266535 -4.293322,-5.2266535 h -2.439994 c -0.906664,0 -1.33333,0.399999 -1.33333,1.199997 z m 3.639991,-7.1066487 c 1.479996,0 2.226661,1.5199961 2.226661,3.0933255 0,1.5066629 -0.839998,2.9999922 -2.399994,2.9999922 H 12.222698 V 4.7218983 Z m 5.453309,7.1866487 c 0,0.706665 0.359999,1.039997 1.039998,1.039997 0.693331,0 1.039997,-0.333332 1.039997,-1.039997 V 6.3218942 c 0,-0.6933315 -0.373332,-1.026664 -1.053331,-1.026664 -0.666665,0 -1.026664,0.3333325 -1.026664,1.026664 z M 18.982671,3.3085685 c 0,0.666665 0.533332,1.1866637 1.186664,1.1866637 0.679998,0 1.199997,-0.5199987 1.199997,-1.1866637 0,-0.666665 -0.519999,-1.1866636 -1.199997,-1.1866636 -0.653332,0 -1.186664,0.5199986 -1.186664,1.1866636 z"
     id="text2"
     aria-label="CDi" />
</svg>
