<?xml version="1.0" encoding="UTF-8" standalone="no"?>
<svg
   viewBox="0 0 200 40"
   version="1.1"
   id="svg1"
   sodipodi:docname="chip-8.svg"
   inkscape:version="1.3.2 (091e20e, 2023-11-25)"
   xmlns:inkscape="http://www.inkscape.org/namespaces/inkscape"
   xmlns:sodipodi="http://sodipodi.sourceforge.net/DTD/sodipodi-0.dtd"
   xmlns="http://www.w3.org/2000/svg"
   xmlns:svg="http://www.w3.org/2000/svg">
  <defs
     id="defs1">
    <rect
       x="0.30349014"
       y="0.60698027"
       width="199.08953"
       height="38.846737"
       id="rect3" />
    <rect
       x="0.60698027"
       y="0.60698027"
       width="198.78604"
       height="39.150228"
       id="rect2" />
    <rect
       x="0.91047041"
       y="0.60698027"
       width="198.17906"
       height="38.846737"
       id="rect1" />
  </defs>
  <sodipodi:namedview
     id="namedview1"
     pagecolor="#020202"
     bordercolor="#000000"
     borderopacity="0.25"
     inkscape:showpageshadow="2"
     inkscape:pageopacity="0.0"
     inkscape:pagecheckerboard="0"
     inkscape:deskcolor="#d1d1d1"
     inkscape:zoom="3.295"
     inkscape:cx="46.737481"
     inkscape:cy="-2.5796662"
     inkscape:window-width="1400"
     inkscape:window-height="864"
     inkscape:window-x="209"
     inkscape:window-y="25"
     inkscape:window-maximized="0"
     inkscape:current-layer="svg1" />
  <path
     style="font-weight:bold;font-size:13.3333px;font-family:BPreplay;-inkscape-font-specification:'BPreplay Bold';letter-spacing:0px;white-space:pre;fill:#ffffff;stroke-width:2.64567;stroke-linecap:square;stroke-opacity:0.988722;paint-order:markers fill stroke"
     d="m 7.1560504,10.228551 c -0.4266656,0.426666 -0.9866642,0.573332 -1.599996,0.573332 -1.7333289,0 -2.62666,-1.5333295 -2.62666,-3.1599921 0,-1.5866627 0.8533312,-3.159992 2.6133267,-3.159992 0.6133318,0 1.2133303,0.2133328 1.6266626,0.6266651 0.1866662,0.1999995 0.5466653,0.3199992 0.8133313,0.3199992 0.5866651,0 1.0533306,-0.4266656 1.0533306,-1.1066639 0,-0.3466658 -0.1466663,-0.6533317 -0.4133323,-0.9066644 C 7.7427156,2.6152369 6.7160515,2.2552378 5.582721,2.2552378 c -3.2533251,0 -4.89332094,2.7466598 -4.89332094,5.4666529 0,2.6933263 1.59999594,5.3733193 4.82665444,5.3733193 1.1599971,0 2.1733279,-0.413332 3.0399924,-1.186663 0.2933325,-0.266666 0.3999989,-0.573332 0.3999989,-0.919998 0,-0.559998 -0.3066659,-1.0799972 -1.0666639,-1.0799972 -0.2799993,0 -0.4933321,0.08 -0.7333315,0.3199992 z m 2.7599871,1.693329 c 0,0.679998 0.3333325,1.026664 0.9999975,1.026664 0.706665,0 1.039997,-0.346666 1.039997,-1.026664 V 8.2018895 c 0,-0.7866647 0.519999,-1.1866637 1.053331,-1.1866637 0.479999,0 0.986664,0.3866657 0.986664,1.1866637 V 11.92188 c 0,0.679998 0.359999,1.026664 1.026664,1.026664 0.693332,0 1.039998,-0.346666 1.039998,-1.026664 V 7.8285571 c 0,-1.9599951 -1.226664,-2.6399933 -2.253328,-2.6399933 -0.799998,0 -1.386663,0.4266656 -1.853329,0.9599975 V 3.2285687 c 0,-0.6933316 -0.333332,-1.066664 -1.039997,-1.066664 -0.666665,0 -0.9999975,0.3733324 -0.9999975,1.066664 z m 7.3999715,-0.01333 c 0,0.706665 0.359999,1.039997 1.039997,1.039997 0.693331,0 1.039997,-0.333332 1.039997,-1.039997 V 6.3218942 c 0,-0.6933315 -0.373332,-1.026664 -1.05333,-1.026664 -0.666665,0 -1.026664,0.3333325 -1.026664,1.026664 z M 17.129342,3.3085685 c 0,0.666665 0.533332,1.1866637 1.186664,1.1866637 0.679998,0 1.199997,-0.5199987 1.199997,-1.1866637 0,-0.666665 -0.519999,-1.1866636 -1.199997,-1.1866636 -0.653332,0 -1.186664,0.5199986 -1.186664,1.1866636 z m 3.586669,11.2933045 c 0,0.706665 0.333332,1.066664 0.999997,1.066664 0.28,0 0.866665,-0.226666 0.866665,-0.813331 v -2.879993 c 0.346666,0.706665 1.159997,1.106664 1.853329,1.106664 1.479996,0 3.053325,-1.826662 3.053325,-4.013323 0,-2.6133268 -1.399996,-3.9733233 -2.719993,-3.9733233 -0.773331,0 -1.426663,0.2799993 -1.999995,1.0666639 0,-0.6933315 -0.333332,-1.0533306 -1.039997,-1.0533306 -0.693332,0 -1.013331,0.3599991 -1.013331,1.0533306 z m 3.479991,-3.533324 c -0.959997,0 -1.386663,-1.026664 -1.386663,-2.0266616 0,-0.9466643 0.426666,-2.0399949 1.386663,-2.0399949 0.879998,0 1.186664,1.1733304 1.186664,2.0933281 0,0.9333314 -0.306666,1.9733284 -1.186664,1.9733284 z m 5.30664,-3.0533257 c -0.693332,0 -1.106664,0.5199987 -1.106664,1.066664 0,0.7066648 0.373332,1.0266637 1.106664,1.0266637 h 2.439994 c 0.746665,0 1.106664,-0.3199989 1.106664,-1.0266637 0,-0.6933316 -0.359999,-1.066664 -1.106664,-1.066664 z m 8.159979,-5.3599865 c -2.613327,0 -3.519991,3.0799923 -3.519991,5.2533201 0,2.2399941 0.866664,5.1866531 3.546657,5.1866531 2.573327,0 3.493325,-3.079992 3.493325,-5.2133197 0,-2.1866611 -0.853331,-5.2266535 -3.466658,-5.2266535 z m 0.02667,8.3333122 c -0.999997,0 -1.359996,-1.8533285 -1.359996,-3.0666588 0,-1.1199972 0.279999,-3.1333254 1.37333,-3.1333254 0.973331,0 1.319996,1.8933285 1.319996,3.159992 0,1.066664 -0.346665,3.0399922 -1.33333,3.0399922 z m 4.493319,-1.1999969 c 0,1.9066619 1.319997,3.3066579 3.266658,3.3066579 1.813329,0 3.213326,-1.506662 3.213326,-3.2799913 0,-0.9599975 -0.679999,-2.093328 -1.399997,-2.4399938 0.586665,-0.3733324 1.026664,-1.1599971 1.026664,-1.8799952 0,-1.6399959 -1.21333,-2.7866597 -2.853326,-2.7866597 -1.586663,0 -2.919993,1.199997 -2.919993,2.7866597 0,0.7866646 0.399999,1.5866626 1.013331,1.959995 -0.773331,0.4399989 -1.346663,1.3999965 -1.346663,2.3333274 z m 3.266658,-1.2399968 c 0.586666,0 1.026664,0.5466653 1.026664,1.2266635 0,0.6399982 -0.399999,1.1866642 -1.026664,1.1866642 -0.666665,0 -1.079997,-0.546666 -1.079997,-1.2133308 0,-0.6399983 0.426666,-1.1999969 1.079997,-1.1999969 z m -0.04,-2.0666615 c -0.493332,0 -0.759998,-0.4399989 -0.759998,-0.9199976 0,-0.5066654 0.386666,-0.7733314 0.773332,-0.7733314 0.346666,0 0.693331,0.266666 0.693331,0.7733314 0,0.4666654 -0.279999,0.9199976 -0.706665,0.9199976 z"
     id="text2"
     aria-label="Chip-08&#10;&#10;&#10;&#10;&#10;&#10;&#10;&#10;" />
</svg>
