<?xml version="1.0" encoding="UTF-8" standalone="no"?>
<svg
   viewBox="0 0 200 40"
   version="1.1"
   id="svg1"
   sodipodi:docname="coco3.svg"
   inkscape:version="1.3.2 (091e20e, 2023-11-25)"
   xmlns:inkscape="http://www.inkscape.org/namespaces/inkscape"
   xmlns:sodipodi="http://sodipodi.sourceforge.net/DTD/sodipodi-0.dtd"
   xmlns="http://www.w3.org/2000/svg"
   xmlns:svg="http://www.w3.org/2000/svg">
  <defs
     id="defs1">
    <rect
       x="0.30349014"
       y="0.60698027"
       width="199.08953"
       height="38.846737"
       id="rect3" />
    <rect
       x="0.60698027"
       y="0.60698027"
       width="198.78604"
       height="39.150228"
       id="rect2" />
    <rect
       x="0.91047041"
       y="0.60698027"
       width="198.17906"
       height="38.846737"
       id="rect1" />
  </defs>
  <sodipodi:namedview
     id="namedview1"
     pagecolor="#020202"
     bordercolor="#000000"
     borderopacity="0.25"
     inkscape:showpageshadow="2"
     inkscape:pageopacity="0.0"
     inkscape:pagecheckerboard="0"
     inkscape:deskcolor="#d1d1d1"
     inkscape:zoom="3.295"
     inkscape:cx="101.36571"
     inkscape:cy="-0.75872534"
     inkscape:window-width="1400"
     inkscape:window-height="864"
     inkscape:window-x="209"
     inkscape:window-y="25"
     inkscape:window-maximized="0"
     inkscape:current-layer="svg1" />
  <path
     style="font-weight:bold;font-size:13.3333px;font-family:BPreplay;-inkscape-font-specification:'BPreplay Bold';letter-spacing:0px;white-space:pre;fill:#ffffff;stroke-width:2.64567;stroke-linecap:square;stroke-opacity:0.988722;paint-order:markers fill stroke"
     d="m 7.1560504,10.228551 c -0.4266656,0.426666 -0.9866642,0.573332 -1.599996,0.573332 -1.7333289,0 -2.62666,-1.5333295 -2.62666,-3.1599921 0,-1.5866627 0.8533312,-3.159992 2.6133267,-3.159992 0.6133318,0 1.2133303,0.2133328 1.6266626,0.6266651 0.1866662,0.1999995 0.5466653,0.3199992 0.8133313,0.3199992 0.5866651,0 1.0533306,-0.4266656 1.0533306,-1.1066639 0,-0.3466658 -0.1466663,-0.6533317 -0.4133323,-0.9066644 C 7.7427156,2.6152369 6.7160515,2.2552378 5.582721,2.2552378 c -3.2533251,0 -4.89332094,2.7466598 -4.89332094,5.4666529 0,2.6933263 1.59999594,5.3733193 4.82665444,5.3733193 1.1599971,0 2.1733279,-0.413332 3.0399924,-1.186663 0.2933325,-0.266666 0.3999989,-0.573332 0.3999989,-0.919998 0,-0.559998 -0.3066659,-1.0799972 -1.0666639,-1.0799972 -0.2799993,0 -0.4933321,0.08 -0.7333315,0.3199992 z M 13.049363,5.108564 c -2.279994,0 -3.466658,1.8399953 -3.466658,3.9066568 0,2.0799952 1.186664,4.0533232 3.466658,4.0533232 2.253328,0 3.466658,-1.866662 3.466658,-3.9733234 0,-2.0533282 -1.199997,-3.9866566 -3.466658,-3.9866566 z m 0,1.8933285 c 0.946664,0 1.359996,1.2399969 1.359996,2.1733279 0,0.9466646 -0.413332,2.0266616 -1.359996,2.0266616 -0.946664,0 -1.359997,-1.3199968 -1.359997,-2.2533277 0,-0.9599976 0.413333,-1.9466618 1.359997,-1.9466618 z m 10.653303,3.2266585 c -0.426666,0.426666 -0.986664,0.573332 -1.599996,0.573332 -1.733329,0 -2.62666,-1.5333295 -2.62666,-3.1599921 0,-1.5866627 0.853331,-3.159992 2.613327,-3.159992 0.613332,0 1.21333,0.2133328 1.626662,0.6266651 0.186666,0.1999995 0.546666,0.3199992 0.813332,0.3199992 0.586665,0 1.05333,-0.4266656 1.05333,-1.1066639 0,-0.3466658 -0.146666,-0.6533317 -0.413332,-0.9066644 -0.879998,-0.799998 -1.906662,-1.1599971 -3.039992,-1.1599971 -3.253325,0 -4.893321,2.7466598 -4.893321,5.4666529 0,2.6933263 1.599996,5.3733193 4.826654,5.3733193 1.159997,0 2.173328,-0.413332 3.039992,-1.186663 0.293333,-0.266666 0.399999,-0.573332 0.399999,-0.919998 0,-0.559998 -0.306665,-1.0799972 -1.066664,-1.0799972 -0.279999,0 -0.493332,0.08 -0.733331,0.3199992 z m 5.893311,-5.119987 c -2.279995,0 -3.466658,1.8399953 -3.466658,3.9066568 0,2.0799952 1.186663,4.0533232 3.466658,4.0533232 2.253327,0 3.466657,-1.866662 3.466657,-3.9733234 0,-2.0533282 -1.199996,-3.9866566 -3.466657,-3.9866566 z m 0,1.8933285 c 0.946664,0 1.359996,1.2399969 1.359996,2.1733279 0,0.9466646 -0.413332,2.0266616 -1.359996,2.0266616 -0.946665,0 -1.359997,-1.3199968 -1.359997,-2.2533277 0,-0.9599976 0.413332,-1.9466618 1.359997,-1.9466618 z m 7.226647,-4.3466557 c -1.65333,0 -2.853327,1.2266636 -2.853327,2.5066604 0,0.6266651 0.346666,0.9599975 1.106664,0.9599975 0.653332,0 0.813332,-0.5599985 0.826665,-0.7199981 0.01333,-0.1066664 0.08,-0.666665 0.866664,-0.666665 0.533332,0 0.839998,0.3599991 0.839998,0.8799978 0,0.4266655 -0.226666,1.0399973 -0.586665,1.1466637 -0.133333,0.026667 -0.333332,0.026667 -0.386666,0.026667 -0.746664,0 -1.13333,0.2133328 -1.13333,0.8799978 0,0.6399984 0.373332,0.9066644 1.13333,0.9066644 h 0.439999 c 0.599999,0.093333 0.879998,0.7599981 0.879998,1.29333 0,0.7199981 -0.559999,1.0933311 -1.119997,1.0933311 -0.413332,0 -0.773331,-0.253333 -0.999998,-0.773332 -0.186666,-0.4266655 -0.626665,-0.6666649 -0.999997,-0.6666649 -0.519999,0 -0.986664,0.3733324 -0.986664,1.0666639 0,0.399999 0.133333,0.826665 0.386665,1.186664 0.506666,0.693331 1.439997,1.319996 2.613327,1.319996 2.013328,0 3.239992,-1.559996 3.239992,-3.093325 0,-0.9599976 -0.479999,-1.9066619 -1.533329,-2.4799938 0.813331,-0.5199987 1.17333,-1.2933301 1.17333,-2.0799947 0,-1.3866632 -1.146664,-2.7866597 -2.906659,-2.7866597 z"
     id="text2"
     aria-label="CoCo3" />
</svg>
