<?xml version="1.0" encoding="UTF-8" standalone="no"?>
<svg
   viewBox="0 0 200 40"
   version="1.1"
   id="svg1"
   sodipodi:docname="coleco.svg"
   inkscape:version="1.3.2 (091e20e, 2023-11-25)"
   xmlns:inkscape="http://www.inkscape.org/namespaces/inkscape"
   xmlns:sodipodi="http://sodipodi.sourceforge.net/DTD/sodipodi-0.dtd"
   xmlns="http://www.w3.org/2000/svg"
   xmlns:svg="http://www.w3.org/2000/svg">
  <defs
     id="defs1">
    <rect
       x="0.30349014"
       y="0.60698027"
       width="199.08953"
       height="38.846737"
       id="rect3" />
    <rect
       x="0.60698027"
       y="0.60698027"
       width="198.78604"
       height="39.150228"
       id="rect2" />
    <rect
       x="0.91047041"
       y="0.60698027"
       width="198.17906"
       height="38.846737"
       id="rect1" />
  </defs>
  <sodipodi:namedview
     id="namedview1"
     pagecolor="#020202"
     bordercolor="#000000"
     borderopacity="0.25"
     inkscape:showpageshadow="2"
     inkscape:pageopacity="0.0"
     inkscape:pagecheckerboard="0"
     inkscape:deskcolor="#d1d1d1"
     inkscape:zoom="3.295"
     inkscape:cx="101.36571"
     inkscape:cy="-0.75872534"
     inkscape:window-width="1400"
     inkscape:window-height="864"
     inkscape:window-x="209"
     inkscape:window-y="25"
     inkscape:window-maximized="0"
     inkscape:current-layer="svg1" />
  <path
     style="font-weight:bold;font-size:13.3333px;font-family:BPreplay;-inkscape-font-specification:'BPreplay Bold';letter-spacing:0px;white-space:pre;fill:#ffffff;stroke-width:2.64567;stroke-linecap:square;stroke-opacity:0.988722;paint-order:markers fill stroke"
     d="m 7.1560504,10.228551 c -0.4266656,0.426666 -0.9866642,0.573332 -1.599996,0.573332 -1.7333289,0 -2.62666,-1.5333295 -2.62666,-3.1599921 0,-1.5866627 0.8533312,-3.159992 2.6133267,-3.159992 0.6133318,0 1.2133303,0.2133328 1.6266626,0.6266651 0.1866662,0.1999995 0.5466653,0.3199992 0.8133313,0.3199992 0.5866651,0 1.0533306,-0.4266656 1.0533306,-1.1066639 0,-0.3466658 -0.1466663,-0.6533317 -0.4133323,-0.9066644 C 7.7427156,2.6152369 6.7160515,2.2552378 5.582721,2.2552378 c -3.2533251,0 -4.89332094,2.7466598 -4.89332094,5.4666529 0,2.6933263 1.59999594,5.3733193 4.82665444,5.3733193 1.1599971,0 2.1733279,-0.413332 3.0399924,-1.186663 0.2933325,-0.266666 0.3999989,-0.573332 0.3999989,-0.919998 0,-0.559998 -0.3066659,-1.0799972 -1.0666639,-1.0799972 -0.2799993,0 -0.4933321,0.08 -0.7333315,0.3199992 z M 13.049363,5.108564 c -2.279994,0 -3.466658,1.8399953 -3.466658,3.9066568 0,2.0799952 1.186664,4.0533232 3.466658,4.0533232 2.253328,0 3.466658,-1.866662 3.466658,-3.9733234 0,-2.0533282 -1.199997,-3.9866566 -3.466658,-3.9866566 z m 0,1.8933285 c 0.946664,0 1.359996,1.2399969 1.359996,2.1733279 0,0.9466646 -0.413332,2.0266616 -1.359996,2.0266616 -0.946664,0 -1.359997,-1.3199968 -1.359997,-2.2533277 0,-0.9599976 0.413333,-1.9466618 1.359997,-1.9466618 z m 4.466652,4.9066545 c 0,0.706665 0.333332,1.039997 1.039997,1.039997 0.693332,0 1.026664,-0.333332 1.026664,-1.039997 V 3.2019021 c 0,-0.6799983 -0.359999,-1.0533306 -1.039997,-1.0533306 -0.679998,0 -1.026664,0.3733323 -1.026664,1.0533306 z m 6.519971,-6.8399829 c -2.226661,0 -3.453325,1.9333284 -3.453325,3.95999 0,2.1999949 1.306663,4.0666559 3.653324,4.0666559 1.226664,0 2.213328,-0.453332 2.879993,-1.279996 0.173333,-0.186667 0.226666,-0.373333 0.226666,-0.613332 0,-0.613332 -0.333332,-0.879998 -0.759998,-0.879998 -0.706665,0 -1.133331,0.826665 -2.159995,0.826665 -0.573331,0 -1.759995,-0.413333 -1.759995,-1.6133296 h 3.053325 c 1.026665,0 1.65333,0 1.65333,-1.026664 0,-2.0666615 -1.186664,-3.4399913 -3.333325,-3.4399913 z m -1.266664,3.0799922 c 0,-0.8266646 0.679999,-1.2666635 1.29333,-1.2666635 0.586665,0 1.173331,0.4133323 1.173331,1.2666635 z m 8.986645,-0.9999975 c 0.506666,0 1.026665,0.2266661 1.426663,0.2266661 0.586666,0 0.973331,-0.3733324 0.973331,-0.9733309 0,-0.399999 -0.319999,-0.7733313 -0.759998,-0.9733308 C 32.835965,5.1752305 32.2493,5.1218973 31.742634,5.1218973 c -2.013328,0 -3.71999,1.5733293 -3.71999,3.9333234 0,2.2799943 1.639995,4.0133233 3.746657,4.0133233 0.613332,0 1.279997,-0.16 1.906662,-0.573332 0.319999,-0.239999 0.546665,-0.519999 0.546665,-0.919998 0,-0.546665 -0.506666,-0.973331 -0.959998,-0.973331 -0.133333,0 -0.333332,0.04 -0.479998,0.146667 -0.306666,0.213333 -0.679999,0.293332 -0.999998,0.293332 -0.919998,0 -1.679996,-0.853331 -1.679996,-1.9333281 0,-1.1866637 0.719998,-1.9599951 1.653329,-1.9599951 z M 38.155959,5.108564 c -2.279994,0 -3.466658,1.8399953 -3.466658,3.9066568 0,2.0799952 1.186664,4.0533232 3.466658,4.0533232 2.253328,0 3.466658,-1.866662 3.466658,-3.9733234 0,-2.0533282 -1.199997,-3.9866566 -3.466658,-3.9866566 z m 0,1.8933285 c 0.946664,0 1.359996,1.2399969 1.359996,2.1733279 0,0.9466646 -0.413332,2.0266616 -1.359996,2.0266616 -0.946664,0 -1.359997,-1.3199968 -1.359997,-2.2533277 0,-0.9599976 0.413333,-1.9466618 1.359997,-1.9466618 z M 44.07595,6.1085614 c -0.16,-0.5999984 -0.506665,-0.9466642 -1.079997,-0.9466642 -0.573332,0 -1.026664,0.3866657 -1.026664,1.0133307 0,0.1066664 0.02667,0.2533327 0.06667,0.3866657 l 1.893329,5.6399854 c 0.173332,0.493332 0.506665,0.746665 1.026664,0.746665 0.546665,0 0.906664,-0.253333 1.079997,-0.746665 L 47.95594,6.5885602 c 0.06667,-0.133333 0.08,-0.2933326 0.08,-0.4133323 0,-0.6666649 -0.399999,-1.0133307 -0.999998,-1.0133307 -0.506665,0 -0.866664,0.2933326 -1.09333,0.9066643 l -0.919998,3.6399908 z m 4.759983,5.7999856 c 0,0.706665 0.359999,1.039997 1.039997,1.039997 0.693332,0 1.039997,-0.333332 1.039997,-1.039997 V 6.3218942 c 0,-0.6933315 -0.373332,-1.026664 -1.05333,-1.026664 -0.666665,0 -1.026664,0.3333325 -1.026664,1.026664 z M 48.649266,3.3085685 c 0,0.666665 0.533332,1.1866637 1.186664,1.1866637 0.679998,0 1.199997,-0.5199987 1.199997,-1.1866637 0,-0.666665 -0.519999,-1.1866636 -1.199997,-1.1866636 -0.653332,0 -1.186664,0.5199986 -1.186664,1.1866636 z m 6.38666,7.9866465 c -1.039997,0 -1.426663,-0.733331 -2.226661,-0.733331 -0.479999,0 -0.959998,0.279999 -0.959998,0.879997 0,0.319999 0.133333,0.653332 0.413333,0.853331 0.746665,0.453333 1.533329,0.773332 2.54666,0.773332 1.45333,0 3.026659,-0.679998 3.026659,-2.439994 0,-2.1999944 -3.79999,-2.4399938 -3.79999,-3.3599915 0,-0.3599991 0.266666,-0.4799988 0.613331,-0.4799988 0.786665,0 1.319997,0.4399989 2.013329,0.4399989 0.599998,0 0.919997,-0.4533322 0.919997,-0.8933311 0,-0.3199992 -0.173333,-0.6533316 -0.533332,-0.8533311 -0.693331,-0.3599991 -1.439996,-0.4666655 -2.133328,-0.4666655 -1.573329,0 -2.946659,0.7333315 -2.946659,2.3733273 0,2.3066608 3.719991,2.359994 3.719991,3.4266578 0,0.346666 -0.279999,0.479999 -0.653332,0.479999 z m 3.693321,0.613332 c 0,0.706665 0.359999,1.039997 1.039997,1.039997 0.693332,0 1.039998,-0.333332 1.039998,-1.039997 V 6.3218942 c 0,-0.6933315 -0.373333,-1.026664 -1.053331,-1.026664 -0.666665,0 -1.026664,0.3333325 -1.026664,1.026664 z M 58.542581,3.3085685 c 0,0.666665 0.533332,1.1866637 1.186664,1.1866637 0.679998,0 1.199996,-0.5199987 1.199996,-1.1866637 0,-0.666665 -0.519998,-1.1866636 -1.199996,-1.1866636 -0.653332,0 -1.186664,0.5199986 -1.186664,1.1866636 z m 6.706662,1.7999955 c -2.279994,0 -3.466657,1.8399953 -3.466657,3.9066568 0,2.0799952 1.186663,4.0533232 3.466657,4.0533232 2.253328,0 3.466658,-1.866662 3.466658,-3.9733234 0,-2.0533282 -1.199997,-3.9866566 -3.466658,-3.9866566 z m 0,1.8933285 c 0.946665,0 1.359997,1.2399969 1.359997,2.1733279 0,0.9466646 -0.413332,2.0266616 -1.359997,2.0266616 -0.946664,0 -1.359996,-1.3199968 -1.359996,-2.2533277 0,-0.9599976 0.413332,-1.9466618 1.359996,-1.9466618 z m 4.439988,4.9199875 c 0,0.679998 0.333332,1.026664 0.999997,1.026664 0.706665,0 1.039998,-0.346666 1.039998,-1.026664 V 8.2018895 c 0,-0.7866647 0.519998,-1.1866637 1.05333,-1.1866637 0.479999,0 0.986665,0.3866657 0.986665,1.1866637 V 11.92188 c 0,0.679998 0.359999,1.026664 1.026664,1.026664 0.693331,0 1.039997,-0.346666 1.039997,-1.026664 V 7.8285571 c 0,-1.9599951 -1.226664,-2.6399933 -2.253328,-2.6399933 -0.799998,0 -1.386663,0.4266656 -1.853328,0.9599975 0,-0.4133322 -0.333333,-0.9199976 -1.039998,-0.9199976 -0.666665,0 -0.999997,0.5066654 -0.999997,1.0666639 z"
     id="text2"
     aria-label="Colecovision" />
</svg>
