<?xml version="1.0" encoding="UTF-8" standalone="no"?>
<svg
   viewBox="0 0 200 40"
   version="1.1"
   id="svg1"
   sodipodi:docname="cps3.svg"
   inkscape:version="1.3.2 (091e20e, 2023-11-25)"
   xmlns:inkscape="http://www.inkscape.org/namespaces/inkscape"
   xmlns:sodipodi="http://sodipodi.sourceforge.net/DTD/sodipodi-0.dtd"
   xmlns="http://www.w3.org/2000/svg"
   xmlns:svg="http://www.w3.org/2000/svg">
  <defs
     id="defs1">
    <rect
       x="0.30349014"
       y="0.60698027"
       width="199.08953"
       height="38.846737"
       id="rect3" />
    <rect
       x="0.60698027"
       y="0.60698027"
       width="198.78604"
       height="39.150228"
       id="rect2" />
    <rect
       x="0.91047041"
       y="0.60698027"
       width="198.17906"
       height="38.846737"
       id="rect1" />
  </defs>
  <sodipodi:namedview
     id="namedview1"
     pagecolor="#020202"
     bordercolor="#000000"
     borderopacity="0.25"
     inkscape:showpageshadow="2"
     inkscape:pageopacity="0.0"
     inkscape:pagecheckerboard="0"
     inkscape:deskcolor="#d1d1d1"
     inkscape:zoom="3.295"
     inkscape:cx="101.36571"
     inkscape:cy="-0.75872534"
     inkscape:window-width="1400"
     inkscape:window-height="864"
     inkscape:window-x="209"
     inkscape:window-y="25"
     inkscape:window-maximized="0"
     inkscape:current-layer="svg1" />
  <path
     style="font-weight:bold;font-size:13.3333px;font-family:BPreplay;-inkscape-font-specification:'BPreplay Bold';letter-spacing:0px;white-space:pre;fill:#ffffff;stroke-width:2.64567;stroke-linecap:square;stroke-opacity:0.988722;paint-order:markers fill stroke"
     d="m 7.1560504,10.228551 c -0.4266656,0.426666 -0.9866642,0.573332 -1.599996,0.573332 -1.7333289,0 -2.62666,-1.5333295 -2.62666,-3.1599921 0,-1.5866627 0.8533312,-3.159992 2.6133267,-3.159992 0.6133318,0 1.2133303,0.2133328 1.6266626,0.6266651 0.1866662,0.1999995 0.5466653,0.3199992 0.8133313,0.3199992 0.5866651,0 1.0533306,-0.4266656 1.0533306,-1.1066639 0,-0.3466658 -0.1466663,-0.6533317 -0.4133323,-0.9066644 C 7.7427156,2.6152369 6.7160515,2.2552378 5.582721,2.2552378 c -3.2533251,0 -4.89332094,2.7466598 -4.89332094,5.4666529 0,2.6933263 1.59999594,5.3733193 4.82665444,5.3733193 1.1599971,0 2.1733279,-0.413332 3.0399924,-1.186663 0.2933325,-0.266666 0.3999989,-0.573332 0.3999989,-0.919998 0,-0.559998 -0.3066659,-1.0799972 -1.0666639,-1.0799972 -0.2799993,0 -0.4933321,0.08 -0.7333315,0.3199992 z M 10.662702,5.5485629 c -0.426665,0.1733329 -0.6933313,0.4666654 -0.6933313,0.8399978 0,0.6799983 0.4799983,0.8399979 0.9866643,0.8399979 0.479999,0 0.919998,-0.1733329 1.466663,-0.1733329 0.746665,0 1.626662,0.4799988 1.626662,1.2666635 V 8.9752209 C 13.569362,8.6285551 12.862697,8.4285556 12.142699,8.4285556 c -1.706663,0 -2.7066603,1.2533301 -2.7066603,2.4533274 0,1.106664 0.8666643,2.159994 2.3866603,2.159994 0.746665,0 1.546663,-0.306666 2.173328,-0.973331 v 0.253333 c 0.04,0.546665 0.613332,0.719998 0.839998,0.719998 0.653332,0 1.039997,-0.493332 1.039997,-1.026664 V 8.0285566 c 0,-2.0399949 -1.679995,-2.8399928 -3.373324,-2.8399928 -0.613332,0 -1.253331,0.1199997 -1.839996,0.3599991 z m 0.866665,5.0666541 c 0,-0.426666 0.559998,-0.613332 1.119997,-0.613332 0.533332,0 1.119997,0.199999 1.119997,0.546665 0,0.466666 -0.639998,0.706665 -1.239997,0.706665 -0.493332,0 -0.999997,-0.213333 -0.999997,-0.639998 z m 5.613324,3.986656 c 0,0.706665 0.333332,1.066664 0.999997,1.066664 0.279999,0 0.866664,-0.226666 0.866664,-0.813331 v -2.879993 c 0.346666,0.706665 1.159998,1.106664 1.853329,1.106664 1.479996,0 3.053326,-1.826662 3.053326,-4.013323 0,-2.6133268 -1.399997,-3.9733233 -2.719993,-3.9733233 -0.773332,0 -1.426663,0.2799993 -1.999995,1.0666639 0,-0.6933315 -0.333333,-1.0533306 -1.039998,-1.0533306 -0.693331,0 -1.01333,0.3599991 -1.01333,1.0533306 z m 3.479991,-3.533324 c -0.959998,0 -1.386663,-1.026664 -1.386663,-2.0266616 0,-0.9466643 0.426665,-2.0399949 1.386663,-2.0399949 0.879998,0 1.186663,1.1733304 1.186663,2.0933281 0,0.9333314 -0.306665,1.9733284 -1.186663,1.9733284 z m 7.693302,-3.9199902 c 0.506665,0 1.026664,0.2266661 1.426663,0.2266661 0.586665,0 0.973331,-0.3733324 0.973331,-0.9733309 0,-0.399999 -0.319999,-0.7733313 -0.759998,-0.9733308 -0.559999,-0.2533327 -1.146664,-0.3066659 -1.653329,-0.3066659 -2.013328,0 -3.719991,1.5733293 -3.719991,3.9333234 0,2.2799943 1.639996,4.0133233 3.746657,4.0133233 0.613332,0 1.279997,-0.16 1.906662,-0.573332 0.319999,-0.239999 0.546666,-0.519999 0.546666,-0.919998 0,-0.546665 -0.506666,-0.973331 -0.959998,-0.973331 -0.133333,0 -0.333333,0.04 -0.479999,0.146667 -0.306666,0.213333 -0.679998,0.293332 -0.999997,0.293332 -0.919998,0 -1.679996,-0.853331 -1.679996,-1.9333281 0,-1.1866637 0.719998,-1.9599951 1.653329,-1.9599951 z M 34.715976,5.108564 c -2.279995,0 -3.466658,1.8399953 -3.466658,3.9066568 0,2.0799952 1.186663,4.0533232 3.466658,4.0533232 2.253327,0 3.466657,-1.866662 3.466657,-3.9733234 0,-2.0533282 -1.199997,-3.9866566 -3.466657,-3.9866566 z m 0,1.8933285 c 0.946664,0 1.359996,1.2399969 1.359996,2.1733279 0,0.9466646 -0.413332,2.0266616 -1.359996,2.0266616 -0.946665,0 -1.359997,-1.3199968 -1.359997,-2.2533277 0,-0.9599976 0.413332,-1.9466618 1.359997,-1.9466618 z m 4.439983,4.9199875 c 0,0.679998 0.333333,1.026664 0.999998,1.026664 0.706664,0 1.039997,-0.346666 1.039997,-1.026664 V 8.2018895 c 0,-0.7866647 0.519999,-1.1866637 1.053331,-1.1866637 0.479998,0 0.986664,0.3866657 0.986664,1.1866637 V 11.92188 c 0,0.679998 0.359999,1.026664 1.026664,1.026664 0.693331,0 1.039997,-0.346666 1.039997,-1.026664 V 7.9752234 c 0.08,-0.6399984 0.559999,-0.9599976 1.039998,-0.9599976 0.479998,0 0.986664,0.3866657 0.986664,1.1866637 V 11.92188 c 0,0.679998 0.359999,1.026664 1.026664,1.026664 0.693331,0 1.039997,-0.346666 1.039997,-1.026664 V 7.8285571 c 0,-1.8533287 -1.106664,-2.6133267 -2.239994,-2.6133267 -0.839998,0 -1.693329,0.4133323 -2.119995,1.1066638 C 44.675945,5.508563 44.00928,5.1885638 43.315949,5.1885638 c -0.799998,0 -1.65333,0.4266656 -2.119995,0.9599975 0,-0.4133322 -0.333333,-0.9199976 -1.039997,-0.9199976 -0.666665,0 -0.999998,0.5066654 -0.999998,1.0666639 z m 14.426633,-0.05333 c 0,0.733331 0.346665,1.079997 1.066664,1.079997 0.706665,0 1.066664,-0.346666 1.066664,-1.079997 V 9.3618866 h 1.853328 c 1.933329,0 3.426658,-1.4533297 3.426658,-3.3733249 0,-2.0266615 -1.466663,-3.4133247 -3.506658,-3.4133247 h -2.786659 c -0.733332,0 -1.119997,0.3466658 -1.119997,1.1066639 z m 3.733324,-7.159982 c 0.97333,0 1.506662,0.4666655 1.506662,1.2666634 0,0.7733314 -0.519998,1.2533302 -1.306663,1.2533302 H 55.71592 V 4.708565 Z m 4.613311,7.199982 c 0,0.706665 0.333332,1.039997 1.039997,1.039997 0.693332,0 1.026664,-0.333332 1.026664,-1.039997 V 3.2019021 c 0,-0.6799983 -0.359999,-1.0533306 -1.039997,-1.0533306 -0.679998,0 -1.026664,0.3733323 -1.026664,1.0533306 z m 4.146647,-6.3599841 c -0.426666,0.1733329 -0.693332,0.4666654 -0.693332,0.8399978 0,0.6799983 0.479999,0.8399979 0.986665,0.8399979 0.479998,0 0.919997,-0.1733329 1.466663,-0.1733329 0.746664,0 1.626662,0.4799988 1.626662,1.2666635 V 8.9752209 C 68.982533,8.6285551 68.275868,8.4285556 67.55587,8.4285556 c -1.706662,0 -2.70666,1.2533301 -2.70666,2.4533274 0,1.106664 0.866665,2.159994 2.386661,2.159994 0.746665,0 1.546663,-0.306666 2.173328,-0.973331 v 0.253333 c 0.04,0.546665 0.613332,0.719998 0.839998,0.719998 0.653331,0 1.039997,-0.493332 1.039997,-1.026664 V 8.0285566 c 0,-2.0399949 -1.679996,-2.8399928 -3.373325,-2.8399928 -0.613331,0 -1.25333,0.1199997 -1.839995,0.3599991 z m 0.866664,5.0666541 c 0,-0.426666 0.559999,-0.613332 1.119998,-0.613332 0.533332,0 1.119997,0.199999 1.119997,0.546665 0,0.466666 -0.639999,0.706665 -1.239997,0.706665 -0.493332,0 -0.999998,-0.213333 -0.999998,-0.639998 z m 6.306644,3.533324 c -0.05333,0.16 -0.08,0.306666 -0.08,0.479999 0,0.666665 0.319999,1.013331 0.986664,1.013331 0.519998,0 0.893331,-0.253333 1.09333,-0.786665 l 2.946659,-8.1733127 c 0.06667,-0.1866662 0.06667,-0.3466658 0.06667,-0.4799988 0,-0.6933315 -0.346666,-1.026664 -1.026664,-1.026664 -0.533332,0 -0.893331,0.2533327 -1.066664,0.7733313 -0.346666,1.0533307 -0.719998,3.1733254 -1.066664,4.2133232 L 74.115847,6.0152283 c -0.16,-0.5199986 -0.546665,-0.8266645 -1.079997,-0.8266645 -0.666665,0 -0.999998,0.3199992 -0.999998,1.026664 0,0.1599996 0.02667,0.3066659 0.09333,0.4799988 0.613332,1.8533287 1.199997,3.8266574 1.826662,5.6933194 z M 85.515838,4.8818979 c 0.239999,0.1999995 0.506665,0.3333325 0.839998,0.3333325 0.613332,0 1.053331,-0.5733319 1.053331,-1.1199972 0,-0.4133323 -0.213333,-0.7599981 -0.599999,-1.0399974 -0.666665,-0.5066654 -1.479996,-0.7733314 -2.319994,-0.7733314 -1.893329,0 -3.146659,1.5333295 -3.146659,3.0266591 0,1.7999954 1.599996,2.5599935 2.946659,3.1866586 1.066664,0.4933321 1.426664,0.799998 1.426664,1.2533301 0,0.7599978 -0.639999,1.1466638 -1.37333,1.1466638 -0.426666,0 -0.893331,-0.146666 -1.253331,-0.373332 -0.253332,-0.146667 -0.519998,-0.226666 -0.786664,-0.226666 -0.693332,0 -1.039998,0.319999 -1.039998,1.026664 0,0.439998 0.2,0.786664 0.613332,1.05333 0.733332,0.479999 1.559996,0.733332 2.466661,0.733332 2.053328,0 3.63999,-1.279997 3.63999,-3.4399916 0,-1.6399958 -1.146663,-2.3733273 -2.759993,-3.159992 -0.826664,-0.399999 -1.639995,-0.5999985 -1.639995,-1.2533301 0,-0.5866652 0.346665,-0.7599981 0.893331,-0.7599981 0.386665,0 0.719998,0.1466663 1.039997,0.3866657 z m 3.933334,9.2666431 c -0.05333,0.16 -0.08,0.306666 -0.08,0.479999 0,0.666665 0.319999,1.013331 0.986664,1.013331 0.519999,0 0.893331,-0.253333 1.093331,-0.786665 l 2.946659,-8.1733127 c 0.06667,-0.1866662 0.06667,-0.3466658 0.06667,-0.4799988 0,-0.6933315 -0.346665,-1.026664 -1.026664,-1.026664 -0.533332,0 -0.893331,0.2533327 -1.066664,0.7733313 C 92.022498,7.0018925 91.649166,9.1218872 91.3025,10.161885 L 90.315836,6.0152283 C 90.155837,5.4952297 89.769171,5.1885638 89.235839,5.1885638 c -0.666665,0 -0.999998,0.3199992 -0.999998,1.026664 0,0.1599996 0.02667,0.3066659 0.09333,0.4799988 0.613332,1.8533287 1.199997,3.8266574 1.826663,5.6933194 z m 8.559971,-2.853326 c -1.039997,0 -1.426663,-0.733331 -2.226661,-0.733331 -0.479999,0 -0.959997,0.279999 -0.959997,0.879997 0,0.319999 0.133333,0.653332 0.413332,0.853331 0.746665,0.453333 1.533329,0.773332 2.54666,0.773332 1.45333,0 3.026663,-0.679998 3.026663,-2.439994 0,-2.1999944 -3.799994,-2.4399938 -3.799994,-3.3599915 0,-0.3599991 0.266666,-0.4799988 0.613331,-0.4799988 0.786665,0 1.319997,0.4399989 2.013329,0.4399989 0.599994,0 0.919994,-0.4533322 0.919994,-0.8933311 0,-0.3199992 -0.17333,-0.6533316 -0.53333,-0.8533311 -0.69333,-0.3599991 -1.439995,-0.4666655 -2.133327,-0.4666655 -1.573329,0 -2.946659,0.7333315 -2.946659,2.3733273 0,2.3066608 3.719991,2.359994 3.719991,3.4266578 0,0.346666 -0.279999,0.479999 -0.653332,0.479999 z M 101.2358,6.1885612 c 0,0.5999985 0.4,0.7866647 0.93333,0.8399979 v 3.1999919 c 0,1.759996 0.44,2.82666 2.34666,2.82666 0.72,0 1.10667,-0.346666 1.10667,-0.999998 0,-0.666665 -0.38667,-0.999997 -1.10667,-0.999997 -0.25333,0 -0.28,-0.266666 -0.28,-0.826665 V 7.0552257 h 0.6 c 0.70667,0 1.04,-0.1866662 1.04,-0.8533312 0,-0.6933315 -0.36,-0.8666644 -1.06666,-0.8666644 h -0.57334 V 4.8152314 c 0,-0.666665 -0.34666,-1.0133308 -1.03999,-1.0133308 -0.68,0 -1.02667,0.3466658 -1.02667,1.0133308 v 0.5199987 c -0.54666,0.066666 -0.93333,0.266666 -0.93333,0.8533311 z m 8.42665,-1.1199971 c -2.22666,0 -3.45332,1.9333284 -3.45332,3.95999 0,2.1999949 1.30666,4.0666559 3.65332,4.0666559 1.22666,0 2.21333,-0.453332 2.87999,-1.279996 0.17334,-0.186667 0.22667,-0.373333 0.22667,-0.613332 0,-0.613332 -0.33333,-0.879998 -0.76,-0.879998 -0.70666,0 -1.13333,0.826665 -2.15999,0.826665 -0.57334,0 -1.76,-0.413333 -1.76,-1.6133296 h 3.05333 c 1.02666,0 1.65333,0 1.65333,-1.026664 0,-2.0666615 -1.18667,-3.4399913 -3.33333,-3.4399913 z m -1.26666,3.0799922 c 0,-0.8266646 0.68,-1.2666635 1.29333,-1.2666635 0.58666,0 1.17333,0.4133323 1.17333,1.2666635 z m 5.57332,3.7733237 c 0,0.679998 0.33333,1.026664 1,1.026664 0.70666,0 1.03999,-0.346666 1.03999,-1.026664 V 8.2018895 c 0,-0.7866647 0.52,-1.1866637 1.05333,-1.1866637 0.48,0 0.98667,0.3866657 0.98667,1.1866637 V 11.92188 c 0,0.679998 0.36,1.026664 1.02666,1.026664 0.69333,0 1.04,-0.346666 1.04,-1.026664 V 7.9752234 c 0.08,-0.6399984 0.56,-0.9599976 1.04,-0.9599976 0.47999,0 0.98666,0.3866657 0.98666,1.1866637 V 11.92188 c 0,0.679998 0.36,1.026664 1.02666,1.026664 0.69334,0 1.04,-0.346666 1.04,-1.026664 V 7.8285571 c 0,-1.8533287 -1.10666,-2.6133267 -2.23999,-2.6133267 -0.84,0 -1.69333,0.4133323 -2.12,1.1066638 -0.36,-0.8133312 -1.02666,-1.1333304 -1.71999,-1.1333304 -0.8,0 -1.65333,0.4266656 -2.12,0.9599975 0,-0.4133322 -0.33333,-0.9199976 -1.03999,-0.9199976 -0.66667,0 -1,0.5066654 -1,1.0666639 z m 17.03995,-9.2666432 c -1.65333,0 -2.85332,1.2266636 -2.85332,2.5066604 0,0.6266651 0.34666,0.9599975 1.10666,0.9599975 0.65333,0 0.81333,-0.5599985 0.82667,-0.7199981 0.0133,-0.1066664 0.08,-0.666665 0.86666,-0.666665 0.53333,0 0.84,0.3599991 0.84,0.8799978 0,0.4266655 -0.22667,1.0399973 -0.58667,1.1466637 -0.13333,0.026667 -0.33333,0.026667 -0.38666,0.026667 -0.74667,0 -1.13333,0.2133328 -1.13333,0.8799978 0,0.6399984 0.37333,0.9066644 1.13333,0.9066644 h 0.44 c 0.59999,0.093333 0.87999,0.7599981 0.87999,1.29333 0,0.7199981 -0.56,1.0933311 -1.11999,1.0933311 -0.41334,0 -0.77333,-0.253333 -1,-0.773332 -0.18667,-0.4266655 -0.62667,-0.6666649 -1,-0.6666649 -0.52,0 -0.98666,0.3733324 -0.98666,1.0666639 0,0.399999 0.13333,0.826665 0.38666,1.186664 0.50667,0.693331 1.44,1.319996 2.61333,1.319996 2.01333,0 3.23999,-1.559996 3.23999,-3.093325 0,-0.9599976 -0.48,-1.9066619 -1.53333,-2.4799938 0.81333,-0.5199987 1.17333,-1.2933301 1.17333,-2.0799947 0,-1.3866632 -1.14666,-2.7866597 -2.90666,-2.7866597 z"
     id="text2"
     aria-label="Capcom Play System 3" />
</svg>
