<?xml version="1.0" encoding="UTF-8" standalone="no"?>
<svg
   viewBox="0 0 200 40"
   version="1.1"
   id="svg1"
   sodipodi:docname="default.svg"
   inkscape:version="1.3.2 (091e20e, 2023-11-25)"
   xmlns:inkscape="http://www.inkscape.org/namespaces/inkscape"
   xmlns:sodipodi="http://sodipodi.sourceforge.net/DTD/sodipodi-0.dtd"
   xmlns="http://www.w3.org/2000/svg"
   xmlns:svg="http://www.w3.org/2000/svg">
  <defs
     id="defs1">
    <rect
       x="0.30349014"
       y="0.60698027"
       width="199.08953"
       height="38.846737"
       id="rect3" />
    <rect
       x="0.60698027"
       y="0.60698027"
       width="198.78604"
       height="39.150228"
       id="rect2" />
    <rect
       x="0.91047041"
       y="0.60698027"
       width="198.17906"
       height="38.846737"
       id="rect1" />
  </defs>
  <sodipodi:namedview
     id="namedview1"
     pagecolor="#020202"
     bordercolor="#000000"
     borderopacity="0.25"
     inkscape:showpageshadow="2"
     inkscape:pageopacity="0.0"
     inkscape:pagecheckerboard="0"
     inkscape:deskcolor="#d1d1d1"
     inkscape:zoom="3.295"
     inkscape:cx="101.36571"
     inkscape:cy="-0.75872534"
     inkscape:window-width="1400"
     inkscape:window-height="864"
     inkscape:window-x="209"
     inkscape:window-y="25"
     inkscape:window-maximized="0"
     inkscape:current-layer="svg1" />
  <path
     style="font-weight:bold;font-size:13.3333px;font-family:BPreplay;-inkscape-font-specification:'BPreplay Bold';letter-spacing:0px;white-space:pre;fill:#ffffff;stroke-width:2.64567;stroke-linecap:square;stroke-opacity:0.988722;paint-order:markers fill stroke"
     d="m 1.1160657,11.855214 c 0,0.733331 0.3466657,1.09333 1.0666639,1.09333 0.7066649,0 1.066664,-0.359999 1.066664,-1.09333 V 6.8818928 l 3.7066573,5.4399862 c 0.2933326,0.413332 0.6799983,0.626665 1.1199972,0.626665 0.7066648,0 1.0666639,-0.386666 1.0666639,-1.159997 V 3.6552343 c 0,-0.7199982 -0.3466658,-1.0799973 -1.0799972,-1.0799973 -0.6933316,0 -1.0533307,0.3599991 -1.0533307,1.0799973 V 8.7218882 L 3.3427267,3.2685686 C 3.0227275,2.8019031 2.6360618,2.5619037 2.1693963,2.5619037 c -0.6933316,0 -1.0533306,0.3866657 -1.0533306,1.1599971 z M 13.649387,5.108564 c -2.279994,0 -3.466658,1.8399953 -3.466658,3.9066568 0,2.0799952 1.186664,4.0533232 3.466658,4.0533232 2.253328,0 3.466658,-1.866662 3.466658,-3.9733234 0,-2.0533282 -1.199997,-3.9866566 -3.466658,-3.9866566 z m 0,1.8933285 c 0.946664,0 1.359997,1.2399969 1.359997,2.1733279 0,0.9466646 -0.413333,2.0266616 -1.359997,2.0266616 -0.946664,0 -1.359996,-1.3199968 -1.359996,-2.2533277 0,-0.9599976 0.413332,-1.9466618 1.359996,-1.9466618 z m 7.37332,4.6266545 c 0,0.866665 0.399999,1.319997 1.226663,1.319997 h 4.253323 c 0.733331,0 1.079997,-0.346666 1.079997,-1.079997 0,-0.693332 -0.346666,-1.053331 -1.079997,-1.053331 H 23.156035 V 3.641901 c 0,-0.7333315 -0.346666,-1.0799973 -1.079998,-1.0799973 -0.693331,0 -1.05333,0.3466658 -1.05333,1.0799973 z M 31.236012,5.108564 c -2.279994,0 -3.466658,1.8399953 -3.466658,3.9066568 0,2.0799952 1.186664,4.0533232 3.466658,4.0533232 2.253328,0 3.466658,-1.866662 3.466658,-3.9733234 0,-2.0533282 -1.199997,-3.9866566 -3.466658,-3.9866566 z m 0,1.8933285 c 0.946664,0 1.359997,1.2399969 1.359997,2.1733279 0,0.9466646 -0.413333,2.0266616 -1.359997,2.0266616 -0.946664,0 -1.359996,-1.3199968 -1.359996,-2.2533277 0,-0.9599976 0.413332,-1.9466618 1.359996,-1.9466618 z m 9.879972,-1.9066618 c -0.666665,0 -1.026664,0.3599991 -1.053331,0.9999974 -0.413332,-0.6933315 -1.199997,-1.0133307 -1.839995,-1.0133307 -1.45333,0 -2.839993,1.5999959 -2.839993,4.0266565 0,2.3733271 1.41333,3.8533231 2.82666,3.8533231 0.719998,0 1.439996,-0.279999 1.973328,-1.226663 0,1.41333 -0.279999,2.346661 -1.466663,2.346661 -0.373332,0 -0.759998,-0.09333 -1.13333,-0.293333 -0.213333,-0.106666 -0.413333,-0.253333 -0.733332,-0.253333 -0.653332,0 -1.026664,0.519999 -1.026664,1.066664 0,0.346666 0.16,0.706665 0.506665,0.933331 0.733332,0.453332 1.519997,0.679999 2.253328,0.679999 1.919995,0 3.559991,-1.506663 3.559991,-4.293323 V 6.1618946 c 0,-0.6933315 -0.346666,-1.0666639 -1.026664,-1.0666639 z m -2.386661,6.0133183 c -0.839998,0 -1.25333,-0.973331 -1.25333,-1.9866618 0,-1.0266641 0.453332,-2.1066614 1.29333,-2.1066614 0.666665,0 1.33333,0.7599981 1.33333,2.0533282 0,1.29333 -0.706665,2.039995 -1.37333,2.039995 z m 7.879982,-5.999985 c -2.279994,0 -3.466658,1.8399953 -3.466658,3.9066568 0,2.0799952 1.186664,4.0533232 3.466658,4.0533232 2.253328,0 3.466658,-1.866662 3.466658,-3.9733234 0,-2.0533282 -1.199997,-3.9866566 -3.466658,-3.9866566 z m 0,1.8933285 c 0.946664,0 1.359997,1.2399969 1.359997,2.1733279 0,0.9466646 -0.413333,2.0266616 -1.359997,2.0266616 -0.946664,0 -1.359996,-1.3199968 -1.359996,-2.2533277 0,-0.9599976 0.413332,-1.9466618 1.359996,-1.9466618 z M 55.449287,3.108569 c -1.306664,1.4133298 -1.853329,3.2399918 -1.853329,5.0666539 0,1.8533291 0.519999,3.9999901 1.853329,5.3333201 0.239999,0.253332 0.519998,0.333332 0.786664,0.333332 0.546666,0 0.959998,-0.386665 0.959998,-0.959997 0,-0.2 -0.06667,-0.466666 -0.226666,-0.693332 -0.999998,-1.039997 -1.359997,-2.62666 -1.359997,-3.9466566 0,-1.3599966 0.439999,-2.7333264 1.306664,-3.7599905 0.186666,-0.2133328 0.279999,-0.4666655 0.279999,-0.7199982 0,-0.5466653 -0.453332,-0.9733309 -0.973331,-0.9733309 -0.253333,0 -0.479999,0.08 -0.773331,0.3199992 z m 2.719989,8.813311 c 0,0.679998 0.346666,1.026664 1.026664,1.026664 0.706665,0 1.026664,-0.346666 1.026664,-1.026664 V 8.2018895 c 0,-0.5866652 0.586666,-0.9999975 1.093331,-0.9999975 0.133333,0 0.213333,0.026667 0.306666,0.04 0.133333,0.026667 0.306666,0.04 0.493332,0.04 0.613332,0 1.053331,-0.4933321 1.053331,-1.0399974 0,-0.5466652 -0.399999,-1.1333304 -1.466663,-1.1333304 -0.559999,0 -1.426663,0.5466653 -1.65333,0.9866641 -0.02667,-0.626665 -0.439998,-0.8799977 -0.853331,-0.8799977 -0.679998,0 -1.026664,0.3466658 -1.026664,1.0666639 z m 8.559981,-6.8533159 c -2.226661,0 -3.453324,1.9333284 -3.453324,3.95999 0,2.1999949 1.306663,4.0666559 3.653324,4.0666559 1.226663,0 2.213328,-0.453332 2.879993,-1.279996 0.173332,-0.186667 0.226666,-0.373333 0.226666,-0.613332 0,-0.613332 -0.333333,-0.879998 -0.759998,-0.879998 -0.706665,0 -1.133331,0.826665 -2.159995,0.826665 -0.573332,0 -1.759996,-0.413333 -1.759996,-1.6133296 h 3.053326 c 1.026664,0 1.653329,0 1.653329,-1.026664 0,-2.0666615 -1.186663,-3.4399913 -3.333325,-3.4399913 z m -1.266663,3.0799922 c 0,-0.8266646 0.679998,-1.2666635 1.29333,-1.2666635 0.586665,0 1.17333,0.4133323 1.17333,1.2666635 z M 76.475897,5.0952307 c -0.666665,0 -1.026664,0.3599991 -1.053331,0.9999974 -0.413332,-0.6933315 -1.199997,-1.0133307 -1.839995,-1.0133307 -1.45333,0 -2.839993,1.5999959 -2.839993,4.0266565 0,2.3733271 1.41333,3.9866561 2.826659,3.9866561 0.719999,0 1.439997,-0.279999 1.973329,-1.09333 v 2.70666 c 0,0.839998 0.573332,0.946664 0.933331,0.946664 0.679998,0 1.026664,-0.346666 1.026664,-0.986664 V 6.1618946 c 0,-0.6933315 -0.346666,-1.0666639 -1.026664,-1.0666639 z m -2.386661,6.0133183 c -0.839998,0 -1.25333,-0.973331 -1.25333,-1.9866618 0,-1.0266641 0.453332,-2.1066614 1.29333,-2.1066614 0.666665,0 1.33333,0.7599981 1.33333,2.0533282 0,1.29333 -0.706665,2.039995 -1.37333,2.039995 z m 6.719985,-4.7999881 c 0,-0.7066648 -0.319999,-1.026664 -1.026664,-1.026664 -0.679998,0 -1.013331,0.3199992 -1.013331,1.026664 v 3.559991 c 0,2.0133281 1.159997,3.1599921 2.386661,3.1599921 0.733331,0 1.493329,-0.399999 2.053328,-1.146664 v 0.399999 c 0.01333,0.599999 0.426665,0.839998 0.786665,0.839998 0.693331,0 1.026664,-0.346666 1.026664,-0.986664 V 6.268561 c 0,-0.7066648 -0.333333,-1.0533306 -1.026664,-1.0533306 -0.746665,0 -0.986665,0.3866657 -0.986665,1.0533306 v 2.799993 c 0,1.279997 -0.639998,1.973328 -1.266663,1.973328 -0.466666,0 -0.919998,-0.239999 -0.919998,-1.5466624 z m 8.639988,-1.2399968 c -2.226661,0 -3.453325,1.9333284 -3.453325,3.95999 0,2.1999949 1.306664,4.0666559 3.653324,4.0666559 1.226664,0 2.213328,-0.453332 2.879993,-1.279996 0.173333,-0.186667 0.226666,-0.373333 0.226666,-0.613332 0,-0.613332 -0.333332,-0.879998 -0.759998,-0.879998 -0.706665,0 -1.13333,0.826665 -2.159994,0.826665 -0.573332,0 -1.759996,-0.413333 -1.759996,-1.6133296 h 3.053326 c 1.026664,0 1.653329,0 1.653329,-1.026664 0,-2.0666615 -1.186664,-3.4399913 -3.333325,-3.4399913 z m -1.266663,3.0799922 c 0,-0.8266646 0.679998,-1.2666635 1.29333,-1.2666635 0.586665,0 1.17333,0.4133323 1.17333,1.2666635 z m 8.413305,3.1466587 c -1.039997,0 -1.426663,-0.733331 -2.226661,-0.733331 -0.479999,0 -0.959997,0.279999 -0.959997,0.879997 0,0.319999 0.133333,0.653332 0.413332,0.853331 0.746665,0.453333 1.533329,0.773332 2.54666,0.773332 1.45333,0 3.026659,-0.679998 3.026659,-2.439994 0,-2.1999944 -3.79999,-2.4399938 -3.79999,-3.3599915 0,-0.3599991 0.266666,-0.4799988 0.613332,-0.4799988 0.786664,0 1.319996,0.4399989 2.013328,0.4399989 0.599998,0 0.919997,-0.4533322 0.919997,-0.8933311 0,-0.3199992 -0.173332,-0.6533316 -0.533332,-0.8533311 -0.693331,-0.3599991 -1.439996,-0.4666655 -2.133328,-0.4666655 -1.573329,0 -2.946659,0.7333315 -2.946659,2.3733273 0,2.3066608 3.719991,2.359994 3.719991,3.4266578 0,0.346666 -0.279999,0.479999 -0.653332,0.479999 z M 99.82251,6.1885612 c 0,0.5999985 0.4,0.7866647 0.93333,0.8399979 v 3.1999919 c 0,1.759996 0.44,2.82666 2.34666,2.82666 0.72,0 1.10667,-0.346666 1.10667,-0.999998 0,-0.666665 -0.38667,-0.999997 -1.10667,-0.999997 -0.25333,0 -0.28,-0.266666 -0.28,-0.826665 V 7.0552257 h 0.6 c 0.70667,0 1.04,-0.1866662 1.04,-0.8533312 0,-0.6933315 -0.36,-0.8666644 -1.06667,-0.8666644 H 102.8225 V 4.8152314 c 0,-0.666665 -0.34666,-1.0133308 -1.03999,-1.0133308 -0.68,0 -1.02667,0.3466658 -1.02667,1.0133308 v 0.5199987 c -0.54666,0.066666 -0.93333,0.266666 -0.93333,0.8533311 z m 7.67999,0 c 0,0.5999985 0.39999,0.7866647 0.93333,0.8399979 v 3.1999919 c 0,1.759996 0.44,2.82666 2.34666,2.82666 0.72,0 1.10666,-0.346666 1.10666,-0.999998 0,-0.666665 -0.38666,-0.999997 -1.10666,-0.999997 -0.25334,0 -0.28,-0.266666 -0.28,-0.826665 V 7.0552257 h 0.6 c 0.70666,0 1.03999,-0.1866662 1.03999,-0.8533312 0,-0.6933315 -0.36,-0.8666644 -1.06666,-0.8666644 h -0.57333 V 4.8152314 c 0,-0.666665 -0.34667,-1.0133308 -1.04,-1.0133308 -0.68,0 -1.02666,0.3466658 -1.02666,1.0133308 v 0.5199987 c -0.54667,0.066666 -0.93333,0.266666 -0.93333,0.8533311 z m 5.4133,5.7333188 c 0,0.679998 0.33334,1.026664 1,1.026664 0.70667,0 1.04,-0.346666 1.04,-1.026664 V 8.2018895 c 0,-0.7866647 0.52,-1.1866637 1.05333,-1.1866637 0.48,0 0.98666,0.3866657 0.98666,1.1866637 V 11.92188 c 0,0.679998 0.36,1.026664 1.02667,1.026664 0.69333,0 1.03999,-0.346666 1.03999,-1.026664 V 7.8285571 c 0,-1.9599951 -1.22666,-2.6399933 -2.25332,-2.6399933 -0.8,0 -1.38667,0.4266656 -1.85333,0.9599975 V 3.2285687 c 0,-0.6933316 -0.33333,-1.066664 -1.04,-1.066664 -0.66666,0 -1,0.3733324 -1,1.066664 z m 10.54664,-6.8533159 c -2.22666,0 -3.45333,1.9333284 -3.45333,3.95999 0,2.1999949 1.30667,4.0666559 3.65333,4.0666559 1.22666,0 2.21333,-0.453332 2.87999,-1.279996 0.17333,-0.186667 0.22667,-0.373333 0.22667,-0.613332 0,-0.613332 -0.33334,-0.879998 -0.76,-0.879998 -0.70667,0 -1.13333,0.826665 -2.16,0.826665 -0.57333,0 -1.75999,-0.413333 -1.75999,-1.6133296 h 3.05332 c 1.02667,0 1.65333,0 1.65333,-1.026664 0,-2.0666615 -1.18666,-3.4399913 -3.33332,-3.4399913 z m -1.26667,3.0799922 c 0,-0.8266646 0.68,-1.2666635 1.29333,-1.2666635 0.58667,0 1.17334,0.4133323 1.17334,1.2666635 z m 5.57332,3.7733237 c 0,0.679998 0.33333,1.026664 1,1.026664 0.70666,0 1.03999,-0.346666 1.03999,-1.026664 V 8.2018895 c 0,-0.7866647 0.52,-1.1866637 1.05333,-1.1866637 0.48,0 0.98667,0.3866657 0.98667,1.1866637 V 11.92188 c 0,0.679998 0.36,1.026664 1.02666,1.026664 0.69333,0 1.04,-0.346666 1.04,-1.026664 V 7.9752234 c 0.08,-0.6399984 0.56,-0.9599976 1.04,-0.9599976 0.48,0 0.98666,0.3866657 0.98666,1.1866637 V 11.92188 c 0,0.679998 0.36,1.026664 1.02666,1.026664 0.69334,0 1.04,-0.346666 1.04,-1.026664 V 7.8285571 c 0,-1.8533287 -1.10666,-2.6133267 -2.23999,-2.6133267 -0.84,0 -1.69333,0.4133323 -2.12,1.1066638 -0.36,-0.8133312 -1.02666,-1.1333304 -1.71999,-1.1333304 -0.8,0 -1.65333,0.4266656 -2.12,0.9599975 0,-0.4133322 -0.33333,-0.9199976 -1.03999,-0.9199976 -0.66667,0 -1,0.5066654 -1,1.0666639 z m 14.63996,-6.8533159 c -2.22666,0 -3.45333,1.9333284 -3.45333,3.95999 0,2.1999949 1.30667,4.0666559 3.65333,4.0666559 1.22666,0 2.21333,-0.453332 2.87999,-1.279996 0.17333,-0.186667 0.22667,-0.373333 0.22667,-0.613332 0,-0.613332 -0.33334,-0.879998 -0.76,-0.879998 -0.70667,0 -1.13333,0.826665 -2.16,0.826665 -0.57333,0 -1.75999,-0.413333 -1.75999,-1.6133296 h 3.05332 c 1.02667,0 1.65333,0 1.65333,-1.026664 0,-2.0666615 -1.18666,-3.4399913 -3.33332,-3.4399913 z m -1.26667,3.0799922 c 0,-0.8266646 0.68,-1.2666635 1.29333,-1.2666635 0.58667,0 1.17333,0.4133323 1.17333,1.2666635 z M 151.4757,6.3085609 c 0,-0.7066648 -0.32,-1.026664 -1.02666,-1.026664 -0.68,0 -1.01333,0.3199992 -1.01333,1.026664 v 3.559991 c 0,2.0133281 1.15999,3.1599921 2.38666,3.1599921 0.73333,0 1.49333,-0.399999 2.05333,-1.146664 v 0.399999 c 0.0133,0.599999 0.42666,0.839998 0.78666,0.839998 0.69333,0 1.02666,-0.346666 1.02666,-0.986664 V 6.268561 c 0,-0.7066648 -0.33333,-1.0533306 -1.02666,-1.0533306 -0.74666,0 -0.98666,0.3866657 -0.98666,1.0533306 v 2.799993 c 0,1.279997 -0.64,1.973328 -1.26667,1.973328 -0.46666,0 -0.91999,-0.239999 -0.91999,-1.5466624 z m 5.53332,8.2933121 c 0,0.706665 0.33334,1.066664 1,1.066664 0.28,0 0.86667,-0.226666 0.86667,-0.813331 v -2.879993 c 0.34666,0.706665 1.15999,1.106664 1.85332,1.106664 1.48,0 3.05333,-1.826662 3.05333,-4.013323 0,-2.6133268 -1.4,-3.9733233 -2.71999,-3.9733233 -0.77333,0 -1.42667,0.2799993 -2,1.0666639 0,-0.6933315 -0.33333,-1.0533306 -1.04,-1.0533306 -0.69333,0 -1.01333,0.3599991 -1.01333,1.0533306 z m 3.47999,-3.533324 c -0.95999,0 -1.38666,-1.026664 -1.38666,-2.0266616 0,-0.9466643 0.42667,-2.0399949 1.38666,-2.0399949 0.88,0 1.18667,1.1733304 1.18667,2.0933281 0,0.9333314 -0.30667,1.9733284 -1.18667,1.9733284 z m 8.66664,-4.9733209 c -0.41333,-0.6933315 -1.2,-1.0133307 -1.83999,-1.0133307 -1.45333,0 -2.84,1.5999959 -2.84,4.0266565 0,2.3733271 1.41333,3.9866561 2.82666,3.9866561 0.72,0 1.44,-0.413332 1.97333,-1.226663 v 0.306666 c 0,0.839998 0.57333,0.946664 0.93333,0.946664 0.68,0 1.02667,-0.346666 1.02667,-0.986664 V 3.0952357 c 0,-0.6933316 -0.34667,-1.0666639 -1.02667,-1.0666639 -0.68,0 -1.05333,0.3733323 -1.05333,1.0666639 z m -1.33333,5.0133209 c -0.84,0 -1.25333,-0.973331 -1.25333,-1.9866618 0,-1.0266641 0.45333,-2.1066614 1.29333,-2.1066614 0.66667,0 1.33333,0.7599981 1.33333,2.0533282 0,1.29333 -0.70666,2.039995 -1.37333,2.039995 z m 5.49332,-5.5599861 c -0.42666,0.1733329 -0.69333,0.4666654 -0.69333,0.8399978 0,0.6799983 0.48,0.8399979 0.98667,0.8399979 0.47999,0 0.91999,-0.1733329 1.46666,-0.1733329 0.74666,0 1.62666,0.4799988 1.62666,1.2666635 v 0.6533317 c -0.48,-0.3466658 -1.18666,-0.5466653 -1.90666,-0.5466653 -1.70666,0 -2.70666,1.2533301 -2.70666,2.4533274 0,1.106664 0.86666,2.159994 2.38666,2.159994 0.74666,0 1.54666,-0.306666 2.17333,-0.973331 v 0.253333 c 0.04,0.546665 0.61333,0.719998 0.84,0.719998 0.65333,0 1.03999,-0.493332 1.03999,-1.026664 V 8.0285566 c 0,-2.0399949 -1.67999,-2.8399928 -3.37332,-2.8399928 -0.61333,0 -1.25333,0.1199997 -1.84,0.3599991 z m 0.86667,5.0666541 c 0,-0.426666 0.56,-0.613332 1.11999,-0.613332 0.53334,0 1.12,0.199999 1.12,0.546665 0,0.466666 -0.64,0.706665 -1.24,0.706665 -0.49333,0 -0.99999,-0.213333 -0.99999,-0.639998 z m 4.97332,-4.4266558 c 0,0.5999985 0.4,0.7866647 0.93333,0.8399979 v 3.1999919 c 0,1.759996 0.44,2.82666 2.34666,2.82666 0.72,0 1.10667,-0.346666 1.10667,-0.999998 0,-0.666665 -0.38667,-0.999997 -1.10667,-0.999997 -0.25333,0 -0.27999,-0.266666 -0.27999,-0.826665 V 7.0552257 h 0.59999 c 0.70667,0 1.04,-0.1866662 1.04,-0.8533312 0,-0.6933315 -0.36,-0.8666644 -1.06666,-0.8666644 h -0.57333 V 4.8152314 c 0,-0.666665 -0.34667,-1.0133308 -1.04,-1.0133308 -0.68,0 -1.02667,0.3466658 -1.02667,1.0133308 v 0.5199987 c -0.54666,0.066666 -0.93333,0.266666 -0.93333,0.8533311 z m 8.42665,-1.1199971 c -2.22666,0 -3.45332,1.9333284 -3.45332,3.95999 0,2.1999949 1.30666,4.0666559 3.65332,4.0666559 1.22666,0 2.21333,-0.453332 2.87999,-1.279996 0.17334,-0.186667 0.22667,-0.373333 0.22667,-0.613332 0,-0.613332 -0.33333,-0.879998 -0.76,-0.879998 -0.70666,0 -1.13333,0.826665 -2.15999,0.826665 -0.57334,0 -1.76,-0.413333 -1.76,-1.6133296 h 3.05333 c 1.02666,0 1.65333,0 1.65333,-1.026664 0,-2.0666615 -1.18667,-3.4399913 -3.33333,-3.4399913 z m -1.26666,3.0799922 c 0,-0.8266646 0.68,-1.2666635 1.29333,-1.2666635 0.58666,0 1.17333,0.4133323 1.17333,1.2666635 z m 6.95997,-5.0933205 c -0.22666,-0.1866662 -0.44,-0.266666 -0.69333,-0.266666 -0.53333,0 -1,0.4266656 -1,0.9733309 0,0.2399994 0.10667,0.4933321 0.29334,0.7199982 0.86666,1.0266641 1.29333,2.3999939 1.29333,3.7599905 0,1.3199966 -0.33334,2.9066596 -1.36,3.9466566 -0.16,0.226666 -0.22667,0.493332 -0.22667,0.693332 0,0.573332 0.44,0.959997 0.98667,0.959997 0.26666,0 0.53333,-0.08 0.77333,-0.333332 1.33333,-1.33333 1.84,-3.479991 1.84,-5.3333201 0,-1.8266621 -0.54667,-3.6533241 -1.90667,-5.1199871 z"
     id="text2"
     aria-label="No Logo (request theme update)&#10;&#10;&#10;&#10;&#10;&#10;&#10;" />
</svg>
