<?xml version="1.0" encoding="UTF-8" standalone="no"?>
<svg
   viewBox="0 0 200 40"
   version="1.1"
   id="svg1"
   sodipodi:docname="enterprise.svg"
   inkscape:version="1.3.2 (091e20e, 2023-11-25)"
   xmlns:inkscape="http://www.inkscape.org/namespaces/inkscape"
   xmlns:sodipodi="http://sodipodi.sourceforge.net/DTD/sodipodi-0.dtd"
   xmlns="http://www.w3.org/2000/svg"
   xmlns:svg="http://www.w3.org/2000/svg">
  <defs
     id="defs1">
    <rect
       x="0.30349014"
       y="0.60698027"
       width="199.08953"
       height="38.846737"
       id="rect3" />
    <rect
       x="0.60698027"
       y="0.60698027"
       width="198.78604"
       height="39.150228"
       id="rect2" />
    <rect
       x="0.91047041"
       y="0.60698027"
       width="198.17906"
       height="38.846737"
       id="rect1" />
  </defs>
  <sodipodi:namedview
     id="namedview1"
     pagecolor="#020202"
     bordercolor="#000000"
     borderopacity="0.25"
     inkscape:showpageshadow="2"
     inkscape:pageopacity="0.0"
     inkscape:pagecheckerboard="0"
     inkscape:deskcolor="#d1d1d1"
     inkscape:zoom="3.295"
     inkscape:cx="101.36571"
     inkscape:cy="-0.75872534"
     inkscape:window-width="1400"
     inkscape:window-height="864"
     inkscape:window-x="209"
     inkscape:window-y="25"
     inkscape:window-maximized="0"
     inkscape:current-layer="svg1" />
  <path
     style="font-weight:bold;font-size:13.3333px;font-family:BPreplay;-inkscape-font-specification:'BPreplay Bold';letter-spacing:0px;white-space:pre;fill:#ffffff;stroke-width:2.64567;stroke-linecap:square;stroke-opacity:0.988722;paint-order:markers fill stroke"
     d="m 1.129399,11.775214 c 0,0.933331 0.1333329,1.17333 1.1199971,1.17333 h 3.8533236 c 0.7733314,0 1.1466638,-0.359999 1.1466638,-1.066664 0,-0.719998 -0.3733324,-1.066664 -1.1466638,-1.066664 H 3.2627269 V 8.6552217 h 2.1466612 c 0.7199982,0 1.066664,-0.3599991 1.066664,-1.0533307 0,-0.7199982 -0.3466658,-1.0799973 -1.066664,-1.0799973 H 3.2627269 V 4.7218983 h 2.7466597 c 0.7199982,0 1.066664,-0.3599991 1.066664,-1.066664 0,-0.7333315 -0.3466658,-1.066664 -1.066664,-1.066664 H 2.2493961 c -0.7333315,0 -1.1199971,0.3866657 -1.1199971,1.1599971 z m 6.9466469,0.146666 c 0,0.679998 0.3333325,1.026664 0.9999975,1.026664 0.7066649,0 1.0399976,-0.346666 1.0399976,-1.026664 V 8.2018895 c 0,-0.7866647 0.519998,-1.1866637 1.05333,-1.1866637 0.479999,0 0.986665,0.3866657 0.986665,1.1866637 V 11.92188 c 0,0.679998 0.359999,1.026664 1.026664,1.026664 0.693331,0 1.039997,-0.346666 1.039997,-1.026664 V 7.8285571 c 0,-1.9599951 -1.226663,-2.6399933 -2.253328,-2.6399933 -0.799998,0 -1.386663,0.4266656 -1.853328,0.9599975 0,-0.4133322 -0.3333327,-0.9199976 -1.0399976,-0.9199976 -0.666665,0 -0.9999975,0.5066654 -0.9999975,1.0666639 z M 14.916033,6.1885612 c 0,0.5999985 0.399999,0.7866647 0.933331,0.8399979 v 3.1999919 c 0,1.759996 0.439999,2.82666 2.346661,2.82666 0.719998,0 1.106664,-0.346666 1.106664,-0.999998 0,-0.666665 -0.386666,-0.999997 -1.106664,-0.999997 -0.253333,0 -0.279999,-0.266666 -0.279999,-0.826665 V 7.0552257 h 0.599998 c 0.706665,0 1.039998,-0.1866662 1.039998,-0.8533312 0,-0.6933315 -0.359999,-0.8666644 -1.066664,-0.8666644 H 17.916026 V 4.8152314 c 0,-0.666665 -0.346666,-1.0133308 -1.039997,-1.0133308 -0.679999,0 -1.026665,0.3466658 -1.026665,1.0133308 v 0.5199987 c -0.546665,0.066666 -0.933331,0.266666 -0.933331,0.8533311 z M 23.34268,5.0685641 c -2.226661,0 -3.453325,1.9333284 -3.453325,3.95999 0,2.1999949 1.306663,4.0666559 3.653324,4.0666559 1.226664,0 2.213328,-0.453332 2.879993,-1.279996 0.173333,-0.186667 0.226666,-0.373333 0.226666,-0.613332 0,-0.613332 -0.333332,-0.879998 -0.759998,-0.879998 -0.706665,0 -1.13333,0.826665 -2.159995,0.826665 -0.573331,0 -1.759995,-0.413333 -1.759995,-1.6133296 h 3.053325 c 1.026665,0 1.65333,0 1.65333,-1.026664 0,-2.0666615 -1.186664,-3.4399913 -3.333325,-3.4399913 z m -1.266664,3.0799922 c 0,-0.8266646 0.679999,-1.2666635 1.29333,-1.2666635 0.586666,0 1.173331,0.4133323 1.173331,1.2666635 z m 5.573319,3.7733237 c 0,0.679998 0.346666,1.026664 1.026664,1.026664 0.706665,0 1.026664,-0.346666 1.026664,-1.026664 V 8.2018895 c 0,-0.5866652 0.586665,-0.9999975 1.093331,-0.9999975 0.133333,0 0.213332,0.026667 0.306665,0.04 0.133333,0.026667 0.306666,0.04 0.493333,0.04 0.613331,0 1.05333,-0.4933321 1.05333,-1.0399974 0,-0.5466652 -0.399999,-1.1333304 -1.466663,-1.1333304 -0.559998,0 -1.426663,0.5466653 -1.653329,0.9866641 -0.02667,-0.626665 -0.439999,-0.8799977 -0.853331,-0.8799977 -0.679998,0 -1.026664,0.3466658 -1.026664,1.0666639 z m 5.62666,2.679993 c 0,0.706665 0.333333,1.066664 0.999998,1.066664 0.279999,0 0.866664,-0.226666 0.866664,-0.813331 v -2.879993 c 0.346666,0.706665 1.159997,1.106664 1.853329,1.106664 1.479996,0 3.053325,-1.826662 3.053325,-4.013323 0,-2.6133268 -1.399996,-3.9733233 -2.719993,-3.9733233 -0.773331,0 -1.426663,0.2799993 -1.999995,1.0666639 0,-0.6933315 -0.333332,-1.0533306 -1.039997,-1.0533306 -0.693332,0 -1.013331,0.3599991 -1.013331,1.0533306 z m 3.479991,-3.533324 c -0.959997,0 -1.386663,-1.026664 -1.386663,-2.0266616 0,-0.9466643 0.426666,-2.0399949 1.386663,-2.0399949 0.879998,0 1.186664,1.1733304 1.186664,2.0933281 0,0.9333314 -0.306666,1.9733284 -1.186664,1.9733284 z m 4.279978,0.853331 c 0,0.679998 0.346666,1.026664 1.026664,1.026664 0.706665,0 1.026664,-0.346666 1.026664,-1.026664 V 8.2018895 c 0,-0.5866652 0.586665,-0.9999975 1.093331,-0.9999975 0.133333,0 0.213332,0.026667 0.306666,0.04 0.133333,0.026667 0.306665,0.04 0.493332,0.04 0.613331,0 1.05333,-0.4933321 1.05333,-1.0399974 0,-0.5466652 -0.399999,-1.1333304 -1.466663,-1.1333304 -0.559998,0 -1.426663,0.5466653 -1.653329,0.9866641 -0.02667,-0.626665 -0.439999,-0.8799977 -0.853331,-0.8799977 -0.679998,0 -1.026664,0.3466658 -1.026664,1.0666639 z m 5.586662,-0.01333 c 0,0.706665 0.359999,1.039997 1.039998,1.039997 0.693331,0 1.039997,-0.333332 1.039997,-1.039997 V 6.3218942 c 0,-0.6933315 -0.373332,-1.026664 -1.053331,-1.026664 -0.666665,0 -1.026664,0.3333325 -1.026664,1.026664 z M 46.43596,3.3085685 c 0,0.666665 0.533332,1.1866637 1.186664,1.1866637 0.679998,0 1.199997,-0.5199987 1.199997,-1.1866637 0,-0.666665 -0.519999,-1.1866636 -1.199997,-1.1866636 -0.653332,0 -1.186664,0.5199986 -1.186664,1.1866636 z m 6.38666,7.9866465 c -1.039998,0 -1.426663,-0.733331 -2.226661,-0.733331 -0.479999,0 -0.959998,0.279999 -0.959998,0.879997 0,0.319999 0.133333,0.653332 0.413332,0.853331 0.746665,0.453333 1.53333,0.773332 2.546661,0.773332 1.453329,0 3.026659,-0.679998 3.026659,-2.439994 0,-2.1999944 -3.799991,-2.4399938 -3.799991,-3.3599915 0,-0.3599991 0.266666,-0.4799988 0.613332,-0.4799988 0.786665,0 1.319997,0.4399989 2.013328,0.4399989 0.599999,0 0.919998,-0.4533322 0.919998,-0.8933311 0,-0.3199992 -0.173333,-0.6533316 -0.533332,-0.8533311 -0.693332,-0.3599991 -1.439996,-0.4666655 -2.133328,-0.4666655 -1.573329,0 -2.946659,0.7333315 -2.946659,2.3733273 0,2.3066608 3.71999,2.359994 3.71999,3.4266578 0,0.346666 -0.279999,0.479999 -0.653331,0.479999 z m 6.839979,-6.2266509 c -2.226661,0 -3.453324,1.9333284 -3.453324,3.95999 0,2.1999949 1.306663,4.0666559 3.653324,4.0666559 1.226663,0 2.213328,-0.453332 2.879993,-1.279996 0.173332,-0.186667 0.226666,-0.373333 0.226666,-0.613332 0,-0.613332 -0.333333,-0.879998 -0.759998,-0.879998 -0.706665,0 -1.133331,0.826665 -2.159995,0.826665 -0.573332,0 -1.759996,-0.413333 -1.759996,-1.6133296 h 3.053326 c 1.026664,0 1.653329,0 1.653329,-1.026664 0,-2.0666615 -1.186663,-3.4399913 -3.333325,-3.4399913 z m -1.266663,3.0799922 c 0,-0.8266646 0.679998,-1.2666635 1.29333,-1.2666635 0.586665,0 1.17333,0.4133323 1.17333,1.2666635 z M 71.329251,4.7352316 c 0.226666,-0.2266661 0.319999,-0.4533322 0.319999,-0.7199982 0,-0.6799983 -0.493332,-1.066664 -1.093331,-1.066664 -0.279999,0 -0.559998,0.133333 -0.799998,0.3199992 -1.599996,1.4933296 -3.186658,3.6399908 -3.186658,6.0533181 0,1.9466613 1.119997,3.7733233 3.279991,3.7733233 2.026662,0 3.319992,-1.719995 3.319992,-3.5999904 0,-1.466663 -0.839998,-2.933326 -2.54666,-2.933326 -0.346666,0 -0.706665,0 -1.079997,0.1999995 0.386665,-0.8799978 1.17333,-1.4799962 1.786662,-2.0266615 z m -2.653327,4.7733212 c 0,-0.6666649 0.359999,-1.3466632 1.146664,-1.3466632 0.866664,0 1.25333,0.6799983 1.25333,1.3599965 0,0.7333319 -0.439999,1.4399969 -1.226664,1.5066629 -0.759998,-0.02667 -1.17333,-0.773331 -1.17333,-1.5199962 z m 8.986637,2.2933272 c 0,0.759998 0.399999,1.146664 1.05333,1.146664 0.693332,0 1.066664,-0.386666 1.066664,-1.146664 v -1.106663 c 0.653332,0 0.986664,-0.346666 0.986664,-1.0133313 0,-0.7066648 -0.333332,-1.0533306 -0.999997,-1.0533306 V 4.4152324 c 0,-0.9199977 -0.599999,-1.466663 -1.359997,-1.466663 -0.599998,0 -1.066664,0.2933326 -1.413329,0.8533312 L 73.90257,8.7885547 c -0.186666,0.2533327 -0.253333,0.533332 -0.253333,0.7733313 0,0.613332 0.413333,1.146664 1.213331,1.146664 h 2.799993 z m 0,-5.3199862 v 2.1466613 h -1.239997 z m 3.946661,5.2399872 c -0.05333,0.119999 -0.08,0.279999 -0.08,0.413332 0,0.613332 0.426666,0.999997 0.906664,0.999997 0.519999,0 0.866665,-0.359999 0.919998,-0.559998 l 3.319992,-8.3466458 c 0.06667,-0.1733329 0.106666,-0.3466658 0.106666,-0.5466653 0,-0.5199987 -0.373332,-0.9733309 -0.946664,-0.9733309 -0.453332,0 -0.813332,0.2399994 -1.026664,0.7333315 z m 7.426636,0.119999 c 0,0.639999 0.426666,1.106664 1.079997,1.106664 0.639999,0 1.066664,-0.466665 1.066664,-1.106664 V 4.3885658 c 0,-0.4266656 -0.04,-0.7199982 -0.106666,-0.8133313 -0.12,-0.3199992 -0.439999,-0.6266651 -0.933331,-0.6266651 l -1.959995,0.533332 c -0.613332,0.1733329 -0.879998,0.6266651 -0.879998,1.066664 0,0.5866652 0.466666,0.9866642 1.013331,0.9866642 0.239999,0 0.479999,-0.066667 0.719998,-0.1599996 z m 3.359994,-6.1066509 c 0,0.5333319 0.359999,1.2266635 1.093331,1.2266635 0.706665,0 1.053331,-0.7066649 1.053331,-1.1733303 0,-0.666665 0.466665,-0.9866642 0.946664,-0.9866642 0.466665,0 0.946664,0.2933326 0.946664,0.799998 0,0.3866656 -0.133333,0.7999979 -0.399999,1.1466637 l -3.239992,4.3866552 c -0.186666,0.253333 -0.293332,0.533332 -0.293332,0.786665 0,0.679998 0.399999,1.026664 1.239997,1.026664 h 3.946656 c 0.679999,0 1.026664,-0.373332 1.026664,-1.053331 0,-0.666664 -0.319999,-1.026664 -1.01333,-1.026664 h -2.146662 c 0.893331,-1.1999966 1.199997,-1.5866622 2.066662,-2.733326 0.599998,-0.8133313 0.973331,-1.7866622 0.973331,-2.62666 0,-1.7066624 -1.53333,-2.8133263 -3.066659,-2.8133263 -1.57333,0 -3.133326,1.1599971 -3.133326,3.0399924 z m 7.306648,4.053323 c 0,1.9066619 1.32,3.3066579 3.26666,3.3066579 1.81333,0 3.21332,-1.506662 3.21332,-3.2799913 0,-0.9599975 -0.68,-2.093328 -1.39999,-2.4399938 0.58666,-0.3733324 1.02666,-1.1599971 1.02666,-1.8799952 0,-1.6399959 -1.21333,-2.7866597 -2.85333,-2.7866597 -1.58666,0 -2.91999,1.199997 -2.91999,2.7866597 0,0.7866646 0.4,1.5866626 1.01333,1.959995 -0.77333,0.4399989 -1.34666,1.3999965 -1.34666,2.3333274 z m 3.26666,-1.2399968 c 0.58666,0 1.02666,0.5466653 1.02666,1.2266635 0,0.6399982 -0.4,1.1866642 -1.02666,1.1866642 -0.66667,0 -1.08,-0.546666 -1.08,-1.2133308 0,-0.6399983 0.42667,-1.1999969 1.08,-1.1999969 z m -0.04,-2.0666615 c -0.49333,0 -0.76,-0.4399989 -0.76,-0.9199976 0,-0.5066654 0.38667,-0.7733314 0.77333,-0.7733314 0.34667,0 0.69333,0.266666 0.69333,0.7733314 0,0.4666654 -0.28,0.9199976 -0.70666,0.9199976 z"
     id="text2"
     aria-label="Enterprise 64/128&#10;" />
</svg>
