<?xml version="1.0" encoding="UTF-8" standalone="no"?>
<svg
   viewBox="0 0 200 40"
   version="1.1"
   id="svg1"
   sodipodi:docname="easyrpg.svg"
   inkscape:version="1.3.2 (091e20e, 2023-11-25)"
   xmlns:inkscape="http://www.inkscape.org/namespaces/inkscape"
   xmlns:sodipodi="http://sodipodi.sourceforge.net/DTD/sodipodi-0.dtd"
   xmlns="http://www.w3.org/2000/svg"
   xmlns:svg="http://www.w3.org/2000/svg">
  <defs
     id="defs1">
    <rect
       x="0.30349014"
       y="0.60698027"
       width="199.08953"
       height="38.846737"
       id="rect3" />
    <rect
       x="0.60698027"
       y="0.60698027"
       width="198.78604"
       height="39.150228"
       id="rect2" />
    <rect
       x="0.91047041"
       y="0.60698027"
       width="198.17906"
       height="38.846737"
       id="rect1" />
  </defs>
  <sodipodi:namedview
     id="namedview1"
     pagecolor="#020202"
     bordercolor="#000000"
     borderopacity="0.25"
     inkscape:showpageshadow="2"
     inkscape:pageopacity="0.0"
     inkscape:pagecheckerboard="0"
     inkscape:deskcolor="#d1d1d1"
     inkscape:zoom="3.295"
     inkscape:cx="101.36571"
     inkscape:cy="-0.75872534"
     inkscape:window-width="1400"
     inkscape:window-height="864"
     inkscape:window-x="209"
     inkscape:window-y="25"
     inkscape:window-maximized="0"
     inkscape:current-layer="svg1" />
  <path
     style="font-weight:bold;font-size:13.3333px;font-family:BPreplay;-inkscape-font-specification:'BPreplay Bold';letter-spacing:0px;white-space:pre;fill:#ffffff;stroke-width:2.64567;stroke-linecap:square;stroke-opacity:0.988722;paint-order:markers fill stroke"
     d="m 1.129399,11.775214 c 0,0.933331 0.1333329,1.17333 1.1199971,1.17333 h 3.8533236 c 0.7733314,0 1.1466638,-0.359999 1.1466638,-1.066664 0,-0.719998 -0.3733324,-1.066664 -1.1466638,-1.066664 H 3.2627269 V 8.6552217 h 2.1466612 c 0.7199982,0 1.066664,-0.3599991 1.066664,-1.0533307 0,-0.7199982 -0.3466658,-1.0799973 -1.066664,-1.0799973 H 3.2627269 V 4.7218983 h 2.7466597 c 0.7199982,0 1.066664,-0.3599991 1.066664,-1.066664 0,-0.7333315 -0.3466658,-1.066664 -1.066664,-1.066664 H 2.2493961 c -0.7333315,0 -1.1199971,0.3866657 -1.1199971,1.1599971 z M 8.9427101,5.5485629 C 8.5160445,5.7218958 8.2493785,6.0152283 8.2493785,6.3885607 c 0,0.6799983 0.4799988,0.8399979 0.9866642,0.8399979 0.4799988,0 0.9199973,-0.1733329 1.4666633,-0.1733329 0.746664,0 1.626662,0.4799988 1.626662,1.2666635 V 8.9752209 C 11.849369,8.6285551 11.142705,8.4285556 10.422706,8.4285556 c -1.706662,0 -2.7066595,1.2533301 -2.7066595,2.4533274 0,1.106664 0.8666645,2.159994 2.3866605,2.159994 0.746665,0 1.546663,-0.306666 2.173328,-0.973331 v 0.253333 c 0.04,0.546665 0.613332,0.719998 0.839998,0.719998 0.653332,0 1.039997,-0.493332 1.039997,-1.026664 V 8.0285566 c 0,-2.0399949 -1.679996,-2.8399928 -3.373325,-2.8399928 -0.613331,0 -1.2533297,0.1199997 -1.8399949,0.3599991 z m 0.8666645,5.0666541 c 0,-0.426666 0.5599984,-0.613332 1.1199974,-0.613332 0.533332,0 1.119997,0.199999 1.119997,0.546665 0,0.466666 -0.639998,0.706665 -1.239997,0.706665 -0.493332,0 -0.9999974,-0.213333 -0.9999974,-0.639998 z m 8.4133174,0.679998 c -1.039998,0 -1.426663,-0.733331 -2.226661,-0.733331 -0.479999,0 -0.959998,0.279999 -0.959998,0.879997 0,0.319999 0.133333,0.653332 0.413332,0.853331 0.746665,0.453333 1.53333,0.773332 2.546661,0.773332 1.453329,0 3.026659,-0.679998 3.026659,-2.439994 0,-2.1999944 -3.799991,-2.4399938 -3.799991,-3.3599915 0,-0.3599991 0.266666,-0.4799988 0.613332,-0.4799988 0.786665,0 1.319997,0.4399989 2.013328,0.4399989 0.599999,0 0.919998,-0.4533322 0.919998,-0.8933311 0,-0.3199992 -0.173333,-0.6533316 -0.533332,-0.8533311 -0.693332,-0.3599991 -1.439996,-0.4666655 -2.133328,-0.4666655 -1.573329,0 -2.946659,0.7333315 -2.946659,2.3733273 0,2.3066608 3.71999,2.359994 3.71999,3.4266578 0,0.346666 -0.279999,0.479999 -0.653331,0.479999 z m 4.426644,2.853326 c -0.05333,0.16 -0.08,0.306666 -0.08,0.479999 0,0.666665 0.319999,1.013331 0.986664,1.013331 0.519998,0 0.893331,-0.253333 1.09333,-0.786665 l 2.94666,-8.1733127 c 0.06667,-0.1866662 0.06667,-0.3466658 0.06667,-0.4799988 0,-0.6933315 -0.346666,-1.026664 -1.026664,-1.026664 -0.533332,0 -0.893331,0.2533327 -1.066664,0.7733313 -0.346666,1.0533307 -0.719998,3.1733254 -1.066664,4.2133232 L 23.516001,6.0152283 c -0.16,-0.5199986 -0.546665,-0.8266645 -1.079997,-0.8266645 -0.666665,0 -0.999998,0.3199992 -0.999998,1.026664 0,0.1599996 0.02667,0.3066659 0.09333,0.4799988 0.613332,1.8533287 1.199997,3.8266574 1.826662,5.6933194 z m 5.879983,-2.373327 c 0,0.786664 0.359999,1.17333 1.079997,1.17333 0.706665,0 1.05333,-0.386666 1.05333,-1.17333 V 8.9618876 h 1.546663 l 1.679996,3.4133244 c 0.239999,0.466666 0.599998,0.586665 0.973331,0.586665 0.693331,0 1.013331,-0.426665 1.013331,-1.026664 0,-0.226666 -0.08,-0.466665 -0.173333,-0.693331 l -1.29333,-2.8266597 c 1.079997,-0.6933316 1.573329,-1.7199957 1.573329,-2.7333264 0,-1.5866627 -1.239997,-3.1066589 -3.479991,-3.1066589 h -2.653327 c -0.866664,0 -1.319996,0.3466658 -1.319996,1.1066639 z m 4.066656,-7.066649 c 0.839998,0 1.199997,0.4799988 1.199997,0.9733309 0,0.5599985 -0.453332,1.159997 -1.199997,1.159997 H 30.662646 V 4.708565 Z m 4.639994,7.159982 c 0,0.733331 0.346666,1.079997 1.066664,1.079997 0.706665,0 1.066664,-0.346666 1.066664,-1.079997 V 9.3618866 h 1.853329 c 1.933328,0 3.426658,-1.4533297 3.426658,-3.3733249 0,-2.0266615 -1.466663,-3.4133247 -3.506658,-3.4133247 h -2.78666 c -0.733331,0 -1.119997,0.3466658 -1.119997,1.1066639 z m 3.733324,-7.159982 c 0.973331,0 1.506663,0.4666655 1.506663,1.2666634 0,0.7733314 -0.519999,1.2533302 -1.306663,1.2533302 H 39.369297 V 4.708565 Z m 9.026633,6.199984 c -1.626662,0 -2.42666,-1.5066625 -2.42666,-3.0533253 0,-1.866662 0.826665,-3.4399913 2.519994,-3.4399913 0.519998,0 1.146663,0.1066664 1.733329,0.6399984 0.253332,0.2399994 0.546665,0.3466658 0.813331,0.3466658 0.506665,0 0.946664,-0.3866657 0.946664,-1.0533307 0,-1.2399969 -1.893328,-2.1466613 -3.453325,-2.1466613 -3.213325,0 -4.813321,2.7333265 -4.813321,5.6666524 0,2.639993 1.506663,5.226653 4.639989,5.226653 2.639993,0 4.306655,-1.919995 4.306655,-4.6133212 0,-0.8933311 -0.133333,-1.7199957 -1.399996,-1.7199957 h -2.679993 c -0.799998,0 -1.199997,0.3466658 -1.199997,1.0799973 0,0.6933316 0.386665,1.066664 1.159997,1.066664 h 1.933328 c -0.133333,1.2666636 -0.866664,1.9999946 -2.079995,1.9999946 z"
     id="text2"
     aria-label="EasyRPG&#10;" />
</svg>
