<?xml version="1.0" encoding="UTF-8" standalone="no"?>
<svg
   viewBox="0 0 200 40"
   version="1.1"
   id="svg1"
   sodipodi:docname="fbneo.svg"
   inkscape:version="1.3.2 (091e20e, 2023-11-25)"
   xmlns:inkscape="http://www.inkscape.org/namespaces/inkscape"
   xmlns:sodipodi="http://sodipodi.sourceforge.net/DTD/sodipodi-0.dtd"
   xmlns="http://www.w3.org/2000/svg"
   xmlns:svg="http://www.w3.org/2000/svg">
  <defs
     id="defs1">
    <rect
       x="0.30349014"
       y="0.60698027"
       width="199.08953"
       height="38.846737"
       id="rect3" />
    <rect
       x="0.60698027"
       y="0.60698027"
       width="198.78604"
       height="39.150228"
       id="rect2" />
    <rect
       x="0.91047041"
       y="0.60698027"
       width="198.17906"
       height="38.846737"
       id="rect1" />
  </defs>
  <sodipodi:namedview
     id="namedview1"
     pagecolor="#020202"
     bordercolor="#000000"
     borderopacity="0.25"
     inkscape:showpageshadow="2"
     inkscape:pageopacity="0.0"
     inkscape:pagecheckerboard="0"
     inkscape:deskcolor="#d1d1d1"
     inkscape:zoom="3.295"
     inkscape:cx="67.981791"
     inkscape:cy="-8.0424886"
     inkscape:window-width="1400"
     inkscape:window-height="864"
     inkscape:window-x="209"
     inkscape:window-y="25"
     inkscape:window-maximized="0"
     inkscape:current-layer="svg1" />
  <path
     style="font-weight:bold;font-size:13.3333px;font-family:BPreplay;-inkscape-font-specification:'BPreplay Bold';letter-spacing:0px;white-space:pre;fill:#ffffff;stroke-width:2.64567;stroke-linecap:square;stroke-opacity:0.988722;paint-order:markers fill stroke"
     d="m 1.129399,11.975213 c 0,0.639999 0.3733323,0.973331 1.0666639,0.973331 0.7199982,0 1.0799973,-0.333332 1.0799973,-0.973331 V 8.8952211 h 1.8399953 c 0.7199982,0 1.0533307,-0.3599991 1.0533307,-1.066664 0,-0.7199982 -0.3333325,-1.0799973 -1.0533307,-1.0799973 H 3.2760602 V 4.7218983 h 2.6133267 c 0.7333315,0 1.0799973,-0.3599991 1.0799973,-1.066664 0,-0.7333315 -0.3466658,-1.066664 -1.0799973,-1.066664 H 2.2493961 c -0.7333315,0 -1.1199971,0.399999 -1.1199971,1.199997 z m 6.7333043,-0.06667 c 0,0.706665 0.3599991,1.039997 1.0399973,1.039997 0.6933316,0 1.0399974,-0.333332 1.0399974,-1.039997 V 6.3218942 c 0,-0.6933315 -0.3733324,-1.026664 -1.0533307,-1.026664 -0.6666649,0 -1.026664,0.3333325 -1.026664,1.026664 z M 7.6760371,3.3085685 c 0,0.666665 0.533332,1.1866637 1.1866636,1.1866637 0.6799983,0 1.1999973,-0.5199987 1.1999973,-1.1866637 0,-0.666665 -0.519999,-1.1866636 -1.1999973,-1.1866636 -0.6533316,0 -1.1866636,0.5199986 -1.1866636,1.1866636 z M 11.222706,11.92188 c 0,0.679998 0.333332,1.026664 0.999997,1.026664 0.706665,0 1.039998,-0.346666 1.039998,-1.026664 V 8.2018895 c 0,-0.7866647 0.519998,-1.1866637 1.05333,-1.1866637 0.479999,0 0.986664,0.3866657 0.986664,1.1866637 V 11.92188 c 0,0.679998 0.36,1.026664 1.026665,1.026664 0.693331,0 1.039997,-0.346666 1.039997,-1.026664 V 7.8285571 c 0,-1.9599951 -1.226664,-2.6399933 -2.253328,-2.6399933 -0.799998,0 -1.386663,0.4266656 -1.853328,0.9599975 0,-0.4133322 -0.333333,-0.9199976 -1.039998,-0.9199976 -0.666665,0 -0.999997,0.5066654 -0.999997,1.0666639 z m 8.173316,-6.3733171 c -0.426665,0.1733329 -0.693331,0.4666654 -0.693331,0.8399978 0,0.6799983 0.479999,0.8399979 0.986664,0.8399979 0.479999,0 0.919998,-0.1733329 1.466663,-0.1733329 0.746665,0 1.626663,0.4799988 1.626663,1.2666635 V 8.9752209 C 22.302682,8.6285551 21.596017,8.4285556 20.876019,8.4285556 c -1.706663,0 -2.70666,1.2533301 -2.70666,2.4533274 0,1.106664 0.866664,2.159994 2.386661,2.159994 0.746664,0 1.546662,-0.306666 2.173327,-0.973331 v 0.253333 c 0.04,0.546665 0.613332,0.719998 0.839998,0.719998 0.653332,0 1.039998,-0.493332 1.039998,-1.026664 V 8.0285566 c 0,-2.0399949 -1.679996,-2.8399928 -3.373325,-2.8399928 -0.613332,0 -1.25333,0.1199997 -1.839996,0.3599991 z m 0.866665,5.0666541 c 0,-0.426666 0.559999,-0.613332 1.119997,-0.613332 0.533332,0 1.119997,0.199999 1.119997,0.546665 0,0.466666 -0.639998,0.706665 -1.239997,0.706665 -0.493332,0 -0.999997,-0.213333 -0.999997,-0.639998 z m 5.59999,1.29333 c 0,0.706665 0.333333,1.039997 1.039998,1.039997 0.693331,0 1.026664,-0.333332 1.026664,-1.039997 V 3.2019021 c 0,-0.6799983 -0.359999,-1.0533306 -1.039997,-1.0533306 -0.679999,0 -1.026665,0.3733323 -1.026665,1.0533306 z m 6.306649,-0.173333 c 0,0.466665 0.173333,0.826664 0.439999,1.013331 0.2,0.146666 0.493332,0.199999 0.893331,0.199999 h 2.94666 c 1.719995,0 3.226658,-1.306663 3.226658,-3.1733252 0,-1.0666639 -0.866664,-2.4399938 -1.973328,-2.5999934 0.586665,-0.066667 1.266663,-1.1199972 1.266663,-1.7999954 0,-2.0266616 -1.973328,-2.7866597 -3.253325,-2.7866597 h -2.42666 c -0.733332,0 -1.119998,0.399999 -1.119998,1.199997 z m 2.146662,-3.3866582 h 1.586662 c 1.146664,0 1.679996,0.6799983 1.679996,1.3333299 0,0.5733323 -0.426665,1.1333303 -1.25333,1.1333303 h -2.013328 z m 0,-1.6666625 v -1.959995 h 1.453329 c 0.773332,0 1.159997,0.5199987 1.159997,1.0266641 0,0.4799987 -0.346665,0.9333309 -1.05333,0.9333309 z m 8.306637,-0.3733324 c 0,-0.7066648 -0.319999,-1.026664 -1.026664,-1.026664 -0.679998,0 -1.013331,0.3199992 -1.013331,1.026664 v 3.559991 c 0,2.0133281 1.159997,3.1599921 2.386661,3.1599921 0.733331,0 1.493329,-0.399999 2.053328,-1.146664 v 0.399999 c 0.01333,0.599999 0.426666,0.839998 0.786665,0.839998 0.693331,0 1.026664,-0.346666 1.026664,-0.986664 V 6.268561 c 0,-0.7066648 -0.333333,-1.0533306 -1.026664,-1.0533306 -0.746665,0 -0.986665,0.3866657 -0.986665,1.0533306 v 2.799993 c 0,1.279997 -0.639998,1.973328 -1.266663,1.973328 -0.466666,0 -0.919998,-0.239999 -0.919998,-1.5466624 z m 5.493322,5.6133191 c 0,0.679998 0.346666,1.026664 1.026664,1.026664 0.706665,0 1.026664,-0.346666 1.026664,-1.026664 V 8.2018895 c 0,-0.5866652 0.586665,-0.9999975 1.09333,-0.9999975 0.133333,0 0.213333,0.026667 0.306666,0.04 0.133333,0.026667 0.306666,0.04 0.493332,0.04 0.613332,0 1.053331,-0.4933321 1.053331,-1.0399974 0,-0.5466652 -0.399999,-1.1333304 -1.466663,-1.1333304 -0.559998,0 -1.426663,0.5466653 -1.653329,0.9866641 -0.02667,-0.626665 -0.439999,-0.8799977 -0.853331,-0.8799977 -0.679998,0 -1.026664,0.3466658 -1.026664,1.0666639 z m 5.586662,0 c 0,0.679998 0.333332,1.026664 0.999997,1.026664 0.706665,0 1.039998,-0.346666 1.039998,-1.026664 V 8.2018895 c 0,-0.7866647 0.519999,-1.1866637 1.053331,-1.1866637 0.479998,0 0.986664,0.3866657 0.986664,1.1866637 V 11.92188 c 0,0.679998 0.359999,1.026664 1.026664,1.026664 0.693331,0 1.039997,-0.346666 1.039997,-1.026664 V 7.8285571 c 0,-1.9599951 -1.226663,-2.6399933 -2.253327,-2.6399933 -0.799998,0 -1.386664,0.4266656 -1.853329,0.9599975 0,-0.4133322 -0.333333,-0.9199976 -1.039998,-0.9199976 -0.666665,0 -0.999997,0.5066654 -0.999997,1.0666639 z m 10.333321,-0.06667 c 0,0.733331 0.346666,1.09333 1.066664,1.09333 0.706665,0 1.066664,-0.359999 1.066664,-1.09333 V 6.8818928 l 3.706658,5.4399862 c 0.293332,0.413332 0.679998,0.626665 1.119997,0.626665 0.706665,0 1.066664,-0.386666 1.066664,-1.159997 V 3.6552343 c 0,-0.7199982 -0.346666,-1.0799973 -1.079998,-1.0799973 -0.693331,0 -1.05333,0.3599991 -1.05333,1.0799973 V 8.7218882 L 66.262591,3.2685686 c -0.319999,-0.4666655 -0.706665,-0.7066649 -1.17333,-0.7066649 -0.693332,0 -1.053331,0.3866657 -1.053331,1.1599971 z M 76.555921,5.0685641 c -2.226661,0 -3.453324,1.9333284 -3.453324,3.95999 0,2.1999949 1.306663,4.0666559 3.653324,4.0666559 1.226663,0 2.213328,-0.453332 2.879993,-1.279996 0.173332,-0.186667 0.226666,-0.373333 0.226666,-0.613332 0,-0.613332 -0.333333,-0.879998 -0.759998,-0.879998 -0.706665,0 -1.133331,0.826665 -2.159995,0.826665 -0.573332,0 -1.759996,-0.413333 -1.759996,-1.6133296 h 3.053326 c 1.026664,0 1.653329,0 1.653329,-1.026664 0,-2.0666615 -1.186663,-3.4399913 -3.333325,-3.4399913 z m -1.266663,3.0799922 c 0,-0.8266646 0.679998,-1.2666635 1.29333,-1.2666635 0.586665,0 1.17333,0.4133323 1.17333,1.2666635 z M 84.02257,5.108564 c -2.279994,0 -3.466658,1.8399953 -3.466658,3.9066568 0,2.0799952 1.186664,4.0533232 3.466658,4.0533232 2.253328,0 3.466658,-1.866662 3.466658,-3.9733234 0,-2.0533282 -1.199997,-3.9866566 -3.466658,-3.9866566 z m 0,1.8933285 c 0.946665,0 1.359997,1.2399969 1.359997,2.1733279 0,0.9466646 -0.413332,2.0266616 -1.359997,2.0266616 -0.946664,0 -1.359996,-1.3199968 -1.359996,-2.2533277 0,-0.9599976 0.413332,-1.9466618 1.359996,-1.9466618 z"
     id="text2"
     aria-label="Final Burn Neo&#10;&#10;&#10;&#10;&#10;&#10;&#10;&#10;" />
</svg>
