<?xml version="1.0" encoding="UTF-8" standalone="no"?>
<svg
   viewBox="0 0 200 40"
   version="1.1"
   id="svg1"
   sodipodi:docname="fds.svg"
   inkscape:version="1.3.2 (091e20e, 2023-11-25)"
   xmlns:inkscape="http://www.inkscape.org/namespaces/inkscape"
   xmlns:sodipodi="http://sodipodi.sourceforge.net/DTD/sodipodi-0.dtd"
   xmlns="http://www.w3.org/2000/svg"
   xmlns:svg="http://www.w3.org/2000/svg">
  <defs
     id="defs1">
    <rect
       x="0.30349014"
       y="0.60698027"
       width="199.08953"
       height="38.846737"
       id="rect3" />
    <rect
       x="0.60698027"
       y="0.60698027"
       width="198.78604"
       height="39.150228"
       id="rect2" />
    <rect
       x="0.91047041"
       y="0.60698027"
       width="198.17906"
       height="38.846737"
       id="rect1" />
  </defs>
  <sodipodi:namedview
     id="namedview1"
     pagecolor="#020202"
     bordercolor="#000000"
     borderopacity="0.25"
     inkscape:showpageshadow="2"
     inkscape:pageopacity="0.0"
     inkscape:pagecheckerboard="0"
     inkscape:deskcolor="#d1d1d1"
     inkscape:zoom="3.295"
     inkscape:cx="101.36571"
     inkscape:cy="-0.75872534"
     inkscape:window-width="1400"
     inkscape:window-height="864"
     inkscape:window-x="209"
     inkscape:window-y="25"
     inkscape:window-maximized="0"
     inkscape:current-layer="svg1" />
  <path
     style="font-weight:bold;font-size:13.3333px;font-family:BPreplay;-inkscape-font-specification:'BPreplay Bold';letter-spacing:0px;white-space:pre;fill:#ffffff;stroke-width:2.64567;stroke-linecap:square;stroke-opacity:0.988722;paint-order:markers fill stroke"
     d="m 1.129399,11.975213 c 0,0.639999 0.3733323,0.973331 1.0666639,0.973331 0.7199982,0 1.0799973,-0.333332 1.0799973,-0.973331 V 8.8952211 h 1.8399953 c 0.7199982,0 1.0533307,-0.3599991 1.0533307,-1.066664 0,-0.7199982 -0.3333325,-1.0799973 -1.0533307,-1.0799973 H 3.2760602 V 4.7218983 h 2.6133267 c 0.7333315,0 1.0799973,-0.3599991 1.0799973,-1.066664 0,-0.7333315 -0.3466658,-1.066664 -1.0799973,-1.066664 H 2.2493961 c -0.7333315,0 -1.1199971,0.399999 -1.1199971,1.199997 z M 7.7960402,5.5485629 C 7.3693746,5.7218958 7.1027086,6.0152283 7.1027086,6.3885607 c 0,0.6799983 0.4799988,0.8399979 0.9866642,0.8399979 0.4799988,0 0.9199977,-0.1733329 1.466663,-0.1733329 0.7466652,0 1.6266622,0.4799988 1.6266622,1.2666635 V 8.9752209 C 10.7027,8.6285551 9.9960347,8.4285556 9.2760365,8.4285556 c -1.7066624,0 -2.7066598,1.2533301 -2.7066598,2.4533274 0,1.106664 0.8666644,2.159994 2.3866606,2.159994 0.7466648,0 1.5466627,-0.306666 2.1733277,-0.973331 v 0.253333 c 0.04,0.546665 0.613332,0.719998 0.839998,0.719998 0.653332,0 1.039997,-0.493332 1.039997,-1.026664 V 8.0285566 c 0,-2.0399949 -1.679995,-2.8399928 -3.3733244,-2.8399928 -0.6133318,0 -1.2533302,0.1199997 -1.8399954,0.3599991 z m 0.8666645,5.0666541 c 0,-0.426666 0.5599986,-0.613332 1.1199972,-0.613332 0.5333321,0 1.1199971,0.199999 1.1199971,0.546665 0,0.466666 -0.639998,0.706665 -1.2399968,0.706665 -0.4933321,0 -0.9999975,-0.213333 -0.9999975,-0.639998 z m 5.5733243,1.306663 c 0,0.679998 0.333332,1.026664 0.999997,1.026664 0.706665,0 1.039997,-0.346666 1.039997,-1.026664 V 8.2018895 c 0,-0.7866647 0.519999,-1.1866637 1.053331,-1.1866637 0.479999,0 0.986664,0.3866657 0.986664,1.1866637 V 11.92188 c 0,0.679998 0.359999,1.026664 1.026664,1.026664 0.693332,0 1.039998,-0.346666 1.039998,-1.026664 V 7.9752234 c 0.08,-0.6399984 0.559998,-0.9599976 1.039997,-0.9599976 0.479999,0 0.986664,0.3866657 0.986664,1.1866637 V 11.92188 c 0,0.679998 0.359999,1.026664 1.026664,1.026664 0.693332,0 1.039998,-0.346666 1.039998,-1.026664 V 7.8285571 c 0,-1.8533287 -1.106664,-2.6133267 -2.239995,-2.6133267 -0.839997,0 -1.693329,0.4133323 -2.119994,1.1066638 C 19.756015,5.508563 19.08935,5.1885638 18.396018,5.1885638 c -0.799998,0 -1.653329,0.4266656 -2.119995,0.9599975 0,-0.4133322 -0.333332,-0.9199976 -1.039997,-0.9199976 -0.666665,0 -0.999997,0.5066654 -0.999997,1.0666639 z m 11.493298,-0.01333 c 0,0.706665 0.359999,1.039997 1.039998,1.039997 0.693331,0 1.039997,-0.333332 1.039997,-1.039997 V 6.3218942 c 0,-0.6933315 -0.373332,-1.026664 -1.053331,-1.026664 -0.666665,0 -1.026664,0.3333325 -1.026664,1.026664 z M 25.542661,3.3085685 c 0,0.666665 0.533332,1.1866637 1.186664,1.1866637 0.679998,0 1.199997,-0.5199987 1.199997,-1.1866637 0,-0.666665 -0.519999,-1.1866636 -1.199997,-1.1866636 -0.653332,0 -1.186664,0.5199986 -1.186664,1.1866636 z m 6.959991,3.8399903 c 0.506666,0 1.026665,0.2266661 1.426664,0.2266661 0.586665,0 0.97333,-0.3733324 0.97333,-0.9733309 0,-0.399999 -0.319999,-0.7733313 -0.759998,-0.9733308 -0.559998,-0.2533327 -1.146663,-0.3066659 -1.653329,-0.3066659 -2.013328,0 -3.71999,1.5733293 -3.71999,3.9333234 0,2.2799943 1.639995,4.0133233 3.746657,4.0133233 0.613332,0 1.279997,-0.16 1.906662,-0.573332 0.319999,-0.239999 0.546665,-0.519999 0.546665,-0.919998 0,-0.546665 -0.506665,-0.973331 -0.959998,-0.973331 -0.133333,0 -0.333332,0.04 -0.479998,0.146667 -0.306666,0.213333 -0.679999,0.293332 -0.999998,0.293332 -0.919998,0 -1.679996,-0.853331 -1.679996,-1.9333281 0,-1.1866637 0.719998,-1.9599951 1.653329,-1.9599951 z M 38.902644,5.108564 c -2.279994,0 -3.466658,1.8399953 -3.466658,3.9066568 0,2.0799952 1.186664,4.0533232 3.466658,4.0533232 2.253328,0 3.466658,-1.866662 3.466658,-3.9733234 0,-2.0533282 -1.199997,-3.9866566 -3.466658,-3.9866566 z m 0,1.8933285 c 0.946664,0 1.359996,1.2399969 1.359996,2.1733279 0,0.9466646 -0.413332,2.0266616 -1.359996,2.0266616 -0.946664,0 -1.359997,-1.3199968 -1.359997,-2.2533277 0,-0.9599976 0.413333,-1.9466618 1.359997,-1.9466618 z m 4.439983,4.9199875 c 0,0.679998 0.333333,1.026664 0.999998,1.026664 0.706665,0 1.039997,-0.346666 1.039997,-1.026664 V 8.2018895 c 0,-0.7866647 0.519999,-1.1866637 1.053331,-1.1866637 0.479999,0 0.986664,0.3866657 0.986664,1.1866637 V 11.92188 c 0,0.679998 0.359999,1.026664 1.026664,1.026664 0.693332,0 1.039998,-0.346666 1.039998,-1.026664 V 7.9752234 c 0.08,-0.6399984 0.559998,-0.9599976 1.039997,-0.9599976 0.479999,0 0.986664,0.3866657 0.986664,1.1866637 V 11.92188 c 0,0.679998 0.359999,1.026664 1.026664,1.026664 0.693332,0 1.039998,-0.346666 1.039998,-1.026664 V 7.8285571 c 0,-1.8533287 -1.106664,-2.6133267 -2.239995,-2.6133267 -0.839998,0 -1.693329,0.4133323 -2.119994,1.1066638 -0.359999,-0.8133312 -1.026664,-1.1333304 -1.719996,-1.1333304 -0.799998,0 -1.653329,0.4266656 -2.119995,0.9599975 0,-0.4133322 -0.333332,-0.9199976 -1.039997,-0.9199976 -0.666665,0 -0.999998,0.5066654 -0.999998,1.0666639 z m 14.43997,-0.09333 c 0,0.959998 0.279999,1.119997 1.133331,1.119997 h 2.38666 c 2.799993,0 4.546655,-2.533327 4.546655,-5.1333202 0,-2.5866601 -1.453329,-5.2266535 -4.293322,-5.2266535 h -2.439994 c -0.906664,0 -1.33333,0.399999 -1.33333,1.199997 z m 3.639991,-7.1066487 c 1.479996,0 2.226661,1.5199961 2.226661,3.0933255 0,1.5066629 -0.839998,2.9999922 -2.399994,2.9999922 H 59.929258 V 4.7218983 Z m 5.453304,7.1866487 c 0,0.706665 0.359999,1.039997 1.039997,1.039997 0.693332,0 1.039997,-0.333332 1.039997,-1.039997 V 6.3218942 c 0,-0.6933315 -0.373332,-1.026664 -1.05333,-1.026664 -0.666665,0 -1.026664,0.3333325 -1.026664,1.026664 z M 66.689225,3.3085685 c 0,0.666665 0.533332,1.1866637 1.186664,1.1866637 0.679998,0 1.199997,-0.5199987 1.199997,-1.1866637 0,-0.666665 -0.519999,-1.1866636 -1.199997,-1.1866636 -0.653332,0 -1.186664,0.5199986 -1.186664,1.1866636 z m 6.386668,7.9866465 c -1.039998,0 -1.426663,-0.733331 -2.226661,-0.733331 -0.479999,0 -0.959998,0.279999 -0.959998,0.879997 0,0.319999 0.133333,0.653332 0.413332,0.853331 0.746665,0.453333 1.53333,0.773332 2.546661,0.773332 1.453329,0 3.026659,-0.679998 3.026659,-2.439994 0,-2.1999944 -3.799991,-2.4399938 -3.799991,-3.3599915 0,-0.3599991 0.266666,-0.4799988 0.613332,-0.4799988 0.786665,0 1.319997,0.4399989 2.013328,0.4399989 0.599999,0 0.919998,-0.4533322 0.919998,-0.8933311 0,-0.3199992 -0.173333,-0.6533316 -0.533332,-0.8533311 -0.693332,-0.3599991 -1.439996,-0.4666655 -2.133328,-0.4666655 -1.573329,0 -2.946659,0.7333315 -2.946659,2.3733273 0,2.3066608 3.71999,2.359994 3.71999,3.4266578 0,0.346666 -0.279999,0.479999 -0.653331,0.479999 z m 3.719983,0.626665 c 0,0.679998 0.333333,1.026664 1.013331,1.026664 0.706665,0 1.026664,-0.346666 1.026664,-1.026664 v -1.706662 c 0.06667,-0.08 0.786665,-0.6666653 0.853331,-0.7199984 l 1.666663,2.9466594 c 0.199999,0.306666 0.613332,0.533332 0.986664,0.533332 0.706665,0 0.973331,-0.479999 0.973331,-1.039998 0,-0.773331 -0.253333,-0.413332 -2.013328,-3.6533237 L 82.755861,7.068559 c 0.306666,-0.2266661 0.426666,-0.4133323 0.426666,-0.7599981 0,-0.5599985 -0.506665,-1.0666639 -1.053331,-1.0666639 -0.253332,0 -0.479999,0.08 -0.693331,0.2533327 L 78.835871,7.6952241 V 3.2152354 c 0,-0.6933316 -0.333332,-1.0399974 -1.026664,-1.0399974 -0.693331,0 -1.013331,0.3466658 -1.013331,1.0399974 z M 91.009185,4.8818979 c 0.24,0.1999995 0.506666,0.3333325 0.839998,0.3333325 0.613332,0 1.053331,-0.5733319 1.053331,-1.1199972 0,-0.4133323 -0.213333,-0.7599981 -0.599999,-1.0399974 -0.666665,-0.5066654 -1.479996,-0.7733314 -2.319994,-0.7733314 -1.893328,0 -3.146659,1.5333295 -3.146659,3.0266591 0,1.7999954 1.599996,2.5599935 2.94666,3.1866586 1.066664,0.4933321 1.426663,0.799998 1.426663,1.2533301 0,0.7599978 -0.639999,1.1466638 -1.37333,1.1466638 -0.426666,0 -0.893331,-0.146666 -1.25333,-0.373332 -0.253333,-0.146667 -0.519999,-0.226666 -0.786665,-0.226666 -0.693332,0 -1.039997,0.319999 -1.039997,1.026664 0,0.439998 0.199999,0.786664 0.613331,1.05333 0.733332,0.479999 1.559996,0.733332 2.466661,0.733332 2.053328,0 3.639991,-1.279997 3.639991,-3.4399916 0,-1.6399958 -1.146664,-2.3733273 -2.759993,-3.159992 -0.826665,-0.399999 -1.639996,-0.5999985 -1.639996,-1.2533301 0,-0.5866652 0.346666,-0.7599981 0.893331,-0.7599981 0.386666,0 0.719998,0.1466663 1.039997,0.3866657 z m 3.933341,9.2666431 c -0.05333,0.16 -0.08,0.306666 -0.08,0.479999 0,0.666665 0.319999,1.013331 0.986664,1.013331 0.519998,0 0.893331,-0.253333 1.09333,-0.786665 l 2.94666,-8.1733127 c 0.06667,-0.1866662 0.06667,-0.3466658 0.06667,-0.4799988 0,-0.6933315 -0.346666,-1.026664 -1.026664,-1.026664 -0.533332,0 -0.893331,0.2533327 -1.066664,0.7733313 -0.346666,1.0533307 -0.719998,3.1733254 -1.066664,4.2133232 L 95.809191,6.0152283 c -0.16,-0.5199986 -0.546665,-0.8266645 -1.079997,-0.8266645 -0.666665,0 -0.999998,0.3199992 -0.999998,1.026664 0,0.1599996 0.02667,0.3066659 0.09333,0.4799988 0.613332,1.8533287 1.199997,3.8266574 1.826662,5.6933194 z m 8.559974,-2.853326 c -1.04,0 -1.42667,-0.733331 -2.22666,-0.733331 -0.48,0 -0.96,0.279999 -0.96,0.879997 0,0.319999 0.13333,0.653332 0.41333,0.853331 0.74667,0.453333 1.53333,0.773332 2.54666,0.773332 1.45333,0 3.02666,-0.679998 3.02666,-2.439994 0,-2.1999944 -3.79999,-2.4399938 -3.79999,-3.3599915 0,-0.3599991 0.26667,-0.4799988 0.61333,-0.4799988 0.78667,0 1.32,0.4399989 2.01333,0.4399989 0.6,0 0.92,-0.4533322 0.92,-0.8933311 0,-0.3199992 -0.17333,-0.6533316 -0.53333,-0.8533311 -0.69334,-0.3599991 -1.44,-0.4666655 -2.13333,-0.4666655 -1.57333,0 -2.94666,0.7333315 -2.94666,2.3733273 0,2.3066608 3.71999,2.359994 3.71999,3.4266578 0,0.346666 -0.28,0.479999 -0.65333,0.479999 z m 3.22666,-5.1066538 c 0,0.5999985 0.4,0.7866647 0.93333,0.8399979 v 3.1999919 c 0,1.759996 0.44,2.82666 2.34666,2.82666 0.72,0 1.10666,-0.346666 1.10666,-0.999998 0,-0.666665 -0.38666,-0.999997 -1.10666,-0.999997 -0.25333,0 -0.28,-0.266666 -0.28,-0.826665 V 7.0552257 h 0.6 c 0.70666,0 1.04,-0.1866662 1.04,-0.8533312 0,-0.6933315 -0.36,-0.8666644 -1.06667,-0.8666644 h -0.57333 V 4.8152314 c 0,-0.666665 -0.34667,-1.0133308 -1.04,-1.0133308 -0.68,0 -1.02666,0.3466658 -1.02666,1.0133308 v 0.5199987 c -0.54667,0.066666 -0.93333,0.266666 -0.93333,0.8533311 z m 8.42664,-1.1199971 c -2.22666,0 -3.45333,1.9333284 -3.45333,3.95999 0,2.1999949 1.30667,4.0666559 3.65333,4.0666559 1.22666,0 2.21332,-0.453332 2.87999,-1.279996 0.17333,-0.186667 0.22667,-0.373333 0.22667,-0.613332 0,-0.613332 -0.33334,-0.879998 -0.76,-0.879998 -0.70667,0 -1.13333,0.826665 -2.16,0.826665 -0.57333,0 -1.75999,-0.413333 -1.75999,-1.6133296 h 3.05332 c 1.02667,0 1.65333,0 1.65333,-1.026664 0,-2.0666615 -1.18666,-3.4399913 -3.33332,-3.4399913 z m -1.26667,3.0799922 c 0,-0.8266646 0.68,-1.2666635 1.29333,-1.2666635 0.58667,0 1.17333,0.4133323 1.17333,1.2666635 z m 5.57332,3.7733237 c 0,0.679998 0.33334,1.026664 1,1.026664 0.70667,0 1.04,-0.346666 1.04,-1.026664 V 8.2018895 c 0,-0.7866647 0.52,-1.1866637 1.05333,-1.1866637 0.48,0 0.98666,0.3866657 0.98666,1.1866637 V 11.92188 c 0,0.679998 0.36,1.026664 1.02667,1.026664 0.69333,0 1.04,-0.346666 1.04,-1.026664 V 7.9752234 c 0.08,-0.6399984 0.55999,-0.9599976 1.03999,-0.9599976 0.48,0 0.98667,0.3866657 0.98667,1.1866637 V 11.92188 c 0,0.679998 0.36,1.026664 1.02666,1.026664 0.69333,0 1.04,-0.346666 1.04,-1.026664 V 7.8285571 c 0,-1.8533287 -1.10667,-2.6133267 -2.24,-2.6133267 -0.83999,0 -1.69332,0.4133323 -2.11999,1.1066638 -0.36,-0.8133312 -1.02666,-1.1333304 -1.72,-1.1333304 -0.79999,0 -1.65332,0.4266656 -2.11999,0.9599975 0,-0.4133322 -0.33333,-0.9199976 -1.04,-0.9199976 -0.66666,0 -1,0.5066654 -1,1.0666639 z"
     id="text2"
     aria-label="Famicom Disk System&#10;" />
</svg>
