<?xml version="1.0" encoding="UTF-8" standalone="no"?>
<svg
   viewBox="0 0 200 40"
   version="1.1"
   id="svg1"
   sodipodi:docname="gameandwatch.svg"
   inkscape:version="1.3.2 (091e20e, 2023-11-25)"
   xmlns:inkscape="http://www.inkscape.org/namespaces/inkscape"
   xmlns:sodipodi="http://sodipodi.sourceforge.net/DTD/sodipodi-0.dtd"
   xmlns="http://www.w3.org/2000/svg"
   xmlns:svg="http://www.w3.org/2000/svg">
  <defs
     id="defs1">
    <rect
       x="0.30349014"
       y="0.60698027"
       width="199.08953"
       height="38.846737"
       id="rect3" />
    <rect
       x="0.60698027"
       y="0.60698027"
       width="198.78604"
       height="39.150228"
       id="rect2" />
    <rect
       x="0.91047041"
       y="0.60698027"
       width="198.17906"
       height="38.846737"
       id="rect1" />
  </defs>
  <sodipodi:namedview
     id="namedview1"
     pagecolor="#020202"
     bordercolor="#000000"
     borderopacity="0.25"
     inkscape:showpageshadow="2"
     inkscape:pageopacity="0.0"
     inkscape:pagecheckerboard="0"
     inkscape:deskcolor="#d1d1d1"
     inkscape:zoom="3.295"
     inkscape:cx="101.36571"
     inkscape:cy="-0.75872534"
     inkscape:window-width="1400"
     inkscape:window-height="864"
     inkscape:window-x="209"
     inkscape:window-y="25"
     inkscape:window-maximized="0"
     inkscape:current-layer="svg1" />
  <path
     style="font-weight:bold;font-size:13.3333px;font-family:BPreplay;-inkscape-font-specification:'BPreplay Bold';letter-spacing:0px;white-space:pre;fill:#ffffff;stroke-width:2.64567;stroke-linecap:square;stroke-opacity:0.988722;paint-order:markers fill stroke"
     d="m 5.3827215,10.908549 c -1.6266625,0 -2.4266605,-1.5066625 -2.4266605,-3.0533253 0,-1.866662 0.8266646,-3.4399913 2.5199936,-3.4399913 0.5199987,0 1.1466638,0.1066664 1.733329,0.6399984 0.2533327,0.2399994 0.5466653,0.3466658 0.8133313,0.3466658 0.5066654,0 0.9466642,-0.3866657 0.9466642,-1.0533307 0,-1.2399969 -1.8933285,-2.1466613 -3.4533246,-2.1466613 -3.2133252,0 -4.81332114,2.7333265 -4.81332114,5.6666524 0,2.639993 1.50666284,5.226653 4.63998824,5.226653 2.6399934,0 4.3066558,-1.919995 4.3066558,-4.6133212 0,-0.8933311 -0.133333,-1.7199957 -1.3999964,-1.7199957 H 5.5693877 c -0.7999979,0 -1.1999969,0.3466658 -1.1999969,1.0799973 0,0.6933316 0.3866657,1.066664 1.159997,1.066664 H 7.4627163 C 7.3293833,10.175218 6.5960518,10.908549 5.3827215,10.908549 Z M 11.302704,5.5485629 c -0.426665,0.1733329 -0.693331,0.4666654 -0.693331,0.8399978 0,0.6799983 0.479999,0.8399979 0.986664,0.8399979 0.479999,0 0.919998,-0.1733329 1.466663,-0.1733329 0.746665,0 1.626663,0.4799988 1.626663,1.2666635 V 8.9752209 C 14.209364,8.6285551 13.502699,8.4285556 12.782701,8.4285556 c -1.706663,0 -2.70666,1.2533301 -2.70666,2.4533274 0,1.106664 0.866664,2.159994 2.386661,2.159994 0.746664,0 1.546662,-0.306666 2.173327,-0.973331 v 0.253333 c 0.04,0.546665 0.613332,0.719998 0.839998,0.719998 0.653332,0 1.039998,-0.493332 1.039998,-1.026664 V 8.0285566 c 0,-2.0399949 -1.679996,-2.8399928 -3.373325,-2.8399928 -0.613332,0 -1.25333,0.1199997 -1.839996,0.3599991 z m 0.866665,5.0666541 c 0,-0.426666 0.559999,-0.613332 1.119997,-0.613332 0.533332,0 1.119997,0.199999 1.119997,0.546665 0,0.466666 -0.639998,0.706665 -1.239997,0.706665 -0.493332,0 -0.999997,-0.213333 -0.999997,-0.639998 z m 5.573325,1.306663 c 0,0.679998 0.333332,1.026664 0.999997,1.026664 0.706665,0 1.039998,-0.346666 1.039998,-1.026664 V 8.2018895 c 0,-0.7866647 0.519998,-1.1866637 1.05333,-1.1866637 0.479999,0 0.986665,0.3866657 0.986665,1.1866637 V 11.92188 c 0,0.679998 0.359999,1.026664 1.026664,1.026664 0.693331,0 1.039997,-0.346666 1.039997,-1.026664 V 7.9752234 c 0.08,-0.6399984 0.559999,-0.9599976 1.039997,-0.9599976 0.479999,0 0.986665,0.3866657 0.986665,1.1866637 V 11.92188 c 0,0.679998 0.359999,1.026664 1.026664,1.026664 0.693331,0 1.039997,-0.346666 1.039997,-1.026664 V 7.8285571 c 0,-1.8533287 -1.106664,-2.6133267 -2.239994,-2.6133267 -0.839998,0 -1.693329,0.4133323 -2.119995,1.1066638 C 23.26268,5.508563 22.596015,5.1885638 21.902683,5.1885638 c -0.799998,0 -1.653329,0.4266656 -2.119994,0.9599975 0,-0.4133322 -0.333333,-0.9199976 -1.039998,-0.9199976 -0.666665,0 -0.999997,0.5066654 -0.999997,1.0666639 z M 32.38265,5.0685641 c -2.226661,0 -3.453324,1.9333284 -3.453324,3.95999 0,2.1999949 1.306663,4.0666559 3.653324,4.0666559 1.226663,0 2.213327,-0.453332 2.879992,-1.279996 0.173333,-0.186667 0.226666,-0.373333 0.226666,-0.613332 0,-0.613332 -0.333332,-0.879998 -0.759998,-0.879998 -0.706665,0 -1.13333,0.826665 -2.159994,0.826665 -0.573332,0 -1.759996,-0.413333 -1.759996,-1.6133296 h 3.053326 c 1.026664,0 1.653329,0 1.653329,-1.026664 0,-2.0666615 -1.186664,-3.4399913 -3.333325,-3.4399913 z m -1.266663,3.0799922 c 0,-0.8266646 0.679998,-1.2666635 1.29333,-1.2666635 0.586665,0 1.17333,0.4133323 1.17333,1.2666635 z M 42.409302,4.8952312 c 0,-0.2799993 0.226666,-0.4133323 0.439999,-0.4133323 0.199999,0 0.426665,0.133333 0.426665,0.4933321 0,0.3199992 -0.226666,0.6799983 -0.479998,0.9599975 -0.24,-0.3199991 -0.386666,-0.6799982 -0.386666,-1.0399973 z m 3.773324,7.8399798 c 0.173333,0.16 0.453332,0.213333 0.679998,0.213333 0.546665,0 1.039997,-0.506665 1.039997,-1.106664 0,-0.253332 -0.08,-0.479999 -0.253332,-0.666665 l -0.799998,-0.906664 0.706664,-1.0399974 c 0.173333,-0.2933326 0.28,-0.6133318 0.28,-0.8799978 0,-0.5733319 -0.413333,-0.9733309 -0.999998,-0.9733309 -0.439999,0 -0.813331,0.2399994 -1.106664,0.7466648 l -0.279999,0.4933321 -1.29333,-1.4799963 c 0.493332,-0.5066654 0.999998,-1.1733304 0.999998,-2.0666614 0,-1.6399959 -1.133331,-2.4133273 -2.279995,-2.4133273 -1.199997,0 -2.413327,0.8399979 -2.413327,2.4399939 0,0.6533317 0.2,1.159997 0.573332,1.6666624 -1.159997,0.9066644 -1.786662,1.9733284 -1.786662,3.1199921 0,1.9066618 1.33333,3.3199918 3.559991,3.3199918 1.026664,0 1.973328,-0.453332 2.66666,-1.21333 z m -1.973329,-2.30666 c -0.413332,0.506665 -0.839998,0.746664 -1.386663,0.746664 -0.759998,0 -1.506663,-0.533332 -1.506663,-1.2799965 0,-0.493332 0.426666,-1.0533306 1.013331,-1.5333294 z m 9.239989,-6.8933164 c -0.119999,-0.6133318 -0.493332,-0.9733309 -1.09333,-0.9733309 -0.559999,0 -1.079997,0.399999 -1.079997,1.0799973 l 1.559996,8.119979 c 0.133333,0.719999 0.746664,1.213331 1.386663,1.213331 0.546665,0 1.186663,-0.386666 1.399996,-1.239997 l 1.199997,-4.7866547 1.37333,4.9733207 c 0.2,0.733332 0.773331,1.026664 1.33333,1.026664 0.666665,0 1.25333,-0.453332 1.37333,-1.119997 0.479999,-2.6533266 0.986664,-5.29332 1.45333,-7.9466466 0.02667,-0.08 0.02667,-0.1199997 0.02667,-0.1599996 v -0.08 c 0,-0.6533317 -0.506665,-1.1066639 -1.106664,-1.1066639 -0.653331,0 -0.999997,0.3599991 -1.106664,1.0133308 L 59.395938,8.6152218 58.089275,3.4819014 c -0.16,-0.5999985 -0.573332,-0.9199977 -1.226664,-0.9199977 -0.653332,0 -1.079997,0.3199992 -1.25333,0.9199977 -0.439999,1.6133293 -0.759998,3.6133242 -1.21333,5.2133202 z m 10.266641,2.0133283 c -0.426666,0.1733329 -0.693332,0.4666654 -0.693332,0.8399978 0,0.6799983 0.479999,0.8399979 0.986664,0.8399979 0.479999,0 0.919998,-0.1733329 1.466663,-0.1733329 0.746665,0 1.626663,0.4799988 1.626663,1.2666635 V 8.9752209 C 66.622586,8.6285551 65.915921,8.4285556 65.195923,8.4285556 c -1.706662,0 -2.70666,1.2533301 -2.70666,2.4533274 0,1.106664 0.866665,2.159994 2.386661,2.159994 0.746665,0 1.546663,-0.306666 2.173328,-0.973331 v 0.253333 c 0.04,0.546665 0.613331,0.719998 0.839998,0.719998 0.653331,0 1.039997,-0.493332 1.039997,-1.026664 V 8.0285566 c 0,-2.0399949 -1.679996,-2.8399928 -3.373325,-2.8399928 -0.613332,0 -1.25333,0.1199997 -1.839995,0.3599991 z m 0.866664,5.0666541 c 0,-0.426666 0.559999,-0.613332 1.119997,-0.613332 0.533332,0 1.119998,0.199999 1.119998,0.546665 0,0.466666 -0.639999,0.706665 -1.239997,0.706665 -0.493332,0 -0.999998,-0.213333 -0.999998,-0.639998 z m 4.973326,-4.4266558 c 0,0.5999985 0.399999,0.7866647 0.93333,0.8399979 v 3.1999919 c 0,1.759996 0.439999,2.82666 2.346661,2.82666 0.719998,0 1.106664,-0.346666 1.106664,-0.999998 0,-0.666665 -0.386666,-0.999997 -1.106664,-0.999997 -0.253332,0 -0.279999,-0.266666 -0.279999,-0.826665 V 7.0552257 h 0.599998 c 0.706665,0 1.039998,-0.1866662 1.039998,-0.8533312 0,-0.6933315 -0.359999,-0.8666644 -1.066664,-0.8666644 H 72.555909 V 4.8152314 c 0,-0.666665 -0.346666,-1.0133308 -1.039997,-1.0133308 -0.679999,0 -1.026665,0.3466658 -1.026665,1.0133308 v 0.5199987 c -0.546665,0.066666 -0.93333,0.266666 -0.93333,0.8533311 z m 8.693306,0.9599976 c 0.506665,0 1.026664,0.2266661 1.426663,0.2266661 0.586665,0 0.973331,-0.3733324 0.973331,-0.9733309 0,-0.399999 -0.319999,-0.7733313 -0.759998,-0.9733308 C 79.32922,5.1752305 78.742555,5.1218973 78.23589,5.1218973 c -2.013328,0 -3.719991,1.5733293 -3.719991,3.9333234 0,2.2799943 1.639996,4.0133233 3.746657,4.0133233 0.613332,0 1.279997,-0.16 1.906662,-0.573332 0.319999,-0.239999 0.546665,-0.519999 0.546665,-0.919998 0,-0.546665 -0.506665,-0.973331 -0.959997,-0.973331 -0.133333,0 -0.333333,0.04 -0.479999,0.146667 -0.306666,0.213333 -0.679998,0.293332 -0.999997,0.293332 -0.919998,0 -1.679996,-0.853331 -1.679996,-1.9333281 0,-1.1866637 0.719998,-1.9599951 1.653329,-1.9599951 z m 3.36,4.7733212 c 0,0.679998 0.333333,1.026664 0.999998,1.026664 0.706665,0 1.039997,-0.346666 1.039997,-1.026664 V 8.2018895 c 0,-0.7866647 0.519999,-1.1866637 1.053331,-1.1866637 0.479999,0 0.986664,0.3866657 0.986664,1.1866637 V 11.92188 c 0,0.679998 0.359999,1.026664 1.026664,1.026664 0.693332,0 1.039997,-0.346666 1.039997,-1.026664 V 7.8285571 c 0,-1.9599951 -1.226663,-2.6399933 -2.253327,-2.6399933 -0.799998,0 -1.386663,0.4266656 -1.853329,0.9599975 V 3.2285687 c 0,-0.6933316 -0.333332,-1.066664 -1.039997,-1.066664 -0.666665,0 -0.999998,0.3733324 -0.999998,1.066664 z"
     id="text2"
     aria-label="Game &amp; Watch" />
</svg>
