<?xml version="1.0" encoding="UTF-8" standalone="no"?>
<svg
   viewBox="0 0 200 40"
   version="1.1"
   id="svg1"
   sodipodi:docname="gb.svg"
   inkscape:version="1.3.2 (091e20e, 2023-11-25)"
   xmlns:inkscape="http://www.inkscape.org/namespaces/inkscape"
   xmlns:sodipodi="http://sodipodi.sourceforge.net/DTD/sodipodi-0.dtd"
   xmlns="http://www.w3.org/2000/svg"
   xmlns:svg="http://www.w3.org/2000/svg">
  <defs
     id="defs1">
    <rect
       x="0.30349014"
       y="0.60698027"
       width="199.08953"
       height="38.846737"
       id="rect3" />
    <rect
       x="0.60698027"
       y="0.60698027"
       width="198.78604"
       height="39.150228"
       id="rect2" />
    <rect
       x="0.91047041"
       y="0.60698027"
       width="198.17906"
       height="38.846737"
       id="rect1" />
  </defs>
  <sodipodi:namedview
     id="namedview1"
     pagecolor="#020202"
     bordercolor="#000000"
     borderopacity="0.25"
     inkscape:showpageshadow="2"
     inkscape:pageopacity="0.0"
     inkscape:pagecheckerboard="0"
     inkscape:deskcolor="#d1d1d1"
     inkscape:zoom="3.295"
     inkscape:cx="101.36571"
     inkscape:cy="-0.75872534"
     inkscape:window-width="1400"
     inkscape:window-height="864"
     inkscape:window-x="209"
     inkscape:window-y="25"
     inkscape:window-maximized="0"
     inkscape:current-layer="svg1" />
  <path
     style="font-weight:bold;font-size:13.3333px;font-family:BPreplay;-inkscape-font-specification:'BPreplay Bold';letter-spacing:0px;white-space:pre;fill:#ffffff;stroke-width:2.64567;stroke-linecap:square;stroke-opacity:0.988722;paint-order:markers fill stroke"
     d="m 5.3827215,10.908549 c -1.6266625,0 -2.4266605,-1.5066625 -2.4266605,-3.0533253 0,-1.866662 0.8266646,-3.4399913 2.5199936,-3.4399913 0.5199987,0 1.1466638,0.1066664 1.733329,0.6399984 0.2533327,0.2399994 0.5466653,0.3466658 0.8133313,0.3466658 0.5066654,0 0.9466642,-0.3866657 0.9466642,-1.0533307 0,-1.2399969 -1.8933285,-2.1466613 -3.4533246,-2.1466613 -3.2133252,0 -4.81332114,2.7333265 -4.81332114,5.6666524 0,2.639993 1.50666284,5.226653 4.63998824,5.226653 2.6399934,0 4.3066558,-1.919995 4.3066558,-4.6133212 0,-0.8933311 -0.133333,-1.7199957 -1.3999964,-1.7199957 H 5.5693877 c -0.7999979,0 -1.1999969,0.3466658 -1.1999969,1.0799973 0,0.6933316 0.3866657,1.066664 1.159997,1.066664 H 7.4627163 C 7.3293833,10.175218 6.5960518,10.908549 5.3827215,10.908549 Z M 11.302704,5.5485629 c -0.426665,0.1733329 -0.693331,0.4666654 -0.693331,0.8399978 0,0.6799983 0.479999,0.8399979 0.986664,0.8399979 0.479999,0 0.919998,-0.1733329 1.466663,-0.1733329 0.746665,0 1.626663,0.4799988 1.626663,1.2666635 V 8.9752209 C 14.209364,8.6285551 13.502699,8.4285556 12.782701,8.4285556 c -1.706663,0 -2.70666,1.2533301 -2.70666,2.4533274 0,1.106664 0.866664,2.159994 2.386661,2.159994 0.746664,0 1.546662,-0.306666 2.173327,-0.973331 v 0.253333 c 0.04,0.546665 0.613332,0.719998 0.839998,0.719998 0.653332,0 1.039998,-0.493332 1.039998,-1.026664 V 8.0285566 c 0,-2.0399949 -1.679996,-2.8399928 -3.373325,-2.8399928 -0.613332,0 -1.25333,0.1199997 -1.839996,0.3599991 z m 0.866665,5.0666541 c 0,-0.426666 0.559999,-0.613332 1.119997,-0.613332 0.533332,0 1.119997,0.199999 1.119997,0.546665 0,0.466666 -0.639998,0.706665 -1.239997,0.706665 -0.493332,0 -0.999997,-0.213333 -0.999997,-0.639998 z m 5.573325,1.306663 c 0,0.679998 0.333332,1.026664 0.999997,1.026664 0.706665,0 1.039998,-0.346666 1.039998,-1.026664 V 8.2018895 c 0,-0.7866647 0.519998,-1.1866637 1.05333,-1.1866637 0.479999,0 0.986665,0.3866657 0.986665,1.1866637 V 11.92188 c 0,0.679998 0.359999,1.026664 1.026664,1.026664 0.693331,0 1.039997,-0.346666 1.039997,-1.026664 V 7.9752234 c 0.08,-0.6399984 0.559999,-0.9599976 1.039997,-0.9599976 0.479999,0 0.986665,0.3866657 0.986665,1.1866637 V 11.92188 c 0,0.679998 0.359999,1.026664 1.026664,1.026664 0.693331,0 1.039997,-0.346666 1.039997,-1.026664 V 7.8285571 c 0,-1.8533287 -1.106664,-2.6133267 -2.239994,-2.6133267 -0.839998,0 -1.693329,0.4133323 -2.119995,1.1066638 C 23.26268,5.508563 22.596015,5.1885638 21.902683,5.1885638 c -0.799998,0 -1.653329,0.4266656 -2.119994,0.9599975 0,-0.4133322 -0.333333,-0.9199976 -1.039998,-0.9199976 -0.666665,0 -0.999997,0.5066654 -0.999997,1.0666639 z M 32.38265,5.0685641 c -2.226661,0 -3.453324,1.9333284 -3.453324,3.95999 0,2.1999949 1.306663,4.0666559 3.653324,4.0666559 1.226663,0 2.213327,-0.453332 2.879992,-1.279996 0.173333,-0.186667 0.226666,-0.373333 0.226666,-0.613332 0,-0.613332 -0.333332,-0.879998 -0.759998,-0.879998 -0.706665,0 -1.13333,0.826665 -2.159994,0.826665 -0.573332,0 -1.759996,-0.413333 -1.759996,-1.6133296 h 3.053326 c 1.026664,0 1.653329,0 1.653329,-1.026664 0,-2.0666615 -1.186664,-3.4399913 -3.333325,-3.4399913 z m -1.266663,3.0799922 c 0,-0.8266646 0.679998,-1.2666635 1.29333,-1.2666635 0.586665,0 1.17333,0.4133323 1.17333,1.2666635 z m 8.506655,3.5866577 c 0,0.466665 0.173333,0.826664 0.439999,1.013331 0.2,0.146666 0.493332,0.199999 0.893331,0.199999 h 2.946659 c 1.719996,0 3.226659,-1.306663 3.226659,-3.1733252 0,-1.0666639 -0.866665,-2.4399938 -1.973328,-2.5999934 0.586665,-0.066667 1.266663,-1.1199972 1.266663,-1.7999954 0,-2.0266616 -1.973328,-2.7866597 -3.253325,-2.7866597 h -2.426661 c -0.733331,0 -1.119997,0.399999 -1.119997,1.199997 z m 2.146661,-3.3866582 h 1.586663 c 1.146664,0 1.679996,0.6799983 1.679996,1.3333299 0,0.5733323 -0.426666,1.1333303 -1.25333,1.1333303 h -2.013329 z m 0,-1.6666625 v -1.959995 h 1.45333 c 0.773331,0 1.159997,0.5199987 1.159997,1.0266641 0,0.4799987 -0.346666,0.9333309 -1.053331,0.9333309 z M 51.235938,5.108564 c -2.279994,0 -3.466658,1.8399953 -3.466658,3.9066568 0,2.0799952 1.186664,4.0533232 3.466658,4.0533232 2.253327,0 3.466658,-1.866662 3.466658,-3.9733234 0,-2.0533282 -1.199997,-3.9866566 -3.466658,-3.9866566 z m 0,1.8933285 c 0.946664,0 1.359996,1.2399969 1.359996,2.1733279 0,0.9466646 -0.413332,2.0266616 -1.359996,2.0266616 -0.946664,0 -1.359997,-1.3199968 -1.359997,-2.2533277 0,-0.9599976 0.413333,-1.9466618 1.359997,-1.9466618 z m 5.106651,7.1466485 c -0.05333,0.16 -0.08,0.306666 -0.08,0.479999 0,0.666665 0.319999,1.013331 0.986664,1.013331 0.519999,0 0.893331,-0.253333 1.093331,-0.786665 l 2.946659,-8.1733127 c 0.06667,-0.1866662 0.06667,-0.3466658 0.06667,-0.4799988 0,-0.6933315 -0.346666,-1.026664 -1.026664,-1.026664 -0.533332,0 -0.893331,0.2533327 -1.066664,0.7733313 -0.346666,1.0533307 -0.719999,3.1733254 -1.066664,4.2133232 L 57.209253,6.0152283 C 57.049254,5.4952297 56.662588,5.1885638 56.129256,5.1885638 c -0.666665,0 -0.999997,0.3199992 -0.999997,1.026664 0,0.1599996 0.02667,0.3066659 0.09333,0.4799988 0.613332,1.8533287 1.199997,3.8266574 1.826662,5.6933194 z"
     id="text2"
     aria-label="Game Boy" />
</svg>
