<?xml version="1.0" encoding="UTF-8" standalone="no"?>
<svg
   viewBox="0 0 200 40"
   version="1.1"
   id="svg1"
   sodipodi:docname="genh.svg"
   inkscape:version="1.3.2 (091e20e, 2023-11-25)"
   xmlns:inkscape="http://www.inkscape.org/namespaces/inkscape"
   xmlns:sodipodi="http://sodipodi.sourceforge.net/DTD/sodipodi-0.dtd"
   xmlns="http://www.w3.org/2000/svg"
   xmlns:svg="http://www.w3.org/2000/svg">
  <defs
     id="defs1">
    <rect
       x="0.30349014"
       y="0.60698027"
       width="199.08953"
       height="38.846737"
       id="rect3" />
    <rect
       x="0.60698027"
       y="0.60698027"
       width="198.78604"
       height="39.150228"
       id="rect2" />
    <rect
       x="0.91047041"
       y="0.60698027"
       width="198.17906"
       height="38.846737"
       id="rect1" />
  </defs>
  <sodipodi:namedview
     id="namedview1"
     pagecolor="#020202"
     bordercolor="#000000"
     borderopacity="0.25"
     inkscape:showpageshadow="2"
     inkscape:pageopacity="0.0"
     inkscape:pagecheckerboard="0"
     inkscape:deskcolor="#d1d1d1"
     inkscape:zoom="3.295"
     inkscape:cx="78.907436"
     inkscape:cy="-6.8285281"
     inkscape:window-width="1400"
     inkscape:window-height="864"
     inkscape:window-x="209"
     inkscape:window-y="25"
     inkscape:window-maximized="0"
     inkscape:current-layer="svg1" />
  <path
     style="font-weight:bold;font-size:13.3333px;font-family:BPreplay;-inkscape-font-specification:'BPreplay Bold';letter-spacing:0px;white-space:pre;fill:#ffffff;stroke-width:2.64567;stroke-linecap:square;stroke-opacity:0.988722;paint-order:markers fill stroke"
     d="m 5.3827215,10.908549 c -1.6266625,0 -2.4266605,-1.5066625 -2.4266605,-3.0533253 0,-1.866662 0.8266646,-3.4399913 2.5199936,-3.4399913 0.5199987,0 1.1466638,0.1066664 1.733329,0.6399984 0.2533327,0.2399994 0.5466653,0.3466658 0.8133313,0.3466658 0.5066654,0 0.9466642,-0.3866657 0.9466642,-1.0533307 0,-1.2399969 -1.8933285,-2.1466613 -3.4533246,-2.1466613 -3.2133252,0 -4.81332114,2.7333265 -4.81332114,5.6666524 0,2.639993 1.50666284,5.226653 4.63998824,5.226653 2.6399934,0 4.3066558,-1.919995 4.3066558,-4.6133212 0,-0.8933311 -0.133333,-1.7199957 -1.3999964,-1.7199957 H 5.5693877 c -0.7999979,0 -1.1999969,0.3466658 -1.1999969,1.0799973 0,0.6933316 0.3866657,1.066664 1.159997,1.066664 H 7.4627163 C 7.3293833,10.175218 6.5960518,10.908549 5.3827215,10.908549 Z M 13.676032,5.0685641 c -2.226661,0 -3.453325,1.9333284 -3.453325,3.95999 0,2.1999949 1.306664,4.0666559 3.653324,4.0666559 1.226664,0 2.213328,-0.453332 2.879993,-1.279996 0.173333,-0.186667 0.226666,-0.373333 0.226666,-0.613332 0,-0.613332 -0.333332,-0.879998 -0.759998,-0.879998 -0.706665,0 -1.13333,0.826665 -2.159994,0.826665 -0.573332,0 -1.759996,-0.413333 -1.759996,-1.6133296 h 3.053326 c 1.026664,0 1.653329,0 1.653329,-1.026664 0,-2.0666615 -1.186664,-3.4399913 -3.333325,-3.4399913 z m -1.266664,3.0799922 c 0,-0.8266646 0.679999,-1.2666635 1.29333,-1.2666635 0.586666,0 1.173331,0.4133323 1.173331,1.2666635 z m 5.57332,3.7733237 c 0,0.679998 0.333332,1.026664 0.999997,1.026664 0.706665,0 1.039998,-0.346666 1.039998,-1.026664 V 8.2018895 c 0,-0.7866647 0.519998,-1.1866637 1.05333,-1.1866637 0.479999,0 0.986665,0.3866657 0.986665,1.1866637 V 11.92188 c 0,0.679998 0.359999,1.026664 1.026664,1.026664 0.693331,0 1.039997,-0.346666 1.039997,-1.026664 V 7.8285571 c 0,-1.9599951 -1.226664,-2.6399933 -2.253328,-2.6399933 -0.799998,0 -1.386663,0.4266656 -1.853328,0.9599975 0,-0.4133322 -0.333333,-0.9199976 -1.039998,-0.9199976 -0.666665,0 -0.999997,0.5066654 -0.999997,1.0666639 z M 28.529333,5.0685641 c -2.226661,0 -3.453325,1.9333284 -3.453325,3.95999 0,2.1999949 1.306664,4.0666559 3.653324,4.0666559 1.226664,0 2.213328,-0.453332 2.879993,-1.279996 0.173333,-0.186667 0.226666,-0.373333 0.226666,-0.613332 0,-0.613332 -0.333332,-0.879998 -0.759998,-0.879998 -0.706665,0 -1.13333,0.826665 -2.159994,0.826665 -0.573332,0 -1.759996,-0.413333 -1.759996,-1.6133296 h 3.053326 c 1.026664,0 1.653329,0 1.653329,-1.026664 0,-2.0666615 -1.186664,-3.4399913 -3.333325,-3.4399913 z m -1.266664,3.0799922 c 0,-0.8266646 0.679999,-1.2666635 1.29333,-1.2666635 0.586666,0 1.173331,0.4133323 1.173331,1.2666635 z m 8.413312,3.1466587 c -1.039998,0 -1.426663,-0.733331 -2.226661,-0.733331 -0.479999,0 -0.959998,0.279999 -0.959998,0.879997 0,0.319999 0.133333,0.653332 0.413332,0.853331 0.746665,0.453333 1.53333,0.773332 2.546661,0.773332 1.453329,0 3.026659,-0.679998 3.026659,-2.439994 0,-2.1999944 -3.799991,-2.4399938 -3.799991,-3.3599915 0,-0.3599991 0.266666,-0.4799988 0.613332,-0.4799988 0.786665,0 1.319997,0.4399989 2.013328,0.4399989 0.599999,0 0.919998,-0.4533322 0.919998,-0.8933311 0,-0.3199992 -0.173333,-0.6533316 -0.533332,-0.8533311 -0.693332,-0.3599991 -1.439996,-0.4666655 -2.133328,-0.4666655 -1.573329,0 -2.946659,0.7333315 -2.946659,2.3733273 0,2.3066608 3.71999,2.359994 3.71999,3.4266578 0,0.346666 -0.279999,0.479999 -0.653331,0.479999 z m 3.693319,0.613332 c 0,0.706665 0.359999,1.039997 1.039997,1.039997 0.693332,0 1.039998,-0.333332 1.039998,-1.039997 V 6.3218942 c 0,-0.6933315 -0.373333,-1.026664 -1.053331,-1.026664 -0.666665,0 -1.026664,0.3333325 -1.026664,1.026664 z M 39.182634,3.3085685 c 0,0.666665 0.533332,1.1866637 1.186663,1.1866637 0.679999,0 1.199997,-0.5199987 1.199997,-1.1866637 0,-0.666665 -0.519998,-1.1866636 -1.199997,-1.1866636 -0.653331,0 -1.186663,0.5199986 -1.186663,1.1866636 z m 6.386663,7.9866465 c -1.039997,0 -1.426663,-0.733331 -2.226661,-0.733331 -0.479999,0 -0.959998,0.279999 -0.959998,0.879997 0,0.319999 0.133333,0.653332 0.413333,0.853331 0.746665,0.453333 1.533329,0.773332 2.54666,0.773332 1.45333,0 3.026659,-0.679998 3.026659,-2.439994 0,-2.1999944 -3.79999,-2.4399938 -3.79999,-3.3599915 0,-0.3599991 0.266666,-0.4799988 0.613331,-0.4799988 0.786665,0 1.319997,0.4399989 2.013329,0.4399989 0.599998,0 0.919997,-0.4533322 0.919997,-0.8933311 0,-0.3199992 -0.173333,-0.6533316 -0.533332,-0.8533311 -0.693331,-0.3599991 -1.439996,-0.4666655 -2.133328,-0.4666655 -1.573329,0 -2.946659,0.7333315 -2.946659,2.3733273 0,2.3066608 3.719991,2.359994 3.719991,3.4266578 0,0.346666 -0.28,0.479999 -0.653332,0.479999 z m 6.639989,0.586665 c 0,0.706665 0.333333,1.066664 1.053331,1.066664 0.706665,0 1.066664,-0.359999 1.066664,-1.066664 V 8.7618881 h 3.866657 V 11.88188 c 0,0.706665 0.346666,1.066664 1.066664,1.066664 0.706665,0 1.079997,-0.359999 1.079997,-1.066664 V 3.641901 c 0,-0.7333315 -0.373332,-1.0799973 -1.079997,-1.0799973 -0.719998,0 -1.066664,0.3466658 -1.066664,1.0799973 V 6.6152268 H 54.329281 V 3.641901 c 0,-0.7333315 -0.346666,-1.0799973 -1.079997,-1.0799973 -0.693332,0 -1.039998,0.3466658 -1.039998,1.0799973 z M 62.51593,5.5485629 c -0.426666,0.1733329 -0.693332,0.4666654 -0.693332,0.8399978 0,0.6799983 0.479999,0.8399979 0.986664,0.8399979 0.479999,0 0.919998,-0.1733329 1.466663,-0.1733329 0.746665,0 1.626663,0.4799988 1.626663,1.2666635 V 8.9752209 C 65.422589,8.6285551 64.715924,8.4285556 63.995926,8.4285556 c -1.706662,0 -2.70666,1.2533301 -2.70666,2.4533274 0,1.106664 0.866665,2.159994 2.386661,2.159994 0.746665,0 1.546663,-0.306666 2.173328,-0.973331 v 0.253333 c 0.04,0.546665 0.613332,0.719998 0.839998,0.719998 0.653331,0 1.039997,-0.493332 1.039997,-1.026664 V 8.0285566 c 0,-2.0399949 -1.679996,-2.8399928 -3.373325,-2.8399928 -0.613332,0 -1.25333,0.1199997 -1.839995,0.3599991 z m 0.866664,5.0666541 c 0,-0.426666 0.559999,-0.613332 1.119998,-0.613332 0.533331,0 1.119997,0.199999 1.119997,0.546665 0,0.466666 -0.639999,0.706665 -1.239997,0.706665 -0.493332,0 -0.999998,-0.213333 -0.999998,-0.639998 z m 8.986647,-3.4666582 c 0.506665,0 1.026664,0.2266661 1.426663,0.2266661 0.586665,0 0.973331,-0.3733324 0.973331,-0.9733309 0,-0.399999 -0.319999,-0.7733313 -0.759998,-0.9733308 -0.559999,-0.2533327 -1.146664,-0.3066659 -1.653329,-0.3066659 -2.013328,0 -3.719991,1.5733293 -3.719991,3.9333234 0,2.2799943 1.639996,4.0133233 3.746657,4.0133233 0.613332,0 1.279997,-0.16 1.906662,-0.573332 0.319999,-0.239999 0.546665,-0.519999 0.546665,-0.919998 0,-0.546665 -0.506665,-0.973331 -0.959997,-0.973331 -0.133333,0 -0.333333,0.04 -0.479999,0.146667 -0.306666,0.213333 -0.679998,0.293332 -0.999997,0.293332 -0.919998,0 -1.679996,-0.853331 -1.679996,-1.9333281 0,-1.1866637 0.719998,-1.9599951 1.653329,-1.9599951 z m 3.36,4.7733212 c 0,0.679998 0.333333,1.026664 1.013331,1.026664 0.706665,0 1.026664,-0.346666 1.026664,-1.026664 v -1.706662 c 0.06667,-0.08 0.786665,-0.6666653 0.853331,-0.7199984 l 1.666663,2.9466594 c 0.199999,0.306666 0.613332,0.533332 0.986664,0.533332 0.706665,0 0.973331,-0.479999 0.973331,-1.039998 0,-0.773331 -0.253333,-0.413332 -2.013328,-3.6533237 L 81.689226,7.068559 c 0.306666,-0.2266661 0.426666,-0.4133323 0.426666,-0.7599981 0,-0.5599985 -0.506666,-1.0666639 -1.053331,-1.0666639 -0.253333,0 -0.479999,0.08 -0.693331,0.2533327 L 77.769236,7.6952241 V 3.2152354 c 0,-0.6933316 -0.333332,-1.0399974 -1.026664,-1.0399974 -0.693332,0 -1.013331,0.3466658 -1.013331,1.0399974 z m 10.306643,-0.626665 c -1.039997,0 -1.426663,-0.733331 -2.226661,-0.733331 -0.479999,0 -0.959997,0.279999 -0.959997,0.879997 0,0.319999 0.133333,0.653332 0.413332,0.853331 0.746665,0.453333 1.533329,0.773332 2.54666,0.773332 1.45333,0 3.026659,-0.679998 3.026659,-2.439994 0,-2.1999944 -3.79999,-2.4399938 -3.79999,-3.3599915 0,-0.3599991 0.266666,-0.4799988 0.613331,-0.4799988 0.786665,0 1.319997,0.4399989 2.013329,0.4399989 0.599998,0 0.919997,-0.4533322 0.919997,-0.8933311 0,-0.3199992 -0.173333,-0.6533316 -0.533332,-0.8533311 -0.693331,-0.3599991 -1.439996,-0.4666655 -2.133328,-0.4666655 -1.573329,0 -2.946659,0.7333315 -2.946659,2.3733273 0,2.3066608 3.719991,2.359994 3.719991,3.4266578 0,0.346666 -0.279999,0.479999 -0.653332,0.479999 z"
     id="text2"
     aria-label="Genesis Hacks&#10;&#10;&#10;&#10;&#10;&#10;&#10;&#10;" />
</svg>
