<?xml version="1.0" encoding="UTF-8" standalone="no"?>
<svg
   viewBox="0 0 200 40"
   version="1.1"
   id="svg1"
   sodipodi:docname="gx4000.svg"
   inkscape:version="1.3.2 (091e20e, 2023-11-25)"
   xmlns:inkscape="http://www.inkscape.org/namespaces/inkscape"
   xmlns:sodipodi="http://sodipodi.sourceforge.net/DTD/sodipodi-0.dtd"
   xmlns="http://www.w3.org/2000/svg"
   xmlns:svg="http://www.w3.org/2000/svg">
  <defs
     id="defs1">
    <rect
       x="0.30349014"
       y="0.60698027"
       width="199.08953"
       height="38.846737"
       id="rect3" />
    <rect
       x="0.60698027"
       y="0.60698027"
       width="198.78604"
       height="39.150228"
       id="rect2" />
    <rect
       x="0.91047041"
       y="0.60698027"
       width="198.17906"
       height="38.846737"
       id="rect1" />
  </defs>
  <sodipodi:namedview
     id="namedview1"
     pagecolor="#020202"
     bordercolor="#000000"
     borderopacity="0.25"
     inkscape:showpageshadow="2"
     inkscape:pageopacity="0.0"
     inkscape:pagecheckerboard="0"
     inkscape:deskcolor="#d1d1d1"
     inkscape:zoom="3.295"
     inkscape:cx="101.36571"
     inkscape:cy="-0.75872534"
     inkscape:window-width="1400"
     inkscape:window-height="864"
     inkscape:window-x="209"
     inkscape:window-y="25"
     inkscape:window-maximized="0"
     inkscape:current-layer="svg1" />
  <path
     style="font-weight:bold;font-size:13.3333px;font-family:BPreplay;-inkscape-font-specification:'BPreplay Bold';letter-spacing:0px;white-space:pre;fill:#ffffff;stroke-width:2.64567;stroke-linecap:square;stroke-opacity:0.988722;paint-order:markers fill stroke"
     d="M 4.5827236,6.268561 C 5.0627223,7.6818908 5.1560554,7.8552237 5.5160545,8.9085544 H 3.622726 Z m 2.1999944,5.999985 c 0.1733329,0.439999 0.5199987,0.679998 1.0266641,0.679998 0.666665,0 1.0399973,-0.439999 1.0399973,-1.039997 0,-0.133333 -0.026667,-0.319999 -2.9733258,-8.3733124 -0.2266661,-0.6266651 -0.6799983,-0.9466643 -1.29333,-0.9466643 -0.6133318,0 -1.066664,0.3199992 -1.2933301,0.9466643 L 0.48940057,11.455215 c -0.0399999,0.133333 -0.0799998,0.293332 -0.0799998,0.439998 0,0.546666 0.29333259,1.053331 1.01333073,1.053331 0.5466653,0 0.933331,-0.293332 1.1333305,-0.879998 0.1199997,-0.319999 0.2266661,-0.653331 0.3599991,-0.999997 H 6.3160525 Z M 9.5427169,11.92188 c 0,0.679998 0.3333325,1.026664 0.9999971,1.026664 0.706665,0 1.039998,-0.346666 1.039998,-1.026664 V 8.2018895 c 0,-0.7866647 0.519998,-1.1866637 1.05333,-1.1866637 0.479999,0 0.986665,0.3866657 0.986665,1.1866637 V 11.92188 c 0,0.679998 0.359999,1.026664 1.026664,1.026664 0.693331,0 1.039997,-0.346666 1.039997,-1.026664 V 7.9752234 c 0.08,-0.6399984 0.559999,-0.9599976 1.039997,-0.9599976 0.479999,0 0.986665,0.3866657 0.986665,1.1866637 V 11.92188 c 0,0.679998 0.359999,1.026664 1.026664,1.026664 0.693331,0 1.039997,-0.346666 1.039997,-1.026664 V 7.8285571 c 0,-1.8533287 -1.106664,-2.6133267 -2.239994,-2.6133267 -0.839998,0 -1.693329,0.4133323 -2.119995,1.1066638 -0.359999,-0.8133312 -1.026664,-1.1333304 -1.719996,-1.1333304 -0.799998,0 -1.653329,0.4266656 -2.119994,0.9599975 0,-0.4133322 -0.333333,-0.9199976 -1.039998,-0.9199976 -0.6666646,0 -0.9999971,0.5066654 -0.9999971,1.0666639 z M 23.876006,11.295215 c -1.039997,0 -1.426663,-0.733331 -2.226661,-0.733331 -0.479998,0 -0.959997,0.279999 -0.959997,0.879997 0,0.319999 0.133333,0.653332 0.413332,0.853331 0.746665,0.453333 1.53333,0.773332 2.54666,0.773332 1.45333,0 3.026659,-0.679998 3.026659,-2.439994 0,-2.1999944 -3.79999,-2.4399938 -3.79999,-3.3599915 0,-0.3599991 0.266666,-0.4799988 0.613332,-0.4799988 0.786664,0 1.319996,0.4399989 2.013328,0.4399989 0.599998,0 0.919998,-0.4533322 0.919998,-0.8933311 0,-0.3199992 -0.173333,-0.6533316 -0.533332,-0.8533311 -0.693332,-0.3599991 -1.439997,-0.4666655 -2.133328,-0.4666655 -1.57333,0 -2.94666,0.7333315 -2.94666,2.3733273 0,2.3066608 3.719991,2.359994 3.719991,3.4266578 0,0.346666 -0.279999,0.479999 -0.653332,0.479999 z m 3.226656,-5.1066538 c 0,0.5999985 0.399999,0.7866647 0.933331,0.8399979 v 3.1999919 c 0,1.759996 0.439999,2.82666 2.346661,2.82666 0.719998,0 1.106663,-0.346666 1.106663,-0.999998 0,-0.666665 -0.386665,-0.999997 -1.106663,-0.999997 -0.253333,0 -0.28,-0.266666 -0.28,-0.826665 V 7.0552257 h 0.599999 c 0.706665,0 1.039997,-0.1866662 1.039997,-0.8533312 0,-0.6933315 -0.359999,-0.8666644 -1.066664,-0.8666644 H 30.102654 V 4.8152314 c 0,-0.666665 -0.346666,-1.0133308 -1.039997,-1.0133308 -0.679998,0 -1.026664,0.3466658 -1.026664,1.0133308 v 0.5199987 c -0.546665,0.066666 -0.933331,0.266666 -0.933331,0.8533311 z m 5.386646,5.7333188 c 0,0.679998 0.346666,1.026664 1.026664,1.026664 0.706665,0 1.026664,-0.346666 1.026664,-1.026664 V 8.2018895 c 0,-0.5866652 0.586666,-0.9999975 1.093331,-0.9999975 0.133333,0 0.213333,0.026667 0.306666,0.04 0.133333,0.026667 0.306666,0.04 0.493332,0.04 0.613332,0 1.053331,-0.4933321 1.053331,-1.0399974 0,-0.5466652 -0.399999,-1.1333304 -1.466663,-1.1333304 -0.559999,0 -1.426663,0.5466653 -1.653329,0.9866641 -0.02667,-0.626665 -0.439999,-0.8799977 -0.853332,-0.8799977 -0.679998,0 -1.026664,0.3466658 -1.026664,1.0666639 z M 38.75597,5.5485629 c -0.426666,0.1733329 -0.693332,0.4666654 -0.693332,0.8399978 0,0.6799983 0.479999,0.8399979 0.986664,0.8399979 0.479999,0 0.919998,-0.1733329 1.466663,-0.1733329 0.746665,0 1.626663,0.4799988 1.626663,1.2666635 V 8.9752209 C 41.662629,8.6285551 40.955964,8.4285556 40.235966,8.4285556 c -1.706662,0 -2.70666,1.2533301 -2.70666,2.4533274 0,1.106664 0.866665,2.159994 2.386661,2.159994 0.746665,0 1.546663,-0.306666 2.173328,-0.973331 v 0.253333 c 0.04,0.546665 0.613331,0.719998 0.839997,0.719998 0.653332,0 1.039998,-0.493332 1.039998,-1.026664 V 8.0285566 c 0,-2.0399949 -1.679996,-2.8399928 -3.373325,-2.8399928 -0.613332,0 -1.25333,0.1199997 -1.839995,0.3599991 z m 0.866664,5.0666541 c 0,-0.426666 0.559999,-0.613332 1.119997,-0.613332 0.533332,0 1.119997,0.199999 1.119997,0.546665 0,0.466666 -0.639998,0.706665 -1.239996,0.706665 -0.493332,0 -0.999998,-0.213333 -0.999998,-0.639998 z M 49.582612,6.0952281 C 49.169279,5.4018966 48.382615,5.0818974 47.742616,5.0818974 c -1.453329,0 -2.839992,1.5999959 -2.839992,4.0266565 0,2.3733271 1.413329,3.9866561 2.826659,3.9866561 0.719998,0 1.439996,-0.413332 1.973328,-1.226663 v 0.306666 c 0,0.839998 0.573332,0.946664 0.933331,0.946664 0.679999,0 1.026665,-0.346666 1.026665,-0.986664 V 3.0952357 c 0,-0.6933316 -0.346666,-1.0666639 -1.026665,-1.0666639 -0.679998,0 -1.05333,0.3733323 -1.05333,1.0666639 z m -1.33333,5.0133209 c -0.839998,0 -1.25333,-0.973331 -1.25333,-1.9866618 0,-1.0266641 0.453332,-2.1066614 1.29333,-2.1066614 0.666665,0 1.33333,0.7599981 1.33333,2.0533282 0,1.29333 -0.706665,2.039995 -1.37333,2.039995 z m 11.919981,-0.2 c -1.626663,0 -2.426661,-1.5066625 -2.426661,-3.0533253 0,-1.866662 0.826665,-3.4399913 2.519994,-3.4399913 0.519998,0 1.146663,0.1066664 1.733329,0.6399984 0.253332,0.2399994 0.546665,0.3466658 0.813331,0.3466658 0.506665,0 0.946664,-0.3866657 0.946664,-1.0533307 0,-1.2399969 -1.893328,-2.1466613 -3.453324,-2.1466613 -3.213326,0 -4.813322,2.7333265 -4.813322,5.6666524 0,2.639993 1.506663,5.226653 4.639989,5.226653 2.639993,0 4.306655,-1.919995 4.306655,-4.6133212 0,-0.8933311 -0.133333,-1.7199957 -1.399996,-1.7199957 h -2.679993 c -0.799998,0 -1.199997,0.3466658 -1.199997,1.0799973 0,0.6933316 0.386665,1.066664 1.159997,1.066664 h 1.933328 c -0.133333,1.2666636 -0.866664,1.9999946 -2.079994,1.9999946 z m 4.813328,0.32 c -0.16,0.239999 -0.226666,0.493332 -0.226666,0.759998 0,0.639998 0.333332,0.97333 0.959997,0.97333 0.426666,0 0.759998,-0.173332 0.999998,-0.559998 l 2.079995,-3.2533252 2.239994,3.2799912 c 0.279999,0.36 0.586665,0.533332 0.986664,0.533332 0.639999,0 0.959998,-0.306665 0.959998,-0.959997 0,-0.266666 -0.09333,-0.519999 -0.266666,-0.786665 L 70.075911,7.3085584 72.04924,4.2685661 c 0.119999,-0.1866662 0.199999,-0.399999 0.199999,-0.6266651 0,-0.5999985 -0.506665,-1.066664 -1.05333,-1.066664 -0.399999,0 -0.693332,0.1733329 -0.906665,0.5199987 -0.493332,0.7733314 -0.999997,1.6533292 -1.506663,2.4533272 L 67.075919,3.0419025 C 66.849253,2.70857 66.529254,2.575237 66.169255,2.575237 c -0.559999,0 -1.053331,0.4266656 -1.053331,1.0399974 0,0.2266661 0.06667,0.4533322 0.213333,0.666665 l 2.173328,3.1733253 z m 12.226631,0.573331 c 0,0.759998 0.399999,1.146664 1.053331,1.146664 0.693331,0 1.066664,-0.386666 1.066664,-1.146664 v -1.106663 c 0.653331,0 0.986664,-0.346666 0.986664,-1.0133313 0,-0.7066648 -0.333333,-1.0533306 -0.999998,-1.0533306 V 4.4152324 c 0,-0.9199977 -0.599998,-1.466663 -1.359996,-1.466663 -0.599999,0 -1.066664,0.2933326 -1.41333,0.8533312 l -3.093326,4.9866541 c -0.186666,0.2533327 -0.253332,0.533332 -0.253332,0.7733313 0,0.613332 0.413332,1.146664 1.21333,1.146664 h 2.799993 z m 0,-5.3199862 v 2.1466613 h -1.239997 z m 7.559985,-3.826657 c -2.613326,0 -3.519991,3.0799923 -3.519991,5.2533201 0,2.2399941 0.866665,5.1866531 3.546658,5.1866531 2.573327,0 3.493324,-3.079992 3.493324,-5.2133197 0,-2.1866611 -0.853331,-5.2266535 -3.466657,-5.2266535 z m 0.02667,8.3333122 c -0.999998,0 -1.359997,-1.8533285 -1.359997,-3.0666588 0,-1.1199972 0.28,-3.1333254 1.37333,-3.1333254 0.973331,0 1.319997,1.8933285 1.319997,3.159992 0,1.066664 -0.346666,3.0399922 -1.33333,3.0399922 z M 92.83585,2.6552368 c -2.613327,0 -3.519991,3.0799923 -3.519991,5.2533201 0,2.2399941 0.866664,5.1866531 3.546658,5.1866531 2.573327,0 3.493324,-3.079992 3.493324,-5.2133197 0,-2.1866611 -0.853331,-5.2266535 -3.466658,-5.2266535 z m 0.02667,8.3333122 c -0.999998,0 -1.359997,-1.8533285 -1.359997,-3.0666588 0,-1.1199972 0.279999,-3.1333254 1.37333,-3.1333254 0.973331,0 1.319997,1.8933285 1.319997,3.159992 0,1.066664 -0.346666,3.0399922 -1.33333,3.0399922 z m 8.039973,-8.3333122 c -2.613332,0 -3.519996,3.0799923 -3.519996,5.2533201 0,2.2399941 0.866665,5.1866531 3.546656,5.1866531 2.57333,0 3.49333,-3.079992 3.49333,-5.2133197 0,-2.1866611 -0.85333,-5.2266535 -3.46666,-5.2266535 z m 0.0267,8.3333122 c -0.999996,0 -1.359995,-1.8533285 -1.359995,-3.0666588 0,-1.1199972 0.28,-3.1333254 1.373335,-3.1333254 0.97333,0 1.31999,1.8933285 1.31999,3.159992 0,1.066664 -0.34666,3.0399922 -1.33333,3.0399922 z"
     id="text2"
     aria-label="Amstrad GX4000" />
</svg>
