<?xml version="1.0" encoding="UTF-8" standalone="no"?>
<svg
   viewBox="0 0 200 40"
   version="1.1"
   id="svg1"
   sodipodi:docname="idtech.svg"
   inkscape:version="1.3.2 (091e20e, 2023-11-25)"
   xmlns:inkscape="http://www.inkscape.org/namespaces/inkscape"
   xmlns:sodipodi="http://sodipodi.sourceforge.net/DTD/sodipodi-0.dtd"
   xmlns="http://www.w3.org/2000/svg"
   xmlns:svg="http://www.w3.org/2000/svg">
  <defs
     id="defs1">
    <rect
       x="0.30349014"
       y="0.60698027"
       width="199.08953"
       height="38.846737"
       id="rect3" />
    <rect
       x="0.60698027"
       y="0.60698027"
       width="198.78604"
       height="39.150228"
       id="rect2" />
    <rect
       x="0.91047041"
       y="0.60698027"
       width="198.17906"
       height="38.846737"
       id="rect1" />
  </defs>
  <sodipodi:namedview
     id="namedview1"
     pagecolor="#020202"
     bordercolor="#000000"
     borderopacity="0.25"
     inkscape:showpageshadow="2"
     inkscape:pageopacity="0.0"
     inkscape:pagecheckerboard="0"
     inkscape:deskcolor="#d1d1d1"
     inkscape:zoom="3.295"
     inkscape:cx="78.907436"
     inkscape:cy="-6.8285281"
     inkscape:window-width="1400"
     inkscape:window-height="864"
     inkscape:window-x="209"
     inkscape:window-y="25"
     inkscape:window-maximized="0"
     inkscape:current-layer="svg1" />
  <path
     style="font-weight:bold;font-size:13.3333px;font-family:BPreplay;-inkscape-font-specification:'BPreplay Bold';letter-spacing:0px;white-space:pre;fill:#ffffff;stroke-width:2.64567;stroke-linecap:square;stroke-opacity:0.988722;paint-order:markers fill stroke"
     d="m 1.129399,11.868547 c 0,0.733331 0.359999,1.079997 1.0666639,1.079997 0.7199982,0 1.0799973,-0.346666 1.0799973,-1.079997 V 3.641901 c 0,-0.7333315 -0.3599991,-1.0799973 -1.0799973,-1.0799973 -0.7066649,0 -1.0666639,0.3466658 -1.0666639,1.0799973 z M 9.0227181,6.0952281 C 8.6093859,5.4018966 7.8227212,5.0818974 7.1827228,5.0818974 c -1.4533297,0 -2.8399928,1.5999959 -2.8399928,4.0266565 0,2.3733271 1.4133297,3.9866561 2.8266595,3.9866561 0.7199982,0 1.4399964,-0.413332 1.9733283,-1.226663 v 0.306666 c 0,0.839998 0.5733319,0.946664 0.9333312,0.946664 0.679998,0 1.026664,-0.346666 1.026664,-0.986664 V 3.0952357 c 0,-0.6933316 -0.346666,-1.0666639 -1.026664,-1.0666639 -0.6799985,0 -1.0533309,0.3733323 -1.0533309,1.0666639 z M 7.6893882,11.108549 c -0.8399979,0 -1.2533302,-0.973331 -1.2533302,-1.9866618 0,-1.0266641 0.4533322,-2.1066614 1.2933301,-2.1066614 0.666665,0 1.3333299,0.7599981 1.3333299,2.0533282 0,1.29333 -0.7066648,2.039995 -1.3733298,2.039995 z M 19.156038,4.8818979 c 0.239999,0.1999995 0.506665,0.3333325 0.839998,0.3333325 0.613331,0 1.05333,-0.5733319 1.05333,-1.1199972 0,-0.4133323 -0.213333,-0.7599981 -0.599998,-1.0399974 -0.666665,-0.5066654 -1.479997,-0.7733314 -2.319994,-0.7733314 -1.893329,0 -3.146659,1.5333295 -3.146659,3.0266591 0,1.7999954 1.599996,2.5599935 2.946659,3.1866586 1.066664,0.4933321 1.426663,0.799998 1.426663,1.2533301 0,0.7599978 -0.639998,1.1466638 -1.37333,1.1466638 -0.426665,0 -0.893331,-0.146666 -1.25333,-0.373332 -0.253333,-0.146667 -0.519999,-0.226666 -0.786665,-0.226666 -0.693331,0 -1.039997,0.319999 -1.039997,1.026664 0,0.439998 0.2,0.786664 0.613332,1.05333 0.733331,0.479999 1.559996,0.733332 2.46666,0.733332 2.053328,0 3.639991,-1.279997 3.639991,-3.4399916 0,-1.6399958 -1.146664,-2.3733273 -2.759993,-3.159992 -0.826664,-0.399999 -1.639996,-0.5999985 -1.639996,-1.2533301 0,-0.5866652 0.346666,-0.7599981 0.893331,-0.7599981 0.386666,0 0.719998,0.1466663 1.039998,0.3866657 z m 6.533317,0.2266661 c -2.279995,0 -3.466658,1.8399953 -3.466658,3.9066568 0,2.0799952 1.186663,4.0533232 3.466658,4.0533232 2.253327,0 3.466658,-1.866662 3.466658,-3.9733234 0,-2.0533282 -1.199997,-3.9866566 -3.466658,-3.9866566 z m 0,1.8933285 c 0.946664,0 1.359996,1.2399969 1.359996,2.1733279 0,0.9466646 -0.413332,2.0266616 -1.359996,2.0266616 -0.946665,0 -1.359997,-1.3199968 -1.359997,-2.2533277 0,-0.9599976 0.413332,-1.9466618 1.359997,-1.9466618 z m 4.879977,4.9199875 c 0,0.679998 0.333333,1.026664 1.026664,1.026664 0.693332,0 1.013331,-0.346666 1.013331,-1.026664 V 7.1485588 h 0.159999 c 0.746665,0 1.093331,-0.2399994 1.093331,-0.933331 0,-0.6799982 -0.359999,-0.9066643 -1.093331,-0.9066643 -0.05333,0 -0.05333,0.013333 -0.09333,0.013333 V 4.841898 c 0,-0.4266656 0.306666,-0.8266646 0.746665,-0.8266646 0.333333,0 0.853331,-0.1999995 0.853331,-0.8533312 0,-0.6533317 -0.386665,-1.0133307 -1.119997,-1.0133307 -1.199997,0 -2.493327,0.7999979 -2.573327,2.2666609 v 0.9066644 c -0.693331,0 -1.066664,0.2266661 -1.066664,0.9199976 0,0.666665 0.373333,0.8799978 1.053331,0.8933311 z m 3.533334,-5.7333188 c 0,0.5999985 0.399999,0.7866647 0.933331,0.8399979 v 3.1999919 c 0,1.759996 0.439998,2.82666 2.34666,2.82666 0.719999,0 1.106664,-0.346666 1.106664,-0.999998 0,-0.666665 -0.386665,-0.999997 -1.106664,-0.999997 -0.253332,0 -0.279999,-0.266666 -0.279999,-0.826665 V 7.0552257 h 0.599999 c 0.706664,0 1.039997,-0.1866662 1.039997,-0.8533312 0,-0.6933315 -0.359999,-0.8666644 -1.066664,-0.8666644 H 37.102658 V 4.8152314 c 0,-0.666665 -0.346666,-1.0133308 -1.039997,-1.0133308 -0.679999,0 -1.026664,0.3466658 -1.026664,1.0133308 v 0.5199987 c -0.546666,0.066666 -0.933331,0.266666 -0.933331,0.8533311 z M 41.102639,5.9485618 C 40.889307,5.4285632 40.569307,5.1752305 40.035975,5.1752305 c -0.706664,0 -1.026664,0.3333325 -1.026664,1.0666639 0,0.1599996 0.226667,0.8799978 1.879996,5.8133186 0.199999,0.573332 0.599998,0.893331 1.159997,0.893331 0.546665,0 0.973331,-0.306666 1.13333,-0.866664 l 0.973331,-3.3866584 c 0.519999,1.5333294 0.533332,1.8799954 1.026664,3.3599914 0.2,0.586665 0.559999,0.879998 1.066664,0.879998 0.466666,0 0.879998,-0.266666 1.066664,-0.839998 1.466663,-4.2933225 1.746662,-5.2533201 1.813329,-5.4933195 l -0.01333,0.093333 c 0.06667,-0.1733329 0.09333,-0.3199992 0.09333,-0.4799988 0,-0.7066648 -0.226666,-1.0533306 -0.986665,-1.0533306 -0.533332,0 -0.893331,0.2533327 -1.066663,0.7866646 l -0.893332,3.693324 C 45.769294,8.1085564 45.835961,7.5618911 45.329295,6.0418949 45.182629,5.4818964 44.582631,5.1885638 44.155965,5.1885638 c -0.466665,0 -0.906664,0.2799993 -1.09333,0.8133312 l -1.013331,3.7599905 z m 9.573314,-0.3999989 c -0.426666,0.1733329 -0.693332,0.4666654 -0.693332,0.8399978 0,0.6799983 0.479999,0.8399979 0.986664,0.8399979 0.479999,0 0.919998,-0.1733329 1.466663,-0.1733329 0.746665,0 1.626663,0.4799988 1.626663,1.2666635 V 8.9752209 C 53.582612,8.6285551 52.875947,8.4285556 52.155949,8.4285556 c -1.706662,0 -2.70666,1.2533301 -2.70666,2.4533274 0,1.106664 0.866665,2.159994 2.386661,2.159994 0.746664,0 1.546662,-0.306666 2.173328,-0.973331 v 0.253333 c 0.04,0.546665 0.613331,0.719998 0.839997,0.719998 0.653332,0 1.039998,-0.493332 1.039998,-1.026664 V 8.0285566 c 0,-2.0399949 -1.679996,-2.8399928 -3.373325,-2.8399928 -0.613332,0 -1.25333,0.1199997 -1.839995,0.3599991 z m 0.866664,5.0666541 c 0,-0.426666 0.559999,-0.613332 1.119997,-0.613332 0.533332,0 1.119997,0.199999 1.119997,0.546665 0,0.466666 -0.639998,0.706665 -1.239996,0.706665 -0.493333,0 -0.999998,-0.213333 -0.999998,-0.639998 z m 5.573322,1.306663 c 0,0.679998 0.346666,1.026664 1.026664,1.026664 0.706665,0 1.026664,-0.346666 1.026664,-1.026664 V 8.2018895 c 0,-0.5866652 0.586665,-0.9999975 1.093331,-0.9999975 0.133333,0 0.213333,0.026667 0.306666,0.04 0.133333,0.026667 0.306666,0.04 0.493332,0.04 0.613332,0 1.05333,-0.4933321 1.05333,-1.0399974 0,-0.5466652 -0.399999,-1.1333304 -1.466663,-1.1333304 -0.559998,0 -1.426663,0.5466653 -1.653329,0.9866641 -0.02667,-0.626665 -0.439999,-0.8799977 -0.853331,-0.8799977 -0.679998,0 -1.026664,0.3466658 -1.026664,1.0666639 z M 65.67592,5.0685641 c -2.226661,0 -3.453324,1.9333284 -3.453324,3.95999 0,2.1999949 1.306663,4.0666559 3.653324,4.0666559 1.226663,0 2.213327,-0.453332 2.879992,-1.279996 0.173333,-0.186667 0.226667,-0.373333 0.226667,-0.613332 0,-0.613332 -0.333333,-0.879998 -0.759999,-0.879998 -0.706664,0 -1.13333,0.826665 -2.159994,0.826665 -0.573332,0 -1.759996,-0.413333 -1.759996,-1.6133296 h 3.053326 c 1.026664,0 1.653329,0 1.653329,-1.026664 0,-2.0666615 -1.186664,-3.4399913 -3.333325,-3.4399913 z m -1.266663,3.0799922 c 0,-0.8266646 0.679998,-1.2666635 1.29333,-1.2666635 0.586665,0 1.17333,0.4133323 1.17333,1.2666635 z"
     id="text2"
     aria-label="Id Software&#10;&#10;&#10;&#10;&#10;&#10;&#10;&#10;" />
</svg>
