<?xml version="1.0" encoding="UTF-8" standalone="no"?>
<svg
   viewBox="0 0 200 40"
   version="1.1"
   id="svg1"
   sodipodi:docname="intellivision.svg"
   inkscape:version="1.3.2 (091e20e, 2023-11-25)"
   xmlns:inkscape="http://www.inkscape.org/namespaces/inkscape"
   xmlns:sodipodi="http://sodipodi.sourceforge.net/DTD/sodipodi-0.dtd"
   xmlns="http://www.w3.org/2000/svg"
   xmlns:svg="http://www.w3.org/2000/svg">
  <defs
     id="defs1">
    <rect
       x="0.30349014"
       y="0.60698027"
       width="199.08953"
       height="38.846737"
       id="rect3" />
    <rect
       x="0.60698027"
       y="0.60698027"
       width="198.78604"
       height="39.150228"
       id="rect2" />
    <rect
       x="0.91047041"
       y="0.60698027"
       width="198.17906"
       height="38.846737"
       id="rect1" />
  </defs>
  <sodipodi:namedview
     id="namedview1"
     pagecolor="#020202"
     bordercolor="#000000"
     borderopacity="0.25"
     inkscape:showpageshadow="2"
     inkscape:pageopacity="0.0"
     inkscape:pagecheckerboard="0"
     inkscape:deskcolor="#d1d1d1"
     inkscape:zoom="3.295"
     inkscape:cx="101.36571"
     inkscape:cy="-0.75872534"
     inkscape:window-width="1400"
     inkscape:window-height="864"
     inkscape:window-x="209"
     inkscape:window-y="25"
     inkscape:window-maximized="0"
     inkscape:current-layer="svg1" />
  <path
     style="font-weight:bold;font-size:13.3333px;font-family:BPreplay;-inkscape-font-specification:'BPreplay Bold';letter-spacing:0px;white-space:pre;fill:#ffffff;stroke-width:2.64567;stroke-linecap:square;stroke-opacity:0.988722;paint-order:markers fill stroke"
     d="m 1.129399,11.868547 c 0,0.733331 0.359999,1.079997 1.0666639,1.079997 0.7199982,0 1.0799973,-0.346666 1.0799973,-1.079997 V 3.641901 c 0,-0.7333315 -0.3599991,-1.0799973 -1.0799973,-1.0799973 -0.7066649,0 -1.0666639,0.3466658 -1.0666639,1.0799973 z m 3.613322,0.05333 c 0,0.679998 0.3333325,1.026664 0.9999975,1.026664 0.7066649,0 1.0399974,-0.346666 1.0399974,-1.026664 V 8.2018895 c 0,-0.7866647 0.5199987,-1.1866637 1.0533306,-1.1866637 0.4799988,0 0.9866642,0.3866657 0.9866642,1.1866637 V 11.92188 c 0,0.679998 0.3599991,1.026664 1.0266641,1.026664 0.6933312,0 1.0399972,-0.346666 1.0399972,-1.026664 V 7.8285571 c 0,-1.9599951 -1.2266634,-2.6399933 -2.2533275,-2.6399933 -0.799998,0 -1.3866631,0.4266656 -1.8533286,0.9599975 0,-0.4133322 -0.3333325,-0.9199976 -1.0399974,-0.9199976 -0.666665,0 -0.9999975,0.5066654 -0.9999975,1.0666639 z m 6.839987,-5.7333188 c 0,0.5999985 0.399999,0.7866647 0.933331,0.8399979 v 3.1999919 c 0,1.759996 0.439999,2.82666 2.346661,2.82666 0.719998,0 1.106664,-0.346666 1.106664,-0.999998 0,-0.666665 -0.386666,-0.999997 -1.106664,-0.999997 -0.253333,0 -0.279999,-0.266666 -0.279999,-0.826665 V 7.0552257 h 0.599998 c 0.706665,0 1.039997,-0.1866662 1.039997,-0.8533312 0,-0.6933315 -0.359999,-0.8666644 -1.066664,-0.8666644 H 14.582701 V 4.8152314 c 0,-0.666665 -0.346666,-1.0133308 -1.039998,-1.0133308 -0.679998,0 -1.026664,0.3466658 -1.026664,1.0133308 v 0.5199987 c -0.546665,0.066666 -0.933331,0.266666 -0.933331,0.8533311 z m 8.426646,-1.1199971 c -2.226661,0 -3.453324,1.9333284 -3.453324,3.95999 0,2.1999949 1.306663,4.0666559 3.653324,4.0666559 1.226663,0 2.213328,-0.453332 2.879993,-1.279996 0.173332,-0.186667 0.226666,-0.373333 0.226666,-0.613332 0,-0.613332 -0.333333,-0.879998 -0.759998,-0.879998 -0.706665,0 -1.133331,0.826665 -2.159995,0.826665 -0.573332,0 -1.759996,-0.413333 -1.759996,-1.6133296 h 3.053326 c 1.026664,0 1.653329,0 1.653329,-1.026664 0,-2.0666615 -1.186663,-3.4399913 -3.333325,-3.4399913 z m -1.266663,3.0799922 c 0,-0.8266646 0.679998,-1.2666635 1.29333,-1.2666635 0.586665,0 1.17333,0.4133323 1.17333,1.2666635 z m 5.599986,3.7599907 c 0,0.706665 0.333333,1.039997 1.039997,1.039997 0.693332,0 1.026664,-0.333332 1.026664,-1.039997 V 3.2019021 c 0,-0.6799983 -0.359999,-1.0533306 -1.039997,-1.0533306 -0.679998,0 -1.026664,0.3733323 -1.026664,1.0533306 z m 3.399981,0 c 0,0.706665 0.333332,1.039997 1.039997,1.039997 0.693332,0 1.026664,-0.333332 1.026664,-1.039997 V 3.2019021 c 0,-0.6799983 -0.359999,-1.0533306 -1.039997,-1.0533306 -0.679999,0 -1.026664,0.3733323 -1.026664,1.0533306 z m 3.373314,0 c 0,0.706665 0.359999,1.039997 1.039997,1.039997 0.693331,0 1.039997,-0.333332 1.039997,-1.039997 V 6.3218942 c 0,-0.6933315 -0.373332,-1.026664 -1.05333,-1.026664 -0.666665,0 -1.026664,0.3333325 -1.026664,1.026664 z M 30.929305,3.3085685 c 0,0.666665 0.533332,1.1866637 1.186664,1.1866637 0.679998,0 1.199997,-0.5199987 1.199997,-1.1866637 0,-0.666665 -0.519999,-1.1866636 -1.199997,-1.1866636 -0.653332,0 -1.186664,0.5199986 -1.186664,1.1866636 z m 5.186665,2.7999929 c -0.16,-0.5999984 -0.506666,-0.9466642 -1.079997,-0.9466642 -0.573332,0 -1.026664,0.3866657 -1.026664,1.0133307 0,0.1066664 0.02667,0.2533327 0.06667,0.3866657 l 1.893329,5.6399854 c 0.173332,0.493332 0.506665,0.746665 1.026664,0.746665 0.546665,0 0.906664,-0.253333 1.079997,-0.746665 L 39.99596,6.5885602 c 0.06667,-0.133333 0.08,-0.2933326 0.08,-0.4133323 0,-0.6666649 -0.399999,-1.0133307 -0.999998,-1.0133307 -0.506665,0 -0.866664,0.2933326 -1.09333,0.9066643 l -0.919998,3.6399908 z m 4.759983,5.7999856 c 0,0.706665 0.359999,1.039997 1.039997,1.039997 0.693332,0 1.039997,-0.333332 1.039997,-1.039997 V 6.3218942 c 0,-0.6933315 -0.373332,-1.026664 -1.05333,-1.026664 -0.666665,0 -1.026664,0.3333325 -1.026664,1.026664 z M 40.689286,3.3085685 c 0,0.666665 0.533332,1.1866637 1.186664,1.1866637 0.679998,0 1.199997,-0.5199987 1.199997,-1.1866637 0,-0.666665 -0.519999,-1.1866636 -1.199997,-1.1866636 -0.653332,0 -1.186664,0.5199986 -1.186664,1.1866636 z m 6.38666,7.9866465 c -1.039997,0 -1.426663,-0.733331 -2.226661,-0.733331 -0.479999,0 -0.959998,0.279999 -0.959998,0.879997 0,0.319999 0.133333,0.653332 0.413333,0.853331 0.746665,0.453333 1.533329,0.773332 2.54666,0.773332 1.45333,0 3.026659,-0.679998 3.026659,-2.439994 0,-2.1999944 -3.79999,-2.4399938 -3.79999,-3.3599915 0,-0.3599991 0.266666,-0.4799988 0.613331,-0.4799988 0.786665,0 1.319997,0.4399989 2.013329,0.4399989 0.599998,0 0.919997,-0.4533322 0.919997,-0.8933311 0,-0.3199992 -0.173333,-0.6533316 -0.533332,-0.8533311 -0.693331,-0.3599991 -1.439996,-0.4666655 -2.133328,-0.4666655 -1.573329,0 -2.946659,0.7333315 -2.946659,2.3733273 0,2.3066608 3.719991,2.359994 3.719991,3.4266578 0,0.346666 -0.28,0.479999 -0.653332,0.479999 z m 3.693321,0.613332 c 0,0.706665 0.359999,1.039997 1.039997,1.039997 0.693332,0 1.039998,-0.333332 1.039998,-1.039997 V 6.3218942 c 0,-0.6933315 -0.373333,-1.026664 -1.053331,-1.026664 -0.666665,0 -1.026664,0.3333325 -1.026664,1.026664 z M 50.582601,3.3085685 c 0,0.666665 0.533332,1.1866637 1.186664,1.1866637 0.679998,0 1.199996,-0.5199987 1.199996,-1.1866637 0,-0.666665 -0.519998,-1.1866636 -1.199996,-1.1866636 -0.653332,0 -1.186664,0.5199986 -1.186664,1.1866636 z M 57.28926,5.108564 c -2.279995,0 -3.466658,1.8399953 -3.466658,3.9066568 0,2.0799952 1.186663,4.0533232 3.466658,4.0533232 2.253327,0 3.466658,-1.866662 3.466658,-3.9733234 0,-2.0533282 -1.199997,-3.9866566 -3.466658,-3.9866566 z m 0,1.8933285 c 0.946664,0 1.359996,1.2399969 1.359996,2.1733279 0,0.9466646 -0.413332,2.0266616 -1.359996,2.0266616 -0.946665,0 -1.359997,-1.3199968 -1.359997,-2.2533277 0,-0.9599976 0.413332,-1.9466618 1.359997,-1.9466618 z m 4.439987,4.9199875 c 0,0.679998 0.333333,1.026664 0.999998,1.026664 0.706664,0 1.039997,-0.346666 1.039997,-1.026664 V 8.2018895 c 0,-0.7866647 0.519999,-1.1866637 1.053331,-1.1866637 0.479998,0 0.986664,0.3866657 0.986664,1.1866637 V 11.92188 c 0,0.679998 0.359999,1.026664 1.026664,1.026664 0.693331,0 1.039997,-0.346666 1.039997,-1.026664 V 7.8285571 c 0,-1.9599951 -1.226663,-2.6399933 -2.253327,-2.6399933 -0.799998,0 -1.386664,0.4266656 -1.853329,0.9599975 0,-0.4133322 -0.333333,-0.9199976 -1.039997,-0.9199976 -0.666665,0 -0.999998,0.5066654 -0.999998,1.0666639 z"
     id="text2"
     aria-label="Intellivision" />
</svg>
