<?xml version="1.0" encoding="UTF-8" standalone="no"?>
<svg
   viewBox="0 0 200 40"
   version="1.1"
   id="svg1"
   sodipodi:docname="j2me.svg"
   inkscape:version="1.3.2 (091e20e, 2023-11-25)"
   xmlns:inkscape="http://www.inkscape.org/namespaces/inkscape"
   xmlns:sodipodi="http://sodipodi.sourceforge.net/DTD/sodipodi-0.dtd"
   xmlns="http://www.w3.org/2000/svg"
   xmlns:svg="http://www.w3.org/2000/svg">
  <defs
     id="defs1">
    <rect
       x="0.30349014"
       y="0.60698027"
       width="199.08953"
       height="38.846737"
       id="rect3" />
    <rect
       x="0.60698027"
       y="0.60698027"
       width="198.78604"
       height="39.150228"
       id="rect2" />
    <rect
       x="0.91047041"
       y="0.60698027"
       width="198.17906"
       height="38.846737"
       id="rect1" />
  </defs>
  <sodipodi:namedview
     id="namedview1"
     pagecolor="#020202"
     bordercolor="#000000"
     borderopacity="0.25"
     inkscape:showpageshadow="2"
     inkscape:pageopacity="0.0"
     inkscape:pagecheckerboard="0"
     inkscape:deskcolor="#d1d1d1"
     inkscape:zoom="3.295"
     inkscape:cx="101.36571"
     inkscape:cy="-0.75872534"
     inkscape:window-width="1400"
     inkscape:window-height="864"
     inkscape:window-x="209"
     inkscape:window-y="25"
     inkscape:window-maximized="0"
     inkscape:current-layer="svg1" />
  <path
     style="font-weight:bold;font-size:13.3333px;font-family:BPreplay;-inkscape-font-specification:'BPreplay Bold';letter-spacing:0px;white-space:pre;fill:#ffffff;stroke-width:2.64567;stroke-linecap:square;stroke-opacity:0.988722;paint-order:markers fill stroke"
     d="m 5.5693877,3.641901 c 0,-0.7333315 -0.3733324,-1.0799973 -1.0933305,-1.0799973 -0.7333315,0 -1.066664,0.3466658 -1.066664,1.0799973 v 6.853316 c 0,0.319999 -0.1866662,0.519999 -0.5066654,0.519999 -0.2133328,0 -0.3866657,-0.06667 -0.5599986,-0.186666 -0.3599991,-0.24 -0.6533317,-0.386666 -0.8666645,-0.386666 -0.70666484,0 -1.03999733,0.373332 -1.03999733,1.09333 0,0.306666 0.1199997,0.599999 0.37333239,0.799998 0.57333184,0.519999 1.26666344,0.773332 2.07999474,0.773332 1.5733294,0 2.6799932,-0.999998 2.6799932,-2.613327 z M 7.6893818,5.5485629 C 7.2627162,5.7218958 6.9960502,6.0152283 6.9960502,6.3885607 c 0,0.6799983 0.4799988,0.8399979 0.9866642,0.8399979 0.4799987,0 0.9199976,-0.1733329 1.4666629,-0.1733329 0.7466647,0 1.6266627,0.4799988 1.6266627,1.2666635 V 8.9752209 C 10.596041,8.6285551 9.8893762,8.4285556 9.169378,8.4285556 c -1.7066623,0 -2.7066598,1.2533301 -2.7066598,2.4533274 0,1.106664 0.8666645,2.159994 2.3866606,2.159994 0.7466648,0 1.5466632,-0.306666 2.1733282,-0.973331 v 0.253333 c 0.04,0.546665 0.613331,0.719998 0.839998,0.719998 0.653331,0 1.039997,-0.493332 1.039997,-1.026664 V 8.0285566 c 0,-2.0399949 -1.679996,-2.8399928 -3.3733249,-2.8399928 -0.6133318,0 -1.2533302,0.1199997 -1.8399953,0.3599991 z m 0.8666644,5.0666541 c 0,-0.426666 0.5599986,-0.613332 1.1199972,-0.613332 0.5333316,0 1.1199976,0.199999 1.1199976,0.546665 0,0.466666 -0.639999,0.706665 -1.2399973,0.706665 -0.4933321,0 -0.9999975,-0.213333 -0.9999975,-0.639998 z M 15.676034,6.1085614 C 15.516035,5.508563 15.169369,5.1618972 14.596037,5.1618972 c -0.573332,0 -1.026664,0.3866657 -1.026664,1.0133307 0,0.1066664 0.02667,0.2533327 0.06667,0.3866657 l 1.893329,5.6399854 c 0.173333,0.493332 0.506665,0.746665 1.026664,0.746665 0.546665,0 0.906664,-0.253333 1.079997,-0.746665 l 1.919995,-5.6133188 c 0.06667,-0.133333 0.08,-0.2933326 0.08,-0.4133323 0,-0.6666649 -0.399999,-1.0133307 -0.999997,-1.0133307 -0.506666,0 -0.866665,0.2933326 -1.093331,0.9066643 l -0.919998,3.6399908 z m 5.386651,-0.5599985 c -0.426666,0.1733329 -0.693332,0.4666654 -0.693332,0.8399978 0,0.6799983 0.479999,0.8399979 0.986664,0.8399979 0.479999,0 0.919998,-0.1733329 1.466663,-0.1733329 0.746665,0 1.626663,0.4799988 1.626663,1.2666635 V 8.9752209 C 23.969344,8.6285551 23.262679,8.4285556 22.542681,8.4285556 c -1.706662,0 -2.70666,1.2533301 -2.70666,2.4533274 0,1.106664 0.866665,2.159994 2.386661,2.159994 0.746665,0 1.546663,-0.306666 2.173328,-0.973331 v 0.253333 c 0.04,0.546665 0.613331,0.719998 0.839997,0.719998 0.653332,0 1.039998,-0.493332 1.039998,-1.026664 V 8.0285566 c 0,-2.0399949 -1.679996,-2.8399928 -3.373325,-2.8399928 -0.613332,0 -1.25333,0.1199997 -1.839995,0.3599991 z m 0.866664,5.0666541 c 0,-0.426666 0.559999,-0.613332 1.119997,-0.613332 0.533332,0 1.119998,0.199999 1.119998,0.546665 0,0.466666 -0.639999,0.706665 -1.239997,0.706665 -0.493332,0 -0.999998,-0.213333 -0.999998,-0.639998 z m 8.146662,-4.8799879 c 0,0.5333319 0.359999,1.2266635 1.093331,1.2266635 0.706664,0 1.05333,-0.7066649 1.05333,-1.1733303 0,-0.666665 0.466666,-0.9866642 0.946664,-0.9866642 0.466666,0 0.946665,0.2933326 0.946665,0.799998 0,0.3866656 -0.133333,0.7999979 -0.399999,1.1466637 L 30.47601,11.135215 c -0.186666,0.253333 -0.293333,0.533332 -0.293333,0.786665 0,0.679998 0.399999,1.026664 1.239997,1.026664 h 3.946657 c 0.679998,0 1.026664,-0.373332 1.026664,-1.053331 0,-0.666664 -0.319999,-1.026664 -1.013331,-1.026664 H 33.236003 C 34.129334,9.6685524 34.436,9.2818868 35.302664,8.135223 c 0.599999,-0.8133313 0.973331,-1.7866622 0.973331,-2.62666 0,-1.7066624 -1.533329,-2.8133263 -3.066659,-2.8133263 -1.573329,0 -3.133325,1.1599971 -3.133325,3.0399924 z M 44.115986,3.8019006 C 43.862653,2.9885693 43.329321,2.5352371 42.649323,2.5352371 c -0.759999,0 -1.226664,0.4933321 -1.386664,1.4399964 l -1.226663,7.6266475 c -0.01333,0.106666 -0.01333,0.199999 -0.01333,0.293332 0,0.706665 0.399999,1.039998 1.039997,1.039998 0.693331,0 0.986664,-0.386666 1.09333,-1.039998 l 0.853332,-5.0666534 1.413329,5.1599874 c 0.186667,0.653331 0.586666,0.959997 1.106664,0.959997 0.466666,0 0.893331,-0.319999 1.093331,-0.959997 0.519999,-1.61333 1.026664,-3.5066582 1.559996,-5.1333208 l 0.679998,5.0533208 c 0.09333,0.693331 0.426666,1.026664 1.119997,1.026664 0.599999,0 1.053331,-0.399999 1.053331,-1.066664 0,-0.01333 -0.01333,-0.02667 -0.01333,-0.04 v -0.05333 L 49.875971,3.9885668 c -0.133333,-0.933331 -0.626665,-1.4266631 -1.37333,-1.4266631 -0.693331,0 -1.226663,0.4133323 -1.479996,1.2266636 L 45.555982,8.5752219 Z M 52.0493,11.908547 c 0,0.706665 0.359999,1.039997 1.039998,1.039997 0.693331,0 1.039997,-0.333332 1.039997,-1.039997 V 6.3218942 c 0,-0.6933315 -0.373333,-1.026664 -1.053331,-1.026664 -0.666665,0 -1.026664,0.3333325 -1.026664,1.026664 z M 51.862634,3.3085685 c 0,0.666665 0.533332,1.1866637 1.186664,1.1866637 0.679998,0 1.199997,-0.5199987 1.199997,-1.1866637 0,-0.666665 -0.519999,-1.1866636 -1.199997,-1.1866636 -0.653332,0 -1.186664,0.5199986 -1.186664,1.1866636 z m 6.959991,3.8399903 c 0.506666,0 1.026665,0.2266661 1.426664,0.2266661 0.586665,0 0.97333,-0.3733324 0.97333,-0.9733309 0,-0.399999 -0.319999,-0.7733313 -0.759998,-0.9733308 -0.559998,-0.2533327 -1.146663,-0.3066659 -1.653329,-0.3066659 -2.013328,0 -3.71999,1.5733293 -3.71999,3.9333234 0,2.2799943 1.639995,4.0133233 3.746657,4.0133233 0.613332,0 1.279997,-0.16 1.906662,-0.573332 0.319999,-0.239999 0.546665,-0.519999 0.546665,-0.919998 0,-0.546665 -0.506665,-0.973331 -0.959998,-0.973331 -0.133333,0 -0.333332,0.04 -0.479998,0.146667 -0.306666,0.213333 -0.679999,0.293332 -0.999998,0.293332 -0.919998,0 -1.679996,-0.853331 -1.679996,-1.9333281 0,-1.1866637 0.719998,-1.9599951 1.653329,-1.9599951 z m 3.33333,4.7733212 c 0,0.679998 0.346666,1.026664 1.026664,1.026664 0.706665,0 1.026664,-0.346666 1.026664,-1.026664 V 8.2018895 c 0,-0.5866652 0.586666,-0.9999975 1.093331,-0.9999975 0.133333,0 0.213333,0.026667 0.306666,0.04 0.133333,0.026667 0.306666,0.04 0.493332,0.04 0.613332,0 1.053331,-0.4933321 1.053331,-1.0399974 0,-0.5466652 -0.399999,-1.1333304 -1.466663,-1.1333304 -0.559999,0 -1.426663,0.5466653 -1.653329,0.9866641 -0.02667,-0.626665 -0.439999,-0.8799977 -0.853332,-0.8799977 -0.679998,0 -1.026664,0.3466658 -1.026664,1.0666639 z m 8.573319,-6.813316 c -2.279995,0 -3.466658,1.8399953 -3.466658,3.9066568 0,2.0799952 1.186663,4.0533232 3.466658,4.0533232 2.253327,0 3.466657,-1.866662 3.466657,-3.9733234 0,-2.0533282 -1.199997,-3.9866566 -3.466657,-3.9866566 z m 0,1.8933285 c 0.946664,0 1.359996,1.2399969 1.359996,2.1733279 0,0.9466646 -0.413332,2.0266616 -1.359996,2.0266616 -0.946665,0 -1.359997,-1.3199968 -1.359997,-2.2533277 0,-0.9599976 0.413332,-1.9466618 1.359997,-1.9466618 z m 7.386651,4.7733215 c 0,0.933331 0.133333,1.17333 1.119998,1.17333 h 3.853323 c 0.773332,0 1.146664,-0.359999 1.146664,-1.066664 0,-0.719998 -0.373332,-1.066664 -1.146664,-1.066664 H 80.249253 V 8.6552217 h 2.146662 c 0.719998,0 1.066664,-0.3599991 1.066664,-1.0533307 0,-0.7199982 -0.346666,-1.0799973 -1.066664,-1.0799973 H 80.249253 V 4.7218983 h 2.74666 c 0.719998,0 1.066664,-0.3599991 1.066664,-1.066664 0,-0.7333315 -0.346666,-1.066664 -1.066664,-1.066664 h -3.75999 c -0.733332,0 -1.119998,0.3866657 -1.119998,1.1599971 z M 89.369221,6.0952281 C 88.955889,5.4018966 88.169224,5.0818974 87.529226,5.0818974 c -1.45333,0 -2.839993,1.5999959 -2.839993,4.0266565 0,2.3733271 1.41333,3.9866561 2.82666,3.9866561 0.719998,0 1.439996,-0.413332 1.973328,-1.226663 v 0.306666 c 0,0.839998 0.573332,0.946664 0.933331,0.946664 0.679998,0 1.026664,-0.346666 1.026664,-0.986664 V 3.0952357 c 0,-0.6933316 -0.346666,-1.0666639 -1.026664,-1.0666639 -0.679998,0 -1.053331,0.3733323 -1.053331,1.0666639 z m -1.33333,5.0133209 c -0.839997,0 -1.25333,-0.973331 -1.25333,-1.9866618 0,-1.0266641 0.453332,-2.1066614 1.29333,-2.1066614 0.666665,0 1.33333,0.7599981 1.33333,2.0533282 0,1.29333 -0.706665,2.039995 -1.37333,2.039995 z m 4.71999,0.799998 c 0,0.706665 0.359999,1.039997 1.039998,1.039997 0.693331,0 1.039997,-0.333332 1.039997,-1.039997 V 6.3218942 c 0,-0.6933315 -0.373332,-1.026664 -1.053331,-1.026664 -0.666665,0 -1.026664,0.3333325 -1.026664,1.026664 z M 92.569215,3.3085685 c 0,0.666665 0.533332,1.1866637 1.186664,1.1866637 0.679998,0 1.199997,-0.5199987 1.199997,-1.1866637 0,-0.666665 -0.519999,-1.1866636 -1.199997,-1.1866636 -0.653332,0 -1.186664,0.5199986 -1.186664,1.1866636 z m 3.080001,2.8799927 c 0,0.5999985 0.399999,0.7866647 0.933331,0.8399979 v 3.1999919 c 0,1.759996 0.439999,2.82666 2.346661,2.82666 0.719998,0 1.106662,-0.346666 1.106662,-0.999998 0,-0.666665 -0.386664,-0.999997 -1.106662,-0.999997 -0.253333,0 -0.279999,-0.266666 -0.279999,-0.826665 V 7.0552257 h 0.599998 c 0.706665,0 1.039993,-0.1866662 1.039993,-0.8533312 0,-0.6933315 -0.359994,-0.8666644 -1.066659,-0.8666644 H 98.649209 V 4.8152314 c 0,-0.666665 -0.346666,-1.0133308 -1.039998,-1.0133308 -0.679998,0 -1.026664,0.3466658 -1.026664,1.0133308 v 0.5199987 c -0.546665,0.066666 -0.933331,0.266666 -0.933331,0.8533311 z m 5.386644,5.7199858 c 0,0.706665 0.36,1.039997 1.04,1.039997 0.69333,0 1.04,-0.333332 1.04,-1.039997 V 6.3218942 c 0,-0.6933315 -0.37333,-1.026664 -1.05333,-1.026664 -0.66667,0 -1.02667,0.3333325 -1.02667,1.026664 z M 100.8492,3.3085685 c 0,0.666665 0.53333,1.1866637 1.18666,1.1866637 0.68,0 1.2,-0.5199987 1.2,-1.1866637 0,-0.666665 -0.52,-1.1866636 -1.2,-1.1866636 -0.65333,0 -1.18666,0.5199986 -1.18666,1.1866636 z m 6.70666,1.7999955 c -2.28,0 -3.46666,1.8399953 -3.46666,3.9066568 0,2.0799952 1.18666,4.0533232 3.46666,4.0533232 2.25333,0 3.46666,-1.866662 3.46666,-3.9733234 0,-2.0533282 -1.2,-3.9866566 -3.46666,-3.9866566 z m 0,1.8933285 c 0.94666,0 1.35999,1.2399969 1.35999,2.1733279 0,0.9466646 -0.41333,2.0266616 -1.35999,2.0266616 -0.94667,0 -1.36,-1.3199968 -1.36,-2.2533277 0,-0.9599976 0.41333,-1.9466618 1.36,-1.9466618 z m 4.43998,4.9199875 c 0,0.679998 0.33333,1.026664 1,1.026664 0.70666,0 1.04,-0.346666 1.04,-1.026664 V 8.2018895 c 0,-0.7866647 0.51999,-1.1866637 1.05333,-1.1866637 0.48,0 0.98666,0.3866657 0.98666,1.1866637 V 11.92188 c 0,0.679998 0.36,1.026664 1.02666,1.026664 0.69334,0 1.04,-0.346666 1.04,-1.026664 V 7.8285571 c 0,-1.9599951 -1.22666,-2.6399933 -2.25333,-2.6399933 -0.79999,0 -1.38666,0.4266656 -1.85332,0.9599975 0,-0.4133322 -0.33334,-0.9199976 -1.04,-0.9199976 -0.66667,0 -1,0.5066654 -1,1.0666639 z"
     id="text2"
     aria-label="Java 2 Micro Edition&#10;&#10;&#10;&#10;&#10;&#10;&#10;&#10;" />
</svg>
