<?xml version="1.0" encoding="UTF-8" standalone="no"?>
<svg
   viewBox="0 0 200 40"
   version="1.1"
   id="svg1"
   sodipodi:docname="j2me.svg"
   inkscape:version="1.3.2 (091e20e, 2023-11-25)"
   xmlns:inkscape="http://www.inkscape.org/namespaces/inkscape"
   xmlns:sodipodi="http://sodipodi.sourceforge.net/DTD/sodipodi-0.dtd"
   xmlns="http://www.w3.org/2000/svg"
   xmlns:svg="http://www.w3.org/2000/svg">
  <defs
     id="defs1">
    <rect
       x="0.30349014"
       y="0.60698027"
       width="199.08953"
       height="38.846737"
       id="rect3" />
    <rect
       x="0.60698027"
       y="0.60698027"
       width="198.78604"
       height="39.150228"
       id="rect2" />
    <rect
       x="0.91047041"
       y="0.60698027"
       width="198.17906"
       height="38.846737"
       id="rect1" />
  </defs>
  <sodipodi:namedview
     id="namedview1"
     pagecolor="#020202"
     bordercolor="#000000"
     borderopacity="0.25"
     inkscape:showpageshadow="2"
     inkscape:pageopacity="0.0"
     inkscape:pagecheckerboard="0"
     inkscape:deskcolor="#d1d1d1"
     inkscape:zoom="3.295"
     inkscape:cx="78.907436"
     inkscape:cy="-6.8285281"
     inkscape:window-width="1400"
     inkscape:window-height="864"
     inkscape:window-x="209"
     inkscape:window-y="25"
     inkscape:window-maximized="0"
     inkscape:current-layer="svg1" />
  <path
     style="font-weight:bold;font-size:13.3333px;font-family:BPreplay;-inkscape-font-specification:'BPreplay Bold';letter-spacing:0px;white-space:pre;fill:#ffffff;stroke-width:2.64567;stroke-linecap:square;stroke-opacity:0.988722;paint-order:markers fill stroke"
     d="m 4.9293893,4.8818979 c 0.2399994,0.1999995 0.5066654,0.3333325 0.8399979,0.3333325 0.6133318,0 1.0533307,-0.5733319 1.0533307,-1.1199972 0,-0.4133323 -0.2133328,-0.7599981 -0.5999985,-1.0399974 C 5.5560544,2.5485704 4.7427232,2.2819044 3.9027253,2.2819044 c -1.8933286,0 -3.14665874,1.5333295 -3.14665874,3.0266591 0,1.7999954 1.59999594,2.5599935 2.94665924,3.1866586 1.066664,0.4933321 1.426663,0.799998 1.426663,1.2533301 0,0.7599978 -0.6399983,1.1466638 -1.3733298,1.1466638 -0.4266656,0 -0.8933311,-0.146666 -1.2533302,-0.373332 -0.2533327,-0.146667 -0.5199987,-0.226666 -0.7866647,-0.226666 -0.6933315,0 -1.03999734,0.319999 -1.03999734,1.026664 0,0.439998 0.1999995,0.786664 0.61333174,1.05333 0.7333315,0.479999 1.5599961,0.733332 2.4666605,0.733332 2.0533281,0 3.6399908,-1.279997 3.6399908,-3.4399916 0,-1.6399958 -1.1466638,-2.3733273 -2.759993,-3.159992 C 3.8093922,6.1085614 2.9960609,5.9085619 2.9960609,5.2552303 c 0,-0.5866652 0.3466658,-0.7599981 0.8933311,-0.7599981 0.3866657,0 0.7199982,0.1466663 1.0399973,0.3866657 z m 5.3733207,1.426663 c 0,-0.7066648 -0.3199995,-1.026664 -1.0266644,-1.026664 -0.6799982,0 -1.0133307,0.3199992 -1.0133307,1.026664 v 3.559991 c 0,2.0133281 1.159997,3.1599921 2.3866611,3.1599921 0.733331,0 1.493329,-0.399999 2.053328,-1.146664 v 0.399999 c 0.01333,0.599999 0.426665,0.839998 0.786664,0.839998 0.693332,0 1.026664,-0.346666 1.026664,-0.986664 V 6.268561 c 0,-0.7066648 -0.333332,-1.0533306 -1.026664,-1.0533306 -0.746664,0 -0.986664,0.3866657 -0.986664,1.0533306 v 2.799993 c 0,1.279997 -0.639998,1.973328 -1.266663,1.973328 -0.466666,0 -0.919998,-0.239999 -0.919998,-1.5466624 z m 5.493323,5.6133191 c 0,0.679998 0.333332,1.026664 0.999997,1.026664 0.706665,0 1.039998,-0.346666 1.039998,-1.026664 V 8.2018895 c 0,-0.7866647 0.519998,-1.1866637 1.05333,-1.1866637 0.479999,0 0.986665,0.3866657 0.986665,1.1866637 V 11.92188 c 0,0.679998 0.359999,1.026664 1.026664,1.026664 0.693331,0 1.039997,-0.346666 1.039997,-1.026664 V 7.8285571 c 0,-1.9599951 -1.226664,-2.6399933 -2.253328,-2.6399933 -0.799998,0 -1.386663,0.4266656 -1.853328,0.9599975 0,-0.4133322 -0.333333,-0.9199976 -1.039998,-0.9199976 -0.666665,0 -0.999997,0.5066654 -0.999997,1.0666639 z M 29.782678,3.8019006 C 29.529346,2.9885693 28.996014,2.5352371 28.316015,2.5352371 c -0.759998,0 -1.226663,0.4933321 -1.386663,1.4399964 l -1.226663,7.6266475 c -0.01333,0.106666 -0.01333,0.199999 -0.01333,0.293332 0,0.706665 0.399999,1.039998 1.039998,1.039998 0.693331,0 0.986664,-0.386666 1.09333,-1.039998 l 0.853331,-5.0666534 1.41333,5.1599874 c 0.186666,0.653331 0.586665,0.959997 1.106664,0.959997 0.466666,0 0.893331,-0.319999 1.093331,-0.959997 0.519998,-1.61333 1.026664,-3.5066582 1.559996,-5.1333208 l 0.679998,5.0533208 c 0.09333,0.693331 0.426666,1.026664 1.119997,1.026664 0.599999,0 1.053331,-0.399999 1.053331,-1.066664 0,-0.01333 -0.01333,-0.02667 -0.01333,-0.04 v -0.05333 L 35.542664,3.9885668 c -0.133333,-0.933331 -0.626665,-1.4266631 -1.37333,-1.4266631 -0.693332,0 -1.226664,0.4133323 -1.479996,1.2266636 l -1.466663,4.7866546 z m 7.933313,8.1066464 c 0,0.706665 0.359999,1.039997 1.039997,1.039997 0.693332,0 1.039998,-0.333332 1.039998,-1.039997 V 6.3218942 c 0,-0.6933315 -0.373333,-1.026664 -1.053331,-1.026664 -0.666665,0 -1.026664,0.3333325 -1.026664,1.026664 z M 37.529325,3.3085685 c 0,0.666665 0.533332,1.1866637 1.186663,1.1866637 0.679999,0 1.199997,-0.5199987 1.199997,-1.1866637 0,-0.666665 -0.519998,-1.1866636 -1.199997,-1.1866636 -0.653331,0 -1.186663,0.5199986 -1.186663,1.1866636 z m 6.959991,3.8399903 c 0.506666,0 1.026664,0.2266661 1.426663,0.2266661 0.586666,0 0.973331,-0.3733324 0.973331,-0.9733309 0,-0.399999 -0.319999,-0.7733313 -0.759998,-0.9733308 -0.559998,-0.2533327 -1.146664,-0.3066659 -1.653329,-0.3066659 -2.013328,0 -3.719991,1.5733293 -3.719991,3.9333234 0,2.2799943 1.639996,4.0133233 3.746658,4.0133233 0.613331,0 1.279996,-0.16 1.906661,-0.573332 0.32,-0.239999 0.546666,-0.519999 0.546666,-0.919998 0,-0.546665 -0.506666,-0.973331 -0.959998,-0.973331 -0.133333,0 -0.333332,0.04 -0.479999,0.146667 -0.306666,0.213333 -0.679998,0.293332 -0.999997,0.293332 -0.919998,0 -1.679996,-0.853331 -1.679996,-1.9333281 0,-1.1866637 0.719998,-1.9599951 1.653329,-1.9599951 z M 47.82265,11.92188 c 0,0.679998 0.346666,1.026664 1.026664,1.026664 0.706665,0 1.026664,-0.346666 1.026664,-1.026664 V 8.2018895 c 0,-0.5866652 0.586665,-0.9999975 1.093331,-0.9999975 0.133333,0 0.213332,0.026667 0.306666,0.04 0.133333,0.026667 0.306665,0.04 0.493332,0.04 0.613331,0 1.05333,-0.4933321 1.05333,-1.0399974 0,-0.5466652 -0.399999,-1.1333304 -1.466663,-1.1333304 -0.559998,0 -1.426663,0.5466653 -1.653329,0.9866641 -0.02667,-0.626665 -0.439999,-0.8799977 -0.853331,-0.8799977 -0.679998,0 -1.026664,0.3466658 -1.026664,1.0666639 z m 8.573314,-6.813316 c -2.279994,0 -3.466658,1.8399953 -3.466658,3.9066568 0,2.0799952 1.186664,4.0533232 3.466658,4.0533232 2.253328,0 3.466658,-1.866662 3.466658,-3.9733234 0,-2.0533282 -1.199997,-3.9866566 -3.466658,-3.9866566 z m 0,1.8933285 c 0.946665,0 1.359997,1.2399969 1.359997,2.1733279 0,0.9466646 -0.413332,2.0266616 -1.359997,2.0266616 -0.946664,0 -1.359996,-1.3199968 -1.359996,-2.2533277 0,-0.9599976 0.413332,-1.9466618 1.359996,-1.9466618 z m 7.279977,4.2933225 c -1.039998,0 -1.426663,-0.733331 -2.226661,-0.733331 -0.479999,0 -0.959998,0.279999 -0.959998,0.879997 0,0.319999 0.133333,0.653332 0.413332,0.853331 0.746665,0.453333 1.53333,0.773332 2.546661,0.773332 1.453329,0 3.026659,-0.679998 3.026659,-2.439994 0,-2.1999944 -3.799991,-2.4399938 -3.799991,-3.3599915 0,-0.3599991 0.266666,-0.4799988 0.613332,-0.4799988 0.786665,0 1.319997,0.4399989 2.013328,0.4399989 0.599999,0 0.919998,-0.4533322 0.919998,-0.8933311 0,-0.3199992 -0.173333,-0.6533316 -0.533332,-0.8533311 -0.693332,-0.3599991 -1.439996,-0.4666655 -2.133328,-0.4666655 -1.573329,0 -2.946659,0.7333315 -2.946659,2.3733273 0,2.3066608 3.71999,2.359994 3.71999,3.4266578 0,0.346666 -0.279999,0.479999 -0.653331,0.479999 z m 4.426643,2.853326 c -0.05333,0.16 -0.08,0.306666 -0.08,0.479999 0,0.666665 0.319999,1.013331 0.986664,1.013331 0.519999,0 0.893331,-0.253333 1.09333,-0.786665 l 2.94666,-8.1733127 c 0.06667,-0.1866662 0.06667,-0.3466658 0.06667,-0.4799988 0,-0.6933315 -0.346666,-1.026664 -1.026664,-1.026664 -0.533332,0 -0.893331,0.2533327 -1.066664,0.7733313 -0.346666,1.0533307 -0.719998,3.1733254 -1.066664,4.2133232 L 68.969248,6.0152283 c -0.16,-0.5199986 -0.546665,-0.8266645 -1.079997,-0.8266645 -0.666665,0 -0.999998,0.3199992 -0.999998,1.026664 0,0.1599996 0.02667,0.3066659 0.09333,0.4799988 0.613332,1.8533287 1.199997,3.8266574 1.826662,5.6933194 z m 8.559979,-2.853326 c -1.039998,0 -1.426663,-0.733331 -2.226661,-0.733331 -0.479999,0 -0.959998,0.279999 -0.959998,0.879997 0,0.319999 0.133333,0.653332 0.413332,0.853331 0.746665,0.453333 1.53333,0.773332 2.546661,0.773332 1.453329,0 3.026659,-0.679998 3.026659,-2.439994 0,-2.1999944 -3.799991,-2.4399938 -3.799991,-3.3599915 0,-0.3599991 0.266666,-0.4799988 0.613332,-0.4799988 0.786665,0 1.319997,0.4399989 2.013328,0.4399989 0.599999,0 0.919998,-0.4533322 0.919998,-0.8933311 0,-0.3199992 -0.173333,-0.6533316 -0.533332,-0.8533311 -0.693332,-0.3599991 -1.439996,-0.4666655 -2.133328,-0.4666655 -1.573329,0 -2.946659,0.7333315 -2.946659,2.3733273 0,2.3066608 3.71999,2.359994 3.71999,3.4266578 0,0.346666 -0.279999,0.479999 -0.653331,0.479999 z m 3.226651,-5.1066538 c 0,0.5999985 0.399999,0.7866647 0.933331,0.8399979 v 3.1999919 c 0,1.759996 0.439999,2.82666 2.346661,2.82666 0.719998,0 1.106664,-0.346666 1.106664,-0.999998 0,-0.666665 -0.386666,-0.999997 -1.106664,-0.999997 -0.253333,0 -0.279999,-0.266666 -0.279999,-0.826665 V 7.0552257 h 0.599998 c 0.706665,0 1.039998,-0.1866662 1.039998,-0.8533312 0,-0.6933315 -0.36,-0.8666644 -1.066664,-0.8666644 H 82.889207 V 4.8152314 c 0,-0.666665 -0.346666,-1.0133308 -1.039998,-1.0133308 -0.679998,0 -1.026664,0.3466658 -1.026664,1.0133308 v 0.5199987 c -0.546665,0.066666 -0.933331,0.266666 -0.933331,0.8533311 z m 8.426648,-1.1199971 c -2.226661,0 -3.453324,1.9333284 -3.453324,3.95999 0,2.1999949 1.306663,4.0666559 3.653324,4.0666559 1.226663,0 2.213328,-0.453332 2.879993,-1.279996 0.173333,-0.186667 0.226666,-0.373333 0.226666,-0.613332 0,-0.613332 -0.333333,-0.879998 -0.759998,-0.879998 -0.706665,0 -1.133331,0.826665 -2.159995,0.826665 -0.573332,0 -1.759995,-0.413333 -1.759995,-1.6133296 h 3.053325 c 1.026664,0 1.653329,0 1.653329,-1.026664 0,-2.0666615 -1.186663,-3.4399913 -3.333325,-3.4399913 z m -1.266663,3.0799922 c 0,-0.8266646 0.679998,-1.2666635 1.29333,-1.2666635 0.586665,0 1.17333,0.4133323 1.17333,1.2666635 z m 5.57332,3.7733237 c 0,0.679998 0.333333,1.026664 0.999998,1.026664 0.706665,0 1.039997,-0.346666 1.039997,-1.026664 V 8.2018895 c 0,-0.7866647 0.519999,-1.1866637 1.053331,-1.1866637 0.479999,0 0.986664,0.3866657 0.986664,1.1866637 V 11.92188 c 0,0.679998 0.359999,1.026664 1.026664,1.026664 0.693332,0 1.039998,-0.346666 1.039998,-1.026664 V 7.9752234 c 0.08,-0.6399984 0.559998,-0.9599976 1.039997,-0.9599976 0.480002,0 0.986662,0.3866657 0.986662,1.1866637 V 11.92188 c 0,0.679998 0.36,1.026664 1.02667,1.026664 0.69333,0 1.03999,-0.346666 1.03999,-1.026664 V 7.8285571 c 0,-1.8533287 -1.10666,-2.6133267 -2.23999,-2.6133267 -0.839999,0 -1.69333,0.4133323 -2.119995,1.1066638 -0.36,-0.8133312 -1.026664,-1.1333304 -1.719996,-1.1333304 -0.799998,0 -1.653329,0.4266656 -2.119995,0.9599975 0,-0.4133322 -0.333332,-0.9199976 -1.039997,-0.9199976 -0.666665,0 -0.999998,0.5066654 -0.999998,1.0666639 z m 14.333291,-0.626665 c -1.04,0 -1.42667,-0.733331 -2.22667,-0.733331 -0.47999,0 -0.95999,0.279999 -0.95999,0.879997 0,0.319999 0.13333,0.653332 0.41333,0.853331 0.74666,0.453333 1.53333,0.773332 2.54666,0.773332 1.45333,0 3.02666,-0.679998 3.02666,-2.439994 0,-2.1999944 -3.79999,-2.4399938 -3.79999,-3.3599915 0,-0.3599991 0.26666,-0.4799988 0.61333,-0.4799988 0.78667,0 1.32,0.4399989 2.01333,0.4399989 0.6,0 0.92,-0.4533322 0.92,-0.8933311 0,-0.3199992 -0.17334,-0.6533316 -0.53334,-0.8533311 -0.69333,-0.3599991 -1.43999,-0.4666655 -2.13332,-0.4666655 -1.57333,0 -2.94666,0.7333315 -2.94666,2.3733273 0,2.3066608 3.71999,2.359994 3.71999,3.4266578 0,0.346666 -0.28,0.479999 -0.65333,0.479999 z m 10.75998,-7.653314 c 0,-0.7333315 -0.37333,-1.0799973 -1.09333,-1.0799973 -0.73333,0 -1.06667,0.3466658 -1.06667,1.0799973 v 6.853316 c 0,0.319999 -0.18666,0.519999 -0.50666,0.519999 -0.21333,0 -0.38667,-0.06667 -0.56,-0.186666 -0.36,-0.24 -0.65333,-0.386666 -0.86666,-0.386666 -0.70667,0 -1.04,0.373332 -1.04,1.09333 0,0.306666 0.12,0.599999 0.37333,0.799998 0.57333,0.519999 1.26666,0.773332 2.07999,0.773332 1.57333,0 2.68,-0.999998 2.68,-2.613327 z m 1.24,2.0933281 c 0,0.5333319 0.36,1.2266635 1.09333,1.2266635 0.70666,0 1.05333,-0.7066649 1.05333,-1.1733303 0,-0.666665 0.46667,-0.9866642 0.94666,-0.9866642 0.46667,0 0.94667,0.2933326 0.94667,0.799998 0,0.3866656 -0.13333,0.7999979 -0.4,1.1466637 l -3.23999,4.3866552 c -0.18667,0.253333 -0.29333,0.533332 -0.29333,0.786665 0,0.679998 0.39999,1.026664 1.23999,1.026664 h 3.94666 c 0.68,0 1.02666,-0.373332 1.02666,-1.053331 0,-0.666664 -0.32,-1.026664 -1.01333,-1.026664 h -2.14666 c 0.89333,-1.1999966 1.2,-1.5866622 2.06666,-2.733326 0.6,-0.8133313 0.97333,-1.7866622 0.97333,-2.62666 0,-1.7066624 -1.53333,-2.8133263 -3.06666,-2.8133263 -1.57333,0 -3.13332,1.1599971 -3.13332,3.0399924 z m 11.27997,-1.9333285 c -0.25333,-0.8133313 -0.78667,-1.2666635 -1.46666,-1.2666635 -0.76,0 -1.22667,0.4933321 -1.38667,1.4399964 l -1.22666,7.6266475 c -0.0133,0.106666 -0.0133,0.199999 -0.0133,0.293332 0,0.706665 0.4,1.039998 1.03999,1.039998 0.69334,0 0.98667,-0.386666 1.09333,-1.039998 l 0.85334,-5.0666534 1.41333,5.1599874 c 0.18666,0.653331 0.58666,0.959997 1.10666,0.959997 0.46666,0 0.89333,-0.319999 1.09333,-0.959997 0.52,-1.61333 1.02666,-3.5066582 1.56,-5.1333208 l 0.67999,5.0533208 c 0.0933,0.693331 0.42667,1.026664 1.12,1.026664 0.6,0 1.05333,-0.399999 1.05333,-1.066664 0,-0.01333 -0.0133,-0.02667 -0.0133,-0.04 v -0.05333 l -1.14667,-7.7866472 c -0.13333,-0.933331 -0.62666,-1.4266631 -1.37333,-1.4266631 -0.69333,0 -1.22666,0.4133323 -1.47999,1.2266636 l -1.46666,4.7866546 z m 8.11999,7.9733134 c 0,0.933331 0.13333,1.17333 1.11999,1.17333 h 3.85333 c 0.77333,0 1.14666,-0.359999 1.14666,-1.066664 0,-0.719998 -0.37333,-1.066664 -1.14666,-1.066664 h -2.83999 V 8.6552217 h 2.14666 c 0.72,0 1.06666,-0.3599991 1.06666,-1.0533307 0,-0.7199982 -0.34666,-1.0799973 -1.06666,-1.0799973 h -2.14666 V 4.7218983 h 2.74666 c 0.71999,0 1.06666,-0.3599991 1.06666,-1.066664 0,-0.7333315 -0.34667,-1.066664 -1.06666,-1.066664 h -3.76 c -0.73333,0 -1.11999,0.3866657 -1.11999,1.1599971 z"
     id="text2"
     aria-label="Sun Microsystems J2ME&#10;&#10;&#10;&#10;&#10;&#10;&#10;&#10;" />
</svg>
