<?xml version="1.0" encoding="UTF-8" standalone="no"?>
<svg
   viewBox="0 0 200 40"
   version="1.1"
   id="svg1"
   sodipodi:docname="jaleco.svg"
   inkscape:version="1.3.2 (091e20e, 2023-11-25)"
   xmlns:inkscape="http://www.inkscape.org/namespaces/inkscape"
   xmlns:sodipodi="http://sodipodi.sourceforge.net/DTD/sodipodi-0.dtd"
   xmlns="http://www.w3.org/2000/svg"
   xmlns:svg="http://www.w3.org/2000/svg">
  <defs
     id="defs1">
    <rect
       x="0.30349014"
       y="0.60698027"
       width="199.08953"
       height="38.846737"
       id="rect3" />
    <rect
       x="0.60698027"
       y="0.60698027"
       width="198.78604"
       height="39.150228"
       id="rect2" />
    <rect
       x="0.91047041"
       y="0.60698027"
       width="198.17906"
       height="38.846737"
       id="rect1" />
  </defs>
  <sodipodi:namedview
     id="namedview1"
     pagecolor="#020202"
     bordercolor="#000000"
     borderopacity="0.25"
     inkscape:showpageshadow="2"
     inkscape:pageopacity="0.0"
     inkscape:pagecheckerboard="0"
     inkscape:deskcolor="#d1d1d1"
     inkscape:zoom="3.295"
     inkscape:cx="101.36571"
     inkscape:cy="-0.75872534"
     inkscape:window-width="1400"
     inkscape:window-height="864"
     inkscape:window-x="209"
     inkscape:window-y="25"
     inkscape:window-maximized="0"
     inkscape:current-layer="svg1" />
  <path
     style="font-weight:bold;font-size:13.3333px;font-family:BPreplay;-inkscape-font-specification:'BPreplay Bold';letter-spacing:0px;white-space:pre;fill:#ffffff;stroke-width:2.64567;stroke-linecap:square;stroke-opacity:0.988722;paint-order:markers fill stroke"
     d="m 5.5693877,3.641901 c 0,-0.7333315 -0.3733324,-1.0799973 -1.0933305,-1.0799973 -0.7333315,0 -1.066664,0.3466658 -1.066664,1.0799973 v 6.853316 c 0,0.319999 -0.1866662,0.519999 -0.5066654,0.519999 -0.2133328,0 -0.3866657,-0.06667 -0.5599986,-0.186666 -0.3599991,-0.24 -0.6533317,-0.386666 -0.8666645,-0.386666 -0.70666484,0 -1.03999733,0.373332 -1.03999733,1.09333 0,0.306666 0.1199997,0.599999 0.37333239,0.799998 0.57333184,0.519999 1.26666344,0.773332 2.07999474,0.773332 1.5733294,0 2.6799932,-0.999998 2.6799932,-2.613327 z M 7.6893818,5.5485629 C 7.2627162,5.7218958 6.9960502,6.0152283 6.9960502,6.3885607 c 0,0.6799983 0.4799988,0.8399979 0.9866642,0.8399979 0.4799987,0 0.9199976,-0.1733329 1.4666629,-0.1733329 0.7466647,0 1.6266627,0.4799988 1.6266627,1.2666635 V 8.9752209 C 10.596041,8.6285551 9.8893762,8.4285556 9.169378,8.4285556 c -1.7066623,0 -2.7066598,1.2533301 -2.7066598,2.4533274 0,1.106664 0.8666645,2.159994 2.3866606,2.159994 0.7466648,0 1.5466632,-0.306666 2.1733282,-0.973331 v 0.253333 c 0.04,0.546665 0.613331,0.719998 0.839998,0.719998 0.653331,0 1.039997,-0.493332 1.039997,-1.026664 V 8.0285566 c 0,-2.0399949 -1.679996,-2.8399928 -3.3733249,-2.8399928 -0.6133318,0 -1.2533302,0.1199997 -1.8399953,0.3599991 z m 0.8666644,5.0666541 c 0,-0.426666 0.5599986,-0.613332 1.1199972,-0.613332 0.5333316,0 1.1199976,0.199999 1.1199976,0.546665 0,0.466666 -0.639999,0.706665 -1.2399973,0.706665 -0.4933321,0 -0.9999975,-0.213333 -0.9999975,-0.639998 z m 5.5999908,1.29333 c 0,0.706665 0.333333,1.039997 1.039998,1.039997 0.693331,0 1.026664,-0.333332 1.026664,-1.039997 V 3.2019021 c 0,-0.6799983 -0.359999,-1.0533306 -1.039998,-1.0533306 -0.679998,0 -1.026664,0.3733323 -1.026664,1.0533306 z M 20.67601,5.0685641 c -2.226661,0 -3.453325,1.9333284 -3.453325,3.95999 0,2.1999949 1.306664,4.0666559 3.653324,4.0666559 1.226664,0 2.213328,-0.453332 2.879993,-1.279996 0.173333,-0.186667 0.226666,-0.373333 0.226666,-0.613332 0,-0.613332 -0.333332,-0.879998 -0.759998,-0.879998 -0.706665,0 -1.13333,0.826665 -2.159994,0.826665 -0.573332,0 -1.759996,-0.413333 -1.759996,-1.6133296 h 3.053326 c 1.026664,0 1.653329,0 1.653329,-1.026664 0,-2.0666615 -1.186664,-3.4399913 -3.333325,-3.4399913 z m -1.266664,3.0799922 c 0,-0.8266646 0.679999,-1.2666635 1.29333,-1.2666635 0.586666,0 1.173331,0.4133323 1.173331,1.2666635 z M 28.39599,7.1485588 c 0.506665,0 1.026664,0.2266661 1.426663,0.2266661 0.586665,0 0.973331,-0.3733324 0.973331,-0.9733309 0,-0.399999 -0.32,-0.7733313 -0.759998,-0.9733308 -0.559999,-0.2533327 -1.146664,-0.3066659 -1.65333,-0.3066659 -2.013328,0 -3.71999,1.5733293 -3.71999,3.9333234 0,2.2799943 1.639996,4.0133233 3.746657,4.0133233 0.613332,0 1.279997,-0.16 1.906662,-0.573332 0.319999,-0.239999 0.546665,-0.519999 0.546665,-0.919998 0,-0.546665 -0.506665,-0.973331 -0.959997,-0.973331 -0.133333,0 -0.333333,0.04 -0.479999,0.146667 -0.306666,0.213333 -0.679998,0.293332 -0.999998,0.293332 -0.919997,0 -1.679995,-0.853331 -1.679995,-1.9333281 0,-1.1866637 0.719998,-1.9599951 1.653329,-1.9599951 z M 34.795981,5.108564 c -2.279994,0 -3.466658,1.8399953 -3.466658,3.9066568 0,2.0799952 1.186664,4.0533232 3.466658,4.0533232 2.253328,0 3.466658,-1.866662 3.466658,-3.9733234 0,-2.0533282 -1.199997,-3.9866566 -3.466658,-3.9866566 z m 0,1.8933285 c 0.946664,0 1.359997,1.2399969 1.359997,2.1733279 0,0.9466646 -0.413333,2.0266616 -1.359997,2.0266616 -0.946664,0 -1.359996,-1.3199968 -1.359996,-2.2533277 0,-0.9599976 0.413332,-1.9466618 1.359996,-1.9466618 z"
     id="text2"
     aria-label="Jaleco&#10;&#10;&#10;&#10;&#10;&#10;&#10;&#10;" />
</svg>
