<?xml version="1.0" encoding="UTF-8" standalone="no"?>
<svg
   viewBox="0 0 200 40"
   version="1.1"
   id="svg1"
   sodipodi:docname="kaneko.svg"
   inkscape:version="1.3.2 (091e20e, 2023-11-25)"
   xmlns:inkscape="http://www.inkscape.org/namespaces/inkscape"
   xmlns:sodipodi="http://sodipodi.sourceforge.net/DTD/sodipodi-0.dtd"
   xmlns="http://www.w3.org/2000/svg"
   xmlns:svg="http://www.w3.org/2000/svg">
  <defs
     id="defs1">
    <rect
       x="0.30349014"
       y="0.60698027"
       width="199.08953"
       height="38.846737"
       id="rect3" />
    <rect
       x="0.60698027"
       y="0.60698027"
       width="198.78604"
       height="39.150228"
       id="rect2" />
    <rect
       x="0.91047041"
       y="0.60698027"
       width="198.17906"
       height="38.846737"
       id="rect1" />
  </defs>
  <sodipodi:namedview
     id="namedview1"
     pagecolor="#020202"
     bordercolor="#000000"
     borderopacity="0.25"
     inkscape:showpageshadow="2"
     inkscape:pageopacity="0.0"
     inkscape:pagecheckerboard="0"
     inkscape:deskcolor="#d1d1d1"
     inkscape:zoom="3.295"
     inkscape:cx="101.36571"
     inkscape:cy="-0.75872534"
     inkscape:window-width="1400"
     inkscape:window-height="864"
     inkscape:window-x="209"
     inkscape:window-y="25"
     inkscape:window-maximized="0"
     inkscape:current-layer="svg1" />
  <path
     style="font-weight:bold;font-size:13.3333px;font-family:BPreplay;-inkscape-font-specification:'BPreplay Bold';letter-spacing:0px;white-space:pre;fill:#ffffff;stroke-width:2.64567;stroke-linecap:square;stroke-opacity:0.988722;paint-order:markers fill stroke"
     d="m 1.1160657,11.935213 c 0,0.666665 0.359999,1.013331 1.0799972,1.013331 0.7066649,0 1.0533307,-0.346666 1.0533307,-1.013331 V 9.5485527 L 4.1693913,8.5618886 6.5693852,12.468545 c 0.266666,0.293333 0.4799988,0.493332 0.933331,0.493332 0.2933326,0 1.0799972,-0.373332 1.0799972,-1.079997 0,-0.226666 -0.04,-0.466665 -0.2666659,-0.706665 L 5.7293873,6.9485593 C 6.6093851,5.9752284 7.182717,5.3885633 8.0360482,4.441899 8.2627143,4.2418995 8.3427141,3.9885668 8.3427141,3.6952342 c 0,-0.5599986 -0.5466653,-1.1066639 -1.1199972,-1.1066639 -0.2533327,0 -0.5466653,0.066666 -0.7333315,0.3066659 L 3.2493936,6.4552272 V 3.5485679 c 0,-0.666665 -0.3599991,-0.9866642 -1.0799973,-0.9866642 -0.6933316,0 -1.0533306,0.3199992 -1.0533306,0.9866642 z M 10.236042,5.5485629 C 9.8093761,5.7218958 9.5427101,6.0152283 9.5427101,6.3885607 c 0,0.6799983 0.4799989,0.8399979 0.9866639,0.8399979 0.479999,0 0.919998,-0.1733329 1.466663,-0.1733329 0.746665,0 1.626663,0.4799988 1.626663,1.2666635 V 8.9752209 C 13.142701,8.6285551 12.436036,8.4285556 11.716038,8.4285556 c -1.706662,0 -2.7066599,1.2533301 -2.7066599,2.4533274 0,1.106664 0.8666645,2.159994 2.3866609,2.159994 0.746665,0 1.546663,-0.306666 2.173328,-0.973331 v 0.253333 c 0.04,0.546665 0.613331,0.719998 0.839997,0.719998 0.653332,0 1.039998,-0.493332 1.039998,-1.026664 V 8.0285566 c 0,-2.0399949 -1.679996,-2.8399928 -3.373325,-2.8399928 -0.613332,0 -1.25333,0.1199997 -1.839995,0.3599991 z m 0.866664,5.0666541 c 0,-0.426666 0.559999,-0.613332 1.119997,-0.613332 0.533332,0 1.119998,0.199999 1.119998,0.546665 0,0.466666 -0.639999,0.706665 -1.239997,0.706665 -0.493332,0 -0.999998,-0.213333 -0.999998,-0.639998 z m 5.573324,1.306663 c 0,0.679998 0.333333,1.026664 0.999998,1.026664 0.706664,0 1.039997,-0.346666 1.039997,-1.026664 V 8.2018895 c 0,-0.7866647 0.519999,-1.1866637 1.053331,-1.1866637 0.479998,0 0.986664,0.3866657 0.986664,1.1866637 V 11.92188 c 0,0.679998 0.359999,1.026664 1.026664,1.026664 0.693331,0 1.039997,-0.346666 1.039997,-1.026664 V 7.8285571 c 0,-1.9599951 -1.226663,-2.6399933 -2.253327,-2.6399933 -0.799998,0 -1.386664,0.4266656 -1.853329,0.9599975 0,-0.4133322 -0.333333,-0.9199976 -1.039997,-0.9199976 -0.666665,0 -0.999998,0.5066654 -0.999998,1.0666639 z M 27.222673,5.0685641 c -2.226661,0 -3.453324,1.9333284 -3.453324,3.95999 0,2.1999949 1.306663,4.0666559 3.653324,4.0666559 1.226663,0 2.213327,-0.453332 2.879992,-1.279996 0.173333,-0.186667 0.226666,-0.373333 0.226666,-0.613332 0,-0.613332 -0.333332,-0.879998 -0.759998,-0.879998 -0.706664,0 -1.13333,0.826665 -2.159994,0.826665 -0.573332,0 -1.759996,-0.413333 -1.759996,-1.6133296 h 3.053326 c 1.026664,0 1.653329,0 1.653329,-1.026664 0,-2.0666615 -1.186664,-3.4399913 -3.333325,-3.4399913 z M 25.95601,8.1485563 c 0,-0.8266646 0.679998,-1.2666635 1.29333,-1.2666635 0.586665,0 1.17333,0.4133323 1.17333,1.2666635 z m 5.599987,3.7733237 c 0,0.679998 0.333332,1.026664 1.013331,1.026664 0.706664,0 1.026664,-0.346666 1.026664,-1.026664 v -1.706662 c 0.06667,-0.08 0.786664,-0.6666653 0.853331,-0.7199984 l 1.666662,2.9466594 c 0.2,0.306666 0.613332,0.533332 0.986664,0.533332 0.706665,0 0.973331,-0.479999 0.973331,-1.039998 0,-0.773331 -0.253332,-0.413332 -2.013328,-3.6533237 l 1.45333,-1.2133303 c 0.306666,-0.2266661 0.426665,-0.4133323 0.426665,-0.7599981 0,-0.5599985 -0.506665,-1.0666639 -1.05333,-1.0666639 -0.253333,0 -0.479999,0.08 -0.693332,0.2533327 L 33.595992,7.6952241 V 3.2152354 c 0,-0.6933316 -0.333333,-1.0399974 -1.026664,-1.0399974 -0.693332,0 -1.013331,0.3466658 -1.013331,1.0399974 z M 42.022654,5.108564 c -2.279994,0 -3.466658,1.8399953 -3.466658,3.9066568 0,2.0799952 1.186664,4.0533232 3.466658,4.0533232 2.253328,0 3.466658,-1.866662 3.466658,-3.9733234 0,-2.0533282 -1.199997,-3.9866566 -3.466658,-3.9866566 z m 0,1.8933285 c 0.946665,0 1.359997,1.2399969 1.359997,2.1733279 0,0.9466646 -0.413332,2.0266616 -1.359997,2.0266616 -0.946664,0 -1.359996,-1.3199968 -1.359996,-2.2533277 0,-0.9599976 0.413332,-1.9466618 1.359996,-1.9466618 z"
     id="text2"
     aria-label="Kaneko&#10;&#10;&#10;&#10;&#10;&#10;&#10;&#10;" />
</svg>
