<?xml version="1.0" encoding="UTF-8" standalone="no"?>
<svg
   viewBox="0 0 200 40"
   version="1.1"
   id="svg1"
   sodipodi:docname="love2d.svg"
   inkscape:version="1.3.2 (091e20e, 2023-11-25)"
   xmlns:inkscape="http://www.inkscape.org/namespaces/inkscape"
   xmlns:sodipodi="http://sodipodi.sourceforge.net/DTD/sodipodi-0.dtd"
   xmlns="http://www.w3.org/2000/svg"
   xmlns:svg="http://www.w3.org/2000/svg">
  <defs
     id="defs1">
    <rect
       x="0.30349014"
       y="0.60698027"
       width="199.08953"
       height="38.846737"
       id="rect3" />
    <rect
       x="0.60698027"
       y="0.60698027"
       width="198.78604"
       height="39.150228"
       id="rect2" />
    <rect
       x="0.91047041"
       y="0.60698027"
       width="198.17906"
       height="38.846737"
       id="rect1" />
  </defs>
  <sodipodi:namedview
     id="namedview1"
     pagecolor="#020202"
     bordercolor="#000000"
     borderopacity="0.25"
     inkscape:showpageshadow="2"
     inkscape:pageopacity="0.0"
     inkscape:pagecheckerboard="0"
     inkscape:deskcolor="#d1d1d1"
     inkscape:zoom="3.295"
     inkscape:cx="101.36571"
     inkscape:cy="-0.75872534"
     inkscape:window-width="1400"
     inkscape:window-height="864"
     inkscape:window-x="209"
     inkscape:window-y="25"
     inkscape:window-maximized="0"
     inkscape:current-layer="svg1" />
  <path
     style="font-weight:bold;font-size:13.3333px;font-family:BPreplay;-inkscape-font-specification:'BPreplay Bold';letter-spacing:0px;white-space:pre;fill:#ffffff;stroke-width:2.64567;stroke-linecap:square;stroke-opacity:0.988722;paint-order:markers fill stroke"
     d="m 1.1160657,11.628547 c 0,0.866665 0.3999989,1.319997 1.2266635,1.319997 h 4.2533226 c 0.7333315,0 1.0799973,-0.346666 1.0799973,-1.079997 0,-0.693332 -0.3466658,-1.053331 -1.0799973,-1.053331 H 3.2493936 V 3.641901 c 0,-0.7333315 -0.3466658,-1.0799973 -1.0799973,-1.0799973 -0.6933316,0 -1.0533306,0.3466658 -1.0533306,1.0799973 z M 11.329371,5.108564 c -2.2799945,0 -3.4666582,1.8399953 -3.4666582,3.9066568 0,2.0799952 1.1866637,4.0533232 3.4666582,4.0533232 2.253327,0 3.466658,-1.866662 3.466658,-3.9733234 0,-2.0533282 -1.199997,-3.9866566 -3.466658,-3.9866566 z m 0,1.8933285 c 0.946664,0 1.359996,1.2399969 1.359996,2.1733279 0,0.9466646 -0.413332,2.0266616 -1.359996,2.0266616 -0.946665,0 -1.3599968,-1.3199968 -1.3599968,-2.2533277 0,-0.9599976 0.4133318,-1.9466618 1.3599968,-1.9466618 z M 17.249363,6.1085614 C 17.089364,5.508563 16.742698,5.1618972 16.169366,5.1618972 c -0.573332,0 -1.026664,0.3866657 -1.026664,1.0133307 0,0.1066664 0.02667,0.2533327 0.06667,0.3866657 l 1.893329,5.6399854 c 0.173333,0.493332 0.506665,0.746665 1.026664,0.746665 0.546665,0 0.906664,-0.253333 1.079997,-0.746665 l 1.919995,-5.6133188 c 0.06667,-0.133333 0.08,-0.2933326 0.08,-0.4133323 0,-0.6666649 -0.399999,-1.0133307 -0.999997,-1.0133307 -0.506666,0 -0.866665,0.2933326 -1.093331,0.9066643 l -0.919998,3.6399908 z m 7.746652,-1.0399973 c -2.226661,0 -3.453324,1.9333284 -3.453324,3.95999 0,2.1999949 1.306663,4.0666559 3.653324,4.0666559 1.226663,0 2.213328,-0.453332 2.879993,-1.279996 0.173332,-0.186667 0.226666,-0.373333 0.226666,-0.613332 0,-0.613332 -0.333333,-0.879998 -0.759998,-0.879998 -0.706665,0 -1.133331,0.826665 -2.159995,0.826665 -0.573332,0 -1.759996,-0.413333 -1.759996,-1.6133296 h 3.053326 c 1.026664,0 1.653329,0 1.653329,-1.026664 0,-2.0666615 -1.186663,-3.4399913 -3.333325,-3.4399913 z m -1.266663,3.0799922 c 0,-0.8266646 0.679998,-1.2666635 1.29333,-1.2666635 0.586665,0 1.17333,0.4133323 1.17333,1.2666635 z m 5.386654,-2.4133272 c 0,0.5333319 0.359999,1.2266635 1.093331,1.2266635 0.706665,0 1.05333,-0.7066649 1.05333,-1.1733303 0,-0.666665 0.466666,-0.9866642 0.946665,-0.9866642 0.466665,0 0.946664,0.2933326 0.946664,0.799998 0,0.3866656 -0.133333,0.7999979 -0.399999,1.1466637 l -3.239992,4.3866552 c -0.186666,0.253333 -0.293332,0.533332 -0.293332,0.786665 0,0.679998 0.399999,1.026664 1.239996,1.026664 h 3.946657 c 0.679998,0 1.026664,-0.373332 1.026664,-1.053331 0,-0.666664 -0.319999,-1.026664 -1.013331,-1.026664 h -2.146661 c 0.893331,-1.1999966 1.199997,-1.5866622 2.066662,-2.733326 0.599998,-0.8133313 0.97333,-1.7866622 0.97333,-2.62666 0,-1.7066624 -1.533329,-2.8133263 -3.066658,-2.8133263 -1.57333,0 -3.133326,1.1599971 -3.133326,3.0399924 z m 11.839969,0.359999 C 40.542643,5.4018966 39.755978,5.0818974 39.11598,5.0818974 c -1.45333,0 -2.839993,1.5999959 -2.839993,4.0266565 0,2.3733271 1.41333,3.9866561 2.82666,3.9866561 0.719998,0 1.439996,-0.413332 1.973328,-1.226663 v 0.306666 c 0,0.839998 0.573332,0.946664 0.933331,0.946664 0.679998,0 1.026664,-0.346666 1.026664,-0.986664 V 3.0952357 c 0,-0.6933316 -0.346666,-1.0666639 -1.026664,-1.0666639 -0.679998,0 -1.053331,0.3733323 -1.053331,1.0666639 z m -1.33333,5.0133209 c -0.839998,0 -1.25333,-0.973331 -1.25333,-1.9866618 0,-1.0266641 0.453332,-2.1066614 1.29333,-2.1066614 0.666665,0 1.33333,0.7599981 1.33333,2.0533282 0,1.29333 -0.706665,2.039995 -1.37333,2.039995 z"
     id="text2"
     aria-label="Love2d" />
</svg>
