<?xml version="1.0" encoding="UTF-8" standalone="no"?>
<svg
   viewBox="0 0 200 40"
   version="1.1"
   id="svg1"
   sodipodi:docname="lowresnx.svg"
   inkscape:version="1.3.2 (091e20e, 2023-11-25)"
   xmlns:inkscape="http://www.inkscape.org/namespaces/inkscape"
   xmlns:sodipodi="http://sodipodi.sourceforge.net/DTD/sodipodi-0.dtd"
   xmlns="http://www.w3.org/2000/svg"
   xmlns:svg="http://www.w3.org/2000/svg">
  <defs
     id="defs1">
    <rect
       x="0.30349014"
       y="0.60698027"
       width="199.08953"
       height="38.846737"
       id="rect3" />
    <rect
       x="0.60698027"
       y="0.60698027"
       width="198.78604"
       height="39.150228"
       id="rect2" />
    <rect
       x="0.91047041"
       y="0.60698027"
       width="198.17906"
       height="38.846737"
       id="rect1" />
  </defs>
  <sodipodi:namedview
     id="namedview1"
     pagecolor="#020202"
     bordercolor="#000000"
     borderopacity="0.25"
     inkscape:showpageshadow="2"
     inkscape:pageopacity="0.0"
     inkscape:pagecheckerboard="0"
     inkscape:deskcolor="#d1d1d1"
     inkscape:zoom="3.295"
     inkscape:cx="101.36571"
     inkscape:cy="-0.75872534"
     inkscape:window-width="1400"
     inkscape:window-height="864"
     inkscape:window-x="209"
     inkscape:window-y="25"
     inkscape:window-maximized="0"
     inkscape:current-layer="svg1" />
  <path
     style="font-weight:bold;font-size:13.3333px;font-family:BPreplay;-inkscape-font-specification:'BPreplay Bold';letter-spacing:0px;white-space:pre;fill:#ffffff;stroke-width:2.64567;stroke-linecap:square;stroke-opacity:0.988722;paint-order:markers fill stroke"
     d="m 1.1160657,11.628547 c 0,0.866665 0.3999989,1.319997 1.2266635,1.319997 h 4.2533226 c 0.7333315,0 1.0799973,-0.346666 1.0799973,-1.079997 0,-0.693332 -0.3466658,-1.053331 -1.0799973,-1.053331 H 3.2493936 V 3.641901 c 0,-0.7333315 -0.3466658,-1.0799973 -1.0799973,-1.0799973 -0.6933316,0 -1.0533306,0.3466658 -1.0533306,1.0799973 z M 11.329371,5.108564 c -2.2799945,0 -3.4666582,1.8399953 -3.4666582,3.9066568 0,2.0799952 1.1866637,4.0533232 3.4666582,4.0533232 2.253327,0 3.466658,-1.866662 3.466658,-3.9733234 0,-2.0533282 -1.199997,-3.9866566 -3.466658,-3.9866566 z m 0,1.8933285 c 0.946664,0 1.359996,1.2399969 1.359996,2.1733279 0,0.9466646 -0.413332,2.0266616 -1.359996,2.0266616 -0.946665,0 -1.3599968,-1.3199968 -1.3599968,-2.2533277 0,-0.9599976 0.4133318,-1.9466618 1.3599968,-1.9466618 z M 17.236022,5.9485618 C 17.022689,5.4285632 16.70269,5.1752305 16.169358,5.1752305 c -0.706665,0 -1.026664,0.3333325 -1.026664,1.0666639 0,0.1599996 0.226666,0.8799978 1.879995,5.8133186 0.2,0.573332 0.599999,0.893331 1.159998,0.893331 0.546665,0 0.97333,-0.306666 1.13333,-0.866664 l 0.973331,-3.3866584 c 0.519999,1.5333294 0.533332,1.8799954 1.026664,3.3599914 0.199999,0.586665 0.559999,0.879998 1.066664,0.879998 0.466665,0 0.879998,-0.266666 1.066664,-0.839998 1.466663,-4.2933225 1.746662,-5.2533201 1.813329,-5.4933195 l -0.01333,0.093333 c 0.06667,-0.1733329 0.09333,-0.3199992 0.09333,-0.4799988 0,-0.7066648 -0.226666,-1.0533306 -0.986664,-1.0533306 -0.533332,0 -0.893331,0.2533327 -1.066664,0.7866646 l -0.893331,3.693324 C 21.902677,8.1085564 21.969344,7.5618911 21.462678,6.0418949 21.316012,5.4818964 20.716013,5.1885638 20.289348,5.1885638 c -0.466666,0 -0.906664,0.2799993 -1.093331,0.8133312 l -1.01333,3.7599905 z m 8.999983,5.8266522 c 0,0.786664 0.359999,1.17333 1.079997,1.17333 0.706665,0 1.05333,-0.386666 1.05333,-1.17333 V 8.9618876 h 1.546663 l 1.679996,3.4133244 c 0.239999,0.466666 0.599998,0.586665 0.973331,0.586665 0.693331,0 1.013331,-0.426665 1.013331,-1.026664 0,-0.226666 -0.08,-0.466665 -0.173333,-0.693331 L 32.11599,8.4152223 c 1.079997,-0.6933316 1.573329,-1.7199957 1.573329,-2.7333264 0,-1.5866627 -1.239997,-3.1066589 -3.479991,-3.1066589 h -2.653327 c -0.866664,0 -1.319996,0.3466658 -1.319996,1.1066639 z m 4.066656,-7.066649 c 0.839998,0 1.199997,0.4799988 1.199997,0.9733309 0,0.5599985 -0.453332,1.159997 -1.199997,1.159997 H 28.369332 V 4.708565 Z m 7.399977,0.3599991 c -2.226661,0 -3.453324,1.9333284 -3.453324,3.95999 0,2.1999949 1.306663,4.0666559 3.653324,4.0666559 1.226663,0 2.213328,-0.453332 2.879993,-1.279996 0.173333,-0.186667 0.226666,-0.373333 0.226666,-0.613332 0,-0.613332 -0.333333,-0.879998 -0.759998,-0.879998 -0.706665,0 -1.133331,0.826665 -2.159995,0.826665 -0.573332,0 -1.759995,-0.413333 -1.759995,-1.6133296 h 3.053325 c 1.026664,0 1.653329,0 1.653329,-1.026664 0,-2.0666615 -1.186663,-3.4399913 -3.333325,-3.4399913 z m -1.266663,3.0799922 c 0,-0.8266646 0.679998,-1.2666635 1.29333,-1.2666635 0.586665,0 1.17333,0.4133323 1.17333,1.2666635 z m 8.413313,3.1466587 c -1.039997,0 -1.426663,-0.733331 -2.226661,-0.733331 -0.479999,0 -0.959997,0.279999 -0.959997,0.879997 0,0.319999 0.133333,0.653332 0.413332,0.853331 0.746665,0.453333 1.533329,0.773332 2.54666,0.773332 1.45333,0 3.026659,-0.679998 3.026659,-2.439994 0,-2.1999944 -3.79999,-2.4399938 -3.79999,-3.3599915 0,-0.3599991 0.266666,-0.4799988 0.613332,-0.4799988 0.786664,0 1.319996,0.4399989 2.013328,0.4399989 0.599998,0 0.919997,-0.4533322 0.919997,-0.8933311 0,-0.3199992 -0.173332,-0.6533316 -0.533332,-0.8533311 -0.693331,-0.3599991 -1.439996,-0.4666655 -2.133327,-0.4666655 -1.57333,0 -2.94666,0.7333315 -2.94666,2.3733273 0,2.3066608 3.719991,2.359994 3.719991,3.4266578 0,0.346666 -0.279999,0.479999 -0.653332,0.479999 z m 6.626656,0.559999 c 0,0.733331 0.346666,1.09333 1.066664,1.09333 0.706665,0 1.066664,-0.359999 1.066664,-1.09333 V 6.8818928 l 3.706657,5.4399862 c 0.293333,0.413332 0.679999,0.626665 1.119998,0.626665 0.706664,0 1.066664,-0.386666 1.066664,-1.159997 V 3.6552343 c 0,-0.7199982 -0.346666,-1.0799973 -1.079998,-1.0799973 -0.693331,0 -1.05333,0.3599991 -1.05333,1.0799973 V 8.7218882 L 53.702605,3.2685686 C 53.382606,2.8019031 52.99594,2.5619037 52.529275,2.5619037 c -0.693332,0 -1.053331,0.3866657 -1.053331,1.1599971 z m 9.293321,-0.626665 c -0.159999,0.239999 -0.226666,0.493332 -0.226666,0.759998 0,0.639998 0.333333,0.97333 0.959998,0.97333 0.426665,0 0.759998,-0.173332 0.999997,-0.559998 l 2.079995,-3.2533252 2.239994,3.2799912 c 0.28,0.36 0.586666,0.533332 0.986665,0.533332 0.639998,0 0.959997,-0.306665 0.959997,-0.959997 0,-0.266666 -0.09333,-0.519999 -0.266666,-0.786665 L 65.862586,7.3085584 67.835914,4.2685661 c 0.12,-0.1866662 0.2,-0.399999 0.2,-0.6266651 0,-0.5999985 -0.506666,-1.066664 -1.053331,-1.066664 -0.399999,0 -0.693332,0.1733329 -0.906664,0.5199987 -0.493332,0.7733314 -0.999998,1.6533292 -1.506663,2.4533272 L 62.862593,3.0419025 C 62.635927,2.70857 62.315928,2.575237 61.955929,2.575237 c -0.559999,0 -1.053331,0.4266656 -1.053331,1.0399974 0,0.2266661 0.06667,0.4533322 0.213333,0.666665 l 2.173328,3.1733253 z"
     id="text2"
     aria-label="LowRes NX&#10;" />
</svg>
