<?xml version="1.0" encoding="UTF-8" standalone="no"?>
<svg
   viewBox="0 0 200 40"
   version="1.1"
   id="svg1"
   sodipodi:docname="megaduck.svg"
   inkscape:version="1.3.2 (091e20e, 2023-11-25)"
   xmlns:inkscape="http://www.inkscape.org/namespaces/inkscape"
   xmlns:sodipodi="http://sodipodi.sourceforge.net/DTD/sodipodi-0.dtd"
   xmlns="http://www.w3.org/2000/svg"
   xmlns:svg="http://www.w3.org/2000/svg">
  <defs
     id="defs1">
    <rect
       x="0.30349014"
       y="0.60698027"
       width="199.08953"
       height="38.846737"
       id="rect3" />
    <rect
       x="0.60698027"
       y="0.60698027"
       width="198.78604"
       height="39.150228"
       id="rect2" />
    <rect
       x="0.91047041"
       y="0.60698027"
       width="198.17906"
       height="38.846737"
       id="rect1" />
  </defs>
  <sodipodi:namedview
     id="namedview1"
     pagecolor="#020202"
     bordercolor="#000000"
     borderopacity="0.25"
     inkscape:showpageshadow="2"
     inkscape:pageopacity="0.0"
     inkscape:pagecheckerboard="0"
     inkscape:deskcolor="#d1d1d1"
     inkscape:zoom="3.295"
     inkscape:cx="101.36571"
     inkscape:cy="-0.75872534"
     inkscape:window-width="1400"
     inkscape:window-height="864"
     inkscape:window-x="209"
     inkscape:window-y="25"
     inkscape:window-maximized="0"
     inkscape:current-layer="svg1" />
  <path
     style="font-weight:bold;font-size:13.3333px;font-family:BPreplay;-inkscape-font-specification:'BPreplay Bold';letter-spacing:0px;white-space:pre;fill:#ffffff;stroke-width:2.64567;stroke-linecap:square;stroke-opacity:0.988722;paint-order:markers fill stroke"
     d="M 4.7693898,3.8019006 C 4.5160571,2.9885693 3.9827251,2.5352371 3.3027268,2.5352371 c -0.7599981,0 -1.2266636,0.4933321 -1.3866632,1.4399964 L 0.68940006,11.601881 c -0.0133333,0.106666 -0.0133333,0.199999 -0.0133333,0.293332 0,0.706665 0.39999904,1.039998 1.03999734,1.039998 0.6933316,0 0.9866642,-0.386666 1.0933306,-1.039998 L 3.6627259,6.8285596 5.0760556,11.988547 c 0.1866662,0.653331 0.5866652,0.959997 1.1066639,0.959997 0.4666655,0 0.8933311,-0.319999 1.0933306,-0.959997 0.5199987,-1.61333 1.0266641,-3.5066582 1.559996,-5.1333208 l 0.6799983,5.0533208 c 0.093333,0.693331 0.4266656,1.026664 1.1199976,1.026664 0.599998,0 1.05333,-0.399999 1.05333,-1.066664 0,-0.01333 -0.01333,-0.02667 -0.01333,-0.04 v -0.05333 L 10.529375,3.9885668 C 10.396042,3.0552358 9.9027101,2.5619037 9.1560453,2.5619037 c -0.6933315,0 -1.2266635,0.4133323 -1.4799962,1.2266636 L 6.2093861,8.5752219 Z M 15.756029,5.0685641 c -2.226661,0 -3.453325,1.9333284 -3.453325,3.95999 0,2.1999949 1.306664,4.0666559 3.653324,4.0666559 1.226664,0 2.213328,-0.453332 2.879993,-1.279996 0.173333,-0.186667 0.226666,-0.373333 0.226666,-0.613332 0,-0.613332 -0.333332,-0.879998 -0.759998,-0.879998 -0.706665,0 -1.13333,0.826665 -2.159994,0.826665 -0.573332,0 -1.759996,-0.413333 -1.759996,-1.6133296 h 3.053326 c 1.026664,0 1.653329,0 1.653329,-1.026664 0,-2.0666615 -1.186664,-3.4399913 -3.333325,-3.4399913 z m -1.266664,3.0799922 c 0,-0.8266646 0.679999,-1.2666635 1.29333,-1.2666635 0.586666,0 1.173331,0.4133323 1.173331,1.2666635 z M 25.502672,5.0952307 c -0.666665,0 -1.026664,0.3599991 -1.053331,0.9999974 -0.413332,-0.6933315 -1.199996,-1.0133307 -1.839995,-1.0133307 -1.45333,0 -2.839993,1.5999959 -2.839993,4.0266565 0,2.3733271 1.41333,3.8533231 2.82666,3.8533231 0.719998,0 1.439996,-0.279999 1.973328,-1.226663 0,1.41333 -0.279999,2.346661 -1.466663,2.346661 -0.373332,0 -0.759998,-0.09333 -1.13333,-0.293333 -0.213333,-0.106666 -0.413333,-0.253333 -0.733332,-0.253333 -0.653331,0 -1.026664,0.519999 -1.026664,1.066664 0,0.346666 0.16,0.706665 0.506666,0.933331 0.733331,0.453332 1.519996,0.679999 2.253327,0.679999 1.919995,0 3.559991,-1.506663 3.559991,-4.293323 V 6.1618946 c 0,-0.6933315 -0.346666,-1.0666639 -1.026664,-1.0666639 z m -2.38666,6.0133183 c -0.839998,0 -1.253331,-0.973331 -1.253331,-1.9866618 0,-1.0266641 0.453333,-2.1066614 1.29333,-2.1066614 0.666665,0 1.33333,0.7599981 1.33333,2.0533282 0,1.29333 -0.706664,2.039995 -1.373329,2.039995 z m 5.493321,-5.5599861 c -0.426666,0.1733329 -0.693332,0.4666654 -0.693332,0.8399978 0,0.6799983 0.479999,0.8399979 0.986664,0.8399979 0.479999,0 0.919998,-0.1733329 1.466663,-0.1733329 0.746665,0 1.626663,0.4799988 1.626663,1.2666635 V 8.9752209 C 31.515992,8.6285551 30.809327,8.4285556 30.089329,8.4285556 c -1.706662,0 -2.70666,1.2533301 -2.70666,2.4533274 0,1.106664 0.866665,2.159994 2.386661,2.159994 0.746665,0 1.546663,-0.306666 2.173328,-0.973331 v 0.253333 c 0.04,0.546665 0.613331,0.719998 0.839998,0.719998 0.653331,0 1.039997,-0.493332 1.039997,-1.026664 V 8.0285566 c 0,-2.0399949 -1.679996,-2.8399928 -3.373325,-2.8399928 -0.613332,0 -1.25333,0.1199997 -1.839995,0.3599991 z m 0.866664,5.0666541 c 0,-0.426666 0.559999,-0.613332 1.119997,-0.613332 0.533332,0 1.119998,0.199999 1.119998,0.546665 0,0.466666 -0.639999,0.706665 -1.239997,0.706665 -0.493332,0 -0.999998,-0.213333 -0.999998,-0.639998 z m 8.519994,1.21333 c 0,0.959998 0.28,1.119997 1.133331,1.119997 h 2.38666 c 2.799993,0 4.546656,-2.533327 4.546656,-5.1333202 0,-2.5866601 -1.45333,-5.2266535 -4.293323,-5.2266535 h -2.439994 c -0.906664,0 -1.33333,0.399999 -1.33333,1.199997 z m 3.639991,-7.1066487 c 1.479996,0 2.226661,1.5199961 2.226661,3.0933255 0,1.5066629 -0.839998,2.9999922 -2.399994,2.9999922 H 40.142653 V 4.7218983 Z m 7.453303,1.5866626 c 0,-0.7066648 -0.32,-1.026664 -1.026665,-1.026664 -0.679998,0 -1.01333,0.3199992 -1.01333,1.026664 v 3.559991 c 0,2.0133281 1.159997,3.1599921 2.38666,3.1599921 0.733332,0 1.49333,-0.399999 2.053328,-1.146664 v 0.399999 c 0.01333,0.599999 0.426666,0.839998 0.786665,0.839998 0.693332,0 1.026664,-0.346666 1.026664,-0.986664 V 6.268561 c 0,-0.7066648 -0.333332,-1.0533306 -1.026664,-1.0533306 -0.746665,0 -0.986664,0.3866657 -0.986664,1.0533306 v 2.799993 c 0,1.279997 -0.639998,1.973328 -1.266663,1.973328 -0.466666,0 -0.919998,-0.239999 -0.919998,-1.5466624 z m 8.906646,0.8399979 c 0.506665,0 1.026664,0.2266661 1.426663,0.2266661 0.586665,0 0.973331,-0.3733324 0.973331,-0.9733309 0,-0.399999 -0.319999,-0.7733313 -0.759998,-0.9733308 -0.559999,-0.2533327 -1.146664,-0.3066659 -1.653329,-0.3066659 -2.013329,0 -3.719991,1.5733293 -3.719991,3.9333234 0,2.2799943 1.639996,4.0133233 3.746657,4.0133233 0.613332,0 1.279997,-0.16 1.906662,-0.573332 0.319999,-0.239999 0.546665,-0.519999 0.546665,-0.919998 0,-0.546665 -0.506665,-0.973331 -0.959997,-0.973331 -0.133333,0 -0.333333,0.04 -0.479999,0.146667 -0.306666,0.213333 -0.679998,0.293332 -0.999997,0.293332 -0.919998,0 -1.679996,-0.853331 -1.679996,-1.9333281 0,-1.1866637 0.719998,-1.9599951 1.653329,-1.9599951 z m 3.36,4.7733212 c 0,0.679998 0.333333,1.026664 1.013331,1.026664 0.706665,0 1.026664,-0.346666 1.026664,-1.026664 v -1.706662 c 0.06667,-0.08 0.786665,-0.6666653 0.853331,-0.7199984 l 1.666663,2.9466594 c 0.199999,0.306666 0.613331,0.533332 0.986664,0.533332 0.706665,0 0.973331,-0.479999 0.973331,-1.039998 0,-0.773331 -0.253333,-0.413332 -2.013329,-3.6533237 l 1.45333,-1.2133303 c 0.306666,-0.2266661 0.426666,-0.4133323 0.426666,-0.7599981 0,-0.5599985 -0.506666,-1.0666639 -1.053331,-1.0666639 -0.253333,0 -0.479999,0.08 -0.693332,0.2533327 L 63.395926,7.6952241 V 3.2152354 c 0,-0.6933316 -0.333332,-1.0399974 -1.026664,-1.0399974 -0.693332,0 -1.013331,0.3466658 -1.013331,1.0399974 z"
     id="text2"
     aria-label="Mega Duck&#10;" />
</svg>
