<?xml version="1.0" encoding="UTF-8" standalone="no"?>
<svg
   viewBox="0 0 200 40"
   version="1.1"
   id="svg1"
   sodipodi:docname="midway.svg"
   inkscape:version="1.3.2 (091e20e, 2023-11-25)"
   xmlns:inkscape="http://www.inkscape.org/namespaces/inkscape"
   xmlns:sodipodi="http://sodipodi.sourceforge.net/DTD/sodipodi-0.dtd"
   xmlns="http://www.w3.org/2000/svg"
   xmlns:svg="http://www.w3.org/2000/svg">
  <defs
     id="defs1">
    <rect
       x="0.30349014"
       y="0.60698027"
       width="199.08953"
       height="38.846737"
       id="rect3" />
    <rect
       x="0.60698027"
       y="0.60698027"
       width="198.78604"
       height="39.150228"
       id="rect2" />
    <rect
       x="0.91047041"
       y="0.60698027"
       width="198.17906"
       height="38.846737"
       id="rect1" />
  </defs>
  <sodipodi:namedview
     id="namedview1"
     pagecolor="#020202"
     bordercolor="#000000"
     borderopacity="0.25"
     inkscape:showpageshadow="2"
     inkscape:pageopacity="0.0"
     inkscape:pagecheckerboard="0"
     inkscape:deskcolor="#d1d1d1"
     inkscape:zoom="3.295"
     inkscape:cx="101.36571"
     inkscape:cy="-0.75872534"
     inkscape:window-width="1400"
     inkscape:window-height="864"
     inkscape:window-x="209"
     inkscape:window-y="25"
     inkscape:window-maximized="0"
     inkscape:current-layer="svg1" />
  <path
     style="font-weight:bold;font-size:13.3333px;font-family:BPreplay;-inkscape-font-specification:'BPreplay Bold';letter-spacing:0px;white-space:pre;fill:#ffffff;stroke-width:2.64567;stroke-linecap:square;stroke-opacity:0.988722;paint-order:markers fill stroke"
     d="M 4.7693898,3.8019006 C 4.5160571,2.9885693 3.9827251,2.5352371 3.3027268,2.5352371 c -0.7599981,0 -1.2266636,0.4933321 -1.3866632,1.4399964 L 0.68940006,11.601881 c -0.0133333,0.106666 -0.0133333,0.199999 -0.0133333,0.293332 0,0.706665 0.39999904,1.039998 1.03999734,1.039998 0.6933316,0 0.9866642,-0.386666 1.0933306,-1.039998 L 3.6627259,6.8285596 5.0760556,11.988547 c 0.1866662,0.653331 0.5866652,0.959997 1.1066639,0.959997 0.4666655,0 0.8933311,-0.319999 1.0933306,-0.959997 0.5199987,-1.61333 1.0266641,-3.5066582 1.559996,-5.1333208 l 0.6799983,5.0533208 c 0.093333,0.693331 0.4266656,1.026664 1.1199976,1.026664 0.599998,0 1.05333,-0.399999 1.05333,-1.066664 0,-0.01333 -0.01333,-0.02667 -0.01333,-0.04 v -0.05333 L 10.529375,3.9885668 C 10.396042,3.0552358 9.9027101,2.5619037 9.1560453,2.5619037 c -0.6933315,0 -1.2266635,0.4133323 -1.4799962,1.2266636 l -1.466663,4.7866546 z m 7.9333122,8.1066464 c 0,0.706665 0.36,1.039997 1.039998,1.039997 0.693331,0 1.039997,-0.333332 1.039997,-1.039997 V 6.3218942 c 0,-0.6933315 -0.373332,-1.026664 -1.05333,-1.026664 -0.666665,0 -1.026665,0.3333325 -1.026665,1.026664 z M 12.516036,3.3085685 c 0,0.666665 0.533332,1.1866637 1.186664,1.1866637 0.679998,0 1.199997,-0.5199987 1.199997,-1.1866637 0,-0.666665 -0.519999,-1.1866636 -1.199997,-1.1866636 -0.653332,0 -1.186664,0.5199986 -1.186664,1.1866636 z m 7.933325,2.7866596 C 20.036028,5.4018966 19.249364,5.0818974 18.609365,5.0818974 c -1.453329,0 -2.839993,1.5999959 -2.839993,4.0266565 0,2.3733271 1.41333,3.9866561 2.82666,3.9866561 0.719998,0 1.439996,-0.413332 1.973328,-1.226663 v 0.306666 c 0,0.839998 0.573332,0.946664 0.933331,0.946664 0.679999,0 1.026664,-0.346666 1.026664,-0.986664 V 3.0952357 c 0,-0.6933316 -0.346665,-1.0666639 -1.026664,-1.0666639 -0.679998,0 -1.05333,0.3733323 -1.05333,1.0666639 z m -1.33333,5.0133209 c -0.839998,0 -1.253331,-0.973331 -1.253331,-1.9866618 0,-1.0266641 0.453333,-2.1066614 1.293331,-2.1066614 0.666664,0 1.333329,0.7599981 1.333329,2.0533282 0,1.29333 -0.706664,2.039995 -1.373329,2.039995 z M 25.44935,5.9485618 C 25.236017,5.4285632 24.916018,5.1752305 24.382686,5.1752305 c -0.706665,0 -1.026664,0.3333325 -1.026664,1.0666639 0,0.1599996 0.226666,0.8799978 1.879995,5.8133186 0.199999,0.573332 0.599998,0.893331 1.159997,0.893331 0.546665,0 0.973331,-0.306666 1.13333,-0.866664 l 0.973331,-3.3866584 c 0.519999,1.5333294 0.533332,1.8799954 1.026664,3.3599914 0.2,0.586665 0.559999,0.879998 1.066664,0.879998 0.466666,0 0.879998,-0.266666 1.066664,-0.839998 1.466663,-4.2933225 1.746663,-5.2533201 1.813329,-5.4933195 l -0.01333,0.093333 c 0.06667,-0.1733329 0.09333,-0.3199992 0.09333,-0.4799988 0,-0.7066648 -0.226666,-1.0533306 -0.986664,-1.0533306 -0.533332,0 -0.893331,0.2533327 -1.066664,0.7866646 l -0.893331,3.693324 C 30.116005,8.1085564 30.182671,7.5618911 29.676006,6.0418949 29.529339,5.4818964 28.929341,5.1885638 28.502675,5.1885638 c -0.466665,0 -0.906664,0.2799993 -1.09333,0.8133312 l -1.013331,3.7599905 z m 9.573313,-0.3999989 c -0.426666,0.1733329 -0.693332,0.4666654 -0.693332,0.8399978 0,0.6799983 0.479999,0.8399979 0.986664,0.8399979 0.479999,0 0.919998,-0.1733329 1.466663,-0.1733329 0.746665,0 1.626663,0.4799988 1.626663,1.2666635 V 8.9752209 C 37.929322,8.6285551 37.222657,8.4285556 36.502659,8.4285556 c -1.706662,0 -2.70666,1.2533301 -2.70666,2.4533274 0,1.106664 0.866665,2.159994 2.386661,2.159994 0.746665,0 1.546663,-0.306666 2.173328,-0.973331 v 0.253333 c 0.04,0.546665 0.613331,0.719998 0.839998,0.719998 0.653331,0 1.039997,-0.493332 1.039997,-1.026664 V 8.0285566 c 0,-2.0399949 -1.679996,-2.8399928 -3.373325,-2.8399928 -0.613332,0 -1.25333,0.1199997 -1.839995,0.3599991 z m 0.866664,5.0666541 c 0,-0.426666 0.559999,-0.613332 1.119997,-0.613332 0.533332,0 1.119998,0.199999 1.119998,0.546665 0,0.466666 -0.639999,0.706665 -1.239997,0.706665 -0.493332,0 -0.999998,-0.213333 -0.999998,-0.639998 z m 6.306648,3.533324 c -0.05333,0.16 -0.08,0.306666 -0.08,0.479999 0,0.666665 0.319999,1.013331 0.986664,1.013331 0.519999,0 0.893331,-0.253333 1.093331,-0.786665 l 2.946659,-8.1733127 c 0.06667,-0.1866662 0.06667,-0.3466658 0.06667,-0.4799988 0,-0.6933315 -0.346666,-1.026664 -1.026664,-1.026664 -0.533332,0 -0.893332,0.2533327 -1.066664,0.7733313 -0.346666,1.0533307 -0.719999,3.1733254 -1.066664,4.2133232 L 43.062639,6.0152283 C 42.90264,5.4952297 42.515974,5.1885638 41.982642,5.1885638 c -0.666665,0 -0.999997,0.3199992 -0.999997,1.026664 0,0.1599996 0.02667,0.3066659 0.09333,0.4799988 0.613332,1.8533287 1.199997,3.8266574 1.826662,5.6933194 z"
     id="text2"
     aria-label="Midway&#10;&#10;&#10;&#10;&#10;&#10;&#10;&#10;" />
</svg>
