<?xml version="1.0" encoding="UTF-8" standalone="no"?>
<svg
   viewBox="0 0 200 40"
   version="1.1"
   id="svg1"
   sodipodi:docname="mplayer.svg"
   inkscape:version="1.3.2 (091e20e, 2023-11-25)"
   xmlns:inkscape="http://www.inkscape.org/namespaces/inkscape"
   xmlns:sodipodi="http://sodipodi.sourceforge.net/DTD/sodipodi-0.dtd"
   xmlns="http://www.w3.org/2000/svg"
   xmlns:svg="http://www.w3.org/2000/svg">
  <defs
     id="defs1">
    <rect
       x="0.30349014"
       y="0.60698027"
       width="199.08953"
       height="38.846737"
       id="rect3" />
    <rect
       x="0.60698027"
       y="0.60698027"
       width="198.78604"
       height="39.150228"
       id="rect2" />
    <rect
       x="0.91047041"
       y="0.60698027"
       width="198.17906"
       height="38.846737"
       id="rect1" />
  </defs>
  <sodipodi:namedview
     id="namedview1"
     pagecolor="#020202"
     bordercolor="#000000"
     borderopacity="0.25"
     inkscape:showpageshadow="2"
     inkscape:pageopacity="0.0"
     inkscape:pagecheckerboard="0"
     inkscape:deskcolor="#d1d1d1"
     inkscape:zoom="3.295"
     inkscape:cx="67.981791"
     inkscape:cy="-8.0424886"
     inkscape:window-width="1400"
     inkscape:window-height="864"
     inkscape:window-x="209"
     inkscape:window-y="25"
     inkscape:window-maximized="0"
     inkscape:current-layer="svg1" />
  <path
     style="font-weight:bold;font-size:13.3333px;font-family:BPreplay;-inkscape-font-specification:'BPreplay Bold';letter-spacing:0px;white-space:pre;fill:#ffffff;stroke-width:2.64567;stroke-linecap:square;stroke-opacity:0.988722;paint-order:markers fill stroke"
     d="M 2.5293954,3.3352351 C 2.3560625,2.8152364 1.9960634,2.5485704 1.4627314,2.5485704 c -0.70666484,0 -1.06666393,0.3599991 -1.06666393,1.066664 0,0.133333 0.0266666,0.2799993 0.0666665,0.4266656 l 2.82665953,7.83998 c 0.2533327,0.706665 0.6533317,1.066664 1.199997,1.066664 0.5866651,0 1.0133307,-0.386666 1.29333,-1.17333 L 8.516047,4.0685666 C 8.5693801,3.9619002 8.60938,3.8152339 8.60938,3.6819009 c 0,-0.5733319 -0.6133317,-1.1199972 -1.159997,-1.1199972 -0.5199987,0 -0.8266646,0.266666 -1.0133308,0.7866647 C 5.7827205,5.2018971 5.1693887,7.335225 4.5027238,9.2152203 Z M 9.3427,11.908547 c 0,0.706665 0.359999,1.039997 1.039997,1.039997 0.693332,0 1.039998,-0.333332 1.039998,-1.039997 V 6.3218942 c 0,-0.6933315 -0.373333,-1.026664 -1.053331,-1.026664 -0.666665,0 -1.026664,0.3333325 -1.026664,1.026664 z M 9.1560338,3.3085685 c 0,0.666665 0.5333319,1.1866637 1.1866632,1.1866637 0.679999,0 1.199997,-0.5199987 1.199997,-1.1866637 0,-0.666665 -0.519998,-1.1866636 -1.199997,-1.1866636 -0.6533313,0 -1.1866632,0.5199986 -1.1866632,1.1866636 z M 17.089358,6.0952281 C 16.676026,5.4018966 15.889361,5.0818974 15.249363,5.0818974 c -1.45333,0 -2.839993,1.5999959 -2.839993,4.0266565 0,2.3733271 1.41333,3.9866561 2.826659,3.9866561 0.719999,0 1.439997,-0.413332 1.973329,-1.226663 v 0.306666 c 0,0.839998 0.573332,0.946664 0.933331,0.946664 0.679998,0 1.026664,-0.346666 1.026664,-0.986664 V 3.0952357 c 0,-0.6933316 -0.346666,-1.0666639 -1.026664,-1.0666639 -0.679999,0 -1.053331,0.3733323 -1.053331,1.0666639 z m -1.33333,5.0133209 c -0.839998,0 -1.25333,-0.973331 -1.25333,-1.9866618 0,-1.0266641 0.453332,-2.1066614 1.29333,-2.1066614 0.666665,0 1.33333,0.7599981 1.33333,2.0533282 0,1.29333 -0.706665,2.039995 -1.37333,2.039995 z m 7.866649,-6.0399849 c -2.226661,0 -3.453325,1.9333284 -3.453325,3.95999 0,2.1999949 1.306663,4.0666559 3.653324,4.0666559 1.226664,0 2.213328,-0.453332 2.879993,-1.279996 0.173333,-0.186667 0.226666,-0.373333 0.226666,-0.613332 0,-0.613332 -0.333333,-0.879998 -0.759998,-0.879998 -0.706665,0 -1.133331,0.826665 -2.159995,0.826665 -0.573332,0 -1.759995,-0.413333 -1.759995,-1.6133296 h 3.053325 c 1.026664,0 1.65333,0 1.65333,-1.026664 0,-2.0666615 -1.186664,-3.4399913 -3.333325,-3.4399913 z m -1.266664,3.0799922 c 0,-0.8266646 0.679998,-1.2666635 1.29333,-1.2666635 0.586665,0 1.173331,0.4133323 1.173331,1.2666635 z M 31.089326,5.108564 c -2.279995,0 -3.466658,1.8399953 -3.466658,3.9066568 0,2.0799952 1.186663,4.0533232 3.466658,4.0533232 2.253327,0 3.466658,-1.866662 3.466658,-3.9733234 0,-2.0533282 -1.199997,-3.9866566 -3.466658,-3.9866566 z m 0,1.8933285 c 0.946664,0 1.359996,1.2399969 1.359996,2.1733279 0,0.9466646 -0.413332,2.0266616 -1.359996,2.0266616 -0.946665,0 -1.359997,-1.3199968 -1.359997,-2.2533277 0,-0.9599976 0.413332,-1.9466618 1.359997,-1.9466618 z m 7.279978,4.2933225 c -1.039997,0 -1.426663,-0.733331 -2.226661,-0.733331 -0.479999,0 -0.959998,0.279999 -0.959998,0.879997 0,0.319999 0.133333,0.653332 0.413333,0.853331 0.746664,0.453333 1.533329,0.773332 2.54666,0.773332 1.45333,0 3.026659,-0.679998 3.026659,-2.439994 0,-2.1999944 -3.799991,-2.4399938 -3.799991,-3.3599915 0,-0.3599991 0.266666,-0.4799988 0.613332,-0.4799988 0.786665,0 1.319997,0.4399989 2.013329,0.4399989 0.599998,0 0.919997,-0.4533322 0.919997,-0.8933311 0,-0.3199992 -0.173333,-0.6533316 -0.533332,-0.8533311 -0.693331,-0.3599991 -1.439996,-0.4666655 -2.133328,-0.4666655 -1.573329,0 -2.946659,0.7333315 -2.946659,2.3733273 0,2.3066608 3.719991,2.359994 3.719991,3.4266578 0,0.346666 -0.28,0.479999 -0.653332,0.479999 z"
     id="text2"
     aria-label="Videos&#10;&#10;&#10;&#10;&#10;&#10;&#10;&#10;" />
</svg>
