<?xml version="1.0" encoding="UTF-8" standalone="no"?>
<svg
   viewBox="0 0 200 40"
   version="1.1"
   id="svg1"
   sodipodi:docname="mv.svg"
   inkscape:version="1.3.2 (091e20e, 2023-11-25)"
   xmlns:inkscape="http://www.inkscape.org/namespaces/inkscape"
   xmlns:sodipodi="http://sodipodi.sourceforge.net/DTD/sodipodi-0.dtd"
   xmlns="http://www.w3.org/2000/svg"
   xmlns:svg="http://www.w3.org/2000/svg">
  <defs
     id="defs1">
    <rect
       x="0.30349014"
       y="0.60698027"
       width="199.08953"
       height="38.846737"
       id="rect3" />
    <rect
       x="0.60698027"
       y="0.60698027"
       width="198.78604"
       height="39.150228"
       id="rect2" />
    <rect
       x="0.91047041"
       y="0.60698027"
       width="198.17906"
       height="38.846737"
       id="rect1" />
  </defs>
  <sodipodi:namedview
     id="namedview1"
     pagecolor="#020202"
     bordercolor="#000000"
     borderopacity="0.25"
     inkscape:showpageshadow="2"
     inkscape:pageopacity="0.0"
     inkscape:pagecheckerboard="0"
     inkscape:deskcolor="#d1d1d1"
     inkscape:zoom="3.295"
     inkscape:cx="101.36571"
     inkscape:cy="-0.75872534"
     inkscape:window-width="1400"
     inkscape:window-height="864"
     inkscape:window-x="209"
     inkscape:window-y="25"
     inkscape:window-maximized="0"
     inkscape:current-layer="svg1" />
  <path
     style="font-weight:bold;font-size:13.3333px;font-family:BPreplay;-inkscape-font-specification:'BPreplay Bold';letter-spacing:0px;white-space:pre;fill:#ffffff;stroke-width:2.64567;stroke-linecap:square;stroke-opacity:0.988722;paint-order:markers fill stroke"
     d="M 4.7693898,3.8019006 C 4.5160571,2.9885693 3.9827251,2.5352371 3.3027268,2.5352371 c -0.7599981,0 -1.2266636,0.4933321 -1.3866632,1.4399964 L 0.68940006,11.601881 c -0.0133333,0.106666 -0.0133333,0.199999 -0.0133333,0.293332 0,0.706665 0.39999904,1.039998 1.03999734,1.039998 0.6933316,0 0.9866642,-0.386666 1.0933306,-1.039998 L 3.6627259,6.8285596 5.0760556,11.988547 c 0.1866662,0.653331 0.5866652,0.959997 1.1066639,0.959997 0.4666655,0 0.8933311,-0.319999 1.0933306,-0.959997 0.5199987,-1.61333 1.0266641,-3.5066582 1.559996,-5.1333208 l 0.6799983,5.0533208 c 0.093333,0.693331 0.4266656,1.026664 1.1199976,1.026664 0.599998,0 1.05333,-0.399999 1.05333,-1.066664 0,-0.01333 -0.01333,-0.02667 -0.01333,-0.04 v -0.05333 L 10.529375,3.9885668 C 10.396042,3.0552358 9.9027101,2.5619037 9.1560453,2.5619037 c -0.6933315,0 -1.2266635,0.4133323 -1.4799962,1.2266636 l -1.466663,4.7866546 z m 7.9333122,8.1066464 c 0,0.706665 0.36,1.039997 1.039998,1.039997 0.693331,0 1.039997,-0.333332 1.039997,-1.039997 V 6.3218942 c 0,-0.6933315 -0.373332,-1.026664 -1.05333,-1.026664 -0.666665,0 -1.026665,0.3333325 -1.026665,1.026664 z M 12.516036,3.3085685 c 0,0.666665 0.533332,1.1866637 1.186664,1.1866637 0.679998,0 1.199997,-0.5199987 1.199997,-1.1866637 0,-0.666665 -0.519999,-1.1866636 -1.199997,-1.1866636 -0.653332,0 -1.186664,0.5199986 -1.186664,1.1866636 z m 6.959994,3.8399903 c 0.506665,0 1.026664,0.2266661 1.426663,0.2266661 0.586665,0 0.973331,-0.3733324 0.973331,-0.9733309 0,-0.399999 -0.32,-0.7733313 -0.759998,-0.9733308 -0.559999,-0.2533327 -1.146664,-0.3066659 -1.65333,-0.3066659 -2.013328,0 -3.71999,1.5733293 -3.71999,3.9333234 0,2.2799943 1.639996,4.0133233 3.746657,4.0133233 0.613332,0 1.279997,-0.16 1.906662,-0.573332 0.319999,-0.239999 0.546665,-0.519999 0.546665,-0.919998 0,-0.546665 -0.506665,-0.973331 -0.959997,-0.973331 -0.133333,0 -0.333333,0.04 -0.479999,0.146667 -0.306666,0.213333 -0.679999,0.293332 -0.999998,0.293332 -0.919997,0 -1.679995,-0.853331 -1.679995,-1.9333281 0,-1.1866637 0.719998,-1.9599951 1.653329,-1.9599951 z m 3.333331,4.7733212 c 0,0.679998 0.346666,1.026664 1.026664,1.026664 0.706665,0 1.026665,-0.346666 1.026665,-1.026664 V 8.2018895 c 0,-0.5866652 0.586665,-0.9999975 1.09333,-0.9999975 0.133333,0 0.213333,0.026667 0.306666,0.04 0.133333,0.026667 0.306666,0.04 0.493332,0.04 0.613332,0 1.053331,-0.4933321 1.053331,-1.0399974 0,-0.5466652 -0.399999,-1.1333304 -1.466663,-1.1333304 -0.559999,0 -1.426663,0.5466653 -1.653329,0.9866641 -0.02667,-0.626665 -0.439999,-0.8799977 -0.853332,-0.8799977 -0.679998,0 -1.026664,0.3466658 -1.026664,1.0666639 z m 8.573313,-6.813316 c -2.279994,0 -3.466658,1.8399953 -3.466658,3.9066568 0,2.0799952 1.186664,4.0533232 3.466658,4.0533232 2.253328,0 3.466658,-1.866662 3.466658,-3.9733234 0,-2.0533282 -1.199997,-3.9866566 -3.466658,-3.9866566 z m 0,1.8933285 c 0.946664,0 1.359997,1.2399969 1.359997,2.1733279 0,0.9466646 -0.413333,2.0266616 -1.359997,2.0266616 -0.946664,0 -1.359997,-1.3199968 -1.359997,-2.2533277 0,-0.9599976 0.413333,-1.9466618 1.359997,-1.9466618 z m 5.919995,-0.8933311 c -0.16,-0.5999984 -0.506666,-0.9466642 -1.079997,-0.9466642 -0.573332,0 -1.026665,0.3866657 -1.026665,1.0133307 0,0.1066664 0.02667,0.2533327 0.06667,0.3866657 l 1.893329,5.6399854 c 0.173332,0.493332 0.506665,0.746665 1.026664,0.746665 0.546665,0 0.906664,-0.253333 1.079997,-0.746665 l 1.919995,-5.6133188 c 0.06667,-0.133333 0.08,-0.2933326 0.08,-0.4133323 0,-0.6666649 -0.399999,-1.0133307 -0.999998,-1.0133307 -0.506665,0 -0.866664,0.2933326 -1.09333,0.9066643 l -0.919998,3.6399908 z m 4.759979,5.7999856 c 0,0.706665 0.359999,1.039997 1.039997,1.039997 0.693332,0 1.039998,-0.333332 1.039998,-1.039997 V 6.3218942 c 0,-0.6933315 -0.373333,-1.026664 -1.053331,-1.026664 -0.666665,0 -1.026664,0.3333325 -1.026664,1.026664 z M 41.875982,3.3085685 c 0,0.666665 0.533332,1.1866637 1.186663,1.1866637 0.679999,0 1.199997,-0.5199987 1.199997,-1.1866637 0,-0.666665 -0.519998,-1.1866636 -1.199997,-1.1866636 -0.653331,0 -1.186663,0.5199986 -1.186663,1.1866636 z m 6.386663,7.9866465 c -1.039997,0 -1.426663,-0.733331 -2.226661,-0.733331 -0.479999,0 -0.959998,0.279999 -0.959998,0.879997 0,0.319999 0.133333,0.653332 0.413333,0.853331 0.746664,0.453333 1.533329,0.773332 2.54666,0.773332 1.45333,0 3.026659,-0.679998 3.026659,-2.439994 0,-2.1999944 -3.79999,-2.4399938 -3.79999,-3.3599915 0,-0.3599991 0.266666,-0.4799988 0.613331,-0.4799988 0.786665,0 1.319997,0.4399989 2.013329,0.4399989 0.599998,0 0.919997,-0.4533322 0.919997,-0.8933311 0,-0.3199992 -0.173333,-0.6533316 -0.533332,-0.8533311 -0.693331,-0.3599991 -1.439996,-0.4666655 -2.133328,-0.4666655 -1.573329,0 -2.946659,0.7333315 -2.946659,2.3733273 0,2.3066608 3.719991,2.359994 3.719991,3.4266578 0,0.346666 -0.28,0.479999 -0.653332,0.479999 z m 3.693321,0.613332 c 0,0.706665 0.359999,1.039997 1.039997,1.039997 0.693332,0 1.039998,-0.333332 1.039998,-1.039997 V 6.3218942 c 0,-0.6933315 -0.373333,-1.026664 -1.053331,-1.026664 -0.666665,0 -1.026664,0.3333325 -1.026664,1.026664 z M 51.7693,3.3085685 c 0,0.666665 0.533332,1.1866637 1.186663,1.1866637 0.679999,0 1.199997,-0.5199987 1.199997,-1.1866637 0,-0.666665 -0.519998,-1.1866636 -1.199997,-1.1866636 -0.653331,0 -1.186663,0.5199986 -1.186663,1.1866636 z m 6.706659,1.7999955 c -2.279995,0 -3.466658,1.8399953 -3.466658,3.9066568 0,2.0799952 1.186663,4.0533232 3.466658,4.0533232 2.253327,0 3.466657,-1.866662 3.466657,-3.9733234 0,-2.0533282 -1.199996,-3.9866566 -3.466657,-3.9866566 z m 0,1.8933285 c 0.946664,0 1.359996,1.2399969 1.359996,2.1733279 0,0.9466646 -0.413332,2.0266616 -1.359996,2.0266616 -0.946665,0 -1.359997,-1.3199968 -1.359997,-2.2533277 0,-0.9599976 0.413332,-1.9466618 1.359997,-1.9466618 z m 4.439983,4.9199875 c 0,0.679998 0.333333,1.026664 0.999998,1.026664 0.706664,0 1.039997,-0.346666 1.039997,-1.026664 V 8.2018895 c 0,-0.7866647 0.519999,-1.1866637 1.053331,-1.1866637 0.479998,0 0.986664,0.3866657 0.986664,1.1866637 V 11.92188 c 0,0.679998 0.359999,1.026664 1.026664,1.026664 0.693331,0 1.039997,-0.346666 1.039997,-1.026664 V 7.8285571 c 0,-1.9599951 -1.226663,-2.6399933 -2.253327,-2.6399933 -0.799998,0 -1.386664,0.4266656 -1.853329,0.9599975 0,-0.4133322 -0.333333,-0.9199976 -1.039997,-0.9199976 -0.666665,0 -0.999998,0.5066654 -0.999998,1.0666639 z"
     id="text2"
     aria-label="Microvision" />
</svg>
