<?xml version="1.0" encoding="UTF-8" standalone="no"?>
<svg
   viewBox="0 0 200 40"
   version="1.1"
   id="svg1"
   sodipodi:docname="namco.svg"
   inkscape:version="1.3.2 (091e20e, 2023-11-25)"
   xmlns:inkscape="http://www.inkscape.org/namespaces/inkscape"
   xmlns:sodipodi="http://sodipodi.sourceforge.net/DTD/sodipodi-0.dtd"
   xmlns="http://www.w3.org/2000/svg"
   xmlns:svg="http://www.w3.org/2000/svg">
  <defs
     id="defs1">
    <rect
       x="0.30349014"
       y="0.60698027"
       width="199.08953"
       height="38.846737"
       id="rect3" />
    <rect
       x="0.60698027"
       y="0.60698027"
       width="198.78604"
       height="39.150228"
       id="rect2" />
    <rect
       x="0.91047041"
       y="0.60698027"
       width="198.17906"
       height="38.846737"
       id="rect1" />
  </defs>
  <sodipodi:namedview
     id="namedview1"
     pagecolor="#020202"
     bordercolor="#000000"
     borderopacity="0.25"
     inkscape:showpageshadow="2"
     inkscape:pageopacity="0.0"
     inkscape:pagecheckerboard="0"
     inkscape:deskcolor="#d1d1d1"
     inkscape:zoom="3.295"
     inkscape:cx="101.36571"
     inkscape:cy="-0.75872534"
     inkscape:window-width="1400"
     inkscape:window-height="864"
     inkscape:window-x="209"
     inkscape:window-y="25"
     inkscape:window-maximized="0"
     inkscape:current-layer="svg1" />
  <path
     style="font-weight:bold;font-size:13.3333px;font-family:BPreplay;-inkscape-font-specification:'BPreplay Bold';letter-spacing:0px;white-space:pre;fill:#ffffff;stroke-width:2.64567;stroke-linecap:square;stroke-opacity:0.988722;paint-order:markers fill stroke"
     d="m 1.1160657,11.855214 c 0,0.733331 0.3466657,1.09333 1.0666639,1.09333 0.7066649,0 1.066664,-0.359999 1.066664,-1.09333 V 6.8818928 l 3.7066573,5.4399862 c 0.2933326,0.413332 0.6799983,0.626665 1.1199972,0.626665 0.7066648,0 1.0666639,-0.386666 1.0666639,-1.159997 V 3.6552343 c 0,-0.7199982 -0.3466658,-1.0799973 -1.0799972,-1.0799973 -0.6933316,0 -1.0533307,0.3599991 -1.0533307,1.0799973 V 8.7218882 L 3.3427267,3.2685686 C 3.0227275,2.8019031 2.6360618,2.5619037 2.1693963,2.5619037 c -0.6933316,0 -1.0533306,0.3866657 -1.0533306,1.1599971 z M 11.30273,5.5485629 c -0.426665,0.1733329 -0.693331,0.4666654 -0.693331,0.8399978 0,0.6799983 0.479998,0.8399979 0.986664,0.8399979 0.479999,0 0.919998,-0.1733329 1.466663,-0.1733329 0.746665,0 1.626662,0.4799988 1.626662,1.2666635 V 8.9752209 C 14.20939,8.6285551 13.502725,8.4285556 12.782727,8.4285556 c -1.706663,0 -2.70666,1.2533301 -2.70666,2.4533274 0,1.106664 0.866664,2.159994 2.38666,2.159994 0.746665,0 1.546663,-0.306666 2.173328,-0.973331 v 0.253333 c 0.04,0.546665 0.613332,0.719998 0.839998,0.719998 0.653332,0 1.039997,-0.493332 1.039997,-1.026664 V 8.0285566 c 0,-2.0399949 -1.679995,-2.8399928 -3.373324,-2.8399928 -0.613332,0 -1.253331,0.1199997 -1.839996,0.3599991 z m 0.866665,5.0666541 c 0,-0.426666 0.559998,-0.613332 1.119997,-0.613332 0.533332,0 1.119997,0.199999 1.119997,0.546665 0,0.466666 -0.639998,0.706665 -1.239997,0.706665 -0.493332,0 -0.999997,-0.213333 -0.999997,-0.639998 z m 5.573324,1.306663 c 0,0.679998 0.333332,1.026664 0.999997,1.026664 0.706665,0 1.039997,-0.346666 1.039997,-1.026664 V 8.2018895 c 0,-0.7866647 0.519999,-1.1866637 1.053331,-1.1866637 0.479999,0 0.986664,0.3866657 0.986664,1.1866637 V 11.92188 c 0,0.679998 0.359999,1.026664 1.026664,1.026664 0.693332,0 1.039998,-0.346666 1.039998,-1.026664 V 7.9752234 c 0.08,-0.6399984 0.559998,-0.9599976 1.039997,-0.9599976 0.479999,0 0.986664,0.3866657 0.986664,1.1866637 V 11.92188 c 0,0.679998 0.359999,1.026664 1.026664,1.026664 0.693332,0 1.039998,-0.346666 1.039998,-1.026664 V 7.8285571 c 0,-1.8533287 -1.106664,-2.6133267 -2.239995,-2.6133267 -0.839997,0 -1.693329,0.4133323 -2.119994,1.1066638 C 23.262705,5.508563 22.59604,5.1885638 21.902708,5.1885638 c -0.799998,0 -1.653329,0.4266656 -2.119995,0.9599975 0,-0.4133322 -0.333332,-0.9199976 -1.039997,-0.9199976 -0.666665,0 -0.999997,0.5066654 -0.999997,1.0666639 z M 32.649341,7.1485588 c 0.506665,0 1.026664,0.2266661 1.426663,0.2266661 0.586665,0 0.973331,-0.3733324 0.973331,-0.9733309 0,-0.399999 -0.319999,-0.7733313 -0.759998,-0.9733308 -0.559999,-0.2533327 -1.146664,-0.3066659 -1.653329,-0.3066659 -2.013329,0 -3.719991,1.5733293 -3.719991,3.9333234 0,2.2799943 1.639996,4.0133233 3.746657,4.0133233 0.613332,0 1.279997,-0.16 1.906662,-0.573332 0.319999,-0.239999 0.546665,-0.519999 0.546665,-0.919998 0,-0.546665 -0.506665,-0.973331 -0.959997,-0.973331 -0.133333,0 -0.333333,0.04 -0.479999,0.146667 -0.306666,0.213333 -0.679998,0.293332 -0.999997,0.293332 -0.919998,0 -1.679996,-0.853331 -1.679996,-1.9333281 0,-1.1866637 0.719998,-1.9599951 1.653329,-1.9599951 z M 39.04933,5.108564 c -2.279994,0 -3.466657,1.8399953 -3.466657,3.9066568 0,2.0799952 1.186663,4.0533232 3.466657,4.0533232 2.253328,0 3.466658,-1.866662 3.466658,-3.9733234 0,-2.0533282 -1.199997,-3.9866566 -3.466658,-3.9866566 z m 0,1.8933285 c 0.946665,0 1.359997,1.2399969 1.359997,2.1733279 0,0.9466646 -0.413332,2.0266616 -1.359997,2.0266616 -0.946664,0 -1.359996,-1.3199968 -1.359996,-2.2533277 0,-0.9599976 0.413332,-1.9466618 1.359996,-1.9466618 z"
     id="text2"
     aria-label="Namco&#10;&#10;&#10;&#10;&#10;&#10;&#10;&#10;" />
</svg>
