<?xml version="1.0" encoding="UTF-8" standalone="no"?>
<svg
   viewBox="0 0 200 40"
   version="1.1"
   id="svg1"
   sodipodi:docname="nes.svg"
   inkscape:version="1.3.2 (091e20e, 2023-11-25)"
   xmlns:inkscape="http://www.inkscape.org/namespaces/inkscape"
   xmlns:sodipodi="http://sodipodi.sourceforge.net/DTD/sodipodi-0.dtd"
   xmlns="http://www.w3.org/2000/svg"
   xmlns:svg="http://www.w3.org/2000/svg">
  <defs
     id="defs1">
    <rect
       x="0.30349014"
       y="0.60698027"
       width="199.08953"
       height="38.846737"
       id="rect3" />
    <rect
       x="0.60698027"
       y="0.60698027"
       width="198.78604"
       height="39.150228"
       id="rect2" />
    <rect
       x="0.91047041"
       y="0.60698027"
       width="198.17906"
       height="38.846737"
       id="rect1" />
  </defs>
  <sodipodi:namedview
     id="namedview1"
     pagecolor="#020202"
     bordercolor="#000000"
     borderopacity="0.25"
     inkscape:showpageshadow="2"
     inkscape:pageopacity="0.0"
     inkscape:pagecheckerboard="0"
     inkscape:deskcolor="#d1d1d1"
     inkscape:zoom="3.295"
     inkscape:cx="101.36571"
     inkscape:cy="-0.75872534"
     inkscape:window-width="1400"
     inkscape:window-height="864"
     inkscape:window-x="209"
     inkscape:window-y="25"
     inkscape:window-maximized="0"
     inkscape:current-layer="svg1" />
  <path
     style="font-weight:bold;font-size:13.3333px;font-family:BPreplay;-inkscape-font-specification:'BPreplay Bold';letter-spacing:0px;white-space:pre;fill:#ffffff;stroke-width:2.64567;stroke-linecap:square;stroke-opacity:0.988722;paint-order:markers fill stroke"
     d="m 1.1160657,11.855214 c 0,0.733331 0.3466657,1.09333 1.0666639,1.09333 0.7066649,0 1.066664,-0.359999 1.066664,-1.09333 V 6.8818928 l 3.7066573,5.4399862 c 0.2933326,0.413332 0.6799983,0.626665 1.1199972,0.626665 0.7066648,0 1.0666639,-0.386666 1.0666639,-1.159997 V 3.6552343 c 0,-0.7199982 -0.3466658,-1.0799973 -1.0799972,-1.0799973 -0.6933316,0 -1.0533307,0.3599991 -1.0533307,1.0799973 V 8.7218882 L 3.3427267,3.2685686 C 3.0227275,2.8019031 2.6360618,2.5619037 2.1693963,2.5619037 c -0.6933316,0 -1.0533306,0.3866657 -1.0533306,1.1599971 z m 9.4799883,0.05333 c 0,0.706665 0.359999,1.039997 1.039997,1.039997 0.693332,0 1.039998,-0.333332 1.039998,-1.039997 V 6.3218942 c 0,-0.6933315 -0.373333,-1.026664 -1.053331,-1.026664 -0.666665,0 -1.026664,0.3333325 -1.026664,1.026664 z M 10.409388,3.3085685 c 0,0.666665 0.533332,1.1866637 1.186663,1.1866637 0.679999,0 1.199997,-0.5199987 1.199997,-1.1866637 0,-0.666665 -0.519998,-1.1866636 -1.199997,-1.1866636 -0.653331,0 -1.186663,0.5199986 -1.186663,1.1866636 z m 3.546669,8.6133115 c 0,0.679998 0.333332,1.026664 0.999997,1.026664 0.706665,0 1.039997,-0.346666 1.039997,-1.026664 V 8.2018895 c 0,-0.7866647 0.519999,-1.1866637 1.053331,-1.1866637 0.479999,0 0.986664,0.3866657 0.986664,1.1866637 V 11.92188 c 0,0.679998 0.359999,1.026664 1.026664,1.026664 0.693332,0 1.039998,-0.346666 1.039998,-1.026664 V 7.8285571 c 0,-1.9599951 -1.226664,-2.6399933 -2.253328,-2.6399933 -0.799998,0 -1.386663,0.4266656 -1.853329,0.9599975 0,-0.4133322 -0.333332,-0.9199976 -1.039997,-0.9199976 -0.666665,0 -0.999997,0.5066654 -0.999997,1.0666639 z m 6.839987,-5.7333188 c 0,0.5999985 0.399999,0.7866647 0.933331,0.8399979 v 3.1999919 c 0,1.759996 0.439999,2.82666 2.346661,2.82666 0.719998,0 1.106664,-0.346666 1.106664,-0.999998 0,-0.666665 -0.386666,-0.999997 -1.106664,-0.999997 -0.253333,0 -0.28,-0.266666 -0.28,-0.826665 V 7.0552257 h 0.599999 c 0.706665,0 1.039997,-0.1866662 1.039997,-0.8533312 0,-0.6933315 -0.359999,-0.8666644 -1.066664,-0.8666644 H 23.796036 V 4.8152314 c 0,-0.666665 -0.346665,-1.0133308 -1.039997,-1.0133308 -0.679998,0 -1.026664,0.3466658 -1.026664,1.0133308 v 0.5199987 c -0.546665,0.066666 -0.933331,0.266666 -0.933331,0.8533311 z M 29.22269,5.0685641 c -2.226661,0 -3.453324,1.9333284 -3.453324,3.95999 0,2.1999949 1.306663,4.0666559 3.653324,4.0666559 1.226663,0 2.213328,-0.453332 2.879993,-1.279996 0.173332,-0.186667 0.226666,-0.373333 0.226666,-0.613332 0,-0.613332 -0.333333,-0.879998 -0.759998,-0.879998 -0.706665,0 -1.133331,0.826665 -2.159995,0.826665 -0.573332,0 -1.759996,-0.413333 -1.759996,-1.6133296 h 3.053326 c 1.026664,0 1.653329,0 1.653329,-1.026664 0,-2.0666615 -1.186663,-3.4399913 -3.333325,-3.4399913 z m -1.266663,3.0799922 c 0,-0.8266646 0.679998,-1.2666635 1.29333,-1.2666635 0.586665,0 1.17333,0.4133323 1.17333,1.2666635 z m 5.573318,3.7733237 c 0,0.679998 0.333333,1.026664 0.999998,1.026664 0.706665,0 1.039997,-0.346666 1.039997,-1.026664 V 8.2018895 c 0,-0.7866647 0.519999,-1.1866637 1.053331,-1.1866637 0.479999,0 0.986664,0.3866657 0.986664,1.1866637 V 11.92188 c 0,0.679998 0.359999,1.026664 1.026664,1.026664 0.693332,0 1.039998,-0.346666 1.039998,-1.026664 V 7.8285571 c 0,-1.9599951 -1.226664,-2.6399933 -2.253328,-2.6399933 -0.799998,0 -1.386663,0.4266656 -1.853329,0.9599975 0,-0.4133322 -0.333332,-0.9199976 -1.039997,-0.9199976 -0.666665,0 -0.999998,0.5066654 -0.999998,1.0666639 z M 45.315987,6.0952281 C 44.902655,5.4018966 44.11599,5.0818974 43.475992,5.0818974 c -1.45333,0 -2.839993,1.5999959 -2.839993,4.0266565 0,2.3733271 1.41333,3.9866561 2.82666,3.9866561 0.719998,0 1.439996,-0.413332 1.973328,-1.226663 v 0.306666 c 0,0.839998 0.573332,0.946664 0.933331,0.946664 0.679998,0 1.026664,-0.346666 1.026664,-0.986664 V 3.0952357 c 0,-0.6933316 -0.346666,-1.0666639 -1.026664,-1.0666639 -0.679998,0 -1.053331,0.3733323 -1.053331,1.0666639 z m -1.33333,5.0133209 c -0.839998,0 -1.25333,-0.973331 -1.25333,-1.9866618 0,-1.0266641 0.453332,-2.1066614 1.29333,-2.1066614 0.666665,0 1.33333,0.7599981 1.33333,2.0533282 0,1.29333 -0.706665,2.039995 -1.37333,2.039995 z m 7.879982,-5.999985 c -2.279994,0 -3.466658,1.8399953 -3.466658,3.9066568 0,2.0799952 1.186664,4.0533232 3.466658,4.0533232 2.253328,0 3.466658,-1.866662 3.466658,-3.9733234 0,-2.0533282 -1.199997,-3.9866566 -3.466658,-3.9866566 z m 0,1.8933285 c 0.946664,0 1.359997,1.2399969 1.359997,2.1733279 0,0.9466646 -0.413333,2.0266616 -1.359997,2.0266616 -0.946664,0 -1.359996,-1.3199968 -1.359996,-2.2533277 0,-0.9599976 0.413332,-1.9466618 1.359996,-1.9466618 z m 7.386652,4.7733215 c 0,0.933331 0.133333,1.17333 1.119997,1.17333 h 3.853324 c 0.773331,0 1.146664,-0.359999 1.146664,-1.066664 0,-0.719998 -0.373333,-1.066664 -1.146664,-1.066664 H 61.382619 V 8.6552217 h 2.146661 c 0.719998,0 1.066664,-0.3599991 1.066664,-1.0533307 0,-0.7199982 -0.346666,-1.0799973 -1.066664,-1.0799973 H 61.382619 V 4.7218983 h 2.74666 c 0.719998,0 1.066664,-0.3599991 1.066664,-1.066664 0,-0.7333315 -0.346666,-1.066664 -1.066664,-1.066664 h -3.759991 c -0.733331,0 -1.119997,0.3866657 -1.119997,1.1599971 z m 6.946646,0.146666 c 0,0.679998 0.333333,1.026664 0.999998,1.026664 0.706664,0 1.039997,-0.346666 1.039997,-1.026664 V 8.2018895 c 0,-0.7866647 0.519999,-1.1866637 1.053331,-1.1866637 0.479998,0 0.986664,0.3866657 0.986664,1.1866637 V 11.92188 c 0,0.679998 0.359999,1.026664 1.026664,1.026664 0.693331,0 1.039997,-0.346666 1.039997,-1.026664 V 7.8285571 c 0,-1.9599951 -1.226663,-2.6399933 -2.253327,-2.6399933 -0.799998,0 -1.386664,0.4266656 -1.853329,0.9599975 0,-0.4133322 -0.333333,-0.9199976 -1.039997,-0.9199976 -0.666665,0 -0.999998,0.5066654 -0.999998,1.0666639 z m 6.83999,-5.7333188 c 0,0.5999985 0.399999,0.7866647 0.933331,0.8399979 v 3.1999919 c 0,1.759996 0.439999,2.82666 2.346661,2.82666 0.719998,0 1.106664,-0.346666 1.106664,-0.999998 0,-0.666665 -0.386666,-0.999997 -1.106664,-0.999997 -0.253332,0 -0.279999,-0.266666 -0.279999,-0.826665 V 7.0552257 h 0.599998 c 0.706665,0 1.039998,-0.1866662 1.039998,-0.8533312 0,-0.6933315 -0.359999,-0.8666644 -1.066664,-0.8666644 H 76.03592 V 4.8152314 c 0,-0.666665 -0.346666,-1.0133308 -1.039997,-1.0133308 -0.679999,0 -1.026665,0.3466658 -1.026665,1.0133308 v 0.5199987 c -0.546665,0.066666 -0.933331,0.266666 -0.933331,0.8533311 z m 8.426649,-1.1199971 c -2.226661,0 -3.453325,1.9333284 -3.453325,3.95999 0,2.1999949 1.306663,4.0666559 3.653324,4.0666559 1.226664,0 2.213328,-0.453332 2.879993,-1.279996 0.173333,-0.186667 0.226666,-0.373333 0.226666,-0.613332 0,-0.613332 -0.333333,-0.879998 -0.759998,-0.879998 -0.706665,0 -1.133331,0.826665 -2.159995,0.826665 -0.573332,0 -1.759995,-0.413333 -1.759995,-1.6133296 h 3.053325 c 1.026665,0 1.65333,0 1.65333,-1.026664 0,-2.0666615 -1.186664,-3.4399913 -3.333325,-3.4399913 z m -1.266664,3.0799922 c 0,-0.8266646 0.679998,-1.2666635 1.29333,-1.2666635 0.586665,0 1.173331,0.4133323 1.173331,1.2666635 z m 5.573313,3.7733237 c 0,0.679998 0.346666,1.026664 1.026664,1.026664 0.706665,0 1.026664,-0.346666 1.026664,-1.026664 V 8.2018895 c 0,-0.5866652 0.586665,-0.9999975 1.093331,-0.9999975 0.133333,0 0.213333,0.026667 0.306666,0.04 0.133333,0.026667 0.306666,0.04 0.493332,0.04 0.613332,0 1.05333,-0.4933321 1.05333,-1.0399974 0,-0.5466652 -0.399999,-1.1333304 -1.466663,-1.1333304 -0.559998,0 -1.426663,0.5466653 -1.653329,0.9866641 -0.02667,-0.626665 -0.439999,-0.8799977 -0.853331,-0.8799977 -0.679998,0 -1.026664,0.3466658 -1.026664,1.0666639 z m 5.119997,-5.7333188 c 0,0.5999985 0.399999,0.7866647 0.933331,0.8399979 v 3.1999919 c 0,1.759996 0.439999,2.82666 2.346661,2.82666 0.719998,0 1.106663,-0.346666 1.106663,-0.999998 0,-0.666665 -0.386665,-0.999997 -1.106663,-0.999997 -0.253333,0 -0.28,-0.266666 -0.28,-0.826665 V 7.0552257 h 0.599999 c 0.706665,0 1.039997,-0.1866662 1.039997,-0.8533312 0,-0.6933315 -0.359999,-0.8666644 -1.066664,-0.8666644 H 93.889214 V 4.8152314 c 0,-0.666665 -0.346665,-1.0133308 -1.039997,-1.0133308 -0.679998,0 -1.026664,0.3466658 -1.026664,1.0133308 v 0.5199987 c -0.546665,0.066666 -0.933331,0.266666 -0.933331,0.8533311 z m 6.15998,-0.6399983 c -0.426666,0.1733329 -0.693332,0.4666654 -0.693332,0.8399978 0,0.6799983 0.479999,0.8399979 0.986664,0.8399979 0.479999,0 0.919998,-0.1733329 1.466663,-0.1733329 0.746665,0 1.626663,0.4799988 1.626663,1.2666635 V 8.9752209 C 99.955861,8.6285551 99.249196,8.4285556 98.529198,8.4285556 c -1.706662,0 -2.70666,1.2533301 -2.70666,2.4533274 0,1.106664 0.866665,2.159994 2.386661,2.159994 0.746664,0 1.546662,-0.306666 2.173331,-0.973331 v 0.253333 c 0.04,0.546665 0.61333,0.719998 0.83999,0.719998 0.65334,0 1.04,-0.493332 1.04,-1.026664 V 8.0285566 c 0,-2.0399949 -1.67999,-2.8399928 -3.373323,-2.8399928 -0.613332,0 -1.25333,0.1199997 -1.839995,0.3599991 z m 0.866664,5.0666541 c 0,-0.426666 0.559999,-0.613332 1.119997,-0.613332 0.533332,0 1.119997,0.199999 1.119997,0.546665 0,0.466666 -0.639998,0.706665 -1.239996,0.706665 -0.493332,0 -0.999998,-0.213333 -0.999998,-0.639998 z m 5.573324,1.29333 c 0,0.706665 0.36,1.039997 1.04,1.039997 0.69333,0 1.03999,-0.333332 1.03999,-1.039997 V 6.3218942 c 0,-0.6933315 -0.37333,-1.026664 -1.05333,-1.026664 -0.66666,0 -1.02666,0.3333325 -1.02666,1.026664 z m -0.18667,-8.5999785 c 0,0.666665 0.53333,1.1866637 1.18667,1.1866637 0.67999,0 1.19999,-0.5199987 1.19999,-1.1866637 0,-0.666665 -0.52,-1.1866636 -1.19999,-1.1866636 -0.65334,0 -1.18667,0.5199986 -1.18667,1.1866636 z m 3.54667,8.6133115 c 0,0.679998 0.33333,1.026664 1,1.026664 0.70666,0 1.03999,-0.346666 1.03999,-1.026664 V 8.2018895 c 0,-0.7866647 0.52,-1.1866637 1.05333,-1.1866637 0.48,0 0.98667,0.3866657 0.98667,1.1866637 V 11.92188 c 0,0.679998 0.36,1.026664 1.02666,1.026664 0.69333,0 1.04,-0.346666 1.04,-1.026664 V 7.8285571 c 0,-1.9599951 -1.22666,-2.6399933 -2.25333,-2.6399933 -0.8,0 -1.38666,0.4266656 -1.85333,0.9599975 0,-0.4133322 -0.33333,-0.9199976 -1.03999,-0.9199976 -0.66667,0 -1,0.5066654 -1,1.0666639 z m 7.39999,0 c 0,0.679998 0.33333,1.026664 0.99999,1.026664 0.70667,0 1.04,-0.346666 1.04,-1.026664 V 8.2018895 c 0,-0.7866647 0.52,-1.1866637 1.05333,-1.1866637 0.48,0 0.98666,0.3866657 0.98666,1.1866637 V 11.92188 c 0,0.679998 0.36,1.026664 1.02667,1.026664 0.69333,0 1.04,-0.346666 1.04,-1.026664 V 7.9752234 c 0.08,-0.6399984 0.55999,-0.9599976 1.03999,-0.9599976 0.48,0 0.98667,0.3866657 0.98667,1.1866637 V 11.92188 c 0,0.679998 0.36,1.026664 1.02666,1.026664 0.69333,0 1.04,-0.346666 1.04,-1.026664 V 7.8285571 c 0,-1.8533287 -1.10666,-2.6133267 -2.24,-2.6133267 -0.83999,0 -1.69332,0.4133323 -2.11999,1.1066638 -0.36,-0.8133312 -1.02666,-1.1333304 -1.72,-1.1333304 -0.79999,0 -1.65332,0.4266656 -2.11999,0.9599975 0,-0.4133322 -0.33333,-0.9199976 -1.04,-0.9199976 -0.66666,0 -0.99999,0.5066654 -0.99999,1.0666639 z m 14.63996,-6.8533159 c -2.22667,0 -3.45333,1.9333284 -3.45333,3.95999 0,2.1999949 1.30666,4.0666559 3.65332,4.0666559 1.22667,0 2.21333,-0.453332 2.88,-1.279996 0.17333,-0.186667 0.22666,-0.373333 0.22666,-0.613332 0,-0.613332 -0.33333,-0.879998 -0.75999,-0.879998 -0.70667,0 -1.13334,0.826665 -2.16,0.826665 -0.57333,0 -1.75999,-0.413333 -1.75999,-1.6133296 h 3.05332 c 1.02666,0 1.65333,0 1.65333,-1.026664 0,-2.0666615 -1.18666,-3.4399913 -3.33332,-3.4399913 z m -1.26667,3.0799922 c 0,-0.8266646 0.68,-1.2666635 1.29333,-1.2666635 0.58667,0 1.17333,0.4133323 1.17333,1.2666635 z m 5.57331,3.7733237 c 0,0.679998 0.33334,1.026664 1,1.026664 0.70667,0 1.04,-0.346666 1.04,-1.026664 V 8.2018895 c 0,-0.7866647 0.52,-1.1866637 1.05333,-1.1866637 0.48,0 0.98666,0.3866657 0.98666,1.1866637 V 11.92188 c 0,0.679998 0.36,1.026664 1.02667,1.026664 0.69333,0 1.04,-0.346666 1.04,-1.026664 V 7.8285571 c 0,-1.9599951 -1.22667,-2.6399933 -2.25333,-2.6399933 -0.8,0 -1.38667,0.4266656 -1.85333,0.9599975 0,-0.4133322 -0.33333,-0.9199976 -1.04,-0.9199976 -0.66666,0 -1,0.5066654 -1,1.0666639 z m 6.83999,-5.7333188 c 0,0.5999985 0.4,0.7866647 0.93334,0.8399979 v 3.1999919 c 0,1.759996 0.43999,2.82666 2.34666,2.82666 0.71999,0 1.10666,-0.346666 1.10666,-0.999998 0,-0.666665 -0.38667,-0.999997 -1.10666,-0.999997 -0.25334,0 -0.28,-0.266666 -0.28,-0.826665 V 7.0552257 h 0.6 c 0.70666,0 1.03999,-0.1866662 1.03999,-0.8533312 0,-0.6933315 -0.36,-0.8666644 -1.06666,-0.8666644 h -0.57333 V 4.8152314 c 0,-0.666665 -0.34667,-1.0133308 -1.04,-1.0133308 -0.68,0 -1.02666,0.3466658 -1.02666,1.0133308 v 0.5199987 c -0.54667,0.066666 -0.93334,0.266666 -0.93334,0.8533311 z m 12.13332,-1.3066633 c 0.24,0.1999995 0.50667,0.3333325 0.84,0.3333325 0.61333,0 1.05333,-0.5733319 1.05333,-1.1199972 0,-0.4133323 -0.21333,-0.7599981 -0.6,-1.0399974 -0.66667,-0.5066654 -1.48,-0.7733314 -2.31999,-0.7733314 -1.89333,0 -3.14666,1.5333295 -3.14666,3.0266591 0,1.7999954 1.59999,2.5599935 2.94666,3.1866586 1.06666,0.4933321 1.42666,0.799998 1.42666,1.2533301 0,0.7599978 -0.64,1.1466638 -1.37333,1.1466638 -0.42667,0 -0.89333,-0.146666 -1.25333,-0.373332 -0.25333,-0.146667 -0.52,-0.226666 -0.78667,-0.226666 -0.69333,0 -1.03999,0.319999 -1.03999,1.026664 0,0.439998 0.2,0.786664 0.61333,1.05333 0.73333,0.479999 1.55999,0.733332 2.46666,0.733332 2.05333,0 3.63999,-1.279997 3.63999,-3.4399916 0,-1.6399958 -1.14666,-2.3733273 -2.75999,-3.159992 -0.82667,-0.399999 -1.64,-0.5999985 -1.64,-1.2533301 0,-0.5866652 0.34667,-0.7599981 0.89333,-0.7599981 0.38667,0 0.72,0.1466663 1.04,0.3866657 z m 3.93333,9.2666431 c -0.0533,0.16 -0.08,0.306666 -0.08,0.479999 0,0.666665 0.32,1.013331 0.98667,1.013331 0.52,0 0.89333,-0.253333 1.09333,-0.786665 l 2.94666,-8.1733127 c 0.0667,-0.1866662 0.0667,-0.3466658 0.0667,-0.4799988 0,-0.6933315 -0.34666,-1.026664 -1.02666,-1.026664 -0.53333,0 -0.89333,0.2533327 -1.06666,0.7733313 -0.34667,1.0533307 -0.72,3.1733254 -1.06667,4.2133232 l -0.98666,-4.1466567 c -0.16,-0.5199986 -0.54667,-0.8266645 -1.08,-0.8266645 -0.66666,0 -1,0.3199992 -1,1.026664 0,0.1599996 0.0267,0.3066659 0.0933,0.4799988 0.61333,1.8533287 1.19999,3.8266574 1.82666,5.6933194 z m 8.55997,-2.853326 c -1.03999,0 -1.42666,-0.733331 -2.22666,-0.733331 -0.48,0 -0.95999,0.279999 -0.95999,0.879997 0,0.319999 0.13333,0.653332 0.41333,0.853331 0.74666,0.453333 1.53333,0.773332 2.54666,0.773332 1.45333,0 3.02666,-0.679998 3.02666,-2.439994 0,-2.1999944 -3.79999,-2.4399938 -3.79999,-3.3599915 0,-0.3599991 0.26666,-0.4799988 0.61333,-0.4799988 0.78666,0 1.32,0.4399989 2.01333,0.4399989 0.6,0 0.92,-0.4533322 0.92,-0.8933311 0,-0.3199992 -0.17334,-0.6533316 -0.53334,-0.8533311 -0.69333,-0.3599991 -1.43999,-0.4666655 -2.13332,-0.4666655 -1.57333,0 -2.94666,0.7333315 -2.94666,2.3733273 0,2.3066608 3.71999,2.359994 3.71999,3.4266578 0,0.346666 -0.28,0.479999 -0.65334,0.479999 z m 3.22666,-5.1066538 c 0,0.5999985 0.4,0.7866647 0.93333,0.8399979 v 3.1999919 c 0,1.759996 0.44,2.82666 2.34666,2.82666 0.72,0 1.10666,-0.346666 1.10666,-0.999998 0,-0.666665 -0.38666,-0.999997 -1.10666,-0.999997 -0.25333,0 -0.28,-0.266666 -0.28,-0.826665 V 7.0552257 h 0.6 c 0.70666,0 1.03999,-0.1866662 1.03999,-0.8533312 0,-0.6933315 -0.35999,-0.8666644 -1.06666,-0.8666644 h -0.57333 V 4.8152314 c 0,-0.666665 -0.34667,-1.0133308 -1.04,-1.0133308 -0.68,0 -1.02666,0.3466658 -1.02666,1.0133308 v 0.5199987 c -0.54667,0.066666 -0.93333,0.266666 -0.93333,0.8533311 z m 8.42664,-1.1199971 c -2.22666,0 -3.45332,1.9333284 -3.45332,3.95999 0,2.1999949 1.30666,4.0666559 3.65332,4.0666559 1.22667,0 2.21333,-0.453332 2.88,-1.279996 0.17333,-0.186667 0.22666,-0.373333 0.22666,-0.613332 0,-0.613332 -0.33333,-0.879998 -0.76,-0.879998 -0.70666,0 -1.13333,0.826665 -2.15999,0.826665 -0.57333,0 -1.76,-0.413333 -1.76,-1.6133296 h 3.05333 c 1.02666,0 1.65333,0 1.65333,-1.026664 0,-2.0666615 -1.18666,-3.4399913 -3.33333,-3.4399913 z m -1.26666,3.0799922 c 0,-0.8266646 0.68,-1.2666635 1.29333,-1.2666635 0.58667,0 1.17333,0.4133323 1.17333,1.2666635 z m 5.57333,3.7733237 c 0,0.679998 0.33333,1.026664 1,1.026664 0.70666,0 1.03999,-0.346666 1.03999,-1.026664 V 8.2018895 c 0,-0.7866647 0.52,-1.1866637 1.05333,-1.1866637 0.48,0 0.98667,0.3866657 0.98667,1.1866637 V 11.92188 c 0,0.679998 0.36,1.026664 1.02666,1.026664 0.69333,0 1.04,-0.346666 1.04,-1.026664 V 7.9752234 c 0.08,-0.6399984 0.56,-0.9599976 1.04,-0.9599976 0.48,0 0.98666,0.3866657 0.98666,1.1866637 V 11.92188 c 0,0.679998 0.36,1.026664 1.02667,1.026664 0.69333,0 1.03999,-0.346666 1.03999,-1.026664 V 7.8285571 c 0,-1.8533287 -1.10666,-2.6133267 -2.23999,-2.6133267 -0.84,0 -1.69333,0.4133323 -2.12,1.1066638 -0.35999,-0.8133312 -1.02666,-1.1333304 -1.71999,-1.1333304 -0.8,0 -1.65333,0.4266656 -2.12,0.9599975 0,-0.4133322 -0.33333,-0.9199976 -1.03999,-0.9199976 -0.66667,0 -1,0.5066654 -1,1.0666639 z"
     id="text2"
     aria-label="Nintendo Entertainment System" />
</svg>
