<?xml version="1.0" encoding="UTF-8" standalone="no"?>
<svg
   viewBox="0 0 200 40"
   version="1.1"
   id="svg1"
   sodipodi:docname="ngpc.svg"
   inkscape:version="1.3.2 (091e20e, 2023-11-25)"
   xmlns:inkscape="http://www.inkscape.org/namespaces/inkscape"
   xmlns:sodipodi="http://sodipodi.sourceforge.net/DTD/sodipodi-0.dtd"
   xmlns="http://www.w3.org/2000/svg"
   xmlns:svg="http://www.w3.org/2000/svg">
  <defs
     id="defs1">
    <rect
       x="0.30349014"
       y="0.60698027"
       width="199.08953"
       height="38.846737"
       id="rect3" />
    <rect
       x="0.60698027"
       y="0.60698027"
       width="198.78604"
       height="39.150228"
       id="rect2" />
    <rect
       x="0.91047041"
       y="0.60698027"
       width="198.17906"
       height="38.846737"
       id="rect1" />
  </defs>
  <sodipodi:namedview
     id="namedview1"
     pagecolor="#020202"
     bordercolor="#000000"
     borderopacity="0.25"
     inkscape:showpageshadow="2"
     inkscape:pageopacity="0.0"
     inkscape:pagecheckerboard="0"
     inkscape:deskcolor="#d1d1d1"
     inkscape:zoom="3.295"
     inkscape:cx="101.36571"
     inkscape:cy="-0.75872534"
     inkscape:window-width="1400"
     inkscape:window-height="864"
     inkscape:window-x="209"
     inkscape:window-y="25"
     inkscape:window-maximized="0"
     inkscape:current-layer="svg1" />
  <path
     style="font-weight:bold;font-size:13.3333px;font-family:BPreplay;-inkscape-font-specification:'BPreplay Bold';letter-spacing:0px;white-space:pre;fill:#ffffff;stroke-width:2.64567;stroke-linecap:square;stroke-opacity:0.988722;paint-order:markers fill stroke"
     d="m 1.1160657,11.855214 c 0,0.733331 0.3466657,1.09333 1.0666639,1.09333 0.7066649,0 1.066664,-0.359999 1.066664,-1.09333 V 6.8818928 l 3.7066573,5.4399862 c 0.2933326,0.413332 0.6799983,0.626665 1.1199972,0.626665 0.7066648,0 1.0666639,-0.386666 1.0666639,-1.159997 V 3.6552343 c 0,-0.7199982 -0.3466658,-1.0799973 -1.0799972,-1.0799973 -0.6933316,0 -1.0533307,0.3599991 -1.0533307,1.0799973 V 8.7218882 L 3.3427267,3.2685686 C 3.0227275,2.8019031 2.6360618,2.5619037 2.1693963,2.5619037 c -0.6933316,0 -1.0533306,0.3866657 -1.0533306,1.1599971 z M 13.636054,5.0685641 c -2.226661,0 -3.453325,1.9333284 -3.453325,3.95999 0,2.1999949 1.306664,4.0666559 3.653324,4.0666559 1.226664,0 2.213328,-0.453332 2.879993,-1.279996 0.173333,-0.186667 0.226666,-0.373333 0.226666,-0.613332 0,-0.613332 -0.333332,-0.879998 -0.759998,-0.879998 -0.706665,0 -1.13333,0.826665 -2.159995,0.826665 -0.573331,0 -1.759995,-0.413333 -1.759995,-1.6133296 h 3.053326 c 1.026664,0 1.653329,0 1.653329,-1.026664 0,-2.0666615 -1.186664,-3.4399913 -3.333325,-3.4399913 z M 12.36939,8.1485563 c 0,-0.8266646 0.679999,-1.2666635 1.29333,-1.2666635 0.586666,0 1.173331,0.4133323 1.173331,1.2666635 z M 21.102702,5.108564 c -2.279994,0 -3.466658,1.8399953 -3.466658,3.9066568 0,2.0799952 1.186664,4.0533232 3.466658,4.0533232 2.253328,0 3.466658,-1.866662 3.466658,-3.9733234 0,-2.0533282 -1.199997,-3.9866566 -3.466658,-3.9866566 z m 0,1.8933285 c 0.946664,0 1.359996,1.2399969 1.359996,2.1733279 0,0.9466646 -0.413332,2.0266616 -1.359996,2.0266616 -0.946664,0 -1.359997,-1.3199968 -1.359997,-2.2533277 0,-0.9599976 0.413333,-1.9466618 1.359997,-1.9466618 z m 11.639976,3.9066565 c -1.626662,0 -2.42666,-1.5066625 -2.42666,-3.0533253 0,-1.866662 0.826664,-3.4399913 2.519993,-3.4399913 0.519999,0 1.146664,0.1066664 1.733329,0.6399984 0.253333,0.2399994 0.546666,0.3466658 0.813332,0.3466658 0.506665,0 0.946664,-0.3866657 0.946664,-1.0533307 0,-1.2399969 -1.893329,-2.1466613 -3.453325,-2.1466613 -3.213325,0 -4.813321,2.7333265 -4.813321,5.6666524 0,2.639993 1.506663,5.226653 4.639988,5.226653 2.639994,0 4.306656,-1.919995 4.306656,-4.6133212 0,-0.8933311 -0.133333,-1.7199957 -1.399996,-1.7199957 h -2.679994 c -0.799998,0 -1.199996,0.3466658 -1.199996,1.0799973 0,0.6933316 0.386665,1.066664 1.159997,1.066664 h 1.933328 C 34.68934,10.175218 33.956009,10.908549 32.742678,10.908549 Z M 41.03599,5.0685641 c -2.226662,0 -3.453325,1.9333284 -3.453325,3.95999 0,2.1999949 1.306663,4.0666559 3.653324,4.0666559 1.226664,0 2.213328,-0.453332 2.879993,-1.279996 0.173333,-0.186667 0.226666,-0.373333 0.226666,-0.613332 0,-0.613332 -0.333333,-0.879998 -0.759998,-0.879998 -0.706665,0 -1.133331,0.826665 -2.159995,0.826665 -0.573332,0 -1.759995,-0.413333 -1.759995,-1.6133296 h 3.053325 c 1.026664,0 1.653329,0 1.653329,-1.026664 0,-2.0666615 -1.186663,-3.4399913 -3.333324,-3.4399913 z m -1.266664,3.0799922 c 0,-0.8266646 0.679998,-1.2666635 1.29333,-1.2666635 0.586665,0 1.17333,0.4133323 1.17333,1.2666635 z M 48.502635,5.108564 c -2.279994,0 -3.466658,1.8399953 -3.466658,3.9066568 0,2.0799952 1.186664,4.0533232 3.466658,4.0533232 2.253327,0 3.466658,-1.866662 3.466658,-3.9733234 0,-2.0533282 -1.199997,-3.9866566 -3.466658,-3.9866566 z m 0,1.8933285 c 0.946664,0 1.359996,1.2399969 1.359996,2.1733279 0,0.9466646 -0.413332,2.0266616 -1.359996,2.0266616 -0.946665,0 -1.359997,-1.3199968 -1.359997,-2.2533277 0,-0.9599976 0.413332,-1.9466618 1.359997,-1.9466618 z m 7.373322,4.8666545 c 0,0.733331 0.346666,1.079997 1.066664,1.079997 0.706665,0 1.066664,-0.346666 1.066664,-1.079997 V 9.3618866 h 1.853329 c 1.933328,0 3.426658,-1.4533297 3.426658,-3.3733249 0,-2.0266615 -1.466663,-3.4133247 -3.506658,-3.4133247 h -2.78666 c -0.733331,0 -1.119997,0.3466658 -1.119997,1.1066639 z m 3.733324,-7.159982 c 0.973331,0 1.506663,0.4666655 1.506663,1.2666634 0,0.7733314 -0.519999,1.2533302 -1.306663,1.2533302 H 58.009285 V 4.708565 Z m 7.506639,0.399999 c -2.279994,0 -3.466658,1.8399953 -3.466658,3.9066568 0,2.0799952 1.186664,4.0533232 3.466658,4.0533232 2.253327,0 3.466658,-1.866662 3.466658,-3.9733234 0,-2.0533282 -1.199997,-3.9866566 -3.466658,-3.9866566 z m 0,1.8933285 c 0.946664,0 1.359996,1.2399969 1.359996,2.1733279 0,0.9466646 -0.413332,2.0266616 -1.359996,2.0266616 -0.946664,0 -1.359997,-1.3199968 -1.359997,-2.2533277 0,-0.9599976 0.413333,-1.9466618 1.359997,-1.9466618 z m 7.853312,0.1466663 c 0.506665,0 1.026664,0.2266661 1.426663,0.2266661 0.586665,0 0.973331,-0.3733324 0.973331,-0.9733309 0,-0.399999 -0.319999,-0.7733313 -0.759998,-0.9733308 -0.559999,-0.2533327 -1.146664,-0.3066659 -1.653329,-0.3066659 -2.013329,0 -3.719991,1.5733293 -3.719991,3.9333234 0,2.2799943 1.639996,4.0133233 3.746657,4.0133233 0.613332,0 1.279997,-0.16 1.906662,-0.573332 0.319999,-0.239999 0.546665,-0.519999 0.546665,-0.919998 0,-0.546665 -0.506665,-0.973331 -0.959997,-0.973331 -0.133333,0 -0.333333,0.04 -0.479999,0.146667 -0.306666,0.213333 -0.679998,0.293332 -0.999997,0.293332 -0.919998,0 -1.679996,-0.853331 -1.679996,-1.9333281 0,-1.1866637 0.719998,-1.9599951 1.653329,-1.9599951 z m 3.36,4.7733212 c 0,0.679998 0.333333,1.026664 1.013331,1.026664 0.706665,0 1.026664,-0.346666 1.026664,-1.026664 v -1.706662 c 0.06667,-0.08 0.786665,-0.6666653 0.853331,-0.7199984 l 1.666663,2.9466594 c 0.199999,0.306666 0.613331,0.533332 0.986664,0.533332 0.706665,0 0.973331,-0.479999 0.973331,-1.039998 0,-0.773331 -0.253333,-0.413332 -2.013329,-3.6533237 l 1.45333,-1.2133303 c 0.306666,-0.2266661 0.426666,-0.4133323 0.426666,-0.7599981 0,-0.5599985 -0.506666,-1.0666639 -1.053331,-1.0666639 -0.253333,0 -0.479999,0.08 -0.693332,0.2533327 L 80.369227,7.6952241 V 3.2152354 c 0,-0.6933316 -0.333333,-1.0399974 -1.026664,-1.0399974 -0.693332,0 -1.013331,0.3466658 -1.013331,1.0399974 z m 10.45332,-6.8533159 c -2.226661,0 -3.453324,1.9333284 -3.453324,3.95999 0,2.1999949 1.306663,4.0666559 3.653324,4.0666559 1.226664,0 2.213328,-0.453332 2.879993,-1.279996 0.173333,-0.186667 0.226666,-0.373333 0.226666,-0.613332 0,-0.613332 -0.333333,-0.879998 -0.759998,-0.879998 -0.706665,0 -1.133331,0.826665 -2.159995,0.826665 -0.573332,0 -1.759995,-0.413333 -1.759995,-1.6133296 h 3.053325 c 1.026664,0 1.653329,0 1.653329,-1.026664 0,-2.0666615 -1.186663,-3.4399913 -3.333325,-3.4399913 z m -1.266663,3.0799922 c 0,-0.8266646 0.679998,-1.2666635 1.29333,-1.2666635 0.586665,0 1.17333,0.4133323 1.17333,1.2666635 z m 5.013317,-1.9599951 c 0,0.5999985 0.399999,0.7866647 0.933331,0.8399979 v 3.1999919 c 0,1.759996 0.439999,2.82666 2.346661,2.82666 0.719998,0 1.106664,-0.346666 1.106664,-0.999998 0,-0.666665 -0.386666,-0.999997 -1.106664,-0.999997 -0.253333,0 -0.28,-0.266666 -0.28,-0.826665 V 7.0552257 h 0.599999 c 0.706665,0 1.039997,-0.1866662 1.039997,-0.8533312 0,-0.6933315 -0.359999,-0.8666644 -1.066664,-0.8666644 H 95.529198 V 4.8152314 c 0,-0.666665 -0.346665,-1.0133308 -1.039997,-1.0133308 -0.679998,0 -1.026664,0.3466658 -1.026664,1.0133308 v 0.5199987 c -0.546665,0.066666 -0.933331,0.266666 -0.933331,0.8533311 z m 14.359964,4.0399898 c -0.42666,0.426666 -0.98666,0.573332 -1.59999,0.573332 -1.73333,0 -2.62666,-1.5333295 -2.62666,-3.1599921 0,-1.5866627 0.85333,-3.159992 2.61332,-3.159992 0.61334,0 1.21334,0.2133328 1.62667,0.6266651 0.18666,0.1999995 0.54666,0.3199992 0.81333,0.3199992 0.58666,0 1.05333,-0.4266656 1.05333,-1.1066639 0,-0.3466658 -0.14667,-0.6533317 -0.41333,-0.9066644 -0.88,-0.799998 -1.90666,-1.1599971 -3.04,-1.1599971 -3.25332,0 -4.89332,2.7466598 -4.89332,5.4666529 0,2.6933263 1.6,5.3733193 4.82666,5.3733193 1.16,0 2.17333,-0.413332 3.03999,-1.186663 0.29333,-0.266666 0.4,-0.573332 0.4,-0.919998 0,-0.559998 -0.30667,-1.0799972 -1.06666,-1.0799972 -0.28,0 -0.49334,0.08 -0.73334,0.3199992 z m 5.89332,-5.119987 c -2.28,0 -3.46666,1.8399953 -3.46666,3.9066568 0,2.0799952 1.18666,4.0533232 3.46666,4.0533232 2.25333,0 3.46666,-1.866662 3.46666,-3.9733234 0,-2.0533282 -1.2,-3.9866566 -3.46666,-3.9866566 z m 0,1.8933285 c 0.94666,0 1.36,1.2399969 1.36,2.1733279 0,0.9466646 -0.41334,2.0266616 -1.36,2.0266616 -0.94667,0 -1.36,-1.3199968 -1.36,-2.2533277 0,-0.9599976 0.41333,-1.9466618 1.36,-1.9466618 z m 4.46665,4.9066545 c 0,0.706665 0.33333,1.039997 1.04,1.039997 0.69333,0 1.02666,-0.333332 1.02666,-1.039997 V 3.2019021 c 0,-0.6799983 -0.36,-1.0533306 -1.04,-1.0533306 -0.68,0 -1.02666,0.3733323 -1.02666,1.0533306 z m 6.5333,-6.799983 c -2.27999,0 -3.46666,1.8399953 -3.46666,3.9066568 0,2.0799952 1.18667,4.0533232 3.46666,4.0533232 2.25333,0 3.46666,-1.866662 3.46666,-3.9733234 0,-2.0533282 -1.2,-3.9866566 -3.46666,-3.9866566 z m 0,1.8933285 c 0.94667,0 1.36,1.2399969 1.36,2.1733279 0,0.9466646 -0.41333,2.0266616 -1.36,2.0266616 -0.94666,0 -1.35999,-1.3199968 -1.35999,-2.2533277 0,-0.9599976 0.41333,-1.9466618 1.35999,-1.9466618 z m 4.43999,4.9199875 c 0,0.679998 0.34666,1.026664 1.02666,1.026664 0.70667,0 1.02666,-0.346666 1.02666,-1.026664 V 8.2018895 c 0,-0.5866652 0.58667,-0.9999975 1.09334,-0.9999975 0.13333,0 0.21333,0.026667 0.30666,0.04 0.13333,0.026667 0.30667,0.04 0.49333,0.04 0.61333,0 1.05333,-0.4933321 1.05333,-1.0399974 0,-0.5466652 -0.4,-1.1333304 -1.46666,-1.1333304 -0.56,0 -1.42666,0.5466653 -1.65333,0.9866641 -0.0267,-0.626665 -0.44,-0.8799977 -0.85333,-0.8799977 -0.68,0 -1.02666,0.3466658 -1.02666,1.0666639 z"
     id="text2"
     aria-label="Neo Geo Pocket Color" />
</svg>
