<?xml version="1.0" encoding="UTF-8" standalone="no"?>
<svg
   viewBox="0 0 200 40"
   version="1.1"
   id="svg1"
   sodipodi:docname="onscripter.svg"
   inkscape:version="1.3.2 (091e20e, 2023-11-25)"
   xmlns:inkscape="http://www.inkscape.org/namespaces/inkscape"
   xmlns:sodipodi="http://sodipodi.sourceforge.net/DTD/sodipodi-0.dtd"
   xmlns="http://www.w3.org/2000/svg"
   xmlns:svg="http://www.w3.org/2000/svg">
  <defs
     id="defs1">
    <rect
       x="0.30349014"
       y="0.60698027"
       width="199.08953"
       height="38.846737"
       id="rect3" />
    <rect
       x="0.60698027"
       y="0.60698027"
       width="198.78604"
       height="39.150228"
       id="rect2" />
    <rect
       x="0.91047041"
       y="0.60698027"
       width="198.17906"
       height="38.846737"
       id="rect1" />
  </defs>
  <sodipodi:namedview
     id="namedview1"
     pagecolor="#020202"
     bordercolor="#000000"
     borderopacity="0.25"
     inkscape:showpageshadow="2"
     inkscape:pageopacity="0.0"
     inkscape:pagecheckerboard="0"
     inkscape:deskcolor="#d1d1d1"
     inkscape:zoom="3.295"
     inkscape:cx="101.36571"
     inkscape:cy="-0.75872534"
     inkscape:window-width="1400"
     inkscape:window-height="864"
     inkscape:window-x="209"
     inkscape:window-y="25"
     inkscape:window-maximized="0"
     inkscape:current-layer="svg1" />
  <path
     style="font-weight:bold;font-size:13.3333px;font-family:BPreplay;-inkscape-font-specification:'BPreplay Bold';letter-spacing:0px;white-space:pre;fill:#ffffff;stroke-width:2.64567;stroke-linecap:square;stroke-opacity:0.988722;paint-order:markers fill stroke"
     d="M 2.5293954,3.3352351 C 2.3560625,2.8152364 1.9960634,2.5485704 1.4627314,2.5485704 c -0.70666484,0 -1.06666393,0.3599991 -1.06666393,1.066664 0,0.133333 0.0266666,0.2799993 0.0666665,0.4266656 l 2.82665953,7.83998 c 0.2533327,0.706665 0.6533317,1.066664 1.199997,1.066664 0.5866651,0 1.0133307,-0.386666 1.29333,-1.17333 L 8.516047,4.0685666 C 8.5693801,3.9619002 8.60938,3.8152339 8.60938,3.6819009 c 0,-0.5733319 -0.6133317,-1.1199972 -1.159997,-1.1199972 -0.5199987,0 -0.8266646,0.266666 -1.0133308,0.7866647 C 5.7827205,5.2018971 5.1693887,7.335225 4.5027238,9.2152203 Z M 9.3427,11.908547 c 0,0.706665 0.359999,1.039997 1.039997,1.039997 0.693332,0 1.039998,-0.333332 1.039998,-1.039997 V 6.3218942 c 0,-0.6933315 -0.373333,-1.026664 -1.053331,-1.026664 -0.666665,0 -1.026664,0.3333325 -1.026664,1.026664 z M 9.1560338,3.3085685 c 0,0.666665 0.5333319,1.1866637 1.1866632,1.1866637 0.679999,0 1.199997,-0.5199987 1.199997,-1.1866637 0,-0.666665 -0.519998,-1.1866636 -1.199997,-1.1866636 -0.6533313,0 -1.1866632,0.5199986 -1.1866632,1.1866636 z m 6.3866612,7.9866465 c -1.039997,0 -1.426663,-0.733331 -2.226661,-0.733331 -0.479999,0 -0.959997,0.279999 -0.959997,0.879997 0,0.319999 0.133333,0.653332 0.413332,0.853331 0.746665,0.453333 1.533329,0.773332 2.54666,0.773332 1.45333,0 3.026659,-0.679998 3.026659,-2.439994 0,-2.1999944 -3.79999,-2.4399938 -3.79999,-3.3599915 0,-0.3599991 0.266666,-0.4799988 0.613332,-0.4799988 0.786664,0 1.319996,0.4399989 2.013328,0.4399989 0.599998,0 0.919998,-0.4533322 0.919998,-0.8933311 0,-0.3199992 -0.173333,-0.6533316 -0.533332,-0.8533311 -0.693332,-0.3599991 -1.439997,-0.4666655 -2.133328,-0.4666655 -1.57333,0 -2.94666,0.7333315 -2.94666,2.3733273 0,2.3066608 3.719991,2.359994 3.719991,3.4266578 0,0.346666 -0.279999,0.479999 -0.653332,0.479999 z m 5.693316,-4.9866541 c 0,-0.7066648 -0.319999,-1.026664 -1.026664,-1.026664 -0.679998,0 -1.013331,0.3199992 -1.013331,1.026664 v 3.559991 c 0,2.0133281 1.159997,3.1599921 2.386661,3.1599921 0.733331,0 1.49333,-0.399999 2.053328,-1.146664 v 0.399999 c 0.01333,0.599999 0.426666,0.839998 0.786665,0.839998 0.693331,0 1.026664,-0.346666 1.026664,-0.986664 V 6.268561 c 0,-0.7066648 -0.333333,-1.0533306 -1.026664,-1.0533306 -0.746665,0 -0.986664,0.3866657 -0.986664,1.0533306 v 2.799993 c 0,1.279997 -0.639999,1.973328 -1.266664,1.973328 -0.466665,0 -0.919998,-0.239999 -0.919998,-1.5466624 z m 6.266655,-0.759998 c -0.426665,0.1733329 -0.693331,0.4666654 -0.693331,0.8399978 0,0.6799983 0.479998,0.8399979 0.986664,0.8399979 0.479999,0 0.919997,-0.1733329 1.466663,-0.1733329 0.746664,0 1.626662,0.4799988 1.626662,1.2666635 V 8.9752209 C 30.409325,8.6285551 29.702661,8.4285556 28.982662,8.4285556 c -1.706662,0 -2.706659,1.2533301 -2.706659,2.4533274 0,1.106664 0.866664,2.159994 2.38666,2.159994 0.746665,0 1.546663,-0.306666 2.173328,-0.973331 v 0.253333 c 0.04,0.546665 0.613332,0.719998 0.839998,0.719998 0.653332,0 1.039997,-0.493332 1.039997,-1.026664 V 8.0285566 c 0,-2.0399949 -1.679995,-2.8399928 -3.373324,-2.8399928 -0.613332,0 -1.253331,0.1199997 -1.839996,0.3599991 z m 0.866665,5.0666541 c 0,-0.426666 0.559998,-0.613332 1.119997,-0.613332 0.533332,0 1.119997,0.199999 1.119997,0.546665 0,0.466666 -0.639998,0.706665 -1.239997,0.706665 -0.493332,0 -0.999997,-0.213333 -0.999997,-0.639998 z m 5.599988,1.29333 c 0,0.706665 0.333333,1.039997 1.039998,1.039997 0.693331,0 1.026664,-0.333332 1.026664,-1.039997 V 3.2019021 c 0,-0.6799983 -0.359999,-1.0533306 -1.039998,-1.0533306 -0.679998,0 -1.026664,0.3733323 -1.026664,1.0533306 z m 6.306651,-0.05333 c 0,0.733331 0.346666,1.09333 1.066664,1.09333 0.706665,0 1.066664,-0.359999 1.066664,-1.09333 V 6.8818928 l 3.706657,5.4399862 c 0.293333,0.413332 0.679999,0.626665 1.119998,0.626665 0.706664,0 1.066664,-0.386666 1.066664,-1.159997 V 3.6552343 c 0,-0.7199982 -0.346666,-1.0799973 -1.079998,-1.0799973 -0.693331,0 -1.05333,0.3599991 -1.05333,1.0799973 V 8.7218882 L 42.502631,3.2685686 c -0.319999,-0.4666655 -0.706665,-0.7066649 -1.17333,-0.7066649 -0.693332,0 -1.053331,0.3866657 -1.053331,1.1599971 z m 12.533321,-6.74665 c -2.279995,0 -3.466658,1.8399953 -3.466658,3.9066568 0,2.0799952 1.186663,4.0533232 3.466658,4.0533232 2.253327,0 3.466658,-1.866662 3.466658,-3.9733234 0,-2.0533282 -1.199997,-3.9866566 -3.466658,-3.9866566 z m 0,1.8933285 c 0.946664,0 1.359996,1.2399969 1.359996,2.1733279 0,0.9466646 -0.413332,2.0266616 -1.359996,2.0266616 -0.946665,0 -1.359997,-1.3199968 -1.359997,-2.2533277 0,-0.9599976 0.413332,-1.9466618 1.359997,-1.9466618 z M 58.729285,6.1085614 C 58.569286,5.508563 58.22262,5.1618972 57.649288,5.1618972 c -0.573332,0 -1.026664,0.3866657 -1.026664,1.0133307 0,0.1066664 0.02667,0.2533327 0.06667,0.3866657 l 1.893328,5.6399854 c 0.173333,0.493332 0.506666,0.746665 1.026664,0.746665 0.546666,0 0.906665,-0.253333 1.079998,-0.746665 l 1.919995,-5.6133188 c 0.06667,-0.133333 0.08,-0.2933326 0.08,-0.4133323 0,-0.6666649 -0.399999,-1.0133307 -0.999997,-1.0133307 -0.506665,0 -0.866664,0.2933326 -1.093331,0.9066643 L 59.67595,9.7085523 Z m 7.74665,-1.0399973 c -2.226661,0 -3.453325,1.9333284 -3.453325,3.95999 0,2.1999949 1.306664,4.0666559 3.653324,4.0666559 1.226664,0 2.213328,-0.453332 2.879993,-1.279996 0.173333,-0.186667 0.226666,-0.373333 0.226666,-0.613332 0,-0.613332 -0.333332,-0.879998 -0.759998,-0.879998 -0.706665,0 -1.13333,0.826665 -2.159995,0.826665 -0.573331,0 -1.759995,-0.413333 -1.759995,-1.6133296 h 3.053326 c 1.026664,0 1.653329,0 1.653329,-1.026664 0,-2.0666615 -1.186664,-3.4399913 -3.333325,-3.4399913 z m -1.266664,3.0799922 c 0,-0.8266646 0.679999,-1.2666635 1.29333,-1.2666635 0.586666,0 1.173331,0.4133323 1.173331,1.2666635 z m 5.599987,3.7599907 c 0,0.706665 0.333333,1.039997 1.039998,1.039997 0.693331,0 1.026664,-0.333332 1.026664,-1.039997 V 3.2019021 c 0,-0.6799983 -0.359999,-1.0533306 -1.039998,-1.0533306 -0.679998,0 -1.026664,0.3733323 -1.026664,1.0533306 z m 10.573303,-0.999998 c -1.626662,0 -2.42666,-1.5066625 -2.42666,-3.0533253 0,-1.866662 0.826664,-3.4399913 2.519993,-3.4399913 0.519999,0 1.146664,0.1066664 1.733329,0.6399984 0.253333,0.2399994 0.546666,0.3466658 0.813332,0.3466658 0.506665,0 0.946664,-0.3866657 0.946664,-1.0533307 0,-1.2399969 -1.893329,-2.1466613 -3.453325,-2.1466613 -3.213325,0 -4.813321,2.7333265 -4.813321,5.6666524 0,2.639993 1.506663,5.226653 4.639988,5.226653 2.639994,0 4.306656,-1.919995 4.306656,-4.6133212 0,-0.8933311 -0.133333,-1.7199957 -1.399996,-1.7199957 h -2.679993 c -0.799998,0 -1.199997,0.3466658 -1.199997,1.0799973 0,0.6933316 0.386665,1.066664 1.159997,1.066664 h 1.933328 c -0.133333,1.2666636 -0.866664,1.9999946 -2.079995,1.9999946 z m 5.91999,-5.3599861 c -0.426666,0.1733329 -0.693332,0.4666654 -0.693332,0.8399978 0,0.6799983 0.479999,0.8399979 0.986665,0.8399979 0.479998,0 0.919997,-0.1733329 1.466663,-0.1733329 0.746664,0 1.626662,0.4799988 1.626662,1.2666635 V 8.9752209 C 90.20921,8.6285551 89.502545,8.4285556 88.782547,8.4285556 c -1.706662,0 -2.70666,1.2533301 -2.70666,2.4533274 0,1.106664 0.866665,2.159994 2.386661,2.159994 0.746665,0 1.546663,-0.306666 2.173328,-0.973331 v 0.253333 c 0.04,0.546665 0.613332,0.719998 0.839998,0.719998 0.653331,0 1.039997,-0.493332 1.039997,-1.026664 V 8.0285566 c 0,-2.0399949 -1.679996,-2.8399928 -3.373325,-2.8399928 -0.613331,0 -1.25333,0.1199997 -1.839995,0.3599991 z m 0.866664,5.0666541 c 0,-0.426666 0.559999,-0.613332 1.119998,-0.613332 0.533332,0 1.119997,0.199999 1.119997,0.546665 0,0.466666 -0.639999,0.706665 -1.239997,0.706665 -0.493332,0 -0.999998,-0.213333 -0.999998,-0.639998 z m 5.573322,1.306663 c 0,0.679998 0.333333,1.026664 0.999998,1.026664 0.706665,0 1.039997,-0.346666 1.039997,-1.026664 V 8.2018895 c 0,-0.7866647 0.519999,-1.1866637 1.053331,-1.1866637 0.479999,0 0.986664,0.3866657 0.986664,1.1866637 V 11.92188 c 0,0.679998 0.359999,1.026664 1.026664,1.026664 0.693332,0 1.039998,-0.346666 1.039998,-1.026664 V 7.9752234 c 0.08,-0.6399984 0.560001,-0.9599976 1.040001,-0.9599976 0.47999,0 0.98666,0.3866657 0.98666,1.1866637 V 11.92188 c 0,0.679998 0.36,1.026664 1.02666,1.026664 0.69334,0 1.04,-0.346666 1.04,-1.026664 V 7.8285571 c 0,-1.8533287 -1.10666,-2.6133267 -2.23999,-2.6133267 -0.84,0 -1.69333,0.4133323 -2.119997,1.1066638 -0.36,-0.8133312 -1.026664,-1.1333304 -1.719996,-1.1333304 -0.799998,0 -1.653329,0.4266656 -2.119995,0.9599975 0,-0.4133322 -0.333332,-0.9199976 -1.039997,-0.9199976 -0.666665,0 -0.999998,0.5066654 -0.999998,1.0666639 z M 108.38249,5.0685641 c -2.22666,0 -3.45332,1.9333284 -3.45332,3.95999 0,2.1999949 1.30666,4.0666559 3.65332,4.0666559 1.22666,0 2.21333,-0.453332 2.87999,-1.279996 0.17334,-0.186667 0.22667,-0.373333 0.22667,-0.613332 0,-0.613332 -0.33333,-0.879998 -0.76,-0.879998 -0.70666,0 -1.13333,0.826665 -2.15999,0.826665 -0.57334,0 -1.76,-0.413333 -1.76,-1.6133296 h 3.05333 c 1.02666,0 1.65332,0 1.65332,-1.026664 0,-2.0666615 -1.18666,-3.4399913 -3.33332,-3.4399913 z m -1.26666,3.0799922 c 0,-0.8266646 0.67999,-1.2666635 1.29333,-1.2666635 0.58666,0 1.17333,0.4133323 1.17333,1.2666635 z m 8.41331,3.1466587 c -1.04,0 -1.42666,-0.733331 -2.22666,-0.733331 -0.48,0 -0.96,0.279999 -0.96,0.879997 0,0.319999 0.13333,0.653332 0.41333,0.853331 0.74667,0.453333 1.53333,0.773332 2.54666,0.773332 1.45333,0 3.02666,-0.679998 3.02666,-2.439994 0,-2.1999944 -3.79999,-2.4399938 -3.79999,-3.3599915 0,-0.3599991 0.26667,-0.4799988 0.61333,-0.4799988 0.78667,0 1.32,0.4399989 2.01333,0.4399989 0.6,0 0.92,-0.4533322 0.92,-0.8933311 0,-0.3199992 -0.17333,-0.6533316 -0.53333,-0.8533311 -0.69333,-0.3599991 -1.44,-0.4666655 -2.13333,-0.4666655 -1.57333,0 -2.94666,0.7333315 -2.94666,2.3733273 0,2.3066608 3.71999,2.359994 3.71999,3.4266578 0,0.346666 -0.28,0.479999 -0.65333,0.479999 z m 6.63999,0.479999 c 0,0.933331 0.13334,1.17333 1.12,1.17333 h 3.85332 c 0.77333,0 1.14667,-0.359999 1.14667,-1.066664 0,-0.719998 -0.37334,-1.066664 -1.14667,-1.066664 h -2.83999 V 8.6552217 h 2.14666 c 0.72,0 1.06667,-0.3599991 1.06667,-1.0533307 0,-0.7199982 -0.34667,-1.0799973 -1.06667,-1.0799973 h -2.14666 V 4.7218983 h 2.74666 c 0.72,0 1.06666,-0.3599991 1.06666,-1.066664 0,-0.7333315 -0.34666,-1.066664 -1.06666,-1.066664 h -3.75999 c -0.73333,0 -1.12,0.3866657 -1.12,1.1599971 z m 6.94665,0.146666 c 0,0.679998 0.33334,1.026664 1,1.026664 0.70667,0 1.04,-0.346666 1.04,-1.026664 V 8.2018895 c 0,-0.7866647 0.52,-1.1866637 1.05333,-1.1866637 0.48,0 0.98666,0.3866657 0.98666,1.1866637 V 11.92188 c 0,0.679998 0.36,1.026664 1.02667,1.026664 0.69333,0 1.03999,-0.346666 1.03999,-1.026664 V 7.8285571 c 0,-1.9599951 -1.22666,-2.6399933 -2.25332,-2.6399933 -0.8,0 -1.38667,0.4266656 -1.85333,0.9599975 0,-0.4133322 -0.33333,-0.9199976 -1.04,-0.9199976 -0.66666,0 -1,0.5066654 -1,1.0666639 z m 12.83997,-6.8266493 c -0.66667,0 -1.02667,0.3599991 -1.05333,0.9999974 -0.41334,-0.6933315 -1.2,-1.0133307 -1.84,-1.0133307 -1.45333,0 -2.83999,1.5999959 -2.83999,4.0266565 0,2.3733271 1.41333,3.8533231 2.82666,3.8533231 0.72,0 1.43999,-0.279999 1.97333,-1.226663 0,1.41333 -0.28,2.346661 -1.46667,2.346661 -0.37333,0 -0.75999,-0.09333 -1.13333,-0.293333 -0.21333,-0.106666 -0.41333,-0.253333 -0.73333,-0.253333 -0.65333,0 -1.02666,0.519999 -1.02666,1.066664 0,0.346666 0.16,0.706665 0.50666,0.933331 0.73333,0.453332 1.52,0.679999 2.25333,0.679999 1.92,0 3.55999,-1.506663 3.55999,-4.293323 V 6.1618946 c 0,-0.6933315 -0.34666,-1.0666639 -1.02666,-1.0666639 z m -2.38666,6.0133183 c -0.84,0 -1.25333,-0.973331 -1.25333,-1.9866618 0,-1.0266641 0.45333,-2.1066614 1.29333,-2.1066614 0.66666,0 1.33333,0.7599981 1.33333,2.0533282 0,1.29333 -0.70667,2.039995 -1.37333,2.039995 z m 4.71999,0.799998 c 0,0.706665 0.36,1.039997 1.03999,1.039997 0.69334,0 1.04,-0.333332 1.04,-1.039997 V 6.3218942 c 0,-0.6933315 -0.37333,-1.026664 -1.05333,-1.026664 -0.66666,0 -1.02666,0.3333325 -1.02666,1.026664 z m -0.18667,-8.5999785 c 0,0.666665 0.53333,1.1866637 1.18666,1.1866637 0.68,0 1.2,-0.5199987 1.2,-1.1866637 0,-0.666665 -0.52,-1.1866636 -1.2,-1.1866636 -0.65333,0 -1.18666,0.5199986 -1.18666,1.1866636 z m 3.54667,8.6133115 c 0,0.679998 0.33333,1.026664 0.99999,1.026664 0.70667,0 1.04,-0.346666 1.04,-1.026664 V 8.2018895 c 0,-0.7866647 0.52,-1.1866637 1.05333,-1.1866637 0.48,0 0.98667,0.3866657 0.98667,1.1866637 V 11.92188 c 0,0.679998 0.36,1.026664 1.02666,1.026664 0.69333,0 1.04,-0.346666 1.04,-1.026664 V 7.8285571 c 0,-1.9599951 -1.22667,-2.6399933 -2.25333,-2.6399933 -0.8,0 -1.38666,0.4266656 -1.85333,0.9599975 0,-0.4133322 -0.33333,-0.9199976 -1.04,-0.9199976 -0.66666,0 -0.99999,0.5066654 -0.99999,1.0666639 z m 10.54665,-6.8533159 c -2.22666,0 -3.45332,1.9333284 -3.45332,3.95999 0,2.1999949 1.30666,4.0666559 3.65332,4.0666559 1.22666,0 2.21333,-0.453332 2.87999,-1.279996 0.17334,-0.186667 0.22667,-0.373333 0.22667,-0.613332 0,-0.613332 -0.33333,-0.879998 -0.76,-0.879998 -0.70666,0 -1.13333,0.826665 -2.15999,0.826665 -0.57334,0 -1.76,-0.413333 -1.76,-1.6133296 h 3.05333 c 1.02666,0 1.65332,0 1.65332,-1.026664 0,-2.0666615 -1.18666,-3.4399913 -3.33332,-3.4399913 z m -1.26666,3.0799922 c 0,-0.8266646 0.67999,-1.2666635 1.29333,-1.2666635 0.58666,0 1.17333,0.4133323 1.17333,1.2666635 z"
     id="text2"
     aria-label="Visual Novel Games Engine&#10;&#10;&#10;&#10;" />
</svg>
