<?xml version="1.0" encoding="UTF-8" standalone="no"?>
<svg
   viewBox="0 0 200 40"
   version="1.1"
   id="svg1"
   sodipodi:docname="openbor.svg"
   inkscape:version="1.3.2 (091e20e, 2023-11-25)"
   xmlns:inkscape="http://www.inkscape.org/namespaces/inkscape"
   xmlns:sodipodi="http://sodipodi.sourceforge.net/DTD/sodipodi-0.dtd"
   xmlns="http://www.w3.org/2000/svg"
   xmlns:svg="http://www.w3.org/2000/svg">
  <defs
     id="defs1">
    <rect
       x="0.30349014"
       y="0.60698027"
       width="199.08953"
       height="38.846737"
       id="rect3" />
    <rect
       x="0.60698027"
       y="0.60698027"
       width="198.78604"
       height="39.150228"
       id="rect2" />
    <rect
       x="0.91047041"
       y="0.60698027"
       width="198.17906"
       height="38.846737"
       id="rect1" />
  </defs>
  <sodipodi:namedview
     id="namedview1"
     pagecolor="#020202"
     bordercolor="#000000"
     borderopacity="0.25"
     inkscape:showpageshadow="2"
     inkscape:pageopacity="0.0"
     inkscape:pagecheckerboard="0"
     inkscape:deskcolor="#d1d1d1"
     inkscape:zoom="3.295"
     inkscape:cx="101.36571"
     inkscape:cy="-0.75872534"
     inkscape:window-width="1400"
     inkscape:window-height="864"
     inkscape:window-x="209"
     inkscape:window-y="25"
     inkscape:window-maximized="0"
     inkscape:current-layer="svg1" />
  <path
     style="font-weight:bold;font-size:13.3333px;font-family:BPreplay;-inkscape-font-specification:'BPreplay Bold';letter-spacing:0px;white-space:pre;fill:#ffffff;stroke-width:2.64567;stroke-linecap:square;stroke-opacity:0.988722;paint-order:markers fill stroke"
     d="m 5.2227219,2.2819044 c -3.026659,0 -4.53332184,2.6933266 -4.53332184,5.3733198 0,2.7066598 1.51999614,5.4133198 4.53332184,5.4133198 3.066659,0 4.5999884,-2.679993 4.5999884,-5.3733199 0,-2.6933265 -1.5333294,-5.4133197 -4.5999884,-5.4133197 z m 0,2.1599946 c 1.6266626,0 2.4133273,1.6266625 2.4133273,3.2799917 0,1.6399959 -0.7733314,3.2266583 -2.3866607,3.2266583 -1.5866626,0 -2.3733273,-1.6533289 -2.3733273,-3.3199914 0,-1.6133293 0.7599981,-3.1866586 2.3466607,-3.1866586 z m 5.6666531,10.159974 c 0,0.706665 0.333332,1.066664 0.999997,1.066664 0.279999,0 0.866665,-0.226666 0.866665,-0.813331 v -2.879993 c 0.346665,0.706665 1.159997,1.106664 1.853328,1.106664 1.479996,0 3.053326,-1.826662 3.053326,-4.013323 0,-2.6133268 -1.399997,-3.9733233 -2.719993,-3.9733233 -0.773332,0 -1.426663,0.2799993 -1.999995,1.0666639 0,-0.6933315 -0.333333,-1.0533306 -1.039998,-1.0533306 -0.693331,0 -1.01333,0.3599991 -1.01333,1.0533306 z m 3.479991,-3.533324 c -0.959998,0 -1.386663,-1.026664 -1.386663,-2.0266616 0,-0.9466643 0.426665,-2.0399949 1.386663,-2.0399949 0.879998,0 1.186663,1.1733304 1.186663,2.0933281 0,0.9333314 -0.306665,1.9733284 -1.186663,1.9733284 z m 7.426635,-5.9999849 c -2.226661,0 -3.453324,1.9333284 -3.453324,3.95999 0,2.1999949 1.306663,4.0666559 3.653324,4.0666559 1.226663,0 2.213327,-0.453332 2.879992,-1.279996 0.173333,-0.186667 0.226667,-0.373333 0.226667,-0.613332 0,-0.613332 -0.333333,-0.879998 -0.759999,-0.879998 -0.706664,0 -1.13333,0.826665 -2.159994,0.826665 -0.573332,0 -1.759996,-0.413333 -1.759996,-1.6133296 h 3.053326 c 1.026664,0 1.653329,0 1.653329,-1.026664 0,-2.0666615 -1.186664,-3.4399913 -3.333325,-3.4399913 z m -1.266663,3.0799922 c 0,-0.8266646 0.679998,-1.2666635 1.29333,-1.2666635 0.586665,0 1.17333,0.4133323 1.17333,1.2666635 z m 5.57332,3.7733237 c 0,0.679998 0.333333,1.026664 0.999998,1.026664 0.706665,0 1.039997,-0.346666 1.039997,-1.026664 V 8.2018895 c 0,-0.7866647 0.519999,-1.1866637 1.053331,-1.1866637 0.479999,0 0.986664,0.3866657 0.986664,1.1866637 V 11.92188 c 0,0.679998 0.359999,1.026664 1.026664,1.026664 0.693332,0 1.039997,-0.346666 1.039997,-1.026664 V 7.8285571 c 0,-1.9599951 -1.226663,-2.6399933 -2.253327,-2.6399933 -0.799998,0 -1.386663,0.4266656 -1.853329,0.9599975 0,-0.4133322 -0.333332,-0.9199976 -1.039997,-0.9199976 -0.666665,0 -0.999998,0.5066654 -0.999998,1.0666639 z m 7.479983,-0.186666 c 0,0.466665 0.173333,0.826664 0.439999,1.013331 0.2,0.146666 0.493332,0.199999 0.893331,0.199999 h 2.946659 c 1.719996,0 3.226659,-1.306663 3.226659,-3.1733252 0,-1.0666639 -0.866665,-2.4399938 -1.973328,-2.5999934 0.586665,-0.066667 1.266663,-1.1199972 1.266663,-1.7999954 0,-2.0266616 -1.973328,-2.7866597 -3.253325,-2.7866597 h -2.426661 c -0.733331,0 -1.119997,0.399999 -1.119997,1.199997 z m 2.146662,-3.3866582 h 1.586662 c 1.146664,0 1.679996,0.6799983 1.679996,1.3333299 0,0.5733323 -0.426666,1.1333303 -1.25333,1.1333303 h -2.013328 z m 0,-1.6666625 v -1.959995 h 1.453329 c 0.773332,0 1.159997,0.5199987 1.159997,1.0266641 0,0.4799987 -0.346666,0.9333309 -1.05333,0.9333309 z M 46.315938,2.2819044 c -3.026659,0 -4.533322,2.6933266 -4.533322,5.3733198 0,2.7066598 1.519996,5.4133198 4.533322,5.4133198 3.066659,0 4.599988,-2.679993 4.599988,-5.3733199 0,-2.6933265 -1.533329,-5.4133197 -4.599988,-5.4133197 z m 0,2.1599946 c 1.626662,0 2.413327,1.6266625 2.413327,3.2799917 0,1.6399959 -0.773331,3.2266583 -2.386661,3.2266583 -1.586662,0 -2.373327,-1.6533289 -2.373327,-3.3199914 0,-1.6133293 0.759998,-3.1866586 2.346661,-3.1866586 z m 5.786649,7.333315 c 0,0.786664 0.359999,1.17333 1.079998,1.17333 0.706665,0 1.05333,-0.386666 1.05333,-1.17333 V 8.9618876 h 1.546663 l 1.679996,3.4133244 c 0.239999,0.466666 0.599998,0.586665 0.973331,0.586665 0.693331,0 1.01333,-0.426665 1.01333,-1.026664 0,-0.226666 -0.08,-0.466665 -0.173332,-0.693331 l -1.29333,-2.8266597 c 1.079997,-0.6933316 1.573329,-1.7199957 1.573329,-2.7333264 0,-1.5866627 -1.239997,-3.1066589 -3.479991,-3.1066589 h -2.653327 c -0.866664,0 -1.319997,0.3466658 -1.319997,1.1066639 z m 4.066657,-7.066649 c 0.839998,0 1.199997,0.4799988 1.199997,0.9733309 0,0.5599985 -0.453332,1.159997 -1.199997,1.159997 H 54.235915 V 4.708565 Z"
     id="text2"
     aria-label="OpenBOR" />
</svg>
