<?xml version="1.0" encoding="UTF-8" standalone="no"?>
<svg
   viewBox="0 0 200 40"
   version="1.1"
   id="svg1"
   sodipodi:docname="palm.svg"
   inkscape:version="1.3.2 (091e20e, 2023-11-25)"
   xmlns:inkscape="http://www.inkscape.org/namespaces/inkscape"
   xmlns:sodipodi="http://sodipodi.sourceforge.net/DTD/sodipodi-0.dtd"
   xmlns="http://www.w3.org/2000/svg"
   xmlns:svg="http://www.w3.org/2000/svg">
  <defs
     id="defs1">
    <rect
       x="0.30349014"
       y="0.60698027"
       width="199.08953"
       height="38.846737"
       id="rect3" />
    <rect
       x="0.60698027"
       y="0.60698027"
       width="198.78604"
       height="39.150228"
       id="rect2" />
    <rect
       x="0.91047041"
       y="0.60698027"
       width="198.17906"
       height="38.846737"
       id="rect1" />
  </defs>
  <sodipodi:namedview
     id="namedview1"
     pagecolor="#020202"
     bordercolor="#000000"
     borderopacity="0.25"
     inkscape:showpageshadow="2"
     inkscape:pageopacity="0.0"
     inkscape:pagecheckerboard="0"
     inkscape:deskcolor="#d1d1d1"
     inkscape:zoom="3.295"
     inkscape:cx="101.36571"
     inkscape:cy="-0.75872534"
     inkscape:window-width="1400"
     inkscape:window-height="864"
     inkscape:window-x="209"
     inkscape:window-y="25"
     inkscape:window-maximized="0"
     inkscape:current-layer="svg1" />
  <path
     style="font-weight:bold;font-size:13.3333px;font-family:BPreplay;-inkscape-font-specification:'BPreplay Bold';letter-spacing:0px;white-space:pre;fill:#ffffff;stroke-width:2.64567;stroke-linecap:square;stroke-opacity:0.988722;paint-order:markers fill stroke"
     d="m 1.1160657,11.868547 c 0,0.733331 0.3466657,1.079997 1.0666639,1.079997 0.7066649,0 1.066664,-0.346666 1.066664,-1.079997 V 9.3618866 h 1.8533286 c 1.9333285,0 3.4266581,-1.4533297 3.4266581,-3.3733249 0,-2.0266615 -1.466663,-3.4133247 -3.5066579,-3.4133247 H 2.2360628 c -0.7333315,0 -1.1199971,0.3466658 -1.1199971,1.1066639 z M 4.8493896,4.708565 c 0.9733308,0 1.5066628,0.4666655 1.5066628,1.2666634 0,0.7733314 -0.5199987,1.2533302 -1.3066634,1.2533302 H 3.2493936 V 4.708565 Z m 5.11998,0.8399979 C 9.542704,5.7218958 9.276038,6.0152283 9.276038,6.3885607 c 0,0.6799983 0.4799988,0.8399979 0.986664,0.8399979 0.479999,0 0.919998,-0.1733329 1.466663,-0.1733329 0.746665,0 1.626663,0.4799988 1.626663,1.2666635 V 8.9752209 C 12.876029,8.6285551 12.169364,8.4285556 11.449366,8.4285556 c -1.7066625,0 -2.70666,1.2533301 -2.70666,2.4533274 0,1.106664 0.8666645,2.159994 2.386661,2.159994 0.746664,0 1.546662,-0.306666 2.173327,-0.973331 v 0.253333 c 0.04,0.546665 0.613332,0.719998 0.839998,0.719998 0.653332,0 1.039998,-0.493332 1.039998,-1.026664 V 8.0285566 c 0,-2.0399949 -1.679996,-2.8399928 -3.373325,-2.8399928 -0.613332,0 -1.25333,0.1199997 -1.8399954,0.3599991 z m 0.8666644,5.0666541 c 0,-0.426666 0.559999,-0.613332 1.119997,-0.613332 0.533332,0 1.119997,0.199999 1.119997,0.546665 0,0.466666 -0.639998,0.706665 -1.239996,0.706665 -0.493333,0 -0.999998,-0.213333 -0.999998,-0.639998 z m 5.599991,1.29333 c 0,0.706665 0.333332,1.039997 1.039997,1.039997 0.693332,0 1.026664,-0.333332 1.026664,-1.039997 V 3.2019021 c 0,-0.6799983 -0.359999,-1.0533306 -1.039997,-1.0533306 -0.679999,0 -1.026664,0.3733323 -1.026664,1.0533306 z m 3.373314,0.01333 c 0,0.679998 0.333332,1.026664 0.999997,1.026664 0.706665,0 1.039997,-0.346666 1.039997,-1.026664 V 8.2018895 c 0,-0.7866647 0.519999,-1.1866637 1.053331,-1.1866637 0.479999,0 0.986664,0.3866657 0.986664,1.1866637 V 11.92188 c 0,0.679998 0.359999,1.026664 1.026664,1.026664 0.693332,0 1.039998,-0.346666 1.039998,-1.026664 V 7.9752234 c 0.08,-0.6399984 0.559998,-0.9599976 1.039997,-0.9599976 0.479999,0 0.986664,0.3866657 0.986664,1.1866637 V 11.92188 c 0,0.679998 0.359999,1.026664 1.026664,1.026664 0.693332,0 1.039998,-0.346666 1.039998,-1.026664 V 7.8285571 c 0,-1.8533287 -1.106664,-2.6133267 -2.239995,-2.6133267 -0.839998,0 -1.693329,0.4133323 -2.119994,1.1066638 C 25.329325,5.508563 24.66266,5.1885638 23.969328,5.1885638 c -0.799998,0 -1.653329,0.4266656 -2.119995,0.9599975 0,-0.4133322 -0.333332,-0.9199976 -1.039997,-0.9199976 -0.666665,0 -0.999997,0.5066654 -0.999997,1.0666639 z m 18.53329,-9.6399756 c -3.026659,0 -4.533322,2.6933266 -4.533322,5.3733198 0,2.7066598 1.519997,5.4133198 4.533322,5.4133198 3.066659,0 4.599989,-2.679993 4.599989,-5.3733199 0,-2.6933265 -1.53333,-5.4133197 -4.599989,-5.4133197 z m 0,2.1599946 c 1.626663,0 2.413328,1.6266625 2.413328,3.2799917 0,1.6399959 -0.773332,3.2266583 -2.386661,3.2266583 -1.586663,0 -2.373327,-1.6533289 -2.373327,-3.3199914 0,-1.6133293 0.759998,-3.1866586 2.34666,-3.1866586 z m 9.546653,0.4399989 c 0.239999,0.1999995 0.506665,0.3333325 0.839997,0.3333325 0.613332,0 1.053331,-0.5733319 1.053331,-1.1199972 0,-0.4133323 -0.213333,-0.7599981 -0.599998,-1.0399974 -0.666665,-0.5066654 -1.479997,-0.7733314 -2.319994,-0.7733314 -1.893329,0 -3.146659,1.5333295 -3.146659,3.0266591 0,1.7999954 1.599996,2.5599935 2.946659,3.1866586 1.066664,0.4933321 1.426663,0.799998 1.426663,1.2533301 0,0.7599978 -0.639998,1.1466638 -1.37333,1.1466638 -0.426665,0 -0.893331,-0.146666 -1.25333,-0.373332 -0.253333,-0.146667 -0.519999,-0.226666 -0.786665,-0.226666 -0.693331,0 -1.039997,0.319999 -1.039997,1.026664 0,0.439998 0.2,0.786664 0.613332,1.05333 0.733331,0.479999 1.559996,0.733332 2.46666,0.733332 2.053328,0 3.639991,-1.279997 3.639991,-3.4399916 0,-1.6399958 -1.146664,-2.3733273 -2.759993,-3.159992 -0.826665,-0.399999 -1.639996,-0.5999985 -1.639996,-1.2533301 0,-0.5866652 0.346666,-0.7599981 0.893331,-0.7599981 0.386666,0 0.719998,0.1466663 1.039998,0.3866657 z"
     id="text2"
     aria-label="Palm OS&#10;" />
</svg>
