<?xml version="1.0" encoding="UTF-8" standalone="no"?>
<svg
   viewBox="0 0 200 40"
   version="1.1"
   id="svg1"
   sodipodi:docname="dos.svg"
   inkscape:version="1.3.2 (091e20e, 2023-11-25)"
   xmlns:inkscape="http://www.inkscape.org/namespaces/inkscape"
   xmlns:sodipodi="http://sodipodi.sourceforge.net/DTD/sodipodi-0.dtd"
   xmlns="http://www.w3.org/2000/svg"
   xmlns:svg="http://www.w3.org/2000/svg">
  <defs
     id="defs1">
    <rect
       x="0.30349014"
       y="0.60698027"
       width="199.08953"
       height="38.846737"
       id="rect3" />
    <rect
       x="0.60698027"
       y="0.60698027"
       width="198.78604"
       height="39.150228"
       id="rect2" />
    <rect
       x="0.91047041"
       y="0.60698027"
       width="198.17906"
       height="38.846737"
       id="rect1" />
  </defs>
  <sodipodi:namedview
     id="namedview1"
     pagecolor="#020202"
     bordercolor="#000000"
     borderopacity="0.25"
     inkscape:showpageshadow="2"
     inkscape:pageopacity="0.0"
     inkscape:pagecheckerboard="0"
     inkscape:deskcolor="#d1d1d1"
     inkscape:zoom="3.295"
     inkscape:cx="101.36571"
     inkscape:cy="-0.75872534"
     inkscape:window-width="1400"
     inkscape:window-height="864"
     inkscape:window-x="209"
     inkscape:window-y="25"
     inkscape:window-maximized="0"
     inkscape:current-layer="svg1" />
  <path
     style="font-weight:bold;font-size:13.3333px;font-family:BPreplay;-inkscape-font-specification:'BPreplay Bold';letter-spacing:0px;white-space:pre;fill:#ffffff;stroke-width:2.64567;stroke-linecap:square;stroke-opacity:0.988722;paint-order:markers fill stroke"
     d="m 1.1160657,11.868547 c 0,0.733331 0.3466657,1.079997 1.0666639,1.079997 0.7066649,0 1.066664,-0.346666 1.066664,-1.079997 V 9.3618866 h 1.8533286 c 1.9333285,0 3.4266581,-1.4533297 3.4266581,-3.3733249 0,-2.0266615 -1.466663,-3.4133247 -3.5066579,-3.4133247 H 2.2360628 c -0.7333315,0 -1.1199971,0.3466658 -1.1199971,1.1066639 z M 4.8493896,4.708565 c 0.9733308,0 1.5066628,0.4666655 1.5066628,1.2666634 0,0.7733314 -0.5199987,1.2533302 -1.3066634,1.2533302 H 3.2493936 V 4.708565 Z m 10.7999614,5.519986 c -0.426666,0.426666 -0.986664,0.573332 -1.599996,0.573332 -1.733329,0 -2.62666,-1.5333295 -2.62666,-3.1599921 0,-1.5866627 0.853331,-3.159992 2.613327,-3.159992 0.613331,0 1.21333,0.2133328 1.626662,0.6266651 0.186666,0.1999995 0.546665,0.3199992 0.813331,0.3199992 0.586666,0 1.053331,-0.4266656 1.053331,-1.1066639 0,-0.3466658 -0.146666,-0.6533317 -0.413332,-0.9066644 -0.879998,-0.799998 -1.906662,-1.1599971 -3.039993,-1.1599971 -3.253325,0 -4.8933205,2.7466598 -4.8933205,5.4666529 0,2.6933263 1.5999955,5.3733193 4.8266545,5.3733193 1.159997,0 2.173328,-0.413332 3.039992,-1.186663 0.293333,-0.266666 0.399999,-0.573332 0.399999,-0.919998 0,-0.559998 -0.306666,-1.0799972 -1.066664,-1.0799972 -0.279999,0 -0.493332,0.08 -0.733331,0.3199992 z M 22.78267,3.108569 c -1.306663,1.4133298 -1.853328,3.2399918 -1.853328,5.0666539 0,1.8533291 0.519998,3.9999901 1.853328,5.3333201 0.24,0.253332 0.519999,0.333332 0.786665,0.333332 0.546665,0 0.959998,-0.386665 0.959998,-0.959997 0,-0.2 -0.06667,-0.466666 -0.226667,-0.693332 -0.999997,-1.039997 -1.359996,-2.62666 -1.359996,-3.9466566 0,-1.3599966 0.439999,-2.7333264 1.306663,-3.7599905 0.186666,-0.2133328 0.28,-0.4666655 0.28,-0.7199982 0,-0.5466653 -0.453333,-0.9733309 -0.973331,-0.9733309 -0.253333,0 -0.479999,0.08 -0.773332,0.3199992 z m 6.546645,0.6933316 C 29.075982,2.9885693 28.54265,2.5352371 27.862652,2.5352371 c -0.759998,0 -1.226664,0.4933321 -1.386663,1.4399964 l -1.226664,7.6266475 c -0.01333,0.106666 -0.01333,0.199999 -0.01333,0.293332 0,0.706665 0.399999,1.039998 1.039997,1.039998 0.693332,0 0.986664,-0.386666 1.093331,-1.039998 l 0.853331,-5.0666534 1.41333,5.1599874 c 0.186666,0.653331 0.586665,0.959997 1.106664,0.959997 0.466665,0 0.893331,-0.319999 1.09333,-0.959997 0.519999,-1.61333 1.026664,-3.5066582 1.559996,-5.1333208 l 0.679999,5.0533208 c 0.09333,0.693331 0.426665,1.026664 1.119997,1.026664 0.599998,0 1.05333,-0.399999 1.05333,-1.066664 0,-0.01333 -0.01333,-0.02667 -0.01333,-0.04 v -0.05333 L 35.0893,3.9885668 c -0.133333,-0.933331 -0.626665,-1.4266631 -1.37333,-1.4266631 -0.693331,0 -1.226663,0.4133323 -1.479996,1.2266636 l -1.466663,4.7866546 z m 11.919971,1.0799973 c 0.239999,0.1999995 0.506665,0.3333325 0.839998,0.3333325 0.613332,0 1.053331,-0.5733319 1.053331,-1.1199972 0,-0.4133323 -0.213333,-0.7599981 -0.599999,-1.0399974 -0.666665,-0.5066654 -1.479996,-0.7733314 -2.319994,-0.7733314 -1.893329,0 -3.146659,1.5333295 -3.146659,3.0266591 0,1.7999954 1.599996,2.5599935 2.946659,3.1866586 1.066664,0.4933321 1.426664,0.799998 1.426664,1.2533301 0,0.7599978 -0.639999,1.1466638 -1.37333,1.1466638 -0.426666,0 -0.893331,-0.146666 -1.25333,-0.373332 -0.253333,-0.146667 -0.519999,-0.226666 -0.786665,-0.226666 -0.693332,0 -1.039998,0.319999 -1.039998,1.026664 0,0.439998 0.2,0.786664 0.613332,1.05333 0.733332,0.479999 1.559996,0.733332 2.466661,0.733332 2.053328,0 3.63999,-1.279997 3.63999,-3.4399916 0,-1.6399958 -1.146663,-2.3733273 -2.759993,-3.159992 -0.826664,-0.399999 -1.639995,-0.5999985 -1.639995,-1.2533301 0,-0.5866652 0.346665,-0.7599981 0.893331,-0.7599981 0.386665,0 0.719998,0.1466663 1.039997,0.3866657 z m 4.399989,3.1333254 c -0.693332,0 -1.106664,0.5199987 -1.106664,1.066664 0,0.7066648 0.373333,1.0266637 1.106664,1.0266637 h 2.439994 c 0.746665,0 1.106664,-0.3199989 1.106664,-1.0266637 0,-0.6933316 -0.359999,-1.066664 -1.106664,-1.066664 z m 4.946654,3.8133237 c 0,0.959998 0.279999,1.119997 1.13333,1.119997 h 2.386661 c 2.799993,0 4.546655,-2.533327 4.546655,-5.1333202 0,-2.5866601 -1.45333,-5.2266535 -4.293322,-5.2266535 h -2.439994 c -0.906665,0 -1.33333,0.399999 -1.33333,1.199997 z M 54.23592,4.7218983 c 1.479996,0 2.226661,1.5199961 2.226661,3.0933255 0,1.5066629 -0.839998,2.9999922 -2.399994,2.9999922 H 52.74259 V 4.7218983 Z m 9.733296,-2.4399939 c -3.026659,0 -4.533322,2.6933266 -4.533322,5.3733198 0,2.7066598 1.519997,5.4133198 4.533322,5.4133198 3.066659,0 4.599989,-2.679993 4.599989,-5.3733199 0,-2.6933265 -1.53333,-5.4133197 -4.599989,-5.4133197 z m 0,2.1599946 c 1.626663,0 2.413327,1.6266625 2.413327,3.2799917 0,1.6399959 -0.773331,3.2266583 -2.38666,3.2266583 -1.586663,0 -2.373328,-1.6533289 -2.373328,-3.3199914 0,-1.6133293 0.759999,-3.1866586 2.346661,-3.1866586 z m 9.546653,0.4399989 c 0.239999,0.1999995 0.506665,0.3333325 0.839997,0.3333325 0.613332,0 1.053331,-0.5733319 1.053331,-1.1199972 0,-0.4133323 -0.213333,-0.7599981 -0.599998,-1.0399974 -0.666665,-0.5066654 -1.479997,-0.7733314 -2.319995,-0.7733314 -1.893328,0 -3.146658,1.5333295 -3.146658,3.0266591 0,1.7999954 1.599996,2.5599935 2.946659,3.1866586 1.066664,0.4933321 1.426663,0.799998 1.426663,1.2533301 0,0.7599978 -0.639998,1.1466638 -1.37333,1.1466638 -0.426665,0 -0.893331,-0.146666 -1.25333,-0.373332 -0.253333,-0.146667 -0.519999,-0.226666 -0.786665,-0.226666 -0.693331,0 -1.039997,0.319999 -1.039997,1.026664 0,0.439998 0.199999,0.786664 0.613332,1.05333 0.733331,0.479999 1.559996,0.733332 2.46666,0.733332 2.053328,0 3.639991,-1.279997 3.639991,-3.4399916 0,-1.6399958 -1.146664,-2.3733273 -2.759993,-3.159992 -0.826665,-0.399999 -1.639996,-0.5999985 -1.639996,-1.2533301 0,-0.5866652 0.346666,-0.7599981 0.893331,-0.7599981 0.386666,0 0.719998,0.1466663 1.039998,0.3866657 z M 78.27586,3.0552358 c -0.226666,-0.1866662 -0.439998,-0.266666 -0.693331,-0.266666 -0.533332,0 -0.999998,0.4266656 -0.999998,0.9733309 0,0.2399994 0.106667,0.4933321 0.293333,0.7199982 0.866664,1.0266641 1.29333,2.3999939 1.29333,3.7599905 0,1.3199966 -0.333332,2.9066596 -1.359997,3.9466566 -0.159999,0.226666 -0.226666,0.493332 -0.226666,0.693332 0,0.573332 0.439999,0.959997 0.986665,0.959997 0.266666,0 0.533332,-0.08 0.773331,-0.333332 1.33333,-1.33333 1.839995,-3.479991 1.839995,-5.3333201 0,-1.8266621 -0.546665,-3.6533241 -1.906662,-5.1199871 z"
     id="text2"
     aria-label="PC (MS-DOS)&#10;" />
</svg>
