<?xml version="1.0" encoding="UTF-8" standalone="no"?>
<svg
   viewBox="0 0 200 40"
   version="1.1"
   id="svg1"
   sodipodi:docname="pc88.svg"
   inkscape:version="1.3.2 (091e20e, 2023-11-25)"
   xmlns:inkscape="http://www.inkscape.org/namespaces/inkscape"
   xmlns:sodipodi="http://sodipodi.sourceforge.net/DTD/sodipodi-0.dtd"
   xmlns="http://www.w3.org/2000/svg"
   xmlns:svg="http://www.w3.org/2000/svg">
  <defs
     id="defs1">
    <rect
       x="0.30349014"
       y="0.60698027"
       width="199.08953"
       height="38.846737"
       id="rect3" />
    <rect
       x="0.60698027"
       y="0.60698027"
       width="198.78604"
       height="39.150228"
       id="rect2" />
    <rect
       x="0.91047041"
       y="0.60698027"
       width="198.17906"
       height="38.846737"
       id="rect1" />
  </defs>
  <sodipodi:namedview
     id="namedview1"
     pagecolor="#020202"
     bordercolor="#000000"
     borderopacity="0.25"
     inkscape:showpageshadow="2"
     inkscape:pageopacity="0.0"
     inkscape:pagecheckerboard="0"
     inkscape:deskcolor="#d1d1d1"
     inkscape:zoom="3.295"
     inkscape:cx="78.907436"
     inkscape:cy="-6.8285281"
     inkscape:window-width="1400"
     inkscape:window-height="864"
     inkscape:window-x="209"
     inkscape:window-y="25"
     inkscape:window-maximized="0"
     inkscape:current-layer="svg1" />
  <path
     style="font-weight:bold;font-size:13.3333px;font-family:BPreplay;-inkscape-font-specification:'BPreplay Bold';letter-spacing:0px;white-space:pre;fill:#ffffff;stroke-width:2.64567;stroke-linecap:square;stroke-opacity:0.988722;paint-order:markers fill stroke"
     d="m 1.1160657,11.855214 c 0,0.733331 0.3466657,1.09333 1.0666639,1.09333 0.7066649,0 1.066664,-0.359999 1.066664,-1.09333 V 6.8818928 l 3.7066573,5.4399862 c 0.2933326,0.413332 0.6799983,0.626665 1.1199972,0.626665 0.7066648,0 1.0666639,-0.386666 1.0666639,-1.159997 V 3.6552343 c 0,-0.7199982 -0.3466658,-1.0799973 -1.0799972,-1.0799973 -0.6933316,0 -1.0533307,0.3599991 -1.0533307,1.0799973 V 8.7218882 L 3.3427267,3.2685686 C 3.0227275,2.8019031 2.6360618,2.5619037 2.1693963,2.5619037 c -0.6933316,0 -1.0533306,0.3866657 -1.0533306,1.1599971 z m 9.6666543,-0.08 c 0,0.933331 0.133333,1.17333 1.119997,1.17333 h 3.853324 c 0.773331,0 1.146664,-0.359999 1.146664,-1.066664 0,-0.719998 -0.373333,-1.066664 -1.146664,-1.066664 H 12.916048 V 8.6552217 h 2.146661 c 0.719999,0 1.066664,-0.3599991 1.066664,-1.0533307 0,-0.7199982 -0.346665,-1.0799973 -1.066664,-1.0799973 H 12.916048 V 4.7218983 h 2.74666 c 0.719998,0 1.066664,-0.3599991 1.066664,-1.066664 0,-0.7333315 -0.346666,-1.066664 -1.066664,-1.066664 h -3.759991 c -0.733331,0 -1.119997,0.3866657 -1.119997,1.1599971 z m 13.066633,-1.546663 c -0.426666,0.426666 -0.986665,0.573332 -1.599996,0.573332 -1.733329,0 -2.62666,-1.5333295 -2.62666,-3.1599921 0,-1.5866627 0.853331,-3.159992 2.613326,-3.159992 0.613332,0 1.213331,0.2133328 1.626663,0.6266651 0.186666,0.1999995 0.546665,0.3199992 0.813331,0.3199992 0.586665,0 1.053331,-0.4266656 1.053331,-1.1066639 0,-0.3466658 -0.146667,-0.6533317 -0.413332,-0.9066644 -0.879998,-0.799998 -1.906662,-1.1599971 -3.039993,-1.1599971 -3.253325,0 -4.893321,2.7466598 -4.893321,5.4666529 0,2.6933263 1.599996,5.3733193 4.826655,5.3733193 1.159997,0 2.173328,-0.413332 3.039992,-1.186663 0.293333,-0.266666 0.399999,-0.573332 0.399999,-0.919998 0,-0.559998 -0.306666,-1.0799972 -1.066664,-1.0799972 -0.279999,0 -0.493332,0.08 -0.733331,0.3199992 z m 5.666655,1.639996 c 0,0.733331 0.346666,1.079997 1.066664,1.079997 0.706665,0 1.066664,-0.346666 1.066664,-1.079997 V 9.3618866 h 1.853329 c 1.933328,0 3.426658,-1.4533297 3.426658,-3.3733249 0,-2.0266615 -1.466663,-3.4133247 -3.506658,-3.4133247 h -2.78666 c -0.733331,0 -1.119997,0.3466658 -1.119997,1.1066639 z m 3.733324,-7.159982 c 0.973331,0 1.506663,0.4666655 1.506663,1.2666634 0,0.7733314 -0.519999,1.2533302 -1.306664,1.2533302 H 31.649336 V 4.708565 Z m 10.79996,5.519986 c -0.426665,0.426666 -0.986664,0.573332 -1.599996,0.573332 -1.733329,0 -2.62666,-1.5333295 -2.62666,-3.1599921 0,-1.5866627 0.853331,-3.159992 2.613327,-3.159992 0.613332,0 1.21333,0.2133328 1.626663,0.6266651 0.186666,0.1999995 0.546665,0.3199992 0.813331,0.3199992 0.586665,0 1.053331,-0.4266656 1.053331,-1.1066639 0,-0.3466658 -0.146667,-0.6533317 -0.413333,-0.9066644 -0.879998,-0.799998 -1.906662,-1.1599971 -3.039992,-1.1599971 -3.253325,0 -4.893321,2.7466598 -4.893321,5.4666529 0,2.6933263 1.599996,5.3733193 4.826654,5.3733193 1.159997,0 2.173328,-0.413332 3.039993,-1.186663 0.293332,-0.266666 0.399999,-0.573332 0.399999,-0.919998 0,-0.559998 -0.306666,-1.0799972 -1.066664,-1.0799972 -0.28,0 -0.493332,0.08 -0.733332,0.3199992 z m 3.573322,-2.2133277 c -0.693331,0 -1.106664,0.5199987 -1.106664,1.066664 0,0.7066648 0.373333,1.0266637 1.106664,1.0266637 h 2.439994 c 0.746665,0 1.106664,-0.3199989 1.106664,-1.0266637 0,-0.6933316 -0.359999,-1.066664 -1.106664,-1.066664 z m 4.613321,1.7733288 c 0,1.9066619 1.319997,3.3066579 3.266659,3.3066579 1.813329,0 3.213325,-1.506662 3.213325,-3.2799913 0,-0.9599975 -0.679998,-2.093328 -1.399996,-2.4399938 0.586665,-0.3733324 1.026664,-1.1599971 1.026664,-1.8799952 0,-1.6399959 -1.213331,-2.7866597 -2.853327,-2.7866597 -1.586662,0 -2.919992,1.199997 -2.919992,2.7866597 0,0.7866646 0.399999,1.5866626 1.013331,1.959995 -0.773332,0.4399989 -1.346664,1.3999965 -1.346664,2.3333274 z m 3.266659,-1.2399968 c 0.586665,0 1.026664,0.5466653 1.026664,1.2266635 0,0.6399982 -0.399999,1.1866642 -1.026664,1.1866642 -0.666665,0 -1.079997,-0.546666 -1.079997,-1.2133308 0,-0.6399983 0.426665,-1.1999969 1.079997,-1.1999969 z m -0.04,-2.0666615 c -0.493332,0 -0.759998,-0.4399989 -0.759998,-0.9199976 0,-0.5066654 0.386666,-0.7733314 0.773331,-0.7733314 0.346666,0 0.693332,0.266666 0.693332,0.7733314 0,0.4666654 -0.28,0.9199976 -0.706665,0.9199976 z m 4.226653,3.3066583 c 0,1.9066619 1.319997,3.3066579 3.266659,3.3066579 1.813328,0 3.213325,-1.506662 3.213325,-3.2799913 0,-0.9599975 -0.679998,-2.093328 -1.399997,-2.4399938 0.586666,-0.3733324 1.026665,-1.1599971 1.026665,-1.8799952 0,-1.6399959 -1.213331,-2.7866597 -2.853327,-2.7866597 -1.586662,0 -2.919992,1.199997 -2.919992,2.7866597 0,0.7866646 0.399999,1.5866626 1.013331,1.959995 -0.773332,0.4399989 -1.346664,1.3999965 -1.346664,2.3333274 z m 3.266659,-1.2399968 c 0.586665,0 1.026664,0.5466653 1.026664,1.2266635 0,0.6399982 -0.399999,1.1866642 -1.026664,1.1866642 -0.666665,0 -1.079998,-0.546666 -1.079998,-1.2133308 0,-0.6399983 0.426666,-1.1999969 1.079998,-1.1999969 z m -0.04,-2.0666615 c -0.493332,0 -0.759998,-0.4399989 -0.759998,-0.9199976 0,-0.5066654 0.386665,-0.7733314 0.773331,-0.7733314 0.346666,0 0.693332,0.266666 0.693332,0.7733314 0,0.4666654 -0.28,0.9199976 -0.706665,0.9199976 z"
     id="text2"
     aria-label="NEC PC-88&#10;&#10;&#10;&#10;&#10;&#10;&#10;&#10;" />
</svg>
