<?xml version="1.0" encoding="UTF-8" standalone="no"?>
<svg
   viewBox="0 0 200 40"
   version="1.1"
   id="svg1"
   sodipodi:docname="pc98.svg"
   inkscape:version="1.3.2 (091e20e, 2023-11-25)"
   xmlns:inkscape="http://www.inkscape.org/namespaces/inkscape"
   xmlns:sodipodi="http://sodipodi.sourceforge.net/DTD/sodipodi-0.dtd"
   xmlns="http://www.w3.org/2000/svg"
   xmlns:svg="http://www.w3.org/2000/svg">
  <defs
     id="defs1">
    <rect
       x="0.30349014"
       y="0.60698027"
       width="199.08953"
       height="38.846737"
       id="rect3" />
    <rect
       x="0.60698027"
       y="0.60698027"
       width="198.78604"
       height="39.150228"
       id="rect2" />
    <rect
       x="0.91047041"
       y="0.60698027"
       width="198.17906"
       height="38.846737"
       id="rect1" />
  </defs>
  <sodipodi:namedview
     id="namedview1"
     pagecolor="#020202"
     bordercolor="#000000"
     borderopacity="0.25"
     inkscape:showpageshadow="2"
     inkscape:pageopacity="0.0"
     inkscape:pagecheckerboard="0"
     inkscape:deskcolor="#d1d1d1"
     inkscape:zoom="3.295"
     inkscape:cx="101.36571"
     inkscape:cy="-0.75872534"
     inkscape:window-width="1400"
     inkscape:window-height="864"
     inkscape:window-x="209"
     inkscape:window-y="25"
     inkscape:window-maximized="0"
     inkscape:current-layer="svg1" />
  <path
     style="font-weight:bold;font-size:13.3333px;font-family:BPreplay;-inkscape-font-specification:'BPreplay Bold';letter-spacing:0px;white-space:pre;fill:#ffffff;stroke-width:2.64567;stroke-linecap:square;stroke-opacity:0.988722;paint-order:markers fill stroke"
     d="m 1.1160657,11.868547 c 0,0.733331 0.3466657,1.079997 1.0666639,1.079997 0.7066649,0 1.066664,-0.346666 1.066664,-1.079997 V 9.3618866 h 1.8533286 c 1.9333285,0 3.4266581,-1.4533297 3.4266581,-3.3733249 0,-2.0266615 -1.466663,-3.4133247 -3.5066579,-3.4133247 H 2.2360628 c -0.7333315,0 -1.1199971,0.3466658 -1.1199971,1.1066639 z M 4.8493896,4.708565 c 0.9733308,0 1.5066628,0.4666655 1.5066628,1.2666634 0,0.7733314 -0.5199987,1.2533302 -1.3066634,1.2533302 H 3.2493936 V 4.708565 Z m 10.7999614,5.519986 c -0.426666,0.426666 -0.986664,0.573332 -1.599996,0.573332 -1.733329,0 -2.62666,-1.5333295 -2.62666,-3.1599921 0,-1.5866627 0.853331,-3.159992 2.613327,-3.159992 0.613331,0 1.21333,0.2133328 1.626662,0.6266651 0.186666,0.1999995 0.546665,0.3199992 0.813331,0.3199992 0.586666,0 1.053331,-0.4266656 1.053331,-1.1066639 0,-0.3466658 -0.146666,-0.6533317 -0.413332,-0.9066644 -0.879998,-0.799998 -1.906662,-1.1599971 -3.039993,-1.1599971 -3.253325,0 -4.8933205,2.7466598 -4.8933205,5.4666529 0,2.6933263 1.5999955,5.3733193 4.8266545,5.3733193 1.159997,0 2.173328,-0.413332 3.039992,-1.186663 0.293333,-0.266666 0.399999,-0.573332 0.399999,-0.919998 0,-0.559998 -0.306666,-1.0799972 -1.066664,-1.0799972 -0.279999,0 -0.493332,0.08 -0.733331,0.3199992 z m 4.426648,1.053331 c -0.239999,0.199999 -0.439998,0.439999 -0.439998,0.906664 0,0.546665 0.439998,0.973331 1.01333,0.973331 0.24,0 0.466666,-0.04 0.733332,-0.253333 2.679993,-2.173328 3.373325,-4.6799879 3.373325,-6.3866503 0,-2.1733278 -1.253331,-3.8533236 -3.333325,-3.8533236 -2.279995,0 -3.413325,1.7733289 -3.413325,3.5466577 0,1.4933296 1.013331,3.1733254 2.866659,3.1733254 0.386666,0 0.799998,-0.066667 1.253331,-0.2266661 -0.533332,0.7866646 -1.293331,1.5066629 -2.053329,2.1199949 z m 1.29333,-6.5066505 c 0.906665,0 1.306664,0.8133313 1.306664,1.5199961 0,0.9999975 -0.586665,1.4533297 -1.29333,1.4533297 -0.653332,0 -1.239997,-0.5199987 -1.239997,-1.466663 0,-0.6799982 0.373332,-1.5066628 1.226663,-1.5066628 z m 4.359994,5.0133206 c 0,1.9066619 1.319996,3.3066579 3.266658,3.3066579 1.813329,0 3.213325,-1.506662 3.213325,-3.2799913 0,-0.9599975 -0.679998,-2.093328 -1.399996,-2.4399938 0.586665,-0.3733324 1.026664,-1.1599971 1.026664,-1.8799952 0,-1.6399959 -1.21333,-2.7866597 -2.853326,-2.7866597 -1.586663,0 -2.919993,1.199997 -2.919993,2.7866597 0,0.7866646 0.399999,1.5866626 1.013331,1.959995 -0.773332,0.4399989 -1.346663,1.3999965 -1.346663,2.3333274 z m 3.266658,-1.2399968 c 0.586665,0 1.026664,0.5466653 1.026664,1.2266635 0,0.6399982 -0.399999,1.1866642 -1.026664,1.1866642 -0.666665,0 -1.079997,-0.546666 -1.079997,-1.2133308 0,-0.6399983 0.426665,-1.1999969 1.079997,-1.1999969 z m -0.04,-2.0666615 c -0.493332,0 -0.759998,-0.4399989 -0.759998,-0.9199976 0,-0.5066654 0.386666,-0.7733314 0.773331,-0.7733314 0.346666,0 0.693332,0.266666 0.693332,0.7733314 0,0.4666654 -0.279999,0.9199976 -0.706665,0.9199976 z"
     id="text2"
     aria-label="PC98" />
</svg>
