<?xml version="1.0" encoding="UTF-8" standalone="no"?>
<svg
   viewBox="0 0 200 40"
   version="1.1"
   id="svg1"
   sodipodi:docname="pcengine.svg"
   inkscape:version="1.3.2 (091e20e, 2023-11-25)"
   xmlns:inkscape="http://www.inkscape.org/namespaces/inkscape"
   xmlns:sodipodi="http://sodipodi.sourceforge.net/DTD/sodipodi-0.dtd"
   xmlns="http://www.w3.org/2000/svg"
   xmlns:svg="http://www.w3.org/2000/svg">
  <defs
     id="defs1">
    <rect
       x="0.30349014"
       y="0.60698027"
       width="199.08953"
       height="38.846737"
       id="rect3" />
    <rect
       x="0.60698027"
       y="0.60698027"
       width="198.78604"
       height="39.150228"
       id="rect2" />
    <rect
       x="0.91047041"
       y="0.60698027"
       width="198.17906"
       height="38.846737"
       id="rect1" />
  </defs>
  <sodipodi:namedview
     id="namedview1"
     pagecolor="#020202"
     bordercolor="#000000"
     borderopacity="0.25"
     inkscape:showpageshadow="2"
     inkscape:pageopacity="0.0"
     inkscape:pagecheckerboard="0"
     inkscape:deskcolor="#d1d1d1"
     inkscape:zoom="3.295"
     inkscape:cx="101.36571"
     inkscape:cy="-0.75872534"
     inkscape:window-width="1400"
     inkscape:window-height="864"
     inkscape:window-x="209"
     inkscape:window-y="25"
     inkscape:window-maximized="0"
     inkscape:current-layer="svg1" />
  <path
     style="font-weight:bold;font-size:13.3333px;font-family:BPreplay;-inkscape-font-specification:'BPreplay Bold';letter-spacing:0px;white-space:pre;fill:#ffffff;stroke-width:2.64567;stroke-linecap:square;stroke-opacity:0.988722;paint-order:markers fill stroke"
     d="m 1.1160657,11.868547 c 0,0.733331 0.3466657,1.079997 1.0666639,1.079997 0.7066649,0 1.066664,-0.346666 1.066664,-1.079997 V 9.3618866 h 1.8533286 c 1.9333285,0 3.4266581,-1.4533297 3.4266581,-3.3733249 0,-2.0266615 -1.466663,-3.4133247 -3.5066579,-3.4133247 H 2.2360628 c -0.7333315,0 -1.1199971,0.3466658 -1.1199971,1.1066639 z M 4.8493896,4.708565 c 0.9733308,0 1.5066628,0.4666655 1.5066628,1.2666634 0,0.7733314 -0.5199987,1.2533302 -1.3066634,1.2533302 H 3.2493936 V 4.708565 Z m 10.7999614,5.519986 c -0.426666,0.426666 -0.986664,0.573332 -1.599996,0.573332 -1.733329,0 -2.62666,-1.5333295 -2.62666,-3.1599921 0,-1.5866627 0.853331,-3.159992 2.613327,-3.159992 0.613331,0 1.21333,0.2133328 1.626662,0.6266651 0.186666,0.1999995 0.546665,0.3199992 0.813331,0.3199992 0.586666,0 1.053331,-0.4266656 1.053331,-1.1066639 0,-0.3466658 -0.146666,-0.6533317 -0.413332,-0.9066644 -0.879998,-0.799998 -1.906662,-1.1599971 -3.039993,-1.1599971 -3.253325,0 -4.8933205,2.7466598 -4.8933205,5.4666529 0,2.6933263 1.5999955,5.3733193 4.8266545,5.3733193 1.159997,0 2.173328,-0.413332 3.039992,-1.186663 0.293333,-0.266666 0.399999,-0.573332 0.399999,-0.919998 0,-0.559998 -0.306666,-1.0799972 -1.066664,-1.0799972 -0.279999,0 -0.493332,0.08 -0.733331,0.3199992 z m 5.67999,1.546663 c 0,0.933331 0.133333,1.17333 1.119997,1.17333 h 3.853323 c 0.773332,0 1.146664,-0.359999 1.146664,-1.066664 0,-0.719998 -0.373332,-1.066664 -1.146664,-1.066664 H 23.462669 V 8.6552217 h 2.146661 c 0.719998,0 1.066664,-0.3599991 1.066664,-1.0533307 0,-0.7199982 -0.346666,-1.0799973 -1.066664,-1.0799973 H 23.462669 V 4.7218983 h 2.746659 c 0.719998,0 1.066664,-0.3599991 1.066664,-1.066664 0,-0.7333315 -0.346666,-1.066664 -1.066664,-1.066664 h -3.75999 c -0.733332,0 -1.119997,0.3866657 -1.119997,1.1599971 z m 6.946646,0.146666 c 0,0.679998 0.333332,1.026664 0.999997,1.026664 0.706665,0 1.039997,-0.346666 1.039997,-1.026664 V 8.2018895 c 0,-0.7866647 0.519999,-1.1866637 1.053331,-1.1866637 0.479999,0 0.986664,0.3866657 0.986664,1.1866637 V 11.92188 c 0,0.679998 0.359999,1.026664 1.026664,1.026664 0.693332,0 1.039998,-0.346666 1.039998,-1.026664 V 7.8285571 c 0,-1.9599951 -1.226664,-2.6399933 -2.253328,-2.6399933 -0.799998,0 -1.386663,0.4266656 -1.853329,0.9599975 0,-0.4133322 -0.333332,-0.9199976 -1.039997,-0.9199976 -0.666665,0 -0.999997,0.5066654 -0.999997,1.0666639 z m 12.83997,-6.8266493 c -0.666665,0 -1.026664,0.3599991 -1.05333,0.9999974 -0.413333,-0.6933315 -1.199997,-1.0133307 -1.839996,-1.0133307 -1.453329,0 -2.839993,1.5999959 -2.839993,4.0266565 0,2.3733271 1.41333,3.8533231 2.82666,3.8533231 0.719998,0 1.439996,-0.279999 1.973328,-1.226663 0,1.41333 -0.279999,2.346661 -1.466663,2.346661 -0.373332,0 -0.759998,-0.09333 -1.13333,-0.293333 -0.213333,-0.106666 -0.413332,-0.253333 -0.733332,-0.253333 -0.653331,0 -1.026664,0.519999 -1.026664,1.066664 0,0.346666 0.16,0.706665 0.506666,0.933331 0.733331,0.453332 1.519996,0.679999 2.253327,0.679999 1.919995,0 3.559991,-1.506663 3.559991,-4.293323 V 6.1618946 c 0,-0.6933315 -0.346665,-1.0666639 -1.026664,-1.0666639 z m -2.38666,6.0133183 c -0.839998,0 -1.253331,-0.973331 -1.253331,-1.9866618 0,-1.0266641 0.453333,-2.1066614 1.29333,-2.1066614 0.666665,0 1.33333,0.7599981 1.33333,2.0533282 0,1.29333 -0.706664,2.039995 -1.373329,2.039995 z m 4.719993,0.799998 c 0,0.706665 0.359999,1.039997 1.039998,1.039997 0.693331,0 1.039997,-0.333332 1.039997,-1.039997 V 6.3218942 c 0,-0.6933315 -0.373332,-1.026664 -1.053331,-1.026664 -0.666665,0 -1.026664,0.3333325 -1.026664,1.026664 z M 43.262624,3.3085685 c 0,0.666665 0.533332,1.1866637 1.186664,1.1866637 0.679998,0 1.199997,-0.5199987 1.199997,-1.1866637 0,-0.666665 -0.519999,-1.1866636 -1.199997,-1.1866636 -0.653332,0 -1.186664,0.5199986 -1.186664,1.1866636 z m 3.546667,8.6133115 c 0,0.679998 0.333332,1.026664 0.999997,1.026664 0.706665,0 1.039998,-0.346666 1.039998,-1.026664 V 8.2018895 c 0,-0.7866647 0.519998,-1.1866637 1.05333,-1.1866637 0.479999,0 0.986665,0.3866657 0.986665,1.1866637 V 11.92188 c 0,0.679998 0.359999,1.026664 1.026664,1.026664 0.693331,0 1.039997,-0.346666 1.039997,-1.026664 V 7.8285571 c 0,-1.9599951 -1.226664,-2.6399933 -2.253328,-2.6399933 -0.799998,0 -1.386663,0.4266656 -1.853328,0.9599975 0,-0.4133322 -0.333333,-0.9199976 -1.039998,-0.9199976 -0.666665,0 -0.999997,0.5066654 -0.999997,1.0666639 z M 57.355936,5.0685641 c -2.226661,0 -3.453325,1.9333284 -3.453325,3.95999 0,2.1999949 1.306664,4.0666559 3.653324,4.0666559 1.226664,0 2.213328,-0.453332 2.879993,-1.279996 0.173333,-0.186667 0.226666,-0.373333 0.226666,-0.613332 0,-0.613332 -0.333332,-0.879998 -0.759998,-0.879998 -0.706665,0 -1.13333,0.826665 -2.159994,0.826665 -0.573332,0 -1.759996,-0.413333 -1.759996,-1.6133296 h 3.053326 c 1.026664,0 1.653329,0 1.653329,-1.026664 0,-2.0666615 -1.186664,-3.4399913 -3.333325,-3.4399913 z m -1.266664,3.0799922 c 0,-0.8266646 0.679999,-1.2666635 1.29333,-1.2666635 0.586666,0 1.173331,0.4133323 1.173331,1.2666635 z"
     id="text2"
     aria-label="PC Engine" />
</svg>
