<?xml version="1.0" encoding="UTF-8" standalone="no"?>
<svg
   viewBox="0 0 200 40"
   version="1.1"
   id="svg1"
   sodipodi:docname="pcfx.svg"
   inkscape:version="1.3.2 (091e20e, 2023-11-25)"
   xmlns:inkscape="http://www.inkscape.org/namespaces/inkscape"
   xmlns:sodipodi="http://sodipodi.sourceforge.net/DTD/sodipodi-0.dtd"
   xmlns="http://www.w3.org/2000/svg"
   xmlns:svg="http://www.w3.org/2000/svg">
  <defs
     id="defs1">
    <rect
       x="0.30349014"
       y="0.60698027"
       width="199.08953"
       height="38.846737"
       id="rect3" />
    <rect
       x="0.60698027"
       y="0.60698027"
       width="198.78604"
       height="39.150228"
       id="rect2" />
    <rect
       x="0.91047041"
       y="0.60698027"
       width="198.17906"
       height="38.846737"
       id="rect1" />
  </defs>
  <sodipodi:namedview
     id="namedview1"
     pagecolor="#020202"
     bordercolor="#000000"
     borderopacity="0.25"
     inkscape:showpageshadow="2"
     inkscape:pageopacity="0.0"
     inkscape:pagecheckerboard="0"
     inkscape:deskcolor="#d1d1d1"
     inkscape:zoom="3.295"
     inkscape:cx="101.36571"
     inkscape:cy="-0.75872534"
     inkscape:window-width="1400"
     inkscape:window-height="864"
     inkscape:window-x="209"
     inkscape:window-y="25"
     inkscape:window-maximized="0"
     inkscape:current-layer="svg1" />
  <path
     style="font-weight:bold;font-size:13.3333px;font-family:BPreplay;-inkscape-font-specification:'BPreplay Bold';letter-spacing:0px;white-space:pre;fill:#ffffff;stroke-width:2.64567;stroke-linecap:square;stroke-opacity:0.988722;paint-order:markers fill stroke"
     d="m 1.1160657,11.868547 c 0,0.733331 0.3466657,1.079997 1.0666639,1.079997 0.7066649,0 1.066664,-0.346666 1.066664,-1.079997 V 9.3618866 h 1.8533286 c 1.9333285,0 3.4266581,-1.4533297 3.4266581,-3.3733249 0,-2.0266615 -1.466663,-3.4133247 -3.5066579,-3.4133247 H 2.2360628 c -0.7333315,0 -1.1199971,0.3466658 -1.1199971,1.1066639 z M 4.8493896,4.708565 c 0.9733308,0 1.5066628,0.4666655 1.5066628,1.2666634 0,0.7733314 -0.5199987,1.2533302 -1.3066634,1.2533302 H 3.2493936 V 4.708565 Z m 10.7999614,5.519986 c -0.426666,0.426666 -0.986664,0.573332 -1.599996,0.573332 -1.733329,0 -2.62666,-1.5333295 -2.62666,-3.1599921 0,-1.5866627 0.853331,-3.159992 2.613327,-3.159992 0.613331,0 1.21333,0.2133328 1.626662,0.6266651 0.186666,0.1999995 0.546665,0.3199992 0.813331,0.3199992 0.586666,0 1.053331,-0.4266656 1.053331,-1.1066639 0,-0.3466658 -0.146666,-0.6533317 -0.413332,-0.9066644 -0.879998,-0.799998 -1.906662,-1.1599971 -3.039993,-1.1599971 -3.253325,0 -4.8933205,2.7466598 -4.8933205,5.4666529 0,2.6933263 1.5999955,5.3733193 4.8266545,5.3733193 1.159997,0 2.173328,-0.413332 3.039992,-1.186663 0.293333,-0.266666 0.399999,-0.573332 0.399999,-0.919998 0,-0.559998 -0.306666,-1.0799972 -1.066664,-1.0799972 -0.279999,0 -0.493332,0.08 -0.733331,0.3199992 z M 19.22267,8.0152233 c -0.693332,0 -1.106664,0.5199987 -1.106664,1.066664 0,0.7066648 0.373332,1.0266637 1.106664,1.0266637 h 2.439994 c 0.746664,0 1.106664,-0.3199989 1.106664,-1.0266637 0,-0.6933316 -0.36,-1.066664 -1.106664,-1.066664 z m 4.946654,3.9599897 c 0,0.639999 0.373332,0.973331 1.066664,0.973331 0.719998,0 1.079997,-0.333332 1.079997,-0.973331 V 8.8952211 h 1.839995 c 0.719998,0 1.053331,-0.3599991 1.053331,-1.066664 0,-0.7199982 -0.333333,-1.0799973 -1.053331,-1.0799973 H 26.315985 V 4.7218983 h 2.613327 c 0.733331,0 1.079997,-0.3599991 1.079997,-1.066664 0,-0.7333315 -0.346666,-1.066664 -1.079997,-1.066664 h -3.639991 c -0.733332,0 -1.119997,0.399999 -1.119997,1.199997 z m 6.546639,-0.746664 c -0.16,0.239999 -0.226666,0.493332 -0.226666,0.759998 0,0.639998 0.333332,0.97333 0.959997,0.97333 0.426666,0 0.759998,-0.173332 0.999998,-0.559998 l 2.079994,-3.2533252 2.239995,3.2799912 c 0.279999,0.36 0.586665,0.533332 0.986664,0.533332 0.639998,0 0.959997,-0.306665 0.959997,-0.959997 0,-0.266666 -0.09333,-0.519999 -0.266666,-0.786665 L 35.809283,7.3085584 37.782611,4.2685661 c 0.12,-0.1866662 0.2,-0.399999 0.2,-0.6266651 0,-0.5999985 -0.506665,-1.066664 -1.053331,-1.066664 -0.399999,0 -0.693331,0.1733329 -0.906664,0.5199987 -0.493332,0.7733314 -0.999998,1.6533292 -1.506663,2.4533272 L 32.809291,3.0419025 C 32.582625,2.70857 32.262625,2.575237 31.902626,2.575237 c -0.559998,0 -1.05333,0.4266656 -1.05333,1.0399974 0,0.2266661 0.06667,0.4533322 0.213332,0.666665 l 2.173328,3.1733253 z"
     id="text2"
     aria-label="PC-FX&#10;" />
</svg>
