<?xml version="1.0" encoding="UTF-8" standalone="no"?>
<svg
   viewBox="0 0 200 40"
   version="1.1"
   id="svg1"
   sodipodi:docname="pico-8.svg"
   inkscape:version="1.3.2 (091e20e, 2023-11-25)"
   xmlns:inkscape="http://www.inkscape.org/namespaces/inkscape"
   xmlns:sodipodi="http://sodipodi.sourceforge.net/DTD/sodipodi-0.dtd"
   xmlns="http://www.w3.org/2000/svg"
   xmlns:svg="http://www.w3.org/2000/svg">
  <defs
     id="defs1">
    <rect
       x="0.30349014"
       y="0.60698027"
       width="199.08953"
       height="38.846737"
       id="rect3" />
    <rect
       x="0.60698027"
       y="0.60698027"
       width="198.78604"
       height="39.150228"
       id="rect2" />
    <rect
       x="0.91047041"
       y="0.60698027"
       width="198.17906"
       height="38.846737"
       id="rect1" />
  </defs>
  <sodipodi:namedview
     id="namedview1"
     pagecolor="#020202"
     bordercolor="#000000"
     borderopacity="0.25"
     inkscape:showpageshadow="2"
     inkscape:pageopacity="0.0"
     inkscape:pagecheckerboard="0"
     inkscape:deskcolor="#d1d1d1"
     inkscape:zoom="3.295"
     inkscape:cx="101.36571"
     inkscape:cy="-0.75872534"
     inkscape:window-width="1400"
     inkscape:window-height="864"
     inkscape:window-x="209"
     inkscape:window-y="25"
     inkscape:window-maximized="0"
     inkscape:current-layer="svg1" />
  <path
     style="font-weight:bold;font-size:13.3333px;font-family:BPreplay;-inkscape-font-specification:'BPreplay Bold';letter-spacing:0px;white-space:pre;fill:#ffffff;stroke-width:2.64567;stroke-linecap:square;stroke-opacity:0.988722;paint-order:markers fill stroke"
     d="m 1.1160657,11.868547 c 0,0.733331 0.3466657,1.079997 1.0666639,1.079997 0.7066649,0 1.066664,-0.346666 1.066664,-1.079997 V 9.3618866 h 1.8533286 c 1.9333285,0 3.4266581,-1.4533297 3.4266581,-3.3733249 0,-2.0266615 -1.466663,-3.4133247 -3.5066579,-3.4133247 H 2.2360628 c -0.7333315,0 -1.1199971,0.3466658 -1.1199971,1.1066639 z M 4.8493896,4.708565 c 0.9733308,0 1.5066628,0.4666655 1.5066628,1.2666634 0,0.7733314 -0.5199987,1.2533302 -1.3066634,1.2533302 H 3.2493936 V 4.708565 Z m 4.5199884,7.199982 c 0,0.706665 0.3599991,1.039997 1.039997,1.039997 0.693332,0 1.039998,-0.333332 1.039998,-1.039997 V 6.3218942 c 0,-0.6933315 -0.373333,-1.026664 -1.053331,-1.026664 -0.6666649,0 -1.026664,0.3333325 -1.026664,1.026664 z M 9.1827118,3.3085685 c 0,0.666665 0.533332,1.1866637 1.1866642,1.1866637 0.679998,0 1.199996,-0.5199987 1.199996,-1.1866637 0,-0.666665 -0.519998,-1.1866636 -1.199996,-1.1866636 -0.6533322,0 -1.1866642,0.5199986 -1.1866642,1.1866636 z m 6.9599932,3.8399903 c 0.506666,0 1.026664,0.2266661 1.426663,0.2266661 0.586666,0 0.973331,-0.3733324 0.973331,-0.9733309 0,-0.399999 -0.319999,-0.7733313 -0.759998,-0.9733308 -0.559998,-0.2533327 -1.146664,-0.3066659 -1.653329,-0.3066659 -2.013328,0 -3.719991,1.5733293 -3.719991,3.9333234 0,2.2799943 1.639996,4.0133233 3.746658,4.0133233 0.613331,0 1.279996,-0.16 1.906661,-0.573332 0.32,-0.239999 0.546666,-0.519999 0.546666,-0.919998 0,-0.546665 -0.506666,-0.973331 -0.959998,-0.973331 -0.133333,0 -0.333332,0.04 -0.479999,0.146667 -0.306666,0.213333 -0.679998,0.293332 -0.999997,0.293332 -0.919998,0 -1.679996,-0.853331 -1.679996,-1.9333281 0,-1.1866637 0.719998,-1.9599951 1.653329,-1.9599951 z M 22.542697,5.108564 c -2.279995,0 -3.466658,1.8399953 -3.466658,3.9066568 0,2.0799952 1.186663,4.0533232 3.466658,4.0533232 2.253327,0 3.466658,-1.866662 3.466658,-3.9733234 0,-2.0533282 -1.199997,-3.9866566 -3.466658,-3.9866566 z m 0,1.8933285 c 0.946664,0 1.359996,1.2399969 1.359996,2.1733279 0,0.9466646 -0.413332,2.0266616 -1.359996,2.0266616 -0.946665,0 -1.359997,-1.3199968 -1.359997,-2.2533277 0,-0.9599976 0.413332,-1.9466618 1.359997,-1.9466618 z m 5.466647,1.0133308 c -0.693331,0 -1.106664,0.5199987 -1.106664,1.066664 0,0.7066648 0.373333,1.0266637 1.106664,1.0266637 h 2.439994 c 0.746665,0 1.106664,-0.3199989 1.106664,-1.0266637 0,-0.6933316 -0.359999,-1.066664 -1.106664,-1.066664 z m 4.613322,1.7733288 c 0,1.9066619 1.319996,3.3066579 3.266658,3.3066579 1.813329,0 3.213325,-1.506662 3.213325,-3.2799913 0,-0.9599975 -0.679998,-2.093328 -1.399996,-2.4399938 0.586665,-0.3733324 1.026664,-1.1599971 1.026664,-1.8799952 0,-1.6399959 -1.21333,-2.7866597 -2.853326,-2.7866597 -1.586663,0 -2.919993,1.199997 -2.919993,2.7866597 0,0.7866646 0.399999,1.5866626 1.013331,1.959995 -0.773332,0.4399989 -1.346663,1.3999965 -1.346663,2.3333274 z m 3.266658,-1.2399968 c 0.586665,0 1.026664,0.5466653 1.026664,1.2266635 0,0.6399982 -0.399999,1.1866642 -1.026664,1.1866642 -0.666665,0 -1.079997,-0.546666 -1.079997,-1.2133308 0,-0.6399983 0.426665,-1.1999969 1.079997,-1.1999969 z m -0.04,-2.0666615 c -0.493332,0 -0.759998,-0.4399989 -0.759998,-0.9199976 0,-0.5066654 0.386666,-0.7733314 0.773331,-0.7733314 0.346666,0 0.693332,0.266666 0.693332,0.7733314 0,0.4666654 -0.279999,0.9199976 -0.706665,0.9199976 z"
     id="text2"
     aria-label="Pico-8" />
</svg>
