<?xml version="1.0" encoding="UTF-8" standalone="no"?>
<svg
   viewBox="0 0 200 40"
   version="1.1"
   id="svg1"
   sodipodi:docname="pokemonmini.svg"
   inkscape:version="1.3.2 (091e20e, 2023-11-25)"
   xmlns:inkscape="http://www.inkscape.org/namespaces/inkscape"
   xmlns:sodipodi="http://sodipodi.sourceforge.net/DTD/sodipodi-0.dtd"
   xmlns="http://www.w3.org/2000/svg"
   xmlns:svg="http://www.w3.org/2000/svg">
  <defs
     id="defs1">
    <rect
       x="0.30349014"
       y="0.60698027"
       width="199.08953"
       height="38.846737"
       id="rect3" />
    <rect
       x="0.60698027"
       y="0.60698027"
       width="198.78604"
       height="39.150228"
       id="rect2" />
    <rect
       x="0.91047041"
       y="0.60698027"
       width="198.17906"
       height="38.846737"
       id="rect1" />
  </defs>
  <sodipodi:namedview
     id="namedview1"
     pagecolor="#020202"
     bordercolor="#000000"
     borderopacity="0.25"
     inkscape:showpageshadow="2"
     inkscape:pageopacity="0.0"
     inkscape:pagecheckerboard="0"
     inkscape:deskcolor="#d1d1d1"
     inkscape:zoom="3.295"
     inkscape:cx="101.36571"
     inkscape:cy="-0.75872534"
     inkscape:window-width="1400"
     inkscape:window-height="864"
     inkscape:window-x="209"
     inkscape:window-y="25"
     inkscape:window-maximized="0"
     inkscape:current-layer="svg1" />
  <path
     style="font-weight:bold;font-size:13.3333px;font-family:BPreplay;-inkscape-font-specification:'BPreplay Bold';letter-spacing:0px;white-space:pre;fill:#ffffff;stroke-width:2.64567;stroke-linecap:square;stroke-opacity:0.988722;paint-order:markers fill stroke"
     d="m 1.1160657,11.868547 c 0,0.733331 0.3466657,1.079997 1.0666639,1.079997 0.7066649,0 1.066664,-0.346666 1.066664,-1.079997 V 9.3618866 h 1.8533286 c 1.9333285,0 3.4266581,-1.4533297 3.4266581,-3.3733249 0,-2.0266615 -1.466663,-3.4133247 -3.5066579,-3.4133247 H 2.2360628 c -0.7333315,0 -1.1199971,0.3466658 -1.1199971,1.1066639 z M 4.8493896,4.708565 c 0.9733308,0 1.5066628,0.4666655 1.5066628,1.2666634 0,0.7733314 -0.5199987,1.2533302 -1.3066634,1.2533302 H 3.2493936 V 4.708565 Z M 12.35603,5.108564 c -2.279994,0 -3.4666577,1.8399953 -3.4666577,3.9066568 0,2.0799952 1.1866637,4.0533232 3.4666577,4.0533232 2.253328,0 3.466658,-1.866662 3.466658,-3.9733234 0,-2.0533282 -1.199997,-3.9866566 -3.466658,-3.9866566 z m 0,1.8933285 c 0.946664,0 1.359997,1.2399969 1.359997,2.1733279 0,0.9466646 -0.413333,2.0266616 -1.359997,2.0266616 -0.946664,0 -1.359996,-1.3199968 -1.359996,-2.2533277 0,-0.9599976 0.413332,-1.9466618 1.359996,-1.9466618 z m 4.466651,4.9199875 c 0,0.679998 0.333333,1.026664 1.013331,1.026664 0.706665,0 1.026664,-0.346666 1.026664,-1.026664 v -1.706662 c 0.06667,-0.08 0.786665,-0.6666653 0.853331,-0.7199984 l 1.666663,2.9466594 c 0.199999,0.306666 0.613332,0.533332 0.986664,0.533332 0.706665,0 0.973331,-0.479999 0.973331,-1.039998 0,-0.773331 -0.253333,-0.413332 -2.013328,-3.6533237 L 22.782666,7.068559 c 0.306666,-0.2266661 0.426666,-0.4133323 0.426666,-0.7599981 0,-0.5599985 -0.506666,-1.0666639 -1.053331,-1.0666639 -0.253333,0 -0.479999,0.08 -0.693331,0.2533327 L 18.862676,7.6952241 V 3.2152354 c 0,-0.6933316 -0.333332,-1.0399974 -1.026664,-1.0399974 -0.693331,0 -1.013331,0.3466658 -1.013331,1.0399974 z M 27.276003,5.0685641 c -2.226661,0 -3.453325,1.9333284 -3.453325,3.95999 0,2.1999949 1.306663,4.0666559 3.653324,4.0666559 1.226664,0 2.213328,-0.453332 2.879993,-1.279996 0.173333,-0.186667 0.226666,-0.373333 0.226666,-0.613332 0,-0.613332 -0.333333,-0.879998 -0.759998,-0.879998 -0.706665,0 -1.133331,0.826665 -2.159995,0.826665 -0.573332,0 -1.759995,-0.413333 -1.759995,-1.6133296 h 3.053325 c 1.026664,0 1.65333,0 1.65333,-1.026664 0,-2.0666615 -1.186664,-3.4399913 -3.333325,-3.4399913 z m -1.266664,3.0799922 c 0,-0.8266646 0.679998,-1.2666635 1.29333,-1.2666635 0.586665,0 1.173331,0.4133323 1.173331,1.2666635 z M 31.58266,11.92188 c 0,0.679998 0.333332,1.026664 0.999997,1.026664 0.706665,0 1.039998,-0.346666 1.039998,-1.026664 V 8.2018895 c 0,-0.7866647 0.519998,-1.1866637 1.05333,-1.1866637 0.479999,0 0.986664,0.3866657 0.986664,1.1866637 V 11.92188 c 0,0.679998 0.359999,1.026664 1.026664,1.026664 0.693332,0 1.039998,-0.346666 1.039998,-1.026664 V 7.9752234 c 0.08,-0.6399984 0.559998,-0.9599976 1.039997,-0.9599976 0.479999,0 0.986664,0.3866657 0.986664,1.1866637 V 11.92188 c 0,0.679998 0.359999,1.026664 1.026664,1.026664 0.693332,0 1.039998,-0.346666 1.039998,-1.026664 V 7.8285571 c 0,-1.8533287 -1.106664,-2.6133267 -2.239995,-2.6133267 -0.839997,0 -1.693329,0.4133323 -2.119994,1.1066638 -0.359999,-0.8133312 -1.026664,-1.1333304 -1.719996,-1.1333304 -0.799998,0 -1.653329,0.4266656 -2.119994,0.9599975 0,-0.4133322 -0.333333,-0.9199976 -1.039998,-0.9199976 -0.666665,0 -0.999997,0.5066654 -0.999997,1.0666639 z M 46.235949,5.108564 c -2.279994,0 -3.466658,1.8399953 -3.466658,3.9066568 0,2.0799952 1.186664,4.0533232 3.466658,4.0533232 2.253328,0 3.466658,-1.866662 3.466658,-3.9733234 0,-2.0533282 -1.199997,-3.9866566 -3.466658,-3.9866566 z m 0,1.8933285 c 0.946665,0 1.359997,1.2399969 1.359997,2.1733279 0,0.9466646 -0.413332,2.0266616 -1.359997,2.0266616 -0.946664,0 -1.359996,-1.3199968 -1.359996,-2.2533277 0,-0.9599976 0.413332,-1.9466618 1.359996,-1.9466618 z m 4.439984,4.9199875 c 0,0.679998 0.333332,1.026664 0.999997,1.026664 0.706665,0 1.039998,-0.346666 1.039998,-1.026664 V 8.2018895 c 0,-0.7866647 0.519998,-1.1866637 1.05333,-1.1866637 0.479999,0 0.986665,0.3866657 0.986665,1.1866637 V 11.92188 c 0,0.679998 0.359999,1.026664 1.026664,1.026664 0.693331,0 1.039997,-0.346666 1.039997,-1.026664 V 7.8285571 c 0,-1.9599951 -1.226664,-2.6399933 -2.253328,-2.6399933 -0.799998,0 -1.386663,0.4266656 -1.853328,0.9599975 0,-0.4133322 -0.333333,-0.9199976 -1.039998,-0.9199976 -0.666665,0 -0.999997,0.5066654 -0.999997,1.0666639 z M 64.662578,3.8019006 C 64.409246,2.9885693 63.875914,2.5352371 63.195915,2.5352371 c -0.759998,0 -1.226663,0.4933321 -1.386663,1.4399964 l -1.226663,7.6266475 c -0.01333,0.106666 -0.01333,0.199999 -0.01333,0.293332 0,0.706665 0.399999,1.039998 1.039998,1.039998 0.693331,0 0.986664,-0.386666 1.09333,-1.039998 l 0.853331,-5.0666534 1.41333,5.1599874 c 0.186666,0.653331 0.586665,0.959997 1.106664,0.959997 0.466665,0 0.893331,-0.319999 1.093331,-0.959997 0.519998,-1.61333 1.026664,-3.5066582 1.559996,-5.1333208 l 0.679998,5.0533208 c 0.09333,0.693331 0.426665,1.026664 1.119997,1.026664 0.599999,0 1.053331,-0.399999 1.053331,-1.066664 0,-0.01333 -0.01333,-0.02667 -0.01333,-0.04 v -0.05333 L 70.422564,3.9885668 c -0.133333,-0.933331 -0.626665,-1.4266631 -1.37333,-1.4266631 -0.693332,0 -1.226664,0.4133323 -1.479996,1.2266636 l -1.466663,4.7866546 z m 7.933315,8.1066464 c 0,0.706665 0.359999,1.039997 1.039997,1.039997 0.693332,0 1.039998,-0.333332 1.039998,-1.039997 V 6.3218942 c 0,-0.6933315 -0.373333,-1.026664 -1.053331,-1.026664 -0.666665,0 -1.026664,0.3333325 -1.026664,1.026664 z M 72.409227,3.3085685 c 0,0.666665 0.533332,1.1866637 1.186663,1.1866637 0.679999,0 1.199997,-0.5199987 1.199997,-1.1866637 0,-0.666665 -0.519998,-1.1866636 -1.199997,-1.1866636 -0.653331,0 -1.186663,0.5199986 -1.186663,1.1866636 z m 3.546666,8.6133115 c 0,0.679998 0.333333,1.026664 0.999998,1.026664 0.706665,0 1.039997,-0.346666 1.039997,-1.026664 V 8.2018895 c 0,-0.7866647 0.519999,-1.1866637 1.053331,-1.1866637 0.479999,0 0.986664,0.3866657 0.986664,1.1866637 V 11.92188 c 0,0.679998 0.359999,1.026664 1.026664,1.026664 0.693332,0 1.039998,-0.346666 1.039998,-1.026664 V 7.8285571 c 0,-1.9599951 -1.226664,-2.6399933 -2.253328,-2.6399933 -0.799998,0 -1.386663,0.4266656 -1.853329,0.9599975 0,-0.4133322 -0.333332,-0.9199976 -1.039997,-0.9199976 -0.666665,0 -0.999998,0.5066654 -0.999998,1.0666639 z m 7.399987,-0.01333 c 0,0.706665 0.359999,1.039997 1.039997,1.039997 0.693332,0 1.039997,-0.333332 1.039997,-1.039997 V 6.3218942 c 0,-0.6933315 -0.373332,-1.026664 -1.05333,-1.026664 -0.666665,0 -1.026664,0.3333325 -1.026664,1.026664 z M 83.169214,3.3085685 c 0,0.666665 0.533332,1.1866637 1.186663,1.1866637 0.679998,0 1.199997,-0.5199987 1.199997,-1.1866637 0,-0.666665 -0.519999,-1.1866636 -1.199997,-1.1866636 -0.653331,0 -1.186663,0.5199986 -1.186663,1.1866636 z"
     id="text2"
     aria-label="Pokemon Mini&#10;" />
</svg>
