<?xml version="1.0" encoding="UTF-8" standalone="no"?>
<svg
   viewBox="0 0 200 40"
   version="1.1"
   id="svg1"
   sodipodi:docname="psiko.svg"
   inkscape:version="1.3.2 (091e20e, 2023-11-25)"
   xmlns:inkscape="http://www.inkscape.org/namespaces/inkscape"
   xmlns:sodipodi="http://sodipodi.sourceforge.net/DTD/sodipodi-0.dtd"
   xmlns="http://www.w3.org/2000/svg"
   xmlns:svg="http://www.w3.org/2000/svg">
  <defs
     id="defs1">
    <rect
       x="0.30349014"
       y="0.60698027"
       width="199.08953"
       height="38.846737"
       id="rect3" />
    <rect
       x="0.60698027"
       y="0.60698027"
       width="198.78604"
       height="39.150228"
       id="rect2" />
    <rect
       x="0.91047041"
       y="0.60698027"
       width="198.17906"
       height="38.846737"
       id="rect1" />
  </defs>
  <sodipodi:namedview
     id="namedview1"
     pagecolor="#020202"
     bordercolor="#000000"
     borderopacity="0.25"
     inkscape:showpageshadow="2"
     inkscape:pageopacity="0.0"
     inkscape:pagecheckerboard="0"
     inkscape:deskcolor="#d1d1d1"
     inkscape:zoom="3.295"
     inkscape:cx="101.36571"
     inkscape:cy="-0.75872534"
     inkscape:window-width="1400"
     inkscape:window-height="864"
     inkscape:window-x="209"
     inkscape:window-y="25"
     inkscape:window-maximized="0"
     inkscape:current-layer="svg1" />
  <path
     style="font-weight:bold;font-size:13.3333px;font-family:BPreplay;-inkscape-font-specification:'BPreplay Bold';letter-spacing:0px;white-space:pre;fill:#ffffff;stroke-width:2.64567;stroke-linecap:square;stroke-opacity:0.988722;paint-order:markers fill stroke"
     d="m 1.1160657,11.868547 c 0,0.733331 0.3466657,1.079997 1.0666639,1.079997 0.7066649,0 1.066664,-0.346666 1.066664,-1.079997 V 9.3618866 h 1.8533286 c 1.9333285,0 3.4266581,-1.4533297 3.4266581,-3.3733249 0,-2.0266615 -1.466663,-3.4133247 -3.5066579,-3.4133247 H 2.2360628 c -0.7333315,0 -1.1199971,0.3466658 -1.1199971,1.1066639 z M 4.8493896,4.708565 c 0.9733308,0 1.5066628,0.4666655 1.5066628,1.2666634 0,0.7733314 -0.5199987,1.2533302 -1.3066634,1.2533302 H 3.2493936 V 4.708565 Z m 7.3333034,6.58665 c -1.039998,0 -1.426663,-0.733331 -2.2266613,-0.733331 -0.4799988,0 -0.9599975,0.279999 -0.9599975,0.879997 0,0.319999 0.133333,0.653332 0.4133322,0.853331 0.7466646,0.453333 1.5333296,0.773332 2.5466606,0.773332 1.453329,0 3.026659,-0.679998 3.026659,-2.439994 0,-2.1999944 -3.799991,-2.4399938 -3.799991,-3.3599915 0,-0.3599991 0.266666,-0.4799988 0.613332,-0.4799988 0.786665,0 1.319997,0.4399989 2.013328,0.4399989 0.599999,0 0.919998,-0.4533322 0.919998,-0.8933311 0,-0.3199992 -0.173333,-0.6533316 -0.533332,-0.8533311 -0.693332,-0.3599991 -1.439996,-0.4666655 -2.133328,-0.4666655 -1.573329,0 -2.9466591,0.7333315 -2.9466591,2.3733273 0,2.3066608 3.7199901,2.359994 3.7199901,3.4266578 0,0.346666 -0.279999,0.479999 -0.653331,0.479999 z m 3.693321,0.613332 c 0,0.706665 0.359999,1.039997 1.039997,1.039997 0.693332,0 1.039997,-0.333332 1.039997,-1.039997 V 6.3218942 c 0,-0.6933315 -0.373332,-1.026664 -1.05333,-1.026664 -0.666665,0 -1.026664,0.3333325 -1.026664,1.026664 z M 15.689348,3.3085685 c 0,0.666665 0.533331,1.1866637 1.186663,1.1866637 0.679998,0 1.199997,-0.5199987 1.199997,-1.1866637 0,-0.666665 -0.519999,-1.1866636 -1.199997,-1.1866636 -0.653332,0 -1.186663,0.5199986 -1.186663,1.1866636 z m 3.573335,8.6133115 c 0,0.679998 0.333332,1.026664 1.013331,1.026664 0.706664,0 1.026664,-0.346666 1.026664,-1.026664 v -1.706662 c 0.06667,-0.08 0.786664,-0.6666653 0.853331,-0.7199984 l 1.666662,2.9466594 c 0.2,0.306666 0.613332,0.533332 0.986664,0.533332 0.706665,0 0.973331,-0.479999 0.973331,-1.039998 0,-0.773331 -0.253332,-0.413332 -2.013328,-3.6533237 l 1.45333,-1.2133303 c 0.306666,-0.2266661 0.426665,-0.4133323 0.426665,-0.7599981 0,-0.5599985 -0.506665,-1.0666639 -1.05333,-1.0666639 -0.253333,0 -0.479999,0.08 -0.693332,0.2533327 L 21.302678,7.6952241 V 3.2152354 c 0,-0.6933316 -0.333333,-1.0399974 -1.026664,-1.0399974 -0.693332,0 -1.013331,0.3466658 -1.013331,1.0399974 z M 29.729338,5.108564 c -2.279994,0 -3.466658,1.8399953 -3.466658,3.9066568 0,2.0799952 1.186664,4.0533232 3.466658,4.0533232 2.253328,0 3.466658,-1.866662 3.466658,-3.9733234 0,-2.0533282 -1.199997,-3.9866566 -3.466658,-3.9866566 z m 0,1.8933285 c 0.946665,0 1.359997,1.2399969 1.359997,2.1733279 0,0.9466646 -0.413332,2.0266616 -1.359997,2.0266616 -0.946664,0 -1.359996,-1.3199968 -1.359996,-2.2533277 0,-0.9599976 0.413332,-1.9466618 1.359996,-1.9466618 z"
     id="text2"
     aria-label="Psiko&#10;&#10;&#10;&#10;&#10;&#10;&#10;&#10;" />
</svg>
