<?xml version="1.0" encoding="UTF-8" standalone="no"?>
<svg
   viewBox="0 0 200 40"
   version="1.1"
   id="svg1"
   sodipodi:docname="pspminis.svg"
   inkscape:version="1.3.2 (091e20e, 2023-11-25)"
   xmlns:inkscape="http://www.inkscape.org/namespaces/inkscape"
   xmlns:sodipodi="http://sodipodi.sourceforge.net/DTD/sodipodi-0.dtd"
   xmlns="http://www.w3.org/2000/svg"
   xmlns:svg="http://www.w3.org/2000/svg">
  <defs
     id="defs1">
    <rect
       x="0.30349014"
       y="0.60698027"
       width="199.08953"
       height="38.846737"
       id="rect3" />
    <rect
       x="0.60698027"
       y="0.60698027"
       width="198.78604"
       height="39.150228"
       id="rect2" />
    <rect
       x="0.91047041"
       y="0.60698027"
       width="198.17906"
       height="38.846737"
       id="rect1" />
  </defs>
  <sodipodi:namedview
     id="namedview1"
     pagecolor="#020202"
     bordercolor="#000000"
     borderopacity="0.25"
     inkscape:showpageshadow="2"
     inkscape:pageopacity="0.0"
     inkscape:pagecheckerboard="0"
     inkscape:deskcolor="#d1d1d1"
     inkscape:zoom="3.295"
     inkscape:cx="101.36571"
     inkscape:cy="-0.75872534"
     inkscape:window-width="1400"
     inkscape:window-height="864"
     inkscape:window-x="209"
     inkscape:window-y="25"
     inkscape:window-maximized="0"
     inkscape:current-layer="svg1" />
  <path
     style="font-weight:bold;font-size:13.3333px;font-family:BPreplay;-inkscape-font-specification:'BPreplay Bold';letter-spacing:0px;white-space:pre;fill:#ffffff;stroke-width:2.64567;stroke-linecap:square;stroke-opacity:0.988722;paint-order:markers fill stroke"
     d="m 1.1160657,11.868547 c 0,0.733331 0.3466657,1.079997 1.0666639,1.079997 0.7066649,0 1.066664,-0.346666 1.066664,-1.079997 V 9.3618866 h 1.8533286 c 1.9333285,0 3.4266581,-1.4533297 3.4266581,-3.3733249 0,-2.0266615 -1.466663,-3.4133247 -3.5066579,-3.4133247 H 2.2360628 c -0.7333315,0 -1.1199971,0.3466658 -1.1199971,1.1066639 z M 4.8493896,4.708565 c 0.9733308,0 1.5066628,0.4666655 1.5066628,1.2666634 0,0.7733314 -0.5199987,1.2533302 -1.3066634,1.2533302 H 3.2493936 V 4.708565 Z m 4.6133102,7.199982 c 0,0.706665 0.3333325,1.039997 1.0399972,1.039997 0.693332,0 1.026664,-0.333332 1.026664,-1.039997 V 3.2019021 c 0,-0.6799983 -0.359999,-1.0533306 -1.039997,-1.0533306 -0.6799984,0 -1.0266642,0.3733323 -1.0266642,1.0533306 z M 13.609345,5.5485629 c -0.426665,0.1733329 -0.693331,0.4666654 -0.693331,0.8399978 0,0.6799983 0.479998,0.8399979 0.986664,0.8399979 0.479998,0 0.919997,-0.1733329 1.466663,-0.1733329 0.746664,0 1.626662,0.4799988 1.626662,1.2666635 V 8.9752209 C 16.516004,8.6285551 15.80934,8.4285556 15.089341,8.4285556 c -1.706662,0 -2.706659,1.2533301 -2.706659,2.4533274 0,1.106664 0.866664,2.159994 2.38666,2.159994 0.746665,0 1.546663,-0.306666 2.173328,-0.973331 v 0.253333 c 0.04,0.546665 0.613332,0.719998 0.839998,0.719998 0.653332,0 1.039997,-0.493332 1.039997,-1.026664 V 8.0285566 c 0,-2.0399949 -1.679995,-2.8399928 -3.373325,-2.8399928 -0.613331,0 -1.25333,0.1199997 -1.839995,0.3599991 z m 0.866665,5.0666541 c 0,-0.426666 0.559998,-0.613332 1.119997,-0.613332 0.533332,0 1.119997,0.199999 1.119997,0.546665 0,0.466666 -0.639998,0.706665 -1.239997,0.706665 -0.493332,0 -0.999997,-0.213333 -0.999997,-0.639998 z m 6.306648,3.533324 c -0.05333,0.16 -0.08,0.306666 -0.08,0.479999 0,0.666665 0.32,1.013331 0.986665,1.013331 0.519998,0 0.893331,-0.253333 1.09333,-0.786665 l 2.946659,-8.1733127 c 0.06667,-0.1866662 0.06667,-0.3466658 0.06667,-0.4799988 0,-0.6933315 -0.346666,-1.026664 -1.026664,-1.026664 -0.533332,0 -0.893331,0.2533327 -1.066664,0.7733313 -0.346666,1.0533307 -0.719998,3.1733254 -1.066664,4.2133232 L 21.649323,6.0152283 c -0.16,-0.5199986 -0.546666,-0.8266645 -1.079998,-0.8266645 -0.666665,0 -0.999997,0.3199992 -0.999997,1.026664 0,0.1599996 0.02667,0.3066659 0.09333,0.4799988 0.613332,1.8533287 1.199997,3.8266574 1.826662,5.6933194 z m 8.559975,-2.853326 c -1.039997,0 -1.426663,-0.733331 -2.226661,-0.733331 -0.479998,0 -0.959997,0.279999 -0.959997,0.879997 0,0.319999 0.133333,0.653332 0.413332,0.853331 0.746665,0.453333 1.53333,0.773332 2.54666,0.773332 1.45333,0 3.026659,-0.679998 3.026659,-2.439994 0,-2.1999944 -3.79999,-2.4399938 -3.79999,-3.3599915 0,-0.3599991 0.266666,-0.4799988 0.613332,-0.4799988 0.786664,0 1.319996,0.4399989 2.013328,0.4399989 0.599999,0 0.919998,-0.4533322 0.919998,-0.8933311 0,-0.3199992 -0.173333,-0.6533316 -0.533332,-0.8533311 -0.693332,-0.3599991 -1.439997,-0.4666655 -2.133328,-0.4666655 -1.57333,0 -2.946659,0.7333315 -2.946659,2.3733273 0,2.3066608 3.71999,2.359994 3.71999,3.4266578 0,0.346666 -0.279999,0.479999 -0.653332,0.479999 z m 3.226654,-5.1066538 c 0,0.5999985 0.399999,0.7866647 0.933331,0.8399979 v 3.1999919 c 0,1.759996 0.439999,2.82666 2.346661,2.82666 0.719998,0 1.106664,-0.346666 1.106664,-0.999998 0,-0.666665 -0.386666,-0.999997 -1.106664,-0.999997 -0.253333,0 -0.28,-0.266666 -0.28,-0.826665 V 7.0552257 h 0.599999 c 0.706665,0 1.039997,-0.1866662 1.039997,-0.8533312 0,-0.6933315 -0.359999,-0.8666644 -1.066664,-0.8666644 H 35.569279 V 4.8152314 c 0,-0.666665 -0.346665,-1.0133308 -1.039997,-1.0133308 -0.679998,0 -1.026664,0.3466658 -1.026664,1.0133308 v 0.5199987 c -0.546665,0.066666 -0.933331,0.266666 -0.933331,0.8533311 z m 6.15998,-0.6399983 c -0.426666,0.1733329 -0.693332,0.4666654 -0.693332,0.8399978 0,0.6799983 0.479999,0.8399979 0.986664,0.8399979 0.479999,0 0.919998,-0.1733329 1.466663,-0.1733329 0.746665,0 1.626663,0.4799988 1.626663,1.2666635 V 8.9752209 C 41.635926,8.6285551 40.929261,8.4285556 40.209263,8.4285556 c -1.706662,0 -2.70666,1.2533301 -2.70666,2.4533274 0,1.106664 0.866665,2.159994 2.386661,2.159994 0.746665,0 1.546663,-0.306666 2.173328,-0.973331 v 0.253333 c 0.04,0.546665 0.613331,0.719998 0.839998,0.719998 0.653331,0 1.039997,-0.493332 1.039997,-1.026664 V 8.0285566 c 0,-2.0399949 -1.679996,-2.8399928 -3.373325,-2.8399928 -0.613332,0 -1.25333,0.1199997 -1.839995,0.3599991 z m 0.866664,5.0666541 c 0,-0.426666 0.559999,-0.613332 1.119997,-0.613332 0.533332,0 1.119998,0.199999 1.119998,0.546665 0,0.466666 -0.639999,0.706665 -1.239997,0.706665 -0.493332,0 -0.999998,-0.213333 -0.999998,-0.639998 z m 4.973322,-4.4266558 c 0,0.5999985 0.399999,0.7866647 0.933331,0.8399979 v 3.1999919 c 0,1.759996 0.439999,2.82666 2.34666,2.82666 0.719999,0 1.106664,-0.346666 1.106664,-0.999998 0,-0.666665 -0.386665,-0.999997 -1.106664,-0.999997 -0.253332,0 -0.279999,-0.266666 -0.279999,-0.826665 V 7.0552257 h 0.599999 c 0.706664,0 1.039997,-0.1866662 1.039997,-0.8533312 0,-0.6933315 -0.359999,-0.8666644 -1.066664,-0.8666644 H 47.569245 V 4.8152314 c 0,-0.666665 -0.346666,-1.0133308 -1.039997,-1.0133308 -0.679999,0 -1.026664,0.3466658 -1.026664,1.0133308 v 0.5199987 c -0.546666,0.066666 -0.933331,0.266666 -0.933331,0.8533311 z m 5.386644,5.7199858 c 0,0.706665 0.359999,1.039997 1.039998,1.039997 0.693331,0 1.039997,-0.333332 1.039997,-1.039997 V 6.3218942 c 0,-0.6933315 -0.373332,-1.026664 -1.053331,-1.026664 -0.666665,0 -1.026664,0.3333325 -1.026664,1.026664 z M 49.769231,3.3085685 c 0,0.666665 0.533332,1.1866637 1.186664,1.1866637 0.679998,0 1.199997,-0.5199987 1.199997,-1.1866637 0,-0.666665 -0.519999,-1.1866636 -1.199997,-1.1866636 -0.653332,0 -1.186664,0.5199986 -1.186664,1.1866636 z m 6.706663,1.7999955 c -2.279995,0 -3.466658,1.8399953 -3.466658,3.9066568 0,2.0799952 1.186663,4.0533232 3.466658,4.0533232 2.253327,0 3.466658,-1.866662 3.466658,-3.9733234 0,-2.0533282 -1.199997,-3.9866566 -3.466658,-3.9866566 z m 0,1.8933285 c 0.946664,0 1.359996,1.2399969 1.359996,2.1733279 0,0.9466646 -0.413332,2.0266616 -1.359996,2.0266616 -0.946665,0 -1.359997,-1.3199968 -1.359997,-2.2533277 0,-0.9599976 0.413332,-1.9466618 1.359997,-1.9466618 z m 4.439983,4.9199875 c 0,0.679998 0.333333,1.026664 0.999998,1.026664 0.706665,0 1.039997,-0.346666 1.039997,-1.026664 V 8.2018895 c 0,-0.7866647 0.519999,-1.1866637 1.053331,-1.1866637 0.479999,0 0.986664,0.3866657 0.986664,1.1866637 V 11.92188 c 0,0.679998 0.359999,1.026664 1.026664,1.026664 0.693332,0 1.039997,-0.346666 1.039997,-1.026664 V 7.8285571 c 0,-1.9599951 -1.226663,-2.6399933 -2.253327,-2.6399933 -0.799998,0 -1.386663,0.4266656 -1.853329,0.9599975 0,-0.4133322 -0.333332,-0.9199976 -1.039997,-0.9199976 -0.666665,0 -0.999998,0.5066654 -0.999998,1.0666639 z m 10.333322,-0.05333 c 0,0.733331 0.346665,1.079997 1.066664,1.079997 0.706664,0 1.066664,-0.346666 1.066664,-1.079997 V 9.3618866 h 1.853328 c 1.933329,0 3.426658,-1.4533297 3.426658,-3.3733249 0,-2.0266615 -1.466663,-3.4133247 -3.506658,-3.4133247 h -2.786659 c -0.733332,0 -1.119997,0.3466658 -1.119997,1.1066639 z m 3.733323,-7.159982 c 0.973331,0 1.506663,0.4666655 1.506663,1.2666634 0,0.7733314 -0.519998,1.2533302 -1.306663,1.2533302 H 73.382527 V 4.708565 Z m 7.506639,0.399999 c -2.279994,0 -3.466658,1.8399953 -3.466658,3.9066568 0,2.0799952 1.186664,4.0533232 3.466658,4.0533232 2.253328,0 3.466658,-1.866662 3.466658,-3.9733234 0,-2.0533282 -1.199997,-3.9866566 -3.466658,-3.9866566 z m 0,1.8933285 c 0.946665,0 1.359997,1.2399969 1.359997,2.1733279 0,0.9466646 -0.413332,2.0266616 -1.359997,2.0266616 -0.946664,0 -1.359996,-1.3199968 -1.359996,-2.2533277 0,-0.9599976 0.413332,-1.9466618 1.359996,-1.9466618 z m 4.439984,4.9199875 c 0,0.679998 0.346666,1.026664 1.026664,1.026664 0.706665,0 1.026664,-0.346666 1.026664,-1.026664 V 8.2018895 c 0,-0.5866652 0.586665,-0.9999975 1.093331,-0.9999975 0.133333,0 0.213332,0.026667 0.306665,0.04 0.133333,0.026667 0.306666,0.04 0.493332,0.04 0.613332,0 1.053331,-0.4933321 1.053331,-1.0399974 0,-0.5466652 -0.399999,-1.1333304 -1.466663,-1.1333304 -0.559998,0 -1.426663,0.5466653 -1.653329,0.9866641 -0.02667,-0.626665 -0.439999,-0.8799977 -0.853331,-0.8799977 -0.679998,0 -1.026664,0.3466658 -1.026664,1.0666639 z m 5.119997,-5.7333188 c 0,0.5999985 0.399999,0.7866647 0.933331,0.8399979 v 3.1999919 c 0,1.759996 0.439998,2.82666 2.34666,2.82666 0.719999,0 1.106664,-0.346666 1.106664,-0.999998 0,-0.666665 -0.386665,-0.999997 -1.106664,-0.999997 -0.253332,0 -0.279999,-0.266666 -0.279999,-0.826665 V 7.0552257 h 0.599999 c 0.706664,0 1.039997,-0.1866662 1.039997,-0.8533312 0,-0.6933315 -0.359999,-0.8666644 -1.066664,-0.8666644 H 95.049134 V 4.8152314 c 0,-0.666665 -0.346666,-1.0133308 -1.039997,-1.0133308 -0.679999,0 -1.026664,0.3466658 -1.026664,1.0133308 v 0.5199987 c -0.546666,0.066666 -0.933331,0.266666 -0.933331,0.8533311 z m 6.159979,-0.6399983 c -0.426665,0.1733329 -0.693331,0.4666654 -0.693331,0.8399978 0,0.6799983 0.479999,0.8399979 0.986664,0.8399979 0.479999,0 0.919998,-0.1733329 1.466663,-0.1733329 0.746663,0 1.626663,0.4799988 1.626663,1.2666635 v 0.6533317 c -0.48,-0.3466658 -1.18666,-0.5466653 -1.906662,-0.5466653 -1.706663,0 -2.70666,1.2533301 -2.70666,2.4533274 0,1.106664 0.866664,2.159994 2.38666,2.159994 0.746662,0 1.546662,-0.306666 2.173332,-0.973331 v 0.253333 c 0.04,0.546665 0.61333,0.719998 0.83999,0.719998 0.65334,0 1.04,-0.493332 1.04,-1.026664 V 8.0285566 c 0,-2.0399949 -1.67999,-2.8399928 -3.37332,-2.8399928 -0.613335,0 -1.253333,0.1199997 -1.839999,0.3599991 z m 0.866665,5.0666541 c 0,-0.426666 0.559998,-0.613332 1.119994,-0.613332 0.53334,0 1.12,0.199999 1.12,0.546665 0,0.466666 -0.64,0.706665 -1.24,0.706665 -0.493329,0 -0.999994,-0.213333 -0.999994,-0.639998 z m 5.613324,1.386663 c 0,0.706665 0.33333,1.066664 1,1.066664 0.27999,0 0.86666,-0.226666 0.86666,-0.813331 v -0.426666 c 0.34667,0.839998 1.16,1.25333 1.85333,1.25333 1.47999,0 3.05332,-1.826662 3.05332,-4.013323 0,-2.6133268 -1.39999,-3.9733233 -2.71999,-3.9733233 -0.77333,0 -1.42666,0.2799993 -1.99999,1.0799972 V 3.0952357 c 0,-0.6933316 -0.33334,-1.0533306 -1.04,-1.0533306 -0.69333,0 -1.01333,0.359999 -1.01333,1.0533306 z m 3.47999,-0.933331 c -0.96,0 -1.38666,-1.026664 -1.38666,-2.0266616 0,-0.9466643 0.42666,-2.0399949 1.38666,-2.0399949 0.88,0 1.18666,1.1733304 1.18666,2.0933281 0,0.9333314 -0.30666,1.9733284 -1.18666,1.9733284 z m 4.30665,0.839998 c 0,0.706665 0.33333,1.039997 1.03999,1.039997 0.69334,0 1.02667,-0.333332 1.02667,-1.039997 V 3.2019021 c 0,-0.6799983 -0.36,-1.0533306 -1.04,-1.0533306 -0.68,0 -1.02666,0.3733323 -1.02666,1.0533306 z m 6.51997,-6.8399829 c -2.22666,0 -3.45333,1.9333284 -3.45333,3.95999 0,2.1999949 1.30667,4.0666559 3.65333,4.0666559 1.22666,0 2.21333,-0.453332 2.87999,-1.279996 0.17333,-0.186667 0.22667,-0.373333 0.22667,-0.613332 0,-0.613332 -0.33334,-0.879998 -0.76,-0.879998 -0.70667,0 -1.13333,0.826665 -2.16,0.826665 -0.57333,0 -1.75999,-0.413333 -1.75999,-1.6133296 h 3.05332 c 1.02667,0 1.65333,0 1.65333,-1.026664 0,-2.0666615 -1.18666,-3.4399913 -3.33332,-3.4399913 z m -1.26667,3.0799922 c 0,-0.8266646 0.68,-1.2666635 1.29333,-1.2666635 0.58667,0 1.17333,0.4133323 1.17333,1.2666635 z m 12.15998,-4.3466557 c -0.25333,-0.8133313 -0.78666,-1.2666635 -1.46666,-1.2666635 -0.76,0 -1.22666,0.4933321 -1.38666,1.4399964 l -1.22667,7.6266475 c -0.0133,0.106666 -0.0133,0.199999 -0.0133,0.293332 0,0.706665 0.4,1.039998 1.04,1.039998 0.69333,0 0.98666,-0.386666 1.09333,-1.039998 l 0.85333,-5.0666534 1.41333,5.1599874 c 0.18667,0.653331 0.58666,0.959997 1.10666,0.959997 0.46667,0 0.89333,-0.319999 1.09333,-0.959997 0.52,-1.61333 1.02667,-3.5066582 1.56,-5.1333208 l 0.68,5.0533208 c 0.0933,0.693331 0.42666,1.026664 1.12,1.026664 0.59999,0 1.05333,-0.399999 1.05333,-1.066664 0,-0.01333 -0.0133,-0.02667 -0.0133,-0.04 v -0.05333 l -1.14666,-7.7866472 c -0.13333,-0.933331 -0.62667,-1.4266631 -1.37333,-1.4266631 -0.69333,0 -1.22666,0.4133323 -1.48,1.2266636 l -1.46666,4.7866546 z m 7.93331,8.1066464 c 0,0.706665 0.36,1.039997 1.04,1.039997 0.69333,0 1.04,-0.333332 1.04,-1.039997 V 6.3218942 c 0,-0.6933315 -0.37334,-1.026664 -1.05334,-1.026664 -0.66666,0 -1.02666,0.3333325 -1.02666,1.026664 z m -0.18667,-8.5999785 c 0,0.666665 0.53334,1.1866637 1.18667,1.1866637 0.68,0 1.2,-0.5199987 1.2,-1.1866637 0,-0.666665 -0.52,-1.1866636 -1.2,-1.1866636 -0.65333,0 -1.18667,0.5199986 -1.18667,1.1866636 z m 3.54667,8.6133115 c 0,0.679998 0.33333,1.026664 1,1.026664 0.70666,0 1.04,-0.346666 1.04,-1.026664 V 8.2018895 c 0,-0.7866647 0.52,-1.1866637 1.05333,-1.1866637 0.48,0 0.98666,0.3866657 0.98666,1.1866637 V 11.92188 c 0,0.679998 0.36,1.026664 1.02667,1.026664 0.69333,0 1.03999,-0.346666 1.03999,-1.026664 V 7.8285571 c 0,-1.9599951 -1.22666,-2.6399933 -2.25332,-2.6399933 -0.8,0 -1.38667,0.4266656 -1.85333,0.9599975 0,-0.4133322 -0.33334,-0.9199976 -1.04,-0.9199976 -0.66667,0 -1,0.5066654 -1,1.0666639 z m 7.4,-0.01333 c 0,0.706665 0.35999,1.039997 1.03999,1.039997 0.69333,0 1.04,-0.333332 1.04,-1.039997 V 6.3218942 c 0,-0.6933315 -0.37333,-1.026664 -1.05333,-1.026664 -0.66667,0 -1.02666,0.3333325 -1.02666,1.026664 z m -0.18667,-8.5999785 c 0,0.666665 0.53333,1.1866637 1.18666,1.1866637 0.68,0 1.2,-0.5199987 1.2,-1.1866637 0,-0.666665 -0.52,-1.1866636 -1.2,-1.1866636 -0.65333,0 -1.18666,0.5199986 -1.18666,1.1866636 z m 6.38666,7.9866465 c -1.04,0 -1.42666,-0.733331 -2.22666,-0.733331 -0.48,0 -0.96,0.279999 -0.96,0.879997 0,0.319999 0.13333,0.653332 0.41333,0.853331 0.74667,0.453333 1.53333,0.773332 2.54666,0.773332 1.45333,0 3.02666,-0.679998 3.02666,-2.439994 0,-2.1999944 -3.79999,-2.4399938 -3.79999,-3.3599915 0,-0.3599991 0.26667,-0.4799988 0.61333,-0.4799988 0.78667,0 1.32,0.4399989 2.01333,0.4399989 0.6,0 0.92,-0.4533322 0.92,-0.8933311 0,-0.3199992 -0.17333,-0.6533316 -0.53333,-0.8533311 -0.69333,-0.3599991 -1.44,-0.4666655 -2.13333,-0.4666655 -1.57333,0 -2.94666,0.7333315 -2.94666,2.3733273 0,2.3066608 3.71999,2.359994 3.71999,3.4266578 0,0.346666 -0.28,0.479999 -0.65333,0.479999 z"
     id="text2"
     aria-label="Playstation Portable Minis" />
</svg>
