<?xml version="1.0" encoding="UTF-8" standalone="no"?>
<svg
   viewBox="0 0 200 40"
   version="1.1"
   id="svg1"
   sodipodi:docname="psx.svg"
   inkscape:version="1.3.2 (091e20e, 2023-11-25)"
   xmlns:inkscape="http://www.inkscape.org/namespaces/inkscape"
   xmlns:sodipodi="http://sodipodi.sourceforge.net/DTD/sodipodi-0.dtd"
   xmlns="http://www.w3.org/2000/svg"
   xmlns:svg="http://www.w3.org/2000/svg">
  <defs
     id="defs1">
    <rect
       x="0.30349014"
       y="0.60698027"
       width="199.08953"
       height="38.846737"
       id="rect3" />
    <rect
       x="0.60698027"
       y="0.60698027"
       width="198.78604"
       height="39.150228"
       id="rect2" />
    <rect
       x="0.91047041"
       y="0.60698027"
       width="198.17906"
       height="38.846737"
       id="rect1" />
  </defs>
  <sodipodi:namedview
     id="namedview1"
     pagecolor="#020202"
     bordercolor="#000000"
     borderopacity="0.25"
     inkscape:showpageshadow="2"
     inkscape:pageopacity="0.0"
     inkscape:pagecheckerboard="0"
     inkscape:deskcolor="#d1d1d1"
     inkscape:zoom="3.295"
     inkscape:cx="101.36571"
     inkscape:cy="-0.75872534"
     inkscape:window-width="1400"
     inkscape:window-height="864"
     inkscape:window-x="209"
     inkscape:window-y="25"
     inkscape:window-maximized="0"
     inkscape:current-layer="svg1" />
  <path
     style="font-weight:bold;font-size:13.3333px;font-family:BPreplay;-inkscape-font-specification:'BPreplay Bold';letter-spacing:0px;white-space:pre;fill:#ffffff;stroke-width:2.64567;stroke-linecap:square;stroke-opacity:0.988722;paint-order:markers fill stroke"
     d="m 1.1160657,11.868547 c 0,0.733331 0.3466657,1.079997 1.0666639,1.079997 0.7066649,0 1.066664,-0.346666 1.066664,-1.079997 V 9.3618866 h 1.8533286 c 1.9333285,0 3.4266581,-1.4533297 3.4266581,-3.3733249 0,-2.0266615 -1.466663,-3.4133247 -3.5066579,-3.4133247 H 2.2360628 c -0.7333315,0 -1.1199971,0.3466658 -1.1199971,1.1066639 z M 4.8493896,4.708565 c 0.9733308,0 1.5066628,0.4666655 1.5066628,1.2666634 0,0.7733314 -0.5199987,1.2533302 -1.3066634,1.2533302 H 3.2493936 V 4.708565 Z m 4.6133102,7.199982 c 0,0.706665 0.3333325,1.039997 1.0399972,1.039997 0.693332,0 1.026664,-0.333332 1.026664,-1.039997 V 3.2019021 c 0,-0.6799983 -0.359999,-1.0533306 -1.039997,-1.0533306 -0.6799984,0 -1.0266642,0.3733323 -1.0266642,1.0533306 z M 13.609345,5.5485629 c -0.426665,0.1733329 -0.693331,0.4666654 -0.693331,0.8399978 0,0.6799983 0.479998,0.8399979 0.986664,0.8399979 0.479998,0 0.919997,-0.1733329 1.466663,-0.1733329 0.746664,0 1.626662,0.4799988 1.626662,1.2666635 V 8.9752209 C 16.516004,8.6285551 15.80934,8.4285556 15.089341,8.4285556 c -1.706662,0 -2.706659,1.2533301 -2.706659,2.4533274 0,1.106664 0.866664,2.159994 2.38666,2.159994 0.746665,0 1.546663,-0.306666 2.173328,-0.973331 v 0.253333 c 0.04,0.546665 0.613332,0.719998 0.839998,0.719998 0.653332,0 1.039997,-0.493332 1.039997,-1.026664 V 8.0285566 c 0,-2.0399949 -1.679995,-2.8399928 -3.373325,-2.8399928 -0.613331,0 -1.25333,0.1199997 -1.839995,0.3599991 z m 0.866665,5.0666541 c 0,-0.426666 0.559998,-0.613332 1.119997,-0.613332 0.533332,0 1.119997,0.199999 1.119997,0.546665 0,0.466666 -0.639998,0.706665 -1.239997,0.706665 -0.493332,0 -0.999997,-0.213333 -0.999997,-0.639998 z m 6.306648,3.533324 c -0.05333,0.16 -0.08,0.306666 -0.08,0.479999 0,0.666665 0.32,1.013331 0.986665,1.013331 0.519998,0 0.893331,-0.253333 1.09333,-0.786665 l 2.946659,-8.1733127 c 0.06667,-0.1866662 0.06667,-0.3466658 0.06667,-0.4799988 0,-0.6933315 -0.346666,-1.026664 -1.026664,-1.026664 -0.533332,0 -0.893331,0.2533327 -1.066664,0.7733313 -0.346666,1.0533307 -0.719998,3.1733254 -1.066664,4.2133232 L 21.649323,6.0152283 c -0.16,-0.5199986 -0.546666,-0.8266645 -1.079998,-0.8266645 -0.666665,0 -0.999997,0.3199992 -0.999997,1.026664 0,0.1599996 0.02667,0.3066659 0.09333,0.4799988 0.613332,1.8533287 1.199997,3.8266574 1.826662,5.6933194 z m 9.786645,-9.2666431 c 0.239999,0.1999995 0.506665,0.3333325 0.839998,0.3333325 0.613332,0 1.05333,-0.5733319 1.05333,-1.1199972 0,-0.4133323 -0.213332,-0.7599981 -0.599998,-1.0399974 -0.666665,-0.5066654 -1.479996,-0.7733314 -2.319994,-0.7733314 -1.893329,0 -3.146659,1.5333295 -3.146659,3.0266591 0,1.7999954 1.599996,2.5599935 2.946659,3.1866586 1.066664,0.4933321 1.426663,0.799998 1.426663,1.2533301 0,0.7599978 -0.639998,1.1466638 -1.373329,1.1466638 -0.426666,0 -0.893332,-0.146666 -1.253331,-0.373332 -0.253332,-0.146667 -0.519998,-0.226666 -0.786664,-0.226666 -0.693332,0 -1.039998,0.319999 -1.039998,1.026664 0,0.439998 0.2,0.786664 0.613332,1.05333 0.733332,0.479999 1.559996,0.733332 2.466661,0.733332 2.053328,0 3.63999,-1.279997 3.63999,-3.4399916 0,-1.6399958 -1.146663,-2.3733273 -2.759993,-3.159992 -0.826664,-0.399999 -1.639996,-0.5999985 -1.639996,-1.2533301 0,-0.5866652 0.346666,-0.7599981 0.893332,-0.7599981 0.386665,0 0.719998,0.1466663 1.039997,0.3866657 z m 2.693317,1.3066633 c 0,0.5999985 0.399999,0.7866647 0.933331,0.8399979 v 3.1999919 c 0,1.759996 0.439999,2.82666 2.34666,2.82666 0.719999,0 1.106664,-0.346666 1.106664,-0.999998 0,-0.666665 -0.386665,-0.999997 -1.106664,-0.999997 -0.253332,0 -0.279999,-0.266666 -0.279999,-0.826665 V 7.0552257 h 0.599999 c 0.706664,0 1.039997,-0.1866662 1.039997,-0.8533312 0,-0.6933315 -0.359999,-0.8666644 -1.066664,-0.8666644 H 36.262612 V 4.8152314 c 0,-0.666665 -0.346666,-1.0133308 -1.039997,-1.0133308 -0.679999,0 -1.026664,0.3466658 -1.026664,1.0133308 v 0.5199987 c -0.546666,0.066666 -0.933331,0.266666 -0.933331,0.8533311 z m 6.159979,-0.6399983 c -0.426665,0.1733329 -0.693331,0.4666654 -0.693331,0.8399978 0,0.6799983 0.479999,0.8399979 0.986664,0.8399979 0.479999,0 0.919998,-0.1733329 1.466663,-0.1733329 0.746665,0 1.626663,0.4799988 1.626663,1.2666635 V 8.9752209 C 42.329259,8.6285551 41.622594,8.4285556 40.902596,8.4285556 c -1.706663,0 -2.70666,1.2533301 -2.70666,2.4533274 0,1.106664 0.866664,2.159994 2.386661,2.159994 0.746664,0 1.546662,-0.306666 2.173327,-0.973331 v 0.253333 c 0.04,0.546665 0.613332,0.719998 0.839998,0.719998 0.653332,0 1.039998,-0.493332 1.039998,-1.026664 V 8.0285566 c 0,-2.0399949 -1.679996,-2.8399928 -3.373325,-2.8399928 -0.613332,0 -1.25333,0.1199997 -1.839996,0.3599991 z m 0.866665,5.0666541 c 0,-0.426666 0.559999,-0.613332 1.119997,-0.613332 0.533332,0 1.119997,0.199999 1.119997,0.546665 0,0.466666 -0.639998,0.706665 -1.239997,0.706665 -0.493332,0 -0.999997,-0.213333 -0.999997,-0.639998 z m 4.973321,-4.4266558 c 0,0.5999985 0.399999,0.7866647 0.933331,0.8399979 v 3.1999919 c 0,1.759996 0.439999,2.82666 2.346661,2.82666 0.719998,0 1.106664,-0.346666 1.106664,-0.999998 0,-0.666665 -0.386666,-0.999997 -1.106664,-0.999997 -0.253333,0 -0.279999,-0.266666 -0.279999,-0.826665 V 7.0552257 h 0.599998 c 0.706665,0 1.039998,-0.1866662 1.039998,-0.8533312 0,-0.6933315 -0.359999,-0.8666644 -1.066664,-0.8666644 H 48.262578 V 4.8152314 c 0,-0.666665 -0.346666,-1.0133308 -1.039998,-1.0133308 -0.679998,0 -1.026664,0.3466658 -1.026664,1.0133308 v 0.5199987 c -0.546665,0.066666 -0.933331,0.266666 -0.933331,0.8533311 z m 5.386645,5.7199858 c 0,0.706665 0.359999,1.039997 1.039997,1.039997 0.693332,0 1.039998,-0.333332 1.039998,-1.039997 V 6.3218942 c 0,-0.6933315 -0.373333,-1.026664 -1.053331,-1.026664 -0.666665,0 -1.026664,0.3333325 -1.026664,1.026664 z M 50.462564,3.3085685 c 0,0.666665 0.533332,1.1866637 1.186663,1.1866637 0.679999,0 1.199997,-0.5199987 1.199997,-1.1866637 0,-0.666665 -0.519998,-1.1866636 -1.199997,-1.1866636 -0.653331,0 -1.186663,0.5199986 -1.186663,1.1866636 z m 6.706662,1.7999955 c -2.279994,0 -3.466658,1.8399953 -3.466658,3.9066568 0,2.0799952 1.186664,4.0533232 3.466658,4.0533232 2.253328,0 3.466658,-1.866662 3.466658,-3.9733234 0,-2.0533282 -1.199997,-3.9866566 -3.466658,-3.9866566 z m 0,1.8933285 c 0.946665,0 1.359997,1.2399969 1.359997,2.1733279 0,0.9466646 -0.413332,2.0266616 -1.359997,2.0266616 -0.946664,0 -1.359996,-1.3199968 -1.359996,-2.2533277 0,-0.9599976 0.413332,-1.9466618 1.359996,-1.9466618 z M 61.60921,11.92188 c 0,0.679998 0.333332,1.026664 0.999997,1.026664 0.706665,0 1.039998,-0.346666 1.039998,-1.026664 V 8.2018895 c 0,-0.7866647 0.519998,-1.1866637 1.05333,-1.1866637 0.479999,0 0.986665,0.3866657 0.986665,1.1866637 V 11.92188 c 0,0.679998 0.359999,1.026664 1.026664,1.026664 0.693331,0 1.039997,-0.346666 1.039997,-1.026664 V 7.8285571 c 0,-1.9599951 -1.226663,-2.6399933 -2.253328,-2.6399933 -0.799998,0 -1.386663,0.4266656 -1.853328,0.9599975 0,-0.4133322 -0.333333,-0.9199976 -1.039998,-0.9199976 -0.666665,0 -0.999997,0.5066654 -0.999997,1.0666639 z"
     id="text2"
     aria-label="PlayStation" />
</svg>
