<?xml version="1.0" encoding="UTF-8" standalone="no"?>
<svg
   viewBox="0 0 200 40"
   version="1.1"
   id="svg1"
   sodipodi:docname="satellaview.svg"
   inkscape:version="1.3.2 (091e20e, 2023-11-25)"
   xmlns:inkscape="http://www.inkscape.org/namespaces/inkscape"
   xmlns:sodipodi="http://sodipodi.sourceforge.net/DTD/sodipodi-0.dtd"
   xmlns="http://www.w3.org/2000/svg"
   xmlns:svg="http://www.w3.org/2000/svg">
  <defs
     id="defs1">
    <rect
       x="0.30349014"
       y="0.60698027"
       width="199.08953"
       height="38.846737"
       id="rect3" />
    <rect
       x="0.60698027"
       y="0.60698027"
       width="198.78604"
       height="39.150228"
       id="rect2" />
    <rect
       x="0.91047041"
       y="0.60698027"
       width="198.17906"
       height="38.846737"
       id="rect1" />
  </defs>
  <sodipodi:namedview
     id="namedview1"
     pagecolor="#020202"
     bordercolor="#000000"
     borderopacity="0.25"
     inkscape:showpageshadow="2"
     inkscape:pageopacity="0.0"
     inkscape:pagecheckerboard="0"
     inkscape:deskcolor="#d1d1d1"
     inkscape:zoom="3.295"
     inkscape:cx="101.36571"
     inkscape:cy="-0.75872534"
     inkscape:window-width="1400"
     inkscape:window-height="864"
     inkscape:window-x="209"
     inkscape:window-y="25"
     inkscape:window-maximized="0"
     inkscape:current-layer="svg1" />
  <path
     style="font-weight:bold;font-size:13.3333px;font-family:BPreplay;-inkscape-font-specification:'BPreplay Bold';letter-spacing:0px;white-space:pre;fill:#ffffff;stroke-width:2.64567;stroke-linecap:square;stroke-opacity:0.988722;paint-order:markers fill stroke"
     d="m 4.9293893,4.8818979 c 0.2399994,0.1999995 0.5066654,0.3333325 0.8399979,0.3333325 0.6133318,0 1.0533307,-0.5733319 1.0533307,-1.1199972 0,-0.4133323 -0.2133328,-0.7599981 -0.5999985,-1.0399974 C 5.5560544,2.5485704 4.7427232,2.2819044 3.9027253,2.2819044 c -1.8933286,0 -3.14665874,1.5333295 -3.14665874,3.0266591 0,1.7999954 1.59999594,2.5599935 2.94665924,3.1866586 1.066664,0.4933321 1.426663,0.799998 1.426663,1.2533301 0,0.7599978 -0.6399983,1.1466638 -1.3733298,1.1466638 -0.4266656,0 -0.8933311,-0.146666 -1.2533302,-0.373332 -0.2533327,-0.146667 -0.5199987,-0.226666 -0.7866647,-0.226666 -0.6933315,0 -1.03999734,0.319999 -1.03999734,1.026664 0,0.439998 0.1999995,0.786664 0.61333174,1.05333 0.7333315,0.479999 1.5599961,0.733332 2.4666605,0.733332 2.0533281,0 3.6399908,-1.279997 3.6399908,-3.4399916 0,-1.6399958 -1.1466638,-2.3733273 -2.759993,-3.159992 C 3.8093922,6.1085614 2.9960609,5.9085619 2.9960609,5.2552303 c 0,-0.5866652 0.3466658,-0.7599981 0.8933311,-0.7599981 0.3866657,0 0.7199982,0.1466663 1.0399973,0.3866657 z m 4.1466569,0.666665 C 8.6493806,5.7218958 8.3827146,6.0152283 8.3827146,6.3885607 c 0,0.6799983 0.4799988,0.8399979 0.9866641,0.8399979 0.4799988,0 0.9199973,-0.1733329 1.4666633,-0.1733329 0.746664,0 1.626662,0.4799988 1.626662,1.2666635 V 8.9752209 C 11.982705,8.6285551 11.276041,8.4285556 10.556042,8.4285556 c -1.7066619,0 -2.7066594,1.2533301 -2.7066594,2.4533274 0,1.106664 0.8666645,2.159994 2.3866604,2.159994 0.746665,0 1.546663,-0.306666 2.173328,-0.973331 v 0.253333 c 0.04,0.546665 0.613332,0.719998 0.839998,0.719998 0.653332,0 1.039997,-0.493332 1.039997,-1.026664 V 8.0285566 c 0,-2.0399949 -1.679995,-2.8399928 -3.373324,-2.8399928 -0.613332,0 -1.2533307,0.1199997 -1.8399958,0.3599991 z m 0.8666644,5.0666541 c 0,-0.426666 0.5599984,-0.613332 1.1199974,-0.613332 0.533332,0 1.119997,0.199999 1.119997,0.546665 0,0.466666 -0.639998,0.706665 -1.239997,0.706665 -0.493332,0 -0.9999974,-0.213333 -0.9999974,-0.639998 z M 14.916033,6.1885612 c 0,0.5999985 0.399999,0.7866647 0.933331,0.8399979 v 3.1999919 c 0,1.759996 0.439999,2.82666 2.346661,2.82666 0.719998,0 1.106664,-0.346666 1.106664,-0.999998 0,-0.666665 -0.386666,-0.999997 -1.106664,-0.999997 -0.253333,0 -0.279999,-0.266666 -0.279999,-0.826665 V 7.0552257 h 0.599998 c 0.706665,0 1.039998,-0.1866662 1.039998,-0.8533312 0,-0.6933315 -0.359999,-0.8666644 -1.066664,-0.8666644 H 17.916026 V 4.8152314 c 0,-0.666665 -0.346666,-1.0133308 -1.039997,-1.0133308 -0.679999,0 -1.026665,0.3466658 -1.026665,1.0133308 v 0.5199987 c -0.546665,0.066666 -0.933331,0.266666 -0.933331,0.8533311 z M 23.34268,5.0685641 c -2.226661,0 -3.453325,1.9333284 -3.453325,3.95999 0,2.1999949 1.306663,4.0666559 3.653324,4.0666559 1.226664,0 2.213328,-0.453332 2.879993,-1.279996 0.173333,-0.186667 0.226666,-0.373333 0.226666,-0.613332 0,-0.613332 -0.333332,-0.879998 -0.759998,-0.879998 -0.706665,0 -1.13333,0.826665 -2.159995,0.826665 -0.573331,0 -1.759995,-0.413333 -1.759995,-1.6133296 h 3.053325 c 1.026665,0 1.65333,0 1.65333,-1.026664 0,-2.0666615 -1.186664,-3.4399913 -3.333325,-3.4399913 z m -1.266664,3.0799922 c 0,-0.8266646 0.679999,-1.2666635 1.29333,-1.2666635 0.586666,0 1.173331,0.4133323 1.173331,1.2666635 z m 5.599985,3.7599907 c 0,0.706665 0.333333,1.039997 1.039998,1.039997 0.693331,0 1.026664,-0.333332 1.026664,-1.039997 V 3.2019021 c 0,-0.6799983 -0.359999,-1.0533306 -1.039997,-1.0533306 -0.679999,0 -1.026665,0.3733323 -1.026665,1.0533306 z m 3.399981,0 c 0,0.706665 0.333332,1.039997 1.039997,1.039997 0.693332,0 1.026664,-0.333332 1.026664,-1.039997 V 3.2019021 c 0,-0.6799983 -0.359999,-1.0533306 -1.039997,-1.0533306 -0.679998,0 -1.026664,0.3733323 -1.026664,1.0533306 z m 4.146643,-6.3599841 c -0.426665,0.1733329 -0.693331,0.4666654 -0.693331,0.8399978 0,0.6799983 0.479999,0.8399979 0.986664,0.8399979 0.479999,0 0.919998,-0.1733329 1.466663,-0.1733329 0.746665,0 1.626663,0.4799988 1.626663,1.2666635 V 8.9752209 C 38.129285,8.6285551 37.42262,8.4285556 36.702622,8.4285556 c -1.706663,0 -2.70666,1.2533301 -2.70666,2.4533274 0,1.106664 0.866664,2.159994 2.38666,2.159994 0.746665,0 1.546663,-0.306666 2.173328,-0.973331 v 0.253333 c 0.04,0.546665 0.613332,0.719998 0.839998,0.719998 0.653332,0 1.039998,-0.493332 1.039998,-1.026664 V 8.0285566 c 0,-2.0399949 -1.679996,-2.8399928 -3.373325,-2.8399928 -0.613332,0 -1.25333,0.1199997 -1.839996,0.3599991 z m 0.866665,5.0666541 c 0,-0.426666 0.559998,-0.613332 1.119997,-0.613332 0.533332,0 1.119997,0.199999 1.119997,0.546665 0,0.466666 -0.639998,0.706665 -1.239997,0.706665 -0.493332,0 -0.999997,-0.213333 -0.999997,-0.639998 z M 43.209277,6.1085614 C 43.049278,5.508563 42.702612,5.1618972 42.12928,5.1618972 c -0.573332,0 -1.026664,0.3866657 -1.026664,1.0133307 0,0.1066664 0.02667,0.2533327 0.06667,0.3866657 l 1.893328,5.6399854 c 0.173333,0.493332 0.506665,0.746665 1.026664,0.746665 0.546665,0 0.906665,-0.253333 1.079997,-0.746665 l 1.919996,-5.6133188 c 0.06667,-0.133333 0.08,-0.2933326 0.08,-0.4133323 0,-0.6666649 -0.399999,-1.0133307 -0.999997,-1.0133307 -0.506665,0 -0.866665,0.2933326 -1.093331,0.9066643 l -0.919997,3.6399908 z m 4.759983,5.7999856 c 0,0.706665 0.359999,1.039997 1.039998,1.039997 0.693331,0 1.039997,-0.333332 1.039997,-1.039997 V 6.3218942 c 0,-0.6933315 -0.373332,-1.026664 -1.053331,-1.026664 -0.666665,0 -1.026664,0.3333325 -1.026664,1.026664 z M 47.782594,3.3085685 c 0,0.666665 0.533332,1.1866637 1.186664,1.1866637 0.679998,0 1.199997,-0.5199987 1.199997,-1.1866637 0,-0.666665 -0.519999,-1.1866636 -1.199997,-1.1866636 -0.653332,0 -1.186664,0.5199986 -1.186664,1.1866636 z m 6.693329,1.7599956 c -2.226661,0 -3.453324,1.9333284 -3.453324,3.95999 0,2.1999949 1.306663,4.0666559 3.653324,4.0666559 1.226663,0 2.213328,-0.453332 2.879993,-1.279996 0.173332,-0.186667 0.226666,-0.373333 0.226666,-0.613332 0,-0.613332 -0.333333,-0.879998 -0.759998,-0.879998 -0.706665,0 -1.133331,0.826665 -2.159995,0.826665 -0.573332,0 -1.759996,-0.413333 -1.759996,-1.6133296 h 3.053326 c 1.026664,0 1.653329,0 1.653329,-1.026664 0,-2.0666615 -1.186663,-3.4399913 -3.333325,-3.4399913 z M 53.20926,8.1485563 c 0,-0.8266646 0.679998,-1.2666635 1.29333,-1.2666635 0.586665,0 1.17333,0.4133323 1.17333,1.2666635 z M 60.275895,5.9485618 C 60.062563,5.4285632 59.742563,5.1752305 59.209231,5.1752305 c -0.706664,0 -1.026664,0.3333325 -1.026664,1.0666639 0,0.1599996 0.226666,0.8799978 1.879996,5.8133186 0.199999,0.573332 0.599998,0.893331 1.159997,0.893331 0.546665,0 0.973331,-0.306666 1.13333,-0.866664 l 0.973331,-3.3866584 c 0.519999,1.5333294 0.533332,1.8799954 1.026664,3.3599914 0.2,0.586665 0.559999,0.879998 1.066664,0.879998 0.466666,0 0.879998,-0.266666 1.066664,-0.839998 1.466663,-4.2933225 1.746662,-5.2533201 1.813329,-5.4933195 l -0.01333,0.093333 c 0.06667,-0.1733329 0.09333,-0.3199992 0.09333,-0.4799988 0,-0.7066648 -0.226667,-1.0533306 -0.986665,-1.0533306 -0.533332,0 -0.893331,0.2533327 -1.066664,0.7866646 l -0.893331,3.693324 C 64.94255,8.1085564 65.009217,7.5618911 64.502551,6.0418949 64.355885,5.4818964 63.755887,5.1885638 63.329221,5.1885638 c -0.466665,0 -0.906664,0.2799993 -1.093331,0.8133312 l -1.01333,3.7599905 z"
     id="text2"
     aria-label="Satellaview" />
</svg>
