<?xml version="1.0" encoding="UTF-8" standalone="no"?>
<svg
   viewBox="0 0 200 40"
   version="1.1"
   id="svg1"
   sodipodi:docname="scummvm.svg"
   inkscape:version="1.3.2 (091e20e, 2023-11-25)"
   xmlns:inkscape="http://www.inkscape.org/namespaces/inkscape"
   xmlns:sodipodi="http://sodipodi.sourceforge.net/DTD/sodipodi-0.dtd"
   xmlns="http://www.w3.org/2000/svg"
   xmlns:svg="http://www.w3.org/2000/svg">
  <defs
     id="defs1">
    <rect
       x="0.30349014"
       y="0.60698027"
       width="199.08953"
       height="38.846737"
       id="rect3" />
    <rect
       x="0.60698027"
       y="0.60698027"
       width="198.78604"
       height="39.150228"
       id="rect2" />
    <rect
       x="0.91047041"
       y="0.60698027"
       width="198.17906"
       height="38.846737"
       id="rect1" />
  </defs>
  <sodipodi:namedview
     id="namedview1"
     pagecolor="#020202"
     bordercolor="#000000"
     borderopacity="0.25"
     inkscape:showpageshadow="2"
     inkscape:pageopacity="0.0"
     inkscape:pagecheckerboard="0"
     inkscape:deskcolor="#d1d1d1"
     inkscape:zoom="3.295"
     inkscape:cx="101.36571"
     inkscape:cy="-0.75872534"
     inkscape:window-width="1400"
     inkscape:window-height="864"
     inkscape:window-x="209"
     inkscape:window-y="25"
     inkscape:window-maximized="0"
     inkscape:current-layer="svg1" />
  <path
     style="font-weight:bold;font-size:13.3333px;font-family:BPreplay;-inkscape-font-specification:'BPreplay Bold';letter-spacing:0px;white-space:pre;fill:#ffffff;stroke-width:2.64567;stroke-linecap:square;stroke-opacity:0.988722;paint-order:markers fill stroke"
     d="m 4.9293893,4.8818979 c 0.2399994,0.1999995 0.5066654,0.3333325 0.8399979,0.3333325 0.6133318,0 1.0533307,-0.5733319 1.0533307,-1.1199972 0,-0.4133323 -0.2133328,-0.7599981 -0.5999985,-1.0399974 C 5.5560544,2.5485704 4.7427232,2.2819044 3.9027253,2.2819044 c -1.8933286,0 -3.14665874,1.5333295 -3.14665874,3.0266591 0,1.7999954 1.59999594,2.5599935 2.94665924,3.1866586 1.066664,0.4933321 1.426663,0.799998 1.426663,1.2533301 0,0.7599978 -0.6399983,1.1466638 -1.3733298,1.1466638 -0.4266656,0 -0.8933311,-0.146666 -1.2533302,-0.373332 -0.2533327,-0.146667 -0.5199987,-0.226666 -0.7866647,-0.226666 -0.6933315,0 -1.03999734,0.319999 -1.03999734,1.026664 0,0.439998 0.1999995,0.786664 0.61333174,1.05333 0.7333315,0.479999 1.5599961,0.733332 2.4666605,0.733332 2.0533281,0 3.6399908,-1.279997 3.6399908,-3.4399916 0,-1.6399958 -1.1466638,-2.3733273 -2.759993,-3.159992 C 3.8093922,6.1085614 2.9960609,5.9085619 2.9960609,5.2552303 c 0,-0.5866652 0.3466658,-0.7599981 0.8933311,-0.7599981 0.3866657,0 0.7199982,0.1466663 1.0399973,0.3866657 z m 6.7866497,2.2666609 c 0.506666,0 1.026665,0.2266661 1.426664,0.2266661 0.586665,0 0.97333,-0.3733324 0.97333,-0.9733309 0,-0.399999 -0.319999,-0.7733313 -0.759998,-0.9733308 -0.559998,-0.2533327 -1.146663,-0.3066659 -1.653329,-0.3066659 -2.0133281,0 -3.7199904,1.5733293 -3.7199904,3.9333234 0,2.2799943 1.6399958,4.0133233 3.7466574,4.0133233 0.613332,0 1.279997,-0.16 1.906662,-0.573332 0.319999,-0.239999 0.546665,-0.519999 0.546665,-0.919998 0,-0.546665 -0.506665,-0.973331 -0.959998,-0.973331 -0.133333,0 -0.333332,0.04 -0.479998,0.146667 -0.306666,0.213333 -0.679999,0.293332 -0.999998,0.293332 -0.919998,0 -1.679996,-0.853331 -1.679996,-1.9333281 0,-1.1866637 0.719999,-1.9599951 1.653329,-1.9599951 z m 5.333327,-0.8399979 c 0,-0.7066648 -0.32,-1.026664 -1.026664,-1.026664 -0.679999,0 -1.013331,0.3199992 -1.013331,1.026664 v 3.559991 c 0,2.0133281 1.159997,3.1599921 2.38666,3.1599921 0.733332,0 1.49333,-0.399999 2.053329,-1.146664 v 0.399999 c 0.01333,0.599999 0.426665,0.839998 0.786664,0.839998 0.693332,0 1.026664,-0.346666 1.026664,-0.986664 V 6.268561 c 0,-0.7066648 -0.333332,-1.0533306 -1.026664,-1.0533306 -0.746665,0 -0.986664,0.3866657 -0.986664,1.0533306 v 2.799993 c 0,1.279997 -0.639998,1.973328 -1.266663,1.973328 -0.466666,0 -0.919998,-0.239999 -0.919998,-1.5466624 z m 5.493323,5.6133191 c 0,0.679998 0.333333,1.026664 0.999998,1.026664 0.706665,0 1.039997,-0.346666 1.039997,-1.026664 V 8.2018895 c 0,-0.7866647 0.519999,-1.1866637 1.053331,-1.1866637 0.479999,0 0.986664,0.3866657 0.986664,1.1866637 V 11.92188 c 0,0.679998 0.359999,1.026664 1.026664,1.026664 0.693332,0 1.039997,-0.346666 1.039997,-1.026664 V 7.9752234 c 0.08,-0.6399984 0.559999,-0.9599976 1.039998,-0.9599976 0.479999,0 0.986664,0.3866657 0.986664,1.1866637 V 11.92188 c 0,0.679998 0.359999,1.026664 1.026664,1.026664 0.693332,0 1.039997,-0.346666 1.039997,-1.026664 V 7.8285571 c 0,-1.8533287 -1.106663,-2.6133267 -2.239994,-2.6133267 -0.839998,0 -1.693329,0.4133323 -2.119995,1.1066638 C 28.062675,5.508563 27.39601,5.1885638 26.702679,5.1885638 c -0.799998,0 -1.653329,0.4266656 -2.119995,0.9599975 0,-0.4133322 -0.333332,-0.9199976 -1.039997,-0.9199976 -0.666665,0 -0.999998,0.5066654 -0.999998,1.0666639 z m 11.493298,0 c 0,0.679998 0.333332,1.026664 0.999997,1.026664 0.706665,0 1.039998,-0.346666 1.039998,-1.026664 V 8.2018895 c 0,-0.7866647 0.519998,-1.1866637 1.05333,-1.1866637 0.479999,0 0.986665,0.3866657 0.986665,1.1866637 V 11.92188 c 0,0.679998 0.359999,1.026664 1.026664,1.026664 0.693331,0 1.039997,-0.346666 1.039997,-1.026664 V 7.9752234 c 0.08,-0.6399984 0.559999,-0.9599976 1.039997,-0.9599976 0.479999,0 0.986665,0.3866657 0.986665,1.1866637 V 11.92188 c 0,0.679998 0.359999,1.026664 1.026664,1.026664 0.693331,0 1.039997,-0.346666 1.039997,-1.026664 V 7.8285571 c 0,-1.8533287 -1.106664,-2.6133267 -2.239994,-2.6133267 -0.839998,0 -1.693329,0.4133323 -2.119995,1.1066638 -0.359999,-0.8133312 -1.026664,-1.1333304 -1.719996,-1.1333304 -0.799998,0 -1.653329,0.4266656 -2.119994,0.9599975 0,-0.4133322 -0.333333,-0.9199976 -1.039998,-0.9199976 -0.666665,0 -0.999997,0.5066654 -0.999997,1.0666639 z M 46.35596,3.3352351 C 46.182627,2.8152364 45.822628,2.5485704 45.289296,2.5485704 c -0.706665,0 -1.066664,0.3599991 -1.066664,1.066664 0,0.133333 0.02667,0.2799993 0.06667,0.4266656 l 2.826659,7.83998 c 0.253333,0.706665 0.653332,1.066664 1.199997,1.066664 0.586665,0 1.013331,-0.386666 1.29333,-1.17333 l 2.733327,-7.7066474 c 0.05333,-0.1066664 0.09333,-0.2533327 0.09333,-0.3866657 0,-0.5733319 -0.613332,-1.1199972 -1.159997,-1.1199972 -0.519999,0 -0.826665,0.266666 -1.013331,0.7866647 -0.653332,1.8533287 -1.266663,3.9866566 -1.933328,5.8666519 z M 56.609264,3.8019006 C 56.355931,2.9885693 55.822599,2.5352371 55.142601,2.5352371 c -0.759998,0 -1.226664,0.4933321 -1.386663,1.4399964 l -1.226664,7.6266475 c -0.01333,0.106666 -0.01333,0.199999 -0.01333,0.293332 0,0.706665 0.399999,1.039998 1.039997,1.039998 0.693332,0 0.986665,-0.386666 1.093331,-1.039998 L 55.5026,6.8285596 56.91593,11.988547 c 0.186666,0.653331 0.586665,0.959997 1.106664,0.959997 0.466665,0 0.893331,-0.319999 1.09333,-0.959997 0.519999,-1.61333 1.026664,-3.5066582 1.559996,-5.1333208 l 0.679999,5.0533208 c 0.09333,0.693331 0.426665,1.026664 1.119997,1.026664 0.599998,0 1.053331,-0.399999 1.053331,-1.066664 0,-0.01333 -0.01333,-0.02667 -0.01333,-0.04 v -0.05333 L 62.369249,3.9885668 C 62.235916,3.0552358 61.742584,2.5619037 60.99592,2.5619037 c -0.693332,0 -1.226664,0.4133323 -1.479997,1.2266636 L 58.04926,8.5752219 Z"
     id="text2"
     aria-label="ScummVM" />
</svg>
