<?xml version="1.0" encoding="UTF-8" standalone="no"?>
<svg
   viewBox="0 0 200 40"
   version="1.1"
   id="svg1"
   sodipodi:docname="sega32x.svg"
   inkscape:version="1.3.2 (091e20e, 2023-11-25)"
   xmlns:inkscape="http://www.inkscape.org/namespaces/inkscape"
   xmlns:sodipodi="http://sodipodi.sourceforge.net/DTD/sodipodi-0.dtd"
   xmlns="http://www.w3.org/2000/svg"
   xmlns:svg="http://www.w3.org/2000/svg">
  <defs
     id="defs1">
    <rect
       x="0.30349014"
       y="0.60698027"
       width="199.08953"
       height="38.846737"
       id="rect3" />
    <rect
       x="0.60698027"
       y="0.60698027"
       width="198.78604"
       height="39.150228"
       id="rect2" />
    <rect
       x="0.91047041"
       y="0.60698027"
       width="198.17906"
       height="38.846737"
       id="rect1" />
  </defs>
  <sodipodi:namedview
     id="namedview1"
     pagecolor="#020202"
     bordercolor="#000000"
     borderopacity="0.25"
     inkscape:showpageshadow="2"
     inkscape:pageopacity="0.0"
     inkscape:pagecheckerboard="0"
     inkscape:deskcolor="#d1d1d1"
     inkscape:zoom="3.295"
     inkscape:cx="101.36571"
     inkscape:cy="-0.75872534"
     inkscape:window-width="1400"
     inkscape:window-height="864"
     inkscape:window-x="209"
     inkscape:window-y="25"
     inkscape:window-maximized="0"
     inkscape:current-layer="svg1" />
  <path
     style="font-weight:bold;font-size:13.3333px;font-family:BPreplay;-inkscape-font-specification:'BPreplay Bold';letter-spacing:0px;white-space:pre;fill:#ffffff;stroke-width:2.64567;stroke-linecap:square;stroke-opacity:0.988722;paint-order:markers fill stroke"
     d="m 4.9293893,4.8818979 c 0.2399994,0.1999995 0.5066654,0.3333325 0.8399979,0.3333325 0.6133318,0 1.0533307,-0.5733319 1.0533307,-1.1199972 0,-0.4133323 -0.2133328,-0.7599981 -0.5999985,-1.0399974 C 5.5560544,2.5485704 4.7427232,2.2819044 3.9027253,2.2819044 c -1.8933286,0 -3.14665874,1.5333295 -3.14665874,3.0266591 0,1.7999954 1.59999594,2.5599935 2.94665924,3.1866586 1.066664,0.4933321 1.426663,0.799998 1.426663,1.2533301 0,0.7599978 -0.6399983,1.1466638 -1.3733298,1.1466638 -0.4266656,0 -0.8933311,-0.146666 -1.2533302,-0.373332 -0.2533327,-0.146667 -0.5199987,-0.226666 -0.7866647,-0.226666 -0.6933315,0 -1.03999734,0.319999 -1.03999734,1.026664 0,0.439998 0.1999995,0.786664 0.61333174,1.05333 0.7333315,0.479999 1.5599961,0.733332 2.4666605,0.733332 2.0533281,0 3.6399908,-1.279997 3.6399908,-3.4399916 0,-1.6399958 -1.1466638,-2.3733273 -2.759993,-3.159992 C 3.8093922,6.1085614 2.9960609,5.9085619 2.9960609,5.2552303 c 0,-0.5866652 0.3466658,-0.7599981 0.8933311,-0.7599981 0.3866657,0 0.7199982,0.1466663 1.0399973,0.3866657 z m 6.5199837,0.1866662 c -2.2266606,0 -3.4533241,1.9333284 -3.4533241,3.95999 0,2.1999949 1.3066633,4.0666559 3.6533241,4.0666559 1.226664,0 2.213328,-0.453332 2.879993,-1.279996 0.173333,-0.186667 0.226666,-0.373333 0.226666,-0.613332 0,-0.613332 -0.333333,-0.879998 -0.759998,-0.879998 -0.706665,0 -1.133331,0.826665 -2.159995,0.826665 -0.573332,0 -1.759995,-0.413333 -1.759995,-1.6133296 h 3.053325 c 1.026664,0 1.653329,0 1.653329,-1.026664 0,-2.0666615 -1.186663,-3.4399913 -3.333325,-3.4399913 z M 10.18271,8.1485563 c 0,-0.8266646 0.679998,-1.2666635 1.29333,-1.2666635 0.586665,0 1.17333,0.4133323 1.17333,1.2666635 z M 21.196016,5.0952307 c -0.666665,0 -1.026664,0.3599991 -1.05333,0.9999974 -0.413333,-0.6933315 -1.199997,-1.0133307 -1.839996,-1.0133307 -1.453329,0 -2.839993,1.5999959 -2.839993,4.0266565 0,2.3733271 1.41333,3.8533231 2.82666,3.8533231 0.719998,0 1.439996,-0.279999 1.973328,-1.226663 0,1.41333 -0.279999,2.346661 -1.466663,2.346661 -0.373332,0 -0.759998,-0.09333 -1.13333,-0.293333 -0.213333,-0.106666 -0.413332,-0.253333 -0.733332,-0.253333 -0.653331,0 -1.026664,0.519999 -1.026664,1.066664 0,0.346666 0.16,0.706665 0.506666,0.933331 0.733331,0.453332 1.519996,0.679999 2.253327,0.679999 1.919995,0 3.559991,-1.506663 3.559991,-4.293323 V 6.1618946 c 0,-0.6933315 -0.346665,-1.0666639 -1.026664,-1.0666639 z m -2.38666,6.0133183 c -0.839998,0 -1.253331,-0.973331 -1.253331,-1.9866618 0,-1.0266641 0.453333,-2.1066614 1.293331,-2.1066614 0.666665,0 1.33333,0.7599981 1.33333,2.0533282 0,1.29333 -0.706665,2.039995 -1.37333,2.039995 z m 5.493321,-5.5599861 c -0.426666,0.1733329 -0.693332,0.4666654 -0.693332,0.8399978 0,0.6799983 0.479999,0.8399979 0.986664,0.8399979 0.479999,0 0.919998,-0.1733329 1.466663,-0.1733329 0.746665,0 1.626663,0.4799988 1.626663,1.2666635 V 8.9752209 C 27.209336,8.6285551 26.502671,8.4285556 25.782673,8.4285556 c -1.706662,0 -2.70666,1.2533301 -2.70666,2.4533274 0,1.106664 0.866665,2.159994 2.386661,2.159994 0.746665,0 1.546663,-0.306666 2.173328,-0.973331 v 0.253333 c 0.04,0.546665 0.613332,0.719998 0.839998,0.719998 0.653331,0 1.039997,-0.493332 1.039997,-1.026664 V 8.0285566 c 0,-2.0399949 -1.679996,-2.8399928 -3.373325,-2.8399928 -0.613332,0 -1.25333,0.1199997 -1.839995,0.3599991 z m 0.866664,5.0666541 c 0,-0.426666 0.559999,-0.613332 1.119997,-0.613332 0.533332,0 1.119998,0.199999 1.119998,0.546665 0,0.466666 -0.639999,0.706665 -1.239997,0.706665 -0.493332,0 -0.999998,-0.213333 -0.999998,-0.639998 z M 36.289329,2.6552368 c -1.653329,0 -2.853326,1.2266636 -2.853326,2.5066604 0,0.6266651 0.346666,0.9599975 1.106664,0.9599975 0.653331,0 0.813331,-0.5599985 0.826664,-0.7199981 0.01333,-0.1066664 0.08,-0.666665 0.866665,-0.666665 0.533332,0 0.839998,0.3599991 0.839998,0.8799978 0,0.4266655 -0.226667,1.0399973 -0.586666,1.1466637 -0.133333,0.026667 -0.333332,0.026667 -0.386665,0.026667 -0.746665,0 -1.133331,0.2133328 -1.133331,0.8799978 0,0.6399984 0.373333,0.9066644 1.133331,0.9066644 h 0.439999 c 0.599998,0.093333 0.879997,0.7599981 0.879997,1.29333 0,0.7199981 -0.559998,1.0933311 -1.119997,1.0933311 -0.413332,0 -0.773331,-0.253333 -0.999997,-0.773332 C 35.115999,9.7618855 34.676,9.5218861 34.302667,9.5218861 c -0.519998,0 -0.986664,0.3733324 -0.986664,1.0666639 0,0.399999 0.133333,0.826665 0.386666,1.186664 0.506665,0.693331 1.439996,1.319996 2.613327,1.319996 2.013328,0 3.239991,-1.559996 3.239991,-3.093325 0,-0.9599976 -0.479998,-1.9066619 -1.533329,-2.4799938 0.813331,-0.5199987 1.17333,-1.2933301 1.17333,-2.0799947 0,-1.3866632 -1.146664,-2.7866597 -2.906659,-2.7866597 z m 4.199991,3.0799923 c 0,0.5333319 0.359999,1.2266635 1.093331,1.2266635 0.706664,0 1.05333,-0.7066649 1.05333,-1.1733303 0,-0.666665 0.466666,-0.9866642 0.946665,-0.9866642 0.466665,0 0.946664,0.2933326 0.946664,0.799998 0,0.3866656 -0.133333,0.7999979 -0.399999,1.1466637 l -3.239992,4.3866552 c -0.186666,0.253333 -0.293333,0.533332 -0.293333,0.786665 0,0.679998 0.399999,1.026664 1.239997,1.026664 h 3.946657 c 0.679998,0 1.026664,-0.373332 1.026664,-1.053331 0,-0.666664 -0.319999,-1.026664 -1.013331,-1.026664 h -2.146661 c 0.893331,-1.1999966 1.199997,-1.5866622 2.066661,-2.733326 0.599999,-0.8133313 0.973331,-1.7866622 0.973331,-2.62666 0,-1.7066624 -1.533329,-2.8133263 -3.066659,-2.8133263 -1.573329,0 -3.133325,1.1599971 -3.133325,3.0399924 z m 7.266647,5.4933199 c -0.159999,0.239999 -0.226666,0.493332 -0.226666,0.759998 0,0.639998 0.333333,0.97333 0.959998,0.97333 0.426665,0 0.759998,-0.173332 0.999997,-0.559998 l 2.079995,-3.2533252 2.239994,3.2799912 c 0.28,0.36 0.586666,0.533332 0.986665,0.533332 0.639998,0 0.959997,-0.306665 0.959997,-0.959997 0,-0.266666 -0.09333,-0.519999 -0.266666,-0.786665 L 52.849288,7.3085584 54.822616,4.2685661 c 0.12,-0.1866662 0.2,-0.399999 0.2,-0.6266651 0,-0.5999985 -0.506666,-1.066664 -1.053331,-1.066664 -0.399999,0 -0.693332,0.1733329 -0.906664,0.5199987 -0.493332,0.7733314 -0.999998,1.6533292 -1.506663,2.4533272 L 49.849295,3.0419025 C 49.622629,2.70857 49.30263,2.575237 48.942631,2.575237 c -0.559999,0 -1.053331,0.4266656 -1.053331,1.0399974 0,0.2266661 0.06667,0.4533322 0.213333,0.666665 l 2.173328,3.1733253 z"
     id="text2"
     aria-label="Sega 32X" />
</svg>
