<?xml version="1.0" encoding="UTF-8" standalone="no"?>
<svg
   viewBox="0 0 200 40"
   version="1.1"
   id="svg1"
   sodipodi:docname="sg-1000.svg"
   inkscape:version="1.3.2 (091e20e, 2023-11-25)"
   xmlns:inkscape="http://www.inkscape.org/namespaces/inkscape"
   xmlns:sodipodi="http://sodipodi.sourceforge.net/DTD/sodipodi-0.dtd"
   xmlns="http://www.w3.org/2000/svg"
   xmlns:svg="http://www.w3.org/2000/svg">
  <defs
     id="defs1">
    <rect
       x="0.30349014"
       y="0.60698027"
       width="199.08953"
       height="38.846737"
       id="rect3" />
    <rect
       x="0.60698027"
       y="0.60698027"
       width="198.78604"
       height="39.150228"
       id="rect2" />
    <rect
       x="0.91047041"
       y="0.60698027"
       width="198.17906"
       height="38.846737"
       id="rect1" />
  </defs>
  <sodipodi:namedview
     id="namedview1"
     pagecolor="#020202"
     bordercolor="#000000"
     borderopacity="0.25"
     inkscape:showpageshadow="2"
     inkscape:pageopacity="0.0"
     inkscape:pagecheckerboard="0"
     inkscape:deskcolor="#d1d1d1"
     inkscape:zoom="3.295"
     inkscape:cx="101.36571"
     inkscape:cy="-0.75872534"
     inkscape:window-width="1400"
     inkscape:window-height="864"
     inkscape:window-x="209"
     inkscape:window-y="25"
     inkscape:window-maximized="0"
     inkscape:current-layer="svg1" />
  <path
     style="font-weight:bold;font-size:13.3333px;font-family:BPreplay;-inkscape-font-specification:'BPreplay Bold';letter-spacing:0px;white-space:pre;fill:#ffffff;stroke-width:2.64567;stroke-linecap:square;stroke-opacity:0.988722;paint-order:markers fill stroke"
     d="m 4.9293893,4.8818979 c 0.2399994,0.1999995 0.5066654,0.3333325 0.8399979,0.3333325 0.6133318,0 1.0533307,-0.5733319 1.0533307,-1.1199972 0,-0.4133323 -0.2133328,-0.7599981 -0.5999985,-1.0399974 C 5.5560544,2.5485704 4.7427232,2.2819044 3.9027253,2.2819044 c -1.8933286,0 -3.14665874,1.5333295 -3.14665874,3.0266591 0,1.7999954 1.59999594,2.5599935 2.94665924,3.1866586 1.066664,0.4933321 1.426663,0.799998 1.426663,1.2533301 0,0.7599978 -0.6399983,1.1466638 -1.3733298,1.1466638 -0.4266656,0 -0.8933311,-0.146666 -1.2533302,-0.373332 -0.2533327,-0.146667 -0.5199987,-0.226666 -0.7866647,-0.226666 -0.6933315,0 -1.03999734,0.319999 -1.03999734,1.026664 0,0.439998 0.1999995,0.786664 0.61333174,1.05333 0.7333315,0.479999 1.5599961,0.733332 2.4666605,0.733332 2.0533281,0 3.6399908,-1.279997 3.6399908,-3.4399916 0,-1.6399958 -1.1466638,-2.3733273 -2.759993,-3.159992 C 3.8093922,6.1085614 2.9960609,5.9085619 2.9960609,5.2552303 c 0,-0.5866652 0.3466658,-0.7599981 0.8933311,-0.7599981 0.3866657,0 0.7199982,0.1466663 1.0399973,0.3866657 z m 7.8133147,6.0266511 c -1.626663,0 -2.426661,-1.5066625 -2.426661,-3.0533253 0,-1.866662 0.826665,-3.4399913 2.519994,-3.4399913 0.519998,0 1.146663,0.1066664 1.733329,0.6399984 0.253332,0.2399994 0.546665,0.3466658 0.813331,0.3466658 0.506665,0 0.946664,-0.3866657 0.946664,-1.0533307 0,-1.2399969 -1.893328,-2.1466613 -3.453324,-2.1466613 -3.2133257,0 -4.8133216,2.7333265 -4.8133216,5.6666524 0,2.639993 1.5066628,5.226653 4.6399886,5.226653 2.639993,0 4.306655,-1.919995 4.306655,-4.6133212 0,-0.8933311 -0.133333,-1.7199957 -1.399996,-1.7199957 H 12.92937 c -0.799998,0 -1.199997,0.3466658 -1.199997,1.0799973 0,0.6933316 0.386665,1.066664 1.159997,1.066664 h 1.933328 C 14.689365,10.175218 13.956034,10.908549 12.742704,10.908549 Z M 18.91602,8.0152233 c -0.693332,0 -1.106664,0.5199987 -1.106664,1.066664 0,0.7066648 0.373332,1.0266637 1.106664,1.0266637 h 2.439994 c 0.746664,0 1.106663,-0.3199989 1.106663,-1.0266637 0,-0.6933316 -0.359999,-1.066664 -1.106663,-1.066664 z m 5.59999,3.8266567 c 0,0.639999 0.426666,1.106664 1.079997,1.106664 0.639999,0 1.066664,-0.466665 1.066664,-1.106664 V 4.3885658 c 0,-0.4266656 -0.04,-0.7199982 -0.106666,-0.8133313 -0.12,-0.3199992 -0.439999,-0.6266651 -0.933331,-0.6266651 l -1.959995,0.533332 c -0.613332,0.1733329 -0.879998,0.6266651 -0.879998,1.066664 0,0.5866652 0.466666,0.9866642 1.013331,0.9866642 0.239999,0 0.479999,-0.066667 0.719998,-0.1599996 z m 6.94665,-9.1866432 c -2.613327,0 -3.519991,3.0799923 -3.519991,5.2533201 0,2.2399941 0.866665,5.1866531 3.546658,5.1866531 2.573327,0 3.493324,-3.079992 3.493324,-5.2133197 0,-2.1866611 -0.853331,-5.2266535 -3.466658,-5.2266535 z m 0.02667,8.3333122 c -0.999998,0 -1.359997,-1.8533285 -1.359997,-3.0666588 0,-1.1199972 0.279999,-3.1333254 1.37333,-3.1333254 0.973331,0 1.319997,1.8933285 1.319997,3.159992 0,1.066664 -0.346666,3.0399922 -1.33333,3.0399922 z m 8.039974,-8.3333122 c -2.613327,0 -3.519991,3.0799923 -3.519991,5.2533201 0,2.2399941 0.866664,5.1866531 3.546658,5.1866531 2.573326,0 3.493324,-3.079992 3.493324,-5.2133197 0,-2.1866611 -0.853331,-5.2266535 -3.466658,-5.2266535 z m 0.02667,8.3333122 c -0.999998,0 -1.359997,-1.8533285 -1.359997,-3.0666588 0,-1.1199972 0.279999,-3.1333254 1.37333,-3.1333254 0.973331,0 1.319997,1.8933285 1.319997,3.159992 0,1.066664 -0.346666,3.0399922 -1.33333,3.0399922 z M 47.59594,2.6552368 c -2.613327,0 -3.519991,3.0799923 -3.519991,5.2533201 0,2.2399941 0.866664,5.1866531 3.546658,5.1866531 2.573326,0 3.493324,-3.079992 3.493324,-5.2133197 0,-2.1866611 -0.853331,-5.2266535 -3.466658,-5.2266535 z m 0.02667,8.3333122 c -0.999998,0 -1.359997,-1.8533285 -1.359997,-3.0666588 0,-1.1199972 0.279999,-3.1333254 1.37333,-3.1333254 0.973331,0 1.319997,1.8933285 1.319997,3.159992 0,1.066664 -0.346666,3.0399922 -1.33333,3.0399922 z"
     id="text2"
     aria-label="SG-1000" />
</svg>
