<?xml version="1.0" encoding="UTF-8" standalone="no"?>
<svg
   viewBox="0 0 200 40"
   version="1.1"
   id="svg1"
   sodipodi:docname="sgfx.svg"
   inkscape:version="1.3.2 (091e20e, 2023-11-25)"
   xmlns:inkscape="http://www.inkscape.org/namespaces/inkscape"
   xmlns:sodipodi="http://sodipodi.sourceforge.net/DTD/sodipodi-0.dtd"
   xmlns="http://www.w3.org/2000/svg"
   xmlns:svg="http://www.w3.org/2000/svg">
  <defs
     id="defs1">
    <rect
       x="0.30349014"
       y="0.60698027"
       width="199.08953"
       height="38.846737"
       id="rect3" />
    <rect
       x="0.60698027"
       y="0.60698027"
       width="198.78604"
       height="39.150228"
       id="rect2" />
    <rect
       x="0.91047041"
       y="0.60698027"
       width="198.17906"
       height="38.846737"
       id="rect1" />
  </defs>
  <sodipodi:namedview
     id="namedview1"
     pagecolor="#020202"
     bordercolor="#000000"
     borderopacity="0.25"
     inkscape:showpageshadow="2"
     inkscape:pageopacity="0.0"
     inkscape:pagecheckerboard="0"
     inkscape:deskcolor="#d1d1d1"
     inkscape:zoom="2.9291616"
     inkscape:cx="93.542123"
     inkscape:cy="-11.436719"
     inkscape:window-width="1400"
     inkscape:window-height="864"
     inkscape:window-x="209"
     inkscape:window-y="25"
     inkscape:window-maximized="0"
     inkscape:current-layer="svg1" />
  <path
     style="font-weight:bold;font-size:13.3333px;font-family:BPreplay;-inkscape-font-specification:'BPreplay Bold';letter-spacing:0px;white-space:pre;fill:#ffffff;stroke-width:2.64567;stroke-linecap:square;stroke-opacity:0.988722;paint-order:markers fill stroke"
     d="m 1.1160657,11.855214 c 0,0.733331 0.3466657,1.09333 1.0666639,1.09333 0.7066649,0 1.066664,-0.359999 1.066664,-1.09333 V 6.8818928 l 3.7066573,5.4399862 c 0.2933326,0.413332 0.6799983,0.626665 1.1199972,0.626665 0.7066648,0 1.0666639,-0.386666 1.0666639,-1.159997 V 3.6552343 c 0,-0.7199982 -0.3466658,-1.0799973 -1.0799972,-1.0799973 -0.6933316,0 -1.0533307,0.3599991 -1.0533307,1.0799973 V 8.7218882 L 3.3427267,3.2685686 C 3.0227275,2.8019031 2.6360618,2.5619037 2.1693963,2.5619037 c -0.6933316,0 -1.0533306,0.3866657 -1.0533306,1.1599971 z m 9.6666543,-0.08 c 0,0.933331 0.133333,1.17333 1.119997,1.17333 h 3.853324 c 0.773331,0 1.146664,-0.359999 1.146664,-1.066664 0,-0.719998 -0.373333,-1.066664 -1.146664,-1.066664 H 12.916048 V 8.6552217 h 2.146661 c 0.719999,0 1.066664,-0.3599991 1.066664,-1.0533307 0,-0.7199982 -0.346665,-1.0799973 -1.066664,-1.0799973 H 12.916048 V 4.7218983 h 2.74666 c 0.719998,0 1.066664,-0.3599991 1.066664,-1.066664 0,-0.7333315 -0.346666,-1.066664 -1.066664,-1.066664 h -3.759991 c -0.733331,0 -1.119997,0.3866657 -1.119997,1.1599971 z m 13.066633,-1.546663 c -0.426666,0.426666 -0.986665,0.573332 -1.599996,0.573332 -1.733329,0 -2.62666,-1.5333295 -2.62666,-3.1599921 0,-1.5866627 0.853331,-3.159992 2.613326,-3.159992 0.613332,0 1.213331,0.2133328 1.626663,0.6266651 0.186666,0.1999995 0.546665,0.3199992 0.813331,0.3199992 0.586665,0 1.053331,-0.4266656 1.053331,-1.1066639 0,-0.3466658 -0.146667,-0.6533317 -0.413332,-0.9066644 -0.879998,-0.799998 -1.906662,-1.1599971 -3.039993,-1.1599971 -3.253325,0 -4.893321,2.7466598 -4.893321,5.4666529 0,2.6933263 1.599996,5.3733193 4.826655,5.3733193 1.159997,0 2.173328,-0.413332 3.039992,-1.186663 0.293333,-0.266666 0.399999,-0.573332 0.399999,-0.919998 0,-0.559998 -0.306666,-1.0799972 -1.066664,-1.0799972 -0.279999,0 -0.493332,0.08 -0.733331,0.3199992 z m 9.479979,-5.3466531 c 0.239999,0.1999995 0.506665,0.3333325 0.839998,0.3333325 0.613331,0 1.05333,-0.5733319 1.05333,-1.1199972 0,-0.4133323 -0.213332,-0.7599981 -0.599998,-1.0399974 -0.666665,-0.5066654 -1.479996,-0.7733314 -2.319994,-0.7733314 -1.893329,0 -3.146659,1.5333295 -3.146659,3.0266591 0,1.7999954 1.599996,2.5599935 2.946659,3.1866586 1.066664,0.4933321 1.426663,0.799998 1.426663,1.2533301 0,0.7599978 -0.639998,1.1466638 -1.37333,1.1466638 -0.426665,0 -0.893331,-0.146666 -1.25333,-0.373332 -0.253332,-0.146667 -0.519998,-0.226666 -0.786664,-0.226666 -0.693332,0 -1.039998,0.319999 -1.039998,1.026664 0,0.439998 0.2,0.786664 0.613332,1.05333 0.733331,0.479999 1.559996,0.733332 2.46666,0.733332 2.053329,0 3.639991,-1.279997 3.639991,-3.4399916 0,-1.6399958 -1.146664,-2.3733273 -2.759993,-3.159992 -0.826664,-0.399999 -1.639996,-0.5999985 -1.639996,-1.2533301 0,-0.5866652 0.346666,-0.7599981 0.893331,-0.7599981 0.386666,0 0.719999,0.1466663 1.039998,0.3866657 z m 5.373322,1.426663 c 0,-0.7066648 -0.32,-1.026664 -1.026665,-1.026664 -0.679998,0 -1.01333,0.3199992 -1.01333,1.026664 v 3.559991 c 0,2.0133281 1.159997,3.1599921 2.38666,3.1599921 0.733332,0 1.49333,-0.399999 2.053328,-1.146664 v 0.399999 c 0.01333,0.599999 0.426666,0.839998 0.786665,0.839998 0.693332,0 1.026664,-0.346666 1.026664,-0.986664 V 6.268561 c 0,-0.7066648 -0.333332,-1.0533306 -1.026664,-1.0533306 -0.746665,0 -0.986664,0.3866657 -0.986664,1.0533306 v 2.799993 c 0,1.279997 -0.639998,1.973328 -1.266663,1.973328 -0.466666,0 -0.919998,-0.239999 -0.919998,-1.5466624 z m 5.533321,8.2933121 c 0,0.706665 0.333333,1.066664 0.999998,1.066664 0.279999,0 0.866664,-0.226666 0.866664,-0.813331 v -2.879993 c 0.346666,0.706665 1.159997,1.106664 1.853329,1.106664 1.479996,0 3.053325,-1.826662 3.053325,-4.013323 0,-2.6133268 -1.399996,-3.9733233 -2.719993,-3.9733233 -0.773331,0 -1.426663,0.2799993 -1.999995,1.0666639 0,-0.6933315 -0.333332,-1.0533306 -1.039997,-1.0533306 -0.693332,0 -1.013331,0.3599991 -1.013331,1.0533306 z m 3.479991,-3.533324 c -0.959997,0 -1.386663,-1.026664 -1.386663,-2.0266616 0,-0.9466643 0.426666,-2.0399949 1.386663,-2.0399949 0.879998,0 1.186664,1.1733304 1.186664,2.0933281 0,0.9333314 -0.306666,1.9733284 -1.186664,1.9733284 z m 7.426637,-5.9999849 c -2.226661,0 -3.453325,1.9333284 -3.453325,3.95999 0,2.1999949 1.306663,4.0666559 3.653324,4.0666559 1.226664,0 2.213328,-0.453332 2.879993,-1.279996 0.173333,-0.186667 0.226666,-0.373333 0.226666,-0.613332 0,-0.613332 -0.333332,-0.879998 -0.759998,-0.879998 -0.706665,0 -1.133331,0.826665 -2.159995,0.826665 -0.573332,0 -1.759995,-0.413333 -1.759995,-1.6133296 h 3.053325 c 1.026665,0 1.65333,0 1.65333,-1.026664 0,-2.0666615 -1.186664,-3.4399913 -3.333325,-3.4399913 z m -1.266664,3.0799922 c 0,-0.8266646 0.679998,-1.2666635 1.29333,-1.2666635 0.586665,0 1.173331,0.4133323 1.173331,1.2666635 z M 59.44926,11.92188 c 0,0.679998 0.346665,1.026664 1.026664,1.026664 0.706665,0 1.026664,-0.346666 1.026664,-1.026664 V 8.2018895 c 0,-0.5866652 0.586665,-0.9999975 1.09333,-0.9999975 0.133333,0 0.213333,0.026667 0.306666,0.04 0.133333,0.026667 0.306666,0.04 0.493332,0.04 0.613332,0 1.053331,-0.4933321 1.053331,-1.0399974 0,-0.5466652 -0.399999,-1.1333304 -1.466663,-1.1333304 -0.559998,0 -1.426663,0.5466653 -1.653329,0.9866641 -0.02667,-0.626665 -0.439999,-0.8799977 -0.853331,-0.8799977 -0.679999,0 -1.026664,0.3466658 -1.026664,1.0666639 z m 10.026647,-1.013331 c -1.626663,0 -2.426661,-1.5066625 -2.426661,-3.0533253 0,-1.866662 0.826665,-3.4399913 2.519994,-3.4399913 0.519999,0 1.146664,0.1066664 1.733329,0.6399984 0.253333,0.2399994 0.546665,0.3466658 0.813331,0.3466658 0.506666,0 0.946665,-0.3866657 0.946665,-1.0533307 0,-1.2399969 -1.893329,-2.1466613 -3.453325,-2.1466613 -3.213325,0 -4.813321,2.7333265 -4.813321,5.6666524 0,2.639993 1.506663,5.226653 4.639988,5.226653 2.639993,0 4.306656,-1.919995 4.306656,-4.6133212 0,-0.8933311 -0.133333,-1.7199957 -1.399997,-1.7199957 h -2.679993 c -0.799998,0 -1.199997,0.3466658 -1.199997,1.0799973 0,0.6933316 0.386666,1.066664 1.159997,1.066664 h 1.933329 c -0.133333,1.2666636 -0.866665,1.9999946 -2.079995,1.9999946 z m 5.146651,1.013331 c 0,0.679998 0.346665,1.026664 1.026664,1.026664 0.706665,0 1.026664,-0.346666 1.026664,-1.026664 V 8.2018895 c 0,-0.5866652 0.586665,-0.9999975 1.09333,-0.9999975 0.133333,0 0.213333,0.026667 0.306666,0.04 0.133333,0.026667 0.306666,0.04 0.493332,0.04 0.613332,0 1.053331,-0.4933321 1.053331,-1.0399974 0,-0.5466652 -0.399999,-1.1333304 -1.466663,-1.1333304 -0.559999,0 -1.426663,0.5466653 -1.653329,0.9866641 -0.02667,-0.626665 -0.439999,-0.8799977 -0.853331,-0.8799977 -0.679999,0 -1.026664,0.3466658 -1.026664,1.0666639 z m 6.266663,-6.3733171 c -0.426666,0.1733329 -0.693332,0.4666654 -0.693332,0.8399978 0,0.6799983 0.479999,0.8399979 0.986664,0.8399979 0.479999,0 0.919998,-0.1733329 1.466663,-0.1733329 0.746665,0 1.626663,0.4799988 1.626663,1.2666635 V 8.9752209 C 83.79588,8.6285551 83.089215,8.4285556 82.369217,8.4285556 c -1.706662,0 -2.70666,1.2533301 -2.70666,2.4533274 0,1.106664 0.866665,2.159994 2.386661,2.159994 0.746665,0 1.546663,-0.306666 2.173328,-0.973331 v 0.253333 c 0.04,0.546665 0.613332,0.719998 0.839998,0.719998 0.653331,0 1.039997,-0.493332 1.039997,-1.026664 V 8.0285566 c 0,-2.0399949 -1.679996,-2.8399928 -3.373325,-2.8399928 -0.613332,0 -1.25333,0.1199997 -1.839995,0.3599991 z m 0.866664,5.0666541 c 0,-0.426666 0.559999,-0.613332 1.119998,-0.613332 0.533332,0 1.119997,0.199999 1.119997,0.546665 0,0.466666 -0.639999,0.706665 -1.239997,0.706665 -0.493332,0 -0.999998,-0.213333 -0.999998,-0.639998 z M 87.8092,11.92188 c 0,0.679998 0.333333,1.026664 1.026664,1.026664 0.693332,0 1.013331,-0.346666 1.013331,-1.026664 V 7.1485588 h 0.16 c 0.746664,0 1.09333,-0.2399994 1.09333,-0.933331 0,-0.6799982 -0.359999,-0.9066643 -1.09333,-0.9066643 -0.05333,0 -0.05333,0.013333 -0.09333,0.013333 V 4.841898 c 0,-0.4266656 0.306665,-0.8266646 0.746664,-0.8266646 0.333333,0 0.853332,-0.1999995 0.853332,-0.8533312 0,-0.6533317 -0.386666,-1.0133307 -1.119998,-1.0133307 -1.199997,0 -2.493327,0.7999979 -2.573326,2.2666609 v 0.9066644 c -0.693332,0 -1.066664,0.2266661 -1.066664,0.9199976 0,0.666665 0.373332,0.8799978 1.05333,0.8933311 z m 3.920003,-0.826664 c -0.213332,0.279999 -0.319999,0.599998 -0.319999,0.879997 0,0.639999 0.319999,0.946665 0.933331,0.946665 0.386666,0 0.733332,-0.186667 0.986664,-0.573332 0.439999,-0.599999 0.866665,-1.239997 1.29333,-1.839996 l 1.306664,1.826662 c 0.253332,0.413333 0.653331,0.613332 1.079997,0.613332 0.639998,0 0.959998,-0.333332 0.959998,-0.973331 0,-0.319999 -0.09333,-0.639998 -0.333333,-0.933331 L 95.809193,8.8818878 97.395856,6.9085594 c 0.186666,-0.2266661 0.266666,-0.4666655 0.266666,-0.7199982 0,-0.5866651 -0.479999,-1.0133307 -1.053331,-1.0133307 -0.386666,0 -0.706665,0.1733329 -0.933331,0.5066654 L 94.689196,7.3485583 93.742532,5.7085625 C 93.515865,5.3618967 93.195866,5.1885638 92.782534,5.1885638 c -0.546665,0 -1.039997,0.4266656 -1.039997,1.026664 0,0.2399994 0.06667,0.4933321 0.239999,0.6933316 l 1.573329,2.0399949 z"
     id="text2"
     aria-label="NEC SuperGrafx&#10;&#10;&#10;&#10;&#10;&#10;&#10;&#10;" />
</svg>
