<?xml version="1.0" encoding="UTF-8" standalone="no"?>
<svg
   viewBox="0 0 200 40"
   version="1.1"
   id="svg1"
   sodipodi:docname="snes.svg"
   inkscape:version="1.3.2 (091e20e, 2023-11-25)"
   xmlns:inkscape="http://www.inkscape.org/namespaces/inkscape"
   xmlns:sodipodi="http://sodipodi.sourceforge.net/DTD/sodipodi-0.dtd"
   xmlns="http://www.w3.org/2000/svg"
   xmlns:svg="http://www.w3.org/2000/svg">
  <defs
     id="defs1">
    <rect
       x="0.30349014"
       y="0.60698027"
       width="199.08953"
       height="38.846737"
       id="rect3" />
    <rect
       x="0.60698027"
       y="0.60698027"
       width="198.78604"
       height="39.150228"
       id="rect2" />
    <rect
       x="0.91047041"
       y="0.60698027"
       width="198.17906"
       height="38.846737"
       id="rect1" />
  </defs>
  <sodipodi:namedview
     id="namedview1"
     pagecolor="#020202"
     bordercolor="#000000"
     borderopacity="0.25"
     inkscape:showpageshadow="2"
     inkscape:pageopacity="0.0"
     inkscape:pagecheckerboard="0"
     inkscape:deskcolor="#d1d1d1"
     inkscape:zoom="3.295"
     inkscape:cx="101.36571"
     inkscape:cy="-0.75872534"
     inkscape:window-width="1400"
     inkscape:window-height="864"
     inkscape:window-x="209"
     inkscape:window-y="25"
     inkscape:window-maximized="0"
     inkscape:current-layer="svg1" />
  <path
     style="font-weight:bold;font-size:13.3333px;font-family:BPreplay;-inkscape-font-specification:'BPreplay Bold';letter-spacing:0px;white-space:pre;fill:#ffffff;stroke-width:2.64567;stroke-linecap:square;stroke-opacity:0.988722;paint-order:markers fill stroke"
     d="m 4.9293893,4.8818979 c 0.2399994,0.1999995 0.5066654,0.3333325 0.8399979,0.3333325 0.6133318,0 1.0533307,-0.5733319 1.0533307,-1.1199972 0,-0.4133323 -0.2133328,-0.7599981 -0.5999985,-1.0399974 C 5.5560544,2.5485704 4.7427232,2.2819044 3.9027253,2.2819044 c -1.8933286,0 -3.14665874,1.5333295 -3.14665874,3.0266591 0,1.7999954 1.59999594,2.5599935 2.94665924,3.1866586 1.066664,0.4933321 1.426663,0.799998 1.426663,1.2533301 0,0.7599978 -0.6399983,1.1466638 -1.3733298,1.1466638 -0.4266656,0 -0.8933311,-0.146666 -1.2533302,-0.373332 -0.2533327,-0.146667 -0.5199987,-0.226666 -0.7866647,-0.226666 -0.6933315,0 -1.03999734,0.319999 -1.03999734,1.026664 0,0.439998 0.1999995,0.786664 0.61333174,1.05333 0.7333315,0.479999 1.5599961,0.733332 2.4666605,0.733332 2.0533281,0 3.6399908,-1.279997 3.6399908,-3.4399916 0,-1.6399958 -1.1466638,-2.3733273 -2.759993,-3.159992 C 3.8093922,6.1085614 2.9960609,5.9085619 2.9960609,5.2552303 c 0,-0.5866652 0.3466658,-0.7599981 0.8933311,-0.7599981 0.3866657,0 0.7199982,0.1466663 1.0399973,0.3866657 z m 5.3733207,1.426663 c 0,-0.7066648 -0.3199995,-1.026664 -1.0266644,-1.026664 -0.6799982,0 -1.0133307,0.3199992 -1.0133307,1.026664 v 3.559991 c 0,2.0133281 1.159997,3.1599921 2.3866611,3.1599921 0.733331,0 1.493329,-0.399999 2.053328,-1.146664 v 0.399999 c 0.01333,0.599999 0.426665,0.839998 0.786664,0.839998 0.693332,0 1.026664,-0.346666 1.026664,-0.986664 V 6.268561 c 0,-0.7066648 -0.333332,-1.0533306 -1.026664,-1.0533306 -0.746664,0 -0.986664,0.3866657 -0.986664,1.0533306 v 2.799993 c 0,1.279997 -0.639998,1.973328 -1.266663,1.973328 -0.466666,0 -0.919998,-0.239999 -0.919998,-1.5466624 z m 5.533323,8.2933121 c 0,0.706665 0.333332,1.066664 0.999997,1.066664 0.28,0 0.866665,-0.226666 0.866665,-0.813331 v -2.879993 c 0.346665,0.706665 1.159997,1.106664 1.853328,1.106664 1.479997,0 3.053326,-1.826662 3.053326,-4.013323 0,-2.6133268 -1.399996,-3.9733233 -2.719993,-3.9733233 -0.773332,0 -1.426663,0.2799993 -1.999995,1.0666639 0,-0.6933315 -0.333333,-1.0533306 -1.039997,-1.0533306 -0.693332,0 -1.013331,0.3599991 -1.013331,1.0533306 z m 3.479991,-3.533324 c -0.959998,0 -1.386663,-1.026664 -1.386663,-2.0266616 0,-0.9466643 0.426665,-2.0399949 1.386663,-2.0399949 0.879998,0 1.186664,1.1733304 1.186664,2.0933281 0,0.9333314 -0.306666,1.9733284 -1.186664,1.9733284 z M 26.74266,5.0685641 c -2.226661,0 -3.453324,1.9333284 -3.453324,3.95999 0,2.1999949 1.306663,4.0666559 3.653324,4.0666559 1.226663,0 2.213328,-0.453332 2.879993,-1.279996 0.173332,-0.186667 0.226666,-0.373333 0.226666,-0.613332 0,-0.613332 -0.333333,-0.879998 -0.759998,-0.879998 -0.706665,0 -1.133331,0.826665 -2.159995,0.826665 -0.573332,0 -1.759996,-0.413333 -1.759996,-1.6133296 h 3.053326 c 1.026664,0 1.653329,0 1.653329,-1.026664 0,-2.0666615 -1.186663,-3.4399913 -3.333325,-3.4399913 z m -1.266663,3.0799922 c 0,-0.8266646 0.679998,-1.2666635 1.29333,-1.2666635 0.586665,0 1.17333,0.4133323 1.17333,1.2666635 z m 5.573318,3.7733237 c 0,0.679998 0.346666,1.026664 1.026664,1.026664 0.706665,0 1.026665,-0.346666 1.026665,-1.026664 V 8.2018895 c 0,-0.5866652 0.586665,-0.9999975 1.09333,-0.9999975 0.133333,0 0.213333,0.026667 0.306666,0.04 0.133333,0.026667 0.306666,0.04 0.493332,0.04 0.613332,0 1.053331,-0.4933321 1.053331,-1.0399974 0,-0.5466652 -0.399999,-1.1333304 -1.466663,-1.1333304 -0.559999,0 -1.426663,0.5466653 -1.653329,0.9866641 -0.02667,-0.626665 -0.439999,-0.8799977 -0.853332,-0.8799977 -0.679998,0 -1.026664,0.3466658 -1.026664,1.0666639 z m 8.226674,-0.06667 c 0,0.733331 0.346666,1.09333 1.066664,1.09333 0.706665,0 1.066664,-0.359999 1.066664,-1.09333 V 6.8818928 l 3.706657,5.4399862 c 0.293333,0.413332 0.679999,0.626665 1.119998,0.626665 0.706664,0 1.066664,-0.386666 1.066664,-1.159997 V 3.6552343 c 0,-0.7199982 -0.346666,-1.0799973 -1.079998,-1.0799973 -0.693331,0 -1.05333,0.3599991 -1.05333,1.0799973 V 8.7218882 L 41.50265,3.2685686 C 41.182651,2.8019031 40.795985,2.5619037 40.32932,2.5619037 c -0.693332,0 -1.053331,0.3866657 -1.053331,1.1599971 z m 9.479988,0.05333 c 0,0.706665 0.359999,1.039997 1.039997,1.039997 0.693332,0 1.039997,-0.333332 1.039997,-1.039997 V 6.3218942 c 0,-0.6933315 -0.373332,-1.026664 -1.05333,-1.026664 -0.666665,0 -1.026664,0.3333325 -1.026664,1.026664 z M 48.56931,3.3085685 c 0,0.666665 0.533332,1.1866637 1.186664,1.1866637 0.679998,0 1.199997,-0.5199987 1.199997,-1.1866637 0,-0.666665 -0.519999,-1.1866636 -1.199997,-1.1866636 -0.653332,0 -1.186664,0.5199986 -1.186664,1.1866636 z m 3.546671,8.6133115 c 0,0.679998 0.333333,1.026664 0.999998,1.026664 0.706664,0 1.039997,-0.346666 1.039997,-1.026664 V 8.2018895 c 0,-0.7866647 0.519999,-1.1866637 1.053331,-1.1866637 0.479998,0 0.986664,0.3866657 0.986664,1.1866637 V 11.92188 c 0,0.679998 0.359999,1.026664 1.026664,1.026664 0.693331,0 1.039997,-0.346666 1.039997,-1.026664 V 7.8285571 c 0,-1.9599951 -1.226663,-2.6399933 -2.253327,-2.6399933 -0.799998,0 -1.386664,0.4266656 -1.853329,0.9599975 0,-0.4133322 -0.333333,-0.9199976 -1.039997,-0.9199976 -0.666665,0 -0.999998,0.5066654 -0.999998,1.0666639 z m 6.839987,-5.7333188 c 0,0.5999985 0.399999,0.7866647 0.933331,0.8399979 v 3.1999919 c 0,1.759996 0.439998,2.82666 2.34666,2.82666 0.719999,0 1.106664,-0.346666 1.106664,-0.999998 0,-0.666665 -0.386665,-0.999997 -1.106664,-0.999997 -0.253332,0 -0.279999,-0.266666 -0.279999,-0.826665 V 7.0552257 h 0.599999 c 0.706664,0 1.039997,-0.1866662 1.039997,-0.8533312 0,-0.6933315 -0.359999,-0.8666644 -1.066664,-0.8666644 H 61.95596 V 4.8152314 c 0,-0.666665 -0.346666,-1.0133308 -1.039997,-1.0133308 -0.679999,0 -1.026664,0.3466658 -1.026664,1.0133308 v 0.5199987 c -0.546666,0.066666 -0.933331,0.266666 -0.933331,0.8533311 z m 8.426644,-1.1199971 c -2.226661,0 -3.453325,1.9333284 -3.453325,3.95999 0,2.1999949 1.306664,4.0666559 3.653324,4.0666559 1.226664,0 2.213328,-0.453332 2.879993,-1.279996 0.173333,-0.186667 0.226666,-0.373333 0.226666,-0.613332 0,-0.613332 -0.333332,-0.879998 -0.759998,-0.879998 -0.706665,0 -1.13333,0.826665 -2.159994,0.826665 -0.573332,0 -1.759996,-0.413333 -1.759996,-1.6133296 h 3.053326 c 1.026664,0 1.653329,0 1.653329,-1.026664 0,-2.0666615 -1.186664,-3.4399913 -3.333325,-3.4399913 z m -1.266663,3.0799922 c 0,-0.8266646 0.679998,-1.2666635 1.29333,-1.2666635 0.586665,0 1.17333,0.4133323 1.17333,1.2666635 z m 5.57332,3.7733237 c 0,0.679998 0.333333,1.026664 0.999997,1.026664 0.706665,0 1.039998,-0.346666 1.039998,-1.026664 V 8.2018895 c 0,-0.7866647 0.519999,-1.1866637 1.053331,-1.1866637 0.479998,0 0.986664,0.3866657 0.986664,1.1866637 V 11.92188 c 0,0.679998 0.359999,1.026664 1.026664,1.026664 0.693331,0 1.039997,-0.346666 1.039997,-1.026664 V 7.8285571 c 0,-1.9599951 -1.226663,-2.6399933 -2.253327,-2.6399933 -0.799998,0 -1.386664,0.4266656 -1.853329,0.9599975 0,-0.4133322 -0.333333,-0.9199976 -1.039998,-0.9199976 -0.666664,0 -0.999997,0.5066654 -0.999997,1.0666639 z M 83.475911,6.0952281 C 83.062579,5.4018966 82.275914,5.0818974 81.635916,5.0818974 c -1.45333,0 -2.839993,1.5999959 -2.839993,4.0266565 0,2.3733271 1.413329,3.9866561 2.826659,3.9866561 0.719998,0 1.439997,-0.413332 1.973329,-1.226663 v 0.306666 c 0,0.839998 0.573331,0.946664 0.933331,0.946664 0.679998,0 1.026664,-0.346666 1.026664,-0.986664 V 3.0952357 c 0,-0.6933316 -0.346666,-1.0666639 -1.026664,-1.0666639 -0.679999,0 -1.053331,0.3733323 -1.053331,1.0666639 z m -1.33333,5.0133209 c -0.839998,0 -1.25333,-0.973331 -1.25333,-1.9866618 0,-1.0266641 0.453332,-2.1066614 1.29333,-2.1066614 0.666665,0 1.33333,0.7599981 1.33333,2.0533282 0,1.29333 -0.706665,2.039995 -1.37333,2.039995 z m 7.879982,-5.999985 c -2.279995,0 -3.466658,1.8399953 -3.466658,3.9066568 0,2.0799952 1.186663,4.0533232 3.466658,4.0533232 2.253327,0 3.466658,-1.866662 3.466658,-3.9733234 0,-2.0533282 -1.199997,-3.9866566 -3.466658,-3.9866566 z m 0,1.8933285 c 0.946664,0 1.359996,1.2399969 1.359996,2.1733279 0,0.9466646 -0.413332,2.0266616 -1.359996,2.0266616 -0.946665,0 -1.359997,-1.3199968 -1.359997,-2.2533277 0,-0.9599976 0.413332,-1.9466618 1.359997,-1.9466618 z"
     id="text2"
     aria-label="Super Nintendo" />
</svg>
