<?xml version="1.0" encoding="UTF-8" standalone="no"?>
<svg
   viewBox="0 0 200 40"
   version="1.1"
   id="svg1"
   sodipodi:docname="snk.svg"
   inkscape:version="1.3.2 (091e20e, 2023-11-25)"
   xmlns:inkscape="http://www.inkscape.org/namespaces/inkscape"
   xmlns:sodipodi="http://sodipodi.sourceforge.net/DTD/sodipodi-0.dtd"
   xmlns="http://www.w3.org/2000/svg"
   xmlns:svg="http://www.w3.org/2000/svg">
  <defs
     id="defs1">
    <rect
       x="0.30349014"
       y="0.60698027"
       width="199.08953"
       height="38.846737"
       id="rect3" />
    <rect
       x="0.60698027"
       y="0.60698027"
       width="198.78604"
       height="39.150228"
       id="rect2" />
    <rect
       x="0.91047041"
       y="0.60698027"
       width="198.17906"
       height="38.846737"
       id="rect1" />
  </defs>
  <sodipodi:namedview
     id="namedview1"
     pagecolor="#020202"
     bordercolor="#000000"
     borderopacity="0.25"
     inkscape:showpageshadow="2"
     inkscape:pageopacity="0.0"
     inkscape:pagecheckerboard="0"
     inkscape:deskcolor="#d1d1d1"
     inkscape:zoom="3.295"
     inkscape:cx="101.36571"
     inkscape:cy="-0.75872534"
     inkscape:window-width="1400"
     inkscape:window-height="864"
     inkscape:window-x="209"
     inkscape:window-y="25"
     inkscape:window-maximized="0"
     inkscape:current-layer="svg1" />
  <path
     style="font-weight:bold;font-size:13.3333px;font-family:BPreplay;-inkscape-font-specification:'BPreplay Bold';letter-spacing:0px;white-space:pre;fill:#ffffff;stroke-width:2.64567;stroke-linecap:square;stroke-opacity:0.988722;paint-order:markers fill stroke"
     d="m 4.9293893,4.8818979 c 0.2399994,0.1999995 0.5066654,0.3333325 0.8399979,0.3333325 0.6133318,0 1.0533307,-0.5733319 1.0533307,-1.1199972 0,-0.4133323 -0.2133328,-0.7599981 -0.5999985,-1.0399974 C 5.5560544,2.5485704 4.7427232,2.2819044 3.9027253,2.2819044 c -1.8933286,0 -3.14665874,1.5333295 -3.14665874,3.0266591 0,1.7999954 1.59999594,2.5599935 2.94665924,3.1866586 1.066664,0.4933321 1.426663,0.799998 1.426663,1.2533301 0,0.7599978 -0.6399983,1.1466638 -1.3733298,1.1466638 -0.4266656,0 -0.8933311,-0.146666 -1.2533302,-0.373332 -0.2533327,-0.146667 -0.5199987,-0.226666 -0.7866647,-0.226666 -0.6933315,0 -1.03999734,0.319999 -1.03999734,1.026664 0,0.439998 0.1999995,0.786664 0.61333174,1.05333 0.7333315,0.479999 1.5599961,0.733332 2.4666605,0.733332 2.0533281,0 3.6399908,-1.279997 3.6399908,-3.4399916 0,-1.6399958 -1.1466638,-2.3733273 -2.759993,-3.159992 C 3.8093922,6.1085614 2.9960609,5.9085619 2.9960609,5.2552303 c 0,-0.5866652 0.3466658,-0.7599981 0.8933311,-0.7599981 0.3866657,0 0.7199982,0.1466663 1.0399973,0.3866657 z m 3.5466584,6.9733161 c 0,0.733331 0.3466658,1.09333 1.0666639,1.09333 0.7066654,0 1.0666644,-0.359999 1.0666644,-1.09333 V 6.8818928 l 3.706657,5.4399862 c 0.293332,0.413332 0.679998,0.626665 1.119997,0.626665 0.706665,0 1.066664,-0.386666 1.066664,-1.159997 V 3.6552343 c 0,-0.7199982 -0.346666,-1.0799973 -1.079997,-1.0799973 -0.693332,0 -1.053331,0.3599991 -1.053331,1.0799973 V 8.7218882 L 10.702709,3.2685686 C 10.38271,2.8019031 9.9960438,2.5619037 9.5293783,2.5619037 c -0.6933315,0 -1.0533306,0.3866657 -1.0533306,1.1599971 z m 9.6533213,0.08 c 0,0.666665 0.359999,1.013331 1.079998,1.013331 0.706665,0 1.05333,-0.346666 1.05333,-1.013331 V 9.5485527 l 0.919998,-0.9866641 2.399994,3.9066564 c 0.266666,0.293333 0.479999,0.493332 0.933331,0.493332 0.293333,0 1.079997,-0.373332 1.079997,-1.079997 0,-0.226666 -0.04,-0.466665 -0.266666,-0.706665 l -2.58666,-4.2266557 c 0.879998,-0.9733309 1.45333,-1.559996 2.306661,-2.5066603 0.226666,-0.1999995 0.306666,-0.4533322 0.306666,-0.7466648 0,-0.5599986 -0.546665,-1.1066639 -1.119997,-1.1066639 -0.253333,0 -0.546666,0.066666 -0.733332,0.3066659 l -3.239992,3.559991 V 3.5485679 c 0,-0.666665 -0.359999,-0.9866642 -1.079997,-0.9866642 -0.693332,0 -1.053331,0.3199992 -1.053331,0.9866642 z"
     id="text2"
     aria-label="SNK&#10;&#10;&#10;&#10;&#10;&#10;&#10;&#10;" />
</svg>
