<?xml version="1.0" encoding="UTF-8" standalone="no"?>
<svg
   viewBox="0 0 200 40"
   version="1.1"
   id="svg1"
   sodipodi:docname="tg16.svg"
   inkscape:version="1.3.2 (091e20e, 2023-11-25)"
   xmlns:inkscape="http://www.inkscape.org/namespaces/inkscape"
   xmlns:sodipodi="http://sodipodi.sourceforge.net/DTD/sodipodi-0.dtd"
   xmlns="http://www.w3.org/2000/svg"
   xmlns:svg="http://www.w3.org/2000/svg">
  <defs
     id="defs1">
    <rect
       x="0.30349014"
       y="0.60698027"
       width="199.08953"
       height="38.846737"
       id="rect3" />
    <rect
       x="0.60698027"
       y="0.60698027"
       width="198.78604"
       height="39.150228"
       id="rect2" />
    <rect
       x="0.91047041"
       y="0.60698027"
       width="198.17906"
       height="38.846737"
       id="rect1" />
  </defs>
  <sodipodi:namedview
     id="namedview1"
     pagecolor="#020202"
     bordercolor="#000000"
     borderopacity="0.25"
     inkscape:showpageshadow="2"
     inkscape:pageopacity="0.0"
     inkscape:pagecheckerboard="0"
     inkscape:deskcolor="#d1d1d1"
     inkscape:zoom="3.295"
     inkscape:cx="101.36571"
     inkscape:cy="-0.75872534"
     inkscape:window-width="1400"
     inkscape:window-height="864"
     inkscape:window-x="209"
     inkscape:window-y="25"
     inkscape:window-maximized="0"
     inkscape:current-layer="svg1" />
  <path
     style="font-weight:bold;font-size:13.3333px;font-family:BPreplay;-inkscape-font-specification:'BPreplay Bold';letter-spacing:0px;white-space:pre;fill:#ffffff;stroke-width:2.64567;stroke-linecap:square;stroke-opacity:0.988722;paint-order:markers fill stroke"
     d="m 2.8627279,11.815214 c 0,0.759998 0.3599991,1.13333 1.0933306,1.13333 0.6933316,0 1.0399973,-0.373332 1.0399973,-1.13333 V 4.708565 h 1.2266636 c 0.7066649,0 1.0799973,-0.3599991 1.0799973,-1.0533307 0,-0.7333315 -0.3733324,-1.0799973 -1.0799973,-1.0799973 H 1.6493976 c -0.73333144,0 -1.10666383,0.3466658 -1.10666383,1.0799973 0,0.6933316 0.37333239,1.0533307 1.10666383,1.0533307 h 1.2133303 z m 6.293312,-5.5066531 c 0,-0.7066648 -0.3199992,-1.026664 -1.0266641,-1.026664 -0.6799983,0 -1.0133308,0.3199992 -1.0133308,1.026664 v 3.559991 c 0,2.0133281 1.1599971,3.1599921 2.3866606,3.1599921 0.7333314,0 1.4933294,-0.399999 2.0533284,-1.146664 v 0.399999 c 0.01333,0.599999 0.426665,0.839998 0.786664,0.839998 0.693332,0 1.026665,-0.346666 1.026665,-0.986664 V 6.268561 c 0,-0.7066648 -0.333333,-1.0533306 -1.026665,-1.0533306 -0.746664,0 -0.986664,0.3866657 -0.986664,1.0533306 v 2.799993 c 0,1.279997 -0.639998,1.973328 -1.266663,1.973328 -0.4666657,0 -0.9199978,-0.239999 -0.9199978,-1.5466624 z M 14.649363,11.92188 c 0,0.679998 0.346666,1.026664 1.026665,1.026664 0.706664,0 1.026664,-0.346666 1.026664,-1.026664 V 8.2018895 c 0,-0.5866652 0.586665,-0.9999975 1.09333,-0.9999975 0.133333,0 0.213333,0.026667 0.306666,0.04 0.133333,0.026667 0.306666,0.04 0.493332,0.04 0.613332,0 1.053331,-0.4933321 1.053331,-1.0399974 0,-0.5466652 -0.399999,-1.1333304 -1.466663,-1.1333304 -0.559999,0 -1.426663,0.5466653 -1.653329,0.9866641 -0.02667,-0.626665 -0.439999,-0.8799977 -0.853331,-0.8799977 -0.679999,0 -1.026665,0.3466658 -1.026665,1.0666639 z m 5.626661,0.08 c 0,0.706665 0.333332,1.066664 0.999997,1.066664 0.28,0 0.866665,-0.226666 0.866665,-0.813331 v -0.426666 c 0.346665,0.839998 1.159997,1.25333 1.853328,1.25333 1.479997,0 3.053326,-1.826662 3.053326,-4.013323 0,-2.6133268 -1.399996,-3.9733233 -2.719993,-3.9733233 -0.773332,0 -1.426663,0.2799993 -1.999995,1.0799972 V 3.0952357 c 0,-0.6933316 -0.333333,-1.0533306 -1.039997,-1.0533306 -0.693332,0 -1.013331,0.359999 -1.013331,1.0533306 z m 3.479991,-0.933331 c -0.959998,0 -1.386663,-1.026664 -1.386663,-2.0266616 0,-0.9466643 0.426665,-2.0399949 1.386663,-2.0399949 0.879998,0 1.186664,1.1733304 1.186664,2.0933281 0,0.9333314 -0.306666,1.9733284 -1.186664,1.9733284 z m 7.43997,-5.959985 c -2.279995,0 -3.466658,1.8399953 -3.466658,3.9066568 0,2.0799952 1.186663,4.0533232 3.466658,4.0533232 2.253327,0 3.466657,-1.866662 3.466657,-3.9733234 0,-2.0533282 -1.199996,-3.9866566 -3.466657,-3.9866566 z m 0,1.8933285 c 0.946664,0 1.359996,1.2399969 1.359996,2.1733279 0,0.9466646 -0.413332,2.0266616 -1.359996,2.0266616 -0.946665,0 -1.359997,-1.3199968 -1.359997,-2.2533277 0,-0.9599976 0.413332,-1.9466618 1.359997,-1.9466618 z m 8.879974,3.9066565 c -1.626663,0 -2.426661,-1.5066625 -2.426661,-3.0533253 0,-1.866662 0.826665,-3.4399913 2.519994,-3.4399913 0.519999,0 1.146664,0.1066664 1.733329,0.6399984 0.253333,0.2399994 0.546665,0.3466658 0.813331,0.3466658 0.506666,0 0.946664,-0.3866657 0.946664,-1.0533307 0,-1.2399969 -1.893328,-2.1466613 -3.453324,-2.1466613 -3.213325,0 -4.813321,2.7333265 -4.813321,5.6666524 0,2.639993 1.506663,5.226653 4.639988,5.226653 2.639993,0 4.306656,-1.919995 4.306656,-4.6133212 0,-0.8933311 -0.133333,-1.7199957 -1.399997,-1.7199957 h -2.679993 c -0.799998,0 -1.199997,0.3466658 -1.199997,1.0799973 0,0.6933316 0.386666,1.066664 1.159997,1.066664 h 1.933329 c -0.133333,1.2666636 -0.866665,1.9999946 -2.079995,1.9999946 z m 5.14665,1.013331 c 0,0.679998 0.346666,1.026664 1.026665,1.026664 0.706664,0 1.026664,-0.346666 1.026664,-1.026664 V 8.2018895 c 0,-0.5866652 0.586665,-0.9999975 1.09333,-0.9999975 0.133333,0 0.213333,0.026667 0.306666,0.04 0.133333,0.026667 0.306666,0.04 0.493332,0.04 0.613332,0 1.053331,-0.4933321 1.053331,-1.0399974 0,-0.5466652 -0.399999,-1.1333304 -1.466663,-1.1333304 -0.559999,0 -1.426663,0.5466653 -1.653329,0.9866641 -0.02667,-0.626665 -0.439999,-0.8799977 -0.853331,-0.8799977 -0.679999,0 -1.026665,0.3466658 -1.026665,1.0666639 z m 6.26666,-6.3733171 c -0.426666,0.1733329 -0.693332,0.4666654 -0.693332,0.8399978 0,0.6799983 0.479999,0.8399979 0.986665,0.8399979 0.479998,0 0.919997,-0.1733329 1.466662,-0.1733329 0.746665,0 1.626663,0.4799988 1.626663,1.2666635 V 8.9752209 C 54.395928,8.6285551 53.689263,8.4285556 52.969265,8.4285556 c -1.706662,0 -2.70666,1.2533301 -2.70666,2.4533274 0,1.106664 0.866665,2.159994 2.386661,2.159994 0.746665,0 1.546663,-0.306666 2.173328,-0.973331 v 0.253333 c 0.04,0.546665 0.613332,0.719998 0.839998,0.719998 0.653331,0 1.039997,-0.493332 1.039997,-1.026664 V 8.0285566 c 0,-2.0399949 -1.679996,-2.8399928 -3.373325,-2.8399928 -0.613331,0 -1.25333,0.1199997 -1.839995,0.3599991 z m 0.866664,5.0666541 c 0,-0.426666 0.559999,-0.613332 1.119998,-0.613332 0.533332,0 1.119997,0.199999 1.119997,0.546665 0,0.466666 -0.639999,0.706665 -1.239997,0.706665 -0.493332,0 -0.999998,-0.213333 -0.999998,-0.639998 z m 6.053319,1.306663 c 0,0.679998 0.333333,1.026664 1.026664,1.026664 0.693332,0 1.013331,-0.346666 1.013331,-1.026664 V 7.1485588 h 0.16 c 0.746664,0 1.09333,-0.2399994 1.09333,-0.933331 0,-0.6799982 -0.359999,-0.9066643 -1.09333,-0.9066643 -0.05333,0 -0.05333,0.013333 -0.09333,0.013333 V 4.841898 c 0,-0.4266656 0.306666,-0.8266646 0.746665,-0.8266646 0.333333,0 0.853331,-0.1999995 0.853331,-0.8533312 0,-0.6533317 -0.386665,-1.0133307 -1.119997,-1.0133307 -1.199997,0 -2.493327,0.7999979 -2.573327,2.2666609 v 0.9066644 c -0.693331,0 -1.066664,0.2266661 -1.066664,0.9199976 0,0.666665 0.373333,0.8799978 1.053331,0.8933311 z m 3.919999,-0.826664 c -0.213332,0.279999 -0.319999,0.599998 -0.319999,0.879997 0,0.639999 0.319999,0.946665 0.933331,0.946665 0.386666,0 0.733332,-0.186667 0.986664,-0.573332 0.439999,-0.599999 0.866665,-1.239997 1.29333,-1.839996 l 1.306664,1.826662 c 0.253332,0.413333 0.653331,0.613332 1.079997,0.613332 0.639998,0 0.959998,-0.333332 0.959998,-0.973331 0,-0.319999 -0.09333,-0.639998 -0.333333,-0.933331 L 66.409241,8.8818878 67.995904,6.9085594 C 68.18257,6.6818933 68.26257,6.4418939 68.26257,6.1885612 c 0,-0.5866651 -0.479999,-1.0133307 -1.053331,-1.0133307 -0.386666,0 -0.706665,0.1733329 -0.933331,0.5066654 L 65.289244,7.3485583 64.34258,5.7085625 C 64.115914,5.3618967 63.795914,5.1885638 63.382582,5.1885638 c -0.546665,0 -1.039997,0.4266656 -1.039997,1.026664 0,0.2399994 0.06667,0.4933321 0.239999,0.6933316 l 1.573329,2.0399949 z m 11.159976,0.746664 c 0,0.639999 0.426666,1.106664 1.079997,1.106664 0.639999,0 1.066664,-0.466665 1.066664,-1.106664 V 4.3885658 c 0,-0.4266656 -0.04,-0.7199982 -0.106666,-0.8133313 -0.12,-0.3199992 -0.439999,-0.6266651 -0.933331,-0.6266651 l -1.959995,0.533332 c -0.613332,0.1733329 -0.879998,0.6266651 -0.879998,1.066664 0,0.5866652 0.466666,0.9866642 1.013331,0.9866642 0.239999,0 0.479999,-0.066667 0.719998,-0.1599996 z m 8.146641,-7.1066484 c 0.226667,-0.2266661 0.32,-0.4533322 0.32,-0.7199982 0,-0.6799983 -0.493332,-1.066664 -1.093331,-1.066664 -0.279999,0 -0.559999,0.133333 -0.799998,0.3199992 -1.599996,1.4933296 -3.186659,3.6399908 -3.186659,6.0533181 0,1.9466613 1.119998,3.7733233 3.279992,3.7733233 2.026662,0 3.319992,-1.719995 3.319992,-3.5999904 0,-1.466663 -0.839998,-2.933326 -2.54666,-2.933326 -0.346666,0 -0.706665,0 -1.079998,0.1999995 0.386666,-0.8799978 1.173331,-1.4799962 1.786662,-2.0266615 z m -2.653326,4.7733212 c 0,-0.6666649 0.359999,-1.3466632 1.146664,-1.3466632 0.866664,0 1.25333,0.6799983 1.25333,1.3599965 0,0.7333319 -0.439999,1.4399969 -1.226664,1.5066629 -0.759998,-0.02667 -1.17333,-0.773331 -1.17333,-1.5199962 z"
     id="text2"
     aria-label="TurboGrafx 16" />
</svg>
