<?xml version="1.0" encoding="UTF-8" standalone="no"?>
<svg
   viewBox="0 0 200 40"
   version="1.1"
   id="svg1"
   sodipodi:docname="ti83.svg"
   inkscape:version="1.3.2 (091e20e, 2023-11-25)"
   xmlns:inkscape="http://www.inkscape.org/namespaces/inkscape"
   xmlns:sodipodi="http://sodipodi.sourceforge.net/DTD/sodipodi-0.dtd"
   xmlns="http://www.w3.org/2000/svg"
   xmlns:svg="http://www.w3.org/2000/svg">
  <defs
     id="defs1">
    <rect
       x="0.30349014"
       y="0.60698027"
       width="199.08953"
       height="38.846737"
       id="rect3" />
    <rect
       x="0.60698027"
       y="0.60698027"
       width="198.78604"
       height="39.150228"
       id="rect2" />
    <rect
       x="0.91047041"
       y="0.60698027"
       width="198.17906"
       height="38.846737"
       id="rect1" />
  </defs>
  <sodipodi:namedview
     id="namedview1"
     pagecolor="#020202"
     bordercolor="#000000"
     borderopacity="0.25"
     inkscape:showpageshadow="2"
     inkscape:pageopacity="0.0"
     inkscape:pagecheckerboard="0"
     inkscape:deskcolor="#d1d1d1"
     inkscape:zoom="3.295"
     inkscape:cx="101.36571"
     inkscape:cy="-0.75872534"
     inkscape:window-width="1400"
     inkscape:window-height="864"
     inkscape:window-x="209"
     inkscape:window-y="25"
     inkscape:window-maximized="0"
     inkscape:current-layer="svg1" />
  <path
     style="font-weight:bold;font-size:13.3333px;font-family:BPreplay;-inkscape-font-specification:'BPreplay Bold';letter-spacing:0px;white-space:pre;fill:#ffffff;stroke-width:2.64567;stroke-linecap:square;stroke-opacity:0.988722;paint-order:markers fill stroke"
     d="m 2.8627279,11.815214 c 0,0.759998 0.3599991,1.13333 1.0933306,1.13333 0.6933316,0 1.0399973,-0.373332 1.0399973,-1.13333 V 4.708565 h 1.2266636 c 0.7066649,0 1.0799973,-0.3599991 1.0799973,-1.0533307 0,-0.7333315 -0.3733324,-1.0799973 -1.0799973,-1.0799973 H 1.6493976 c -0.73333144,0 -1.10666383,0.3466658 -1.10666383,1.0799973 0,0.6933316 0.37333239,1.0533307 1.10666383,1.0533307 h 1.2133303 z m 5.5066432,0.05333 c 0,0.733331 0.3599991,1.079997 1.0666639,1.079997 0.719998,0 1.079997,-0.346666 1.079997,-1.079997 V 3.641901 c 0,-0.7333315 -0.359999,-1.0799973 -1.079997,-1.0799973 -0.7066648,0 -1.0666639,0.3466658 -1.0666639,1.0799973 z M 13.009358,8.0152233 c -0.693332,0 -1.106664,0.5199987 -1.106664,1.066664 0,0.7066648 0.373332,1.0266637 1.106664,1.0266637 h 2.439994 c 0.746664,0 1.106663,-0.3199989 1.106663,-1.0266637 0,-0.6933316 -0.359999,-1.066664 -1.106663,-1.066664 z m 4.613321,1.7733288 c 0,1.9066619 1.319997,3.3066579 3.266658,3.3066579 1.813329,0 3.213326,-1.506662 3.213326,-3.2799913 0,-0.9599975 -0.679999,-2.093328 -1.399997,-2.4399938 0.586665,-0.3733324 1.026664,-1.1599971 1.026664,-1.8799952 0,-1.6399959 -1.21333,-2.7866597 -2.853326,-2.7866597 -1.586663,0 -2.919993,1.199997 -2.919993,2.7866597 0,0.7866646 0.399999,1.5866626 1.013331,1.959995 -0.773331,0.4399989 -1.346663,1.3999965 -1.346663,2.3333274 z m 3.266658,-1.2399968 c 0.586666,0 1.026664,0.5466653 1.026664,1.2266635 0,0.6399982 -0.399999,1.1866642 -1.026664,1.1866642 -0.666665,0 -1.079997,-0.546666 -1.079997,-1.2133308 0,-0.6399983 0.426666,-1.1999969 1.079997,-1.1999969 z m -0.04,-2.0666615 c -0.493332,0 -0.759998,-0.4399989 -0.759998,-0.9199976 0,-0.5066654 0.386666,-0.7733314 0.773332,-0.7733314 0.346666,0 0.693331,0.266666 0.693331,0.7733314 0,0.4666654 -0.279999,0.9199976 -0.706665,0.9199976 z m 7.159982,-3.826657 c -1.653329,0 -2.853326,1.2266636 -2.853326,2.5066604 0,0.6266651 0.346665,0.9599975 1.106663,0.9599975 0.653332,0 0.813332,-0.5599985 0.826665,-0.7199981 0.01333,-0.1066664 0.08,-0.666665 0.866664,-0.666665 0.533332,0 0.839998,0.3599991 0.839998,0.8799978 0,0.4266655 -0.226666,1.0399973 -0.586665,1.1466637 -0.133333,0.026667 -0.333332,0.026667 -0.386666,0.026667 -0.746664,0 -1.13333,0.2133328 -1.13333,0.8799978 0,0.6399984 0.373332,0.9066644 1.13333,0.9066644 h 0.439999 c 0.599999,0.093333 0.879998,0.7599981 0.879998,1.29333 0,0.7199981 -0.559998,1.0933311 -1.119997,1.0933311 -0.413332,0 -0.773331,-0.253333 -0.999997,-0.773332 -0.186667,-0.4266655 -0.626666,-0.6666649 -0.999998,-0.6666649 -0.519999,0 -0.986664,0.3733324 -0.986664,1.0666639 0,0.399999 0.133333,0.826665 0.386666,1.186664 0.506665,0.693331 1.439996,1.319996 2.613326,1.319996 2.013329,0 3.239992,-1.559996 3.239992,-3.093325 0,-0.9599976 -0.479999,-1.9066619 -1.533329,-2.4799938 0.813331,-0.5199987 1.17333,-1.2933301 1.17333,-2.0799947 0,-1.3866632 -1.146664,-2.7866597 -2.906659,-2.7866597 z"
     id="text2"
     aria-label="TI-83&#10;&#10;&#10;&#10;&#10;&#10;&#10;&#10;" />
</svg>
