<?xml version="1.0" encoding="UTF-8" standalone="no"?>
<svg
   viewBox="0 0 200 40"
   version="1.1"
   id="svg1"
   sodipodi:docname="ti99.svg"
   inkscape:version="1.3.2 (091e20e, 2023-11-25)"
   xmlns:inkscape="http://www.inkscape.org/namespaces/inkscape"
   xmlns:sodipodi="http://sodipodi.sourceforge.net/DTD/sodipodi-0.dtd"
   xmlns="http://www.w3.org/2000/svg"
   xmlns:svg="http://www.w3.org/2000/svg">
  <defs
     id="defs1">
    <rect
       x="0.30349014"
       y="0.60698027"
       width="199.08953"
       height="38.846737"
       id="rect3" />
    <rect
       x="0.60698027"
       y="0.60698027"
       width="198.78604"
       height="39.150228"
       id="rect2" />
    <rect
       x="0.91047041"
       y="0.60698027"
       width="198.17906"
       height="38.846737"
       id="rect1" />
  </defs>
  <sodipodi:namedview
     id="namedview1"
     pagecolor="#020202"
     bordercolor="#000000"
     borderopacity="0.25"
     inkscape:showpageshadow="2"
     inkscape:pageopacity="0.0"
     inkscape:pagecheckerboard="0"
     inkscape:deskcolor="#d1d1d1"
     inkscape:zoom="3.295"
     inkscape:cx="101.36571"
     inkscape:cy="-0.75872534"
     inkscape:window-width="1400"
     inkscape:window-height="864"
     inkscape:window-x="209"
     inkscape:window-y="25"
     inkscape:window-maximized="0"
     inkscape:current-layer="svg1" />
  <path
     style="font-weight:bold;font-size:13.3333px;font-family:BPreplay;-inkscape-font-specification:'BPreplay Bold';letter-spacing:0px;white-space:pre;fill:#ffffff;stroke-width:2.64567;stroke-linecap:square;stroke-opacity:0.988722;paint-order:markers fill stroke"
     d="m 2.8627279,11.815214 c 0,0.759998 0.3599991,1.13333 1.0933306,1.13333 0.6933316,0 1.0399973,-0.373332 1.0399973,-1.13333 V 4.708565 h 1.2266636 c 0.7066649,0 1.0799973,-0.3599991 1.0799973,-1.0533307 0,-0.7333315 -0.3733324,-1.0799973 -1.0799973,-1.0799973 H 1.6493976 c -0.73333144,0 -1.10666383,0.3466658 -1.10666383,1.0799973 0,0.6933316 0.37333239,1.0533307 1.10666383,1.0533307 h 1.2133303 z m 5.5066432,0.05333 c 0,0.733331 0.3599991,1.079997 1.0666639,1.079997 0.719998,0 1.079997,-0.346666 1.079997,-1.079997 V 3.641901 c 0,-0.7333315 -0.359999,-1.0799973 -1.079997,-1.0799973 -0.7066648,0 -1.0666639,0.3466658 -1.0666639,1.0799973 z M 13.009358,8.0152233 c -0.693332,0 -1.106664,0.5199987 -1.106664,1.066664 0,0.7066648 0.373332,1.0266637 1.106664,1.0266637 h 2.439994 c 0.746664,0 1.106663,-0.3199989 1.106663,-1.0266637 0,-0.6933316 -0.359999,-1.066664 -1.106663,-1.066664 z m 6.279976,3.2666587 c -0.239999,0.199999 -0.439998,0.439999 -0.439998,0.906664 0,0.546665 0.439998,0.973331 1.01333,0.973331 0.24,0 0.466666,-0.04 0.733332,-0.253333 2.679993,-2.173328 3.373325,-4.6799879 3.373325,-6.3866503 0,-2.1733278 -1.253331,-3.8533236 -3.333325,-3.8533236 -2.279995,0 -3.413325,1.7733289 -3.413325,3.5466577 0,1.4933296 1.013331,3.1733254 2.866659,3.1733254 0.386666,0 0.799998,-0.066667 1.253331,-0.2266661 -0.533332,0.7866646 -1.29333,1.5066629 -2.053329,2.1199949 z m 1.293331,-6.5066505 c 0.906664,0 1.306663,0.8133313 1.306663,1.5199961 0,0.9999975 -0.586665,1.4533297 -1.29333,1.4533297 -0.653332,0 -1.239997,-0.5199987 -1.239997,-1.466663 0,-0.6799982 0.373332,-1.5066628 1.226664,-1.5066628 z m 6.199988,6.5066505 c -0.239999,0.199999 -0.439999,0.439999 -0.439999,0.906664 0,0.546665 0.439999,0.973331 1.013331,0.973331 0.239999,0 0.466665,-0.04 0.733331,-0.253333 2.679994,-2.173328 3.373325,-4.6799879 3.373325,-6.3866503 0,-2.1733278 -1.25333,-3.8533236 -3.333325,-3.8533236 -2.279994,0 -3.413324,1.7733289 -3.413324,3.5466577 0,1.4933296 1.01333,3.1733254 2.866659,3.1733254 0.386666,0 0.799998,-0.066667 1.25333,-0.2266661 -0.533332,0.7866646 -1.29333,1.5066629 -2.053328,2.1199949 z m 1.29333,-6.5066505 c 0.906664,0 1.306663,0.8133313 1.306663,1.5199961 0,0.9999975 -0.586665,1.4533297 -1.29333,1.4533297 -0.653331,0 -1.239997,-0.5199987 -1.239997,-1.466663 0,-0.6799982 0.373333,-1.5066628 1.226664,-1.5066628 z"
     id="text2"
     aria-label="TI-99&#10;" />
</svg>
