<?xml version="1.0" encoding="UTF-8" standalone="no"?>
<svg
   viewBox="0 0 200 40"
   version="1.1"
   id="svg1"
   sodipodi:docname="tic80.svg"
   inkscape:version="1.3.2 (091e20e, 2023-11-25)"
   xmlns:inkscape="http://www.inkscape.org/namespaces/inkscape"
   xmlns:sodipodi="http://sodipodi.sourceforge.net/DTD/sodipodi-0.dtd"
   xmlns="http://www.w3.org/2000/svg"
   xmlns:svg="http://www.w3.org/2000/svg">
  <defs
     id="defs1">
    <rect
       x="0.30349014"
       y="0.60698027"
       width="199.08953"
       height="38.846737"
       id="rect3" />
    <rect
       x="0.60698027"
       y="0.60698027"
       width="198.78604"
       height="39.150228"
       id="rect2" />
    <rect
       x="0.91047041"
       y="0.60698027"
       width="198.17906"
       height="38.846737"
       id="rect1" />
  </defs>
  <sodipodi:namedview
     id="namedview1"
     pagecolor="#020202"
     bordercolor="#000000"
     borderopacity="0.25"
     inkscape:showpageshadow="2"
     inkscape:pageopacity="0.0"
     inkscape:pagecheckerboard="0"
     inkscape:deskcolor="#d1d1d1"
     inkscape:zoom="3.295"
     inkscape:cx="101.36571"
     inkscape:cy="-0.75872534"
     inkscape:window-width="1400"
     inkscape:window-height="864"
     inkscape:window-x="209"
     inkscape:window-y="25"
     inkscape:window-maximized="0"
     inkscape:current-layer="svg1" />
  <path
     style="font-weight:bold;font-size:13.3333px;font-family:BPreplay;-inkscape-font-specification:'BPreplay Bold';letter-spacing:0px;white-space:pre;fill:#ffffff;stroke-width:2.64567;stroke-linecap:square;stroke-opacity:0.988722;paint-order:markers fill stroke"
     d="m 2.8627279,11.815214 c 0,0.759998 0.3599991,1.13333 1.0933306,1.13333 0.6933316,0 1.0399973,-0.373332 1.0399973,-1.13333 V 4.708565 h 1.2266636 c 0.7066649,0 1.0799973,-0.3599991 1.0799973,-1.0533307 0,-0.7333315 -0.3733324,-1.0799973 -1.0799973,-1.0799973 H 1.6493976 c -0.73333144,0 -1.10666383,0.3466658 -1.10666383,1.0799973 0,0.6933316 0.37333239,1.0533307 1.10666383,1.0533307 h 1.2133303 z m 5.2533213,0.09333 c 0,0.706665 0.3599991,1.039997 1.0399974,1.039997 0.6933316,0 1.0399974,-0.333332 1.0399974,-1.039997 V 6.3218942 c 0,-0.6933315 -0.3733324,-1.026664 -1.0533307,-1.026664 -0.666665,0 -1.0266641,0.3333325 -1.0266641,1.026664 z M 7.929383,3.3085685 c 0,0.666665 0.533332,1.1866637 1.1866637,1.1866637 0.6799983,0 1.1999973,-0.5199987 1.1999973,-1.1866637 0,-0.666665 -0.519999,-1.1866636 -1.1999973,-1.1866636 -0.6533317,0 -1.1866637,0.5199986 -1.1866637,1.1866636 z m 6.959993,3.8399903 c 0.506665,0 1.026664,0.2266661 1.426663,0.2266661 0.586665,0 0.973331,-0.3733324 0.973331,-0.9733309 0,-0.399999 -0.319999,-0.7733313 -0.759998,-0.9733308 -0.559999,-0.2533327 -1.146664,-0.3066659 -1.653329,-0.3066659 -2.013329,0 -3.719991,1.5733293 -3.719991,3.9333234 0,2.2799943 1.639996,4.0133233 3.746657,4.0133233 0.613332,0 1.279997,-0.16 1.906662,-0.573332 0.319999,-0.239999 0.546665,-0.519999 0.546665,-0.919998 0,-0.546665 -0.506665,-0.973331 -0.959997,-0.973331 -0.133333,0 -0.333333,0.04 -0.479999,0.146667 -0.306666,0.213333 -0.679998,0.293332 -0.999997,0.293332 -0.919998,0 -1.679996,-0.853331 -1.679996,-1.9333281 0,-1.1866637 0.719998,-1.9599951 1.653329,-1.9599951 z m 4.093325,0.8666645 c -0.693332,0 -1.106664,0.5199987 -1.106664,1.066664 0,0.7066648 0.373332,1.0266637 1.106664,1.0266637 h 2.439993 c 0.746665,0 1.106664,-0.3199989 1.106664,-1.0266637 0,-0.6933316 -0.359999,-1.066664 -1.106664,-1.066664 z m 4.613321,1.7733288 c 0,1.9066619 1.319996,3.3066579 3.266658,3.3066579 1.813329,0 3.213325,-1.506662 3.213325,-3.2799913 0,-0.9599975 -0.679998,-2.093328 -1.399996,-2.4399938 0.586665,-0.3733324 1.026664,-1.1599971 1.026664,-1.8799952 0,-1.6399959 -1.21333,-2.7866597 -2.853326,-2.7866597 -1.586663,0 -2.919993,1.199997 -2.919993,2.7866597 0,0.7866646 0.399999,1.5866626 1.013331,1.959995 -0.773331,0.4399989 -1.346663,1.3999965 -1.346663,2.3333274 z M 26.86268,8.5485553 c 0.586665,0 1.026664,0.5466653 1.026664,1.2266635 0,0.6399982 -0.399999,1.1866642 -1.026664,1.1866642 -0.666665,0 -1.079997,-0.546666 -1.079997,-1.2133308 0,-0.6399983 0.426666,-1.1999969 1.079997,-1.1999969 z m -0.04,-2.0666615 c -0.493332,0 -0.759998,-0.4399989 -0.759998,-0.9199976 0,-0.5066654 0.386666,-0.7733314 0.773332,-0.7733314 0.346665,0 0.693331,0.266666 0.693331,0.7733314 0,0.4666654 -0.279999,0.9199976 -0.706665,0.9199976 z m 7.773313,-3.826657 c -2.613326,0 -3.519991,3.0799923 -3.519991,5.2533201 0,2.2399941 0.866665,5.1866531 3.546658,5.1866531 2.573327,0 3.493324,-3.079992 3.493324,-5.2133197 0,-2.1866611 -0.853331,-5.2266535 -3.466657,-5.2266535 z m 0.02667,8.3333122 c -0.999998,0 -1.359997,-1.8533285 -1.359997,-3.0666588 0,-1.1199972 0.28,-3.1333254 1.37333,-3.1333254 0.973331,0 1.319997,1.8933285 1.319997,3.159992 0,1.066664 -0.346666,3.0399922 -1.33333,3.0399922 z"
     id="text2"
     aria-label="Tic-80&#10;" />
</svg>
