<?xml version="1.0" encoding="UTF-8" standalone="no"?>
<svg
   viewBox="0 0 200 40"
   version="1.1"
   id="svg1"
   sodipodi:docname="tigerlcd.svg"
   inkscape:version="1.3.2 (091e20e, 2023-11-25)"
   xmlns:inkscape="http://www.inkscape.org/namespaces/inkscape"
   xmlns:sodipodi="http://sodipodi.sourceforge.net/DTD/sodipodi-0.dtd"
   xmlns="http://www.w3.org/2000/svg"
   xmlns:svg="http://www.w3.org/2000/svg">
  <defs
     id="defs1">
    <rect
       x="0.30349014"
       y="0.60698027"
       width="199.08953"
       height="38.846737"
       id="rect3" />
    <rect
       x="0.60698027"
       y="0.60698027"
       width="198.78604"
       height="39.150228"
       id="rect2" />
    <rect
       x="0.91047041"
       y="0.60698027"
       width="198.17906"
       height="38.846737"
       id="rect1" />
  </defs>
  <sodipodi:namedview
     id="namedview1"
     pagecolor="#020202"
     bordercolor="#000000"
     borderopacity="0.25"
     inkscape:showpageshadow="2"
     inkscape:pageopacity="0.0"
     inkscape:pagecheckerboard="0"
     inkscape:deskcolor="#d1d1d1"
     inkscape:zoom="3.295"
     inkscape:cx="101.36571"
     inkscape:cy="-0.75872534"
     inkscape:window-width="1400"
     inkscape:window-height="864"
     inkscape:window-x="209"
     inkscape:window-y="25"
     inkscape:window-maximized="0"
     inkscape:current-layer="svg1" />
  <path
     style="font-weight:bold;font-size:13.3333px;font-family:BPreplay;-inkscape-font-specification:'BPreplay Bold';letter-spacing:0px;white-space:pre;fill:#ffffff;stroke-width:2.64567;stroke-linecap:square;stroke-opacity:0.988722;paint-order:markers fill stroke"
     d="m 2.8627279,11.815214 c 0,0.759998 0.3599991,1.13333 1.0933306,1.13333 0.6933316,0 1.0399973,-0.373332 1.0399973,-1.13333 V 4.708565 h 1.2266636 c 0.7066649,0 1.0799973,-0.3599991 1.0799973,-1.0533307 0,-0.7333315 -0.3733324,-1.0799973 -1.0799973,-1.0799973 H 1.6493976 c -0.73333144,0 -1.10666383,0.3466658 -1.10666383,1.0799973 0,0.6933316 0.37333239,1.0533307 1.10666383,1.0533307 h 1.2133303 z m 5.2533213,0.09333 c 0,0.706665 0.3599991,1.039997 1.0399974,1.039997 0.6933316,0 1.0399974,-0.333332 1.0399974,-1.039997 V 6.3218942 c 0,-0.6933315 -0.3733324,-1.026664 -1.0533307,-1.026664 -0.666665,0 -1.0266641,0.3333325 -1.0266641,1.026664 z M 7.929383,3.3085685 c 0,0.666665 0.533332,1.1866637 1.1866637,1.1866637 0.6799983,0 1.1999973,-0.5199987 1.1999973,-1.1866637 0,-0.666665 -0.519999,-1.1866636 -1.1999973,-1.1866636 -0.6533317,0 -1.1866637,0.5199986 -1.1866637,1.1866636 z m 8.986655,1.7866622 c -0.666665,0 -1.026665,0.3599991 -1.053331,0.9999974 -0.413332,-0.6933315 -1.199997,-1.0133307 -1.839995,-1.0133307 -1.45333,0 -2.839993,1.5999959 -2.839993,4.0266565 0,2.3733271 1.413329,3.8533231 2.826659,3.8533231 0.719998,0 1.439997,-0.279999 1.973329,-1.226663 0,1.41333 -0.28,2.346661 -1.466663,2.346661 -0.373333,0 -0.759998,-0.09333 -1.133331,-0.293333 -0.213333,-0.106666 -0.413332,-0.253333 -0.733331,-0.253333 -0.653332,0 -1.026664,0.519999 -1.026664,1.066664 0,0.346666 0.159999,0.706665 0.506665,0.933331 0.733331,0.453332 1.519996,0.679999 2.253328,0.679999 1.919995,0 3.559991,-1.506663 3.559991,-4.293323 V 6.1618946 c 0,-0.6933315 -0.346666,-1.0666639 -1.026664,-1.0666639 z m -2.386661,6.0133183 c -0.839998,0 -1.25333,-0.973331 -1.25333,-1.9866618 0,-1.0266641 0.453332,-2.1066614 1.29333,-2.1066614 0.666665,0 1.33333,0.7599981 1.33333,2.0533282 0,1.29333 -0.706665,2.039995 -1.37333,2.039995 z m 7.866649,-6.0399849 c -2.226661,0 -3.453324,1.9333284 -3.453324,3.95999 0,2.1999949 1.306663,4.0666559 3.653324,4.0666559 1.226663,0 2.213328,-0.453332 2.879993,-1.279996 0.173332,-0.186667 0.226666,-0.373333 0.226666,-0.613332 0,-0.613332 -0.333333,-0.879998 -0.759998,-0.879998 -0.706665,0 -1.133331,0.826665 -2.159995,0.826665 -0.573332,0 -1.759995,-0.413333 -1.759995,-1.6133296 h 3.053325 c 1.026664,0 1.653329,0 1.653329,-1.026664 0,-2.0666615 -1.186663,-3.4399913 -3.333325,-3.4399913 z m -1.266663,3.0799922 c 0,-0.8266646 0.679998,-1.2666635 1.29333,-1.2666635 0.586665,0 1.17333,0.4133323 1.17333,1.2666635 z m 5.573318,3.7733237 c 0,0.679998 0.346666,1.026664 1.026665,1.026664 0.706664,0 1.026664,-0.346666 1.026664,-1.026664 V 8.2018895 c 0,-0.5866652 0.586665,-0.9999975 1.09333,-0.9999975 0.133333,0 0.213333,0.026667 0.306666,0.04 0.133333,0.026667 0.306666,0.04 0.493332,0.04 0.613332,0 1.053331,-0.4933321 1.053331,-1.0399974 0,-0.5466652 -0.399999,-1.1333304 -1.466663,-1.1333304 -0.559999,0 -1.426663,0.5466653 -1.653329,0.9866641 -0.02667,-0.626665 -0.439999,-0.8799977 -0.853331,-0.8799977 -0.679999,0 -1.026665,0.3466658 -1.026665,1.0666639 z m 8.226674,-0.293333 c 0,0.866665 0.399999,1.319997 1.226664,1.319997 h 4.253322 c 0.733332,0 1.079998,-0.346666 1.079998,-1.079997 0,-0.693332 -0.346666,-1.053331 -1.079998,-1.053331 H 37.062683 V 3.641901 c 0,-0.7333315 -0.346666,-1.0799973 -1.079997,-1.0799973 -0.693332,0 -1.053331,0.3466658 -1.053331,1.0799973 z M 47.99597,10.228551 c -0.426665,0.426666 -0.986664,0.573332 -1.599996,0.573332 -1.733328,0 -2.62666,-1.5333295 -2.62666,-3.1599921 0,-1.5866627 0.853332,-3.159992 2.613327,-3.159992 0.613332,0 1.21333,0.2133328 1.626663,0.6266651 0.186666,0.1999995 0.546665,0.3199992 0.813331,0.3199992 0.586665,0 1.053331,-0.4266656 1.053331,-1.1066639 0,-0.3466658 -0.146667,-0.6533317 -0.413333,-0.9066644 -0.879997,-0.799998 -1.906661,-1.1599971 -3.039992,-1.1599971 -3.253325,0 -4.893321,2.7466598 -4.893321,5.4666529 0,2.6933263 1.599996,5.3733193 4.826655,5.3733193 1.159997,0 2.173327,-0.413332 3.039992,-1.186663 0.293332,-0.266666 0.399999,-0.573332 0.399999,-0.919998 0,-0.559998 -0.306666,-1.0799972 -1.066664,-1.0799972 -0.279999,0 -0.493332,0.08 -0.733332,0.3199992 z m 2.919985,1.599996 c 0,0.959998 0.279999,1.119997 1.133331,1.119997 h 2.38666 c 2.799993,0 4.546655,-2.533327 4.546655,-5.1333202 0,-2.5866601 -1.453329,-5.2266535 -4.293322,-5.2266535 h -2.439994 c -0.906664,0 -1.33333,0.399999 -1.33333,1.199997 z m 3.639991,-7.1066487 c 1.479996,0 2.226661,1.5199961 2.226661,3.0933255 0,1.5066629 -0.839998,2.9999922 -2.399994,2.9999922 H 53.062616 V 4.7218983 Z"
     id="text2"
     aria-label="Tiger LCD" />
</svg>
