<?xml version="1.0" encoding="UTF-8" standalone="no"?>
<svg
   viewBox="0 0 200 40"
   version="1.1"
   id="svg1"
   sodipodi:docname="tvc.svg"
   inkscape:version="1.3.2 (091e20e, 2023-11-25)"
   xmlns:inkscape="http://www.inkscape.org/namespaces/inkscape"
   xmlns:sodipodi="http://sodipodi.sourceforge.net/DTD/sodipodi-0.dtd"
   xmlns="http://www.w3.org/2000/svg"
   xmlns:svg="http://www.w3.org/2000/svg">
  <defs
     id="defs1">
    <rect
       x="0.30349014"
       y="0.60698027"
       width="199.08953"
       height="38.846737"
       id="rect3" />
    <rect
       x="0.60698027"
       y="0.60698027"
       width="198.78604"
       height="39.150228"
       id="rect2" />
    <rect
       x="0.91047041"
       y="0.60698027"
       width="198.17906"
       height="38.846737"
       id="rect1" />
  </defs>
  <sodipodi:namedview
     id="namedview1"
     pagecolor="#020202"
     bordercolor="#000000"
     borderopacity="0.25"
     inkscape:showpageshadow="2"
     inkscape:pageopacity="0.0"
     inkscape:pagecheckerboard="0"
     inkscape:deskcolor="#d1d1d1"
     inkscape:zoom="3.295"
     inkscape:cx="101.36571"
     inkscape:cy="-0.75872534"
     inkscape:window-width="1400"
     inkscape:window-height="864"
     inkscape:window-x="209"
     inkscape:window-y="25"
     inkscape:window-maximized="0"
     inkscape:current-layer="svg1" />
  <path
     style="font-weight:bold;font-size:13.3333px;font-family:BPreplay;-inkscape-font-specification:'BPreplay Bold';letter-spacing:0px;white-space:pre;fill:#ffffff;stroke-width:2.64567;stroke-linecap:square;stroke-opacity:0.988722;paint-order:markers fill stroke"
     d="M 2.5293954,3.3352351 C 2.3560625,2.8152364 1.9960634,2.5485704 1.4627314,2.5485704 c -0.70666484,0 -1.06666393,0.3599991 -1.06666393,1.066664 0,0.133333 0.0266666,0.2799993 0.0666665,0.4266656 l 2.82665953,7.83998 c 0.2533327,0.706665 0.6533317,1.066664 1.199997,1.066664 0.5866651,0 1.0133307,-0.386666 1.29333,-1.17333 L 8.516047,4.0685666 C 8.5693801,3.9619002 8.60938,3.8152339 8.60938,3.6819009 c 0,-0.5733319 -0.6133317,-1.1199972 -1.159997,-1.1199972 -0.5199987,0 -0.8266646,0.266666 -1.0133308,0.7866647 C 5.7827205,5.2018971 5.1693887,7.335225 4.5027238,9.2152203 Z M 9.3427,11.908547 c 0,0.706665 0.359999,1.039997 1.039997,1.039997 0.693332,0 1.039998,-0.333332 1.039998,-1.039997 V 6.3218942 c 0,-0.6933315 -0.373333,-1.026664 -1.053331,-1.026664 -0.666665,0 -1.026664,0.3333325 -1.026664,1.026664 z M 9.1560338,3.3085685 c 0,0.666665 0.5333319,1.1866637 1.1866632,1.1866637 0.679999,0 1.199997,-0.5199987 1.199997,-1.1866637 0,-0.666665 -0.519998,-1.1866636 -1.199997,-1.1866636 -0.6533313,0 -1.1866632,0.5199986 -1.1866632,1.1866636 z M 17.089358,6.0952281 C 16.676026,5.4018966 15.889361,5.0818974 15.249363,5.0818974 c -1.45333,0 -2.839993,1.5999959 -2.839993,4.0266565 0,2.3733271 1.41333,3.9866561 2.826659,3.9866561 0.719999,0 1.439997,-0.413332 1.973329,-1.226663 v 0.306666 c 0,0.839998 0.573332,0.946664 0.933331,0.946664 0.679998,0 1.026664,-0.346666 1.026664,-0.986664 V 3.0952357 c 0,-0.6933316 -0.346666,-1.0666639 -1.026664,-1.0666639 -0.679999,0 -1.053331,0.3733323 -1.053331,1.0666639 z m -1.33333,5.0133209 c -0.839998,0 -1.25333,-0.973331 -1.25333,-1.9866618 0,-1.0266641 0.453332,-2.1066614 1.29333,-2.1066614 0.666665,0 1.33333,0.7599981 1.33333,2.0533282 0,1.29333 -0.706665,2.039995 -1.37333,2.039995 z m 7.866649,-6.0399849 c -2.226661,0 -3.453325,1.9333284 -3.453325,3.95999 0,2.1999949 1.306663,4.0666559 3.653324,4.0666559 1.226664,0 2.213328,-0.453332 2.879993,-1.279996 0.173333,-0.186667 0.226666,-0.373333 0.226666,-0.613332 0,-0.613332 -0.333333,-0.879998 -0.759998,-0.879998 -0.706665,0 -1.133331,0.826665 -2.159995,0.826665 -0.573332,0 -1.759995,-0.413333 -1.759995,-1.6133296 h 3.053325 c 1.026664,0 1.65333,0 1.65333,-1.026664 0,-2.0666615 -1.186664,-3.4399913 -3.333325,-3.4399913 z m -1.266664,3.0799922 c 0,-0.8266646 0.679998,-1.2666635 1.29333,-1.2666635 0.586665,0 1.173331,0.4133323 1.173331,1.2666635 z M 31.089326,5.108564 c -2.279995,0 -3.466658,1.8399953 -3.466658,3.9066568 0,2.0799952 1.186663,4.0533232 3.466658,4.0533232 2.253327,0 3.466658,-1.866662 3.466658,-3.9733234 0,-2.0533282 -1.199997,-3.9866566 -3.466658,-3.9866566 z m 0,1.8933285 c 0.946664,0 1.359996,1.2399969 1.359996,2.1733279 0,0.9466646 -0.413332,2.0266616 -1.359996,2.0266616 -0.946665,0 -1.359997,-1.3199968 -1.359997,-2.2533277 0,-0.9599976 0.413332,-1.9466618 1.359997,-1.9466618 z m 3.826656,-0.8133313 c 0,0.5999985 0.399999,0.7866647 0.933331,0.8399979 v 3.1999919 c 0,1.759996 0.439999,2.82666 2.346661,2.82666 0.719998,0 1.106664,-0.346666 1.106664,-0.999998 0,-0.666665 -0.386666,-0.999997 -1.106664,-0.999997 -0.253333,0 -0.28,-0.266666 -0.28,-0.826665 V 7.0552257 h 0.599999 c 0.706665,0 1.039997,-0.1866662 1.039997,-0.8533312 0,-0.6933315 -0.359999,-0.8666644 -1.066664,-0.8666644 H 37.915974 V 4.8152314 c 0,-0.666665 -0.346665,-1.0133308 -1.039997,-1.0133308 -0.679998,0 -1.026664,0.3466658 -1.026664,1.0133308 v 0.5199987 c -0.546665,0.066666 -0.933331,0.266666 -0.933331,0.8533311 z M 43.355963,5.108564 c -2.279994,0 -3.466657,1.8399953 -3.466657,3.9066568 0,2.0799952 1.186663,4.0533232 3.466657,4.0533232 2.253328,0 3.466658,-1.866662 3.466658,-3.9733234 0,-2.0533282 -1.199997,-3.9866566 -3.466658,-3.9866566 z m 0,1.8933285 c 0.946665,0 1.359997,1.2399969 1.359997,2.1733279 0,0.9466646 -0.413332,2.0266616 -1.359997,2.0266616 -0.946664,0 -1.359996,-1.3199968 -1.359996,-2.2533277 0,-0.9599976 0.413332,-1.9466618 1.359996,-1.9466618 z m 4.439984,4.9199875 c 0,0.679998 0.333333,1.026664 0.999997,1.026664 0.706665,0 1.039998,-0.346666 1.039998,-1.026664 V 8.2018895 c 0,-0.7866647 0.519999,-1.1866637 1.053331,-1.1866637 0.479998,0 0.986664,0.3866657 0.986664,1.1866637 V 11.92188 c 0,0.679998 0.359999,1.026664 1.026664,1.026664 0.693331,0 1.039997,-0.346666 1.039997,-1.026664 V 7.8285571 c 0,-1.9599951 -1.226663,-2.6399933 -2.253327,-2.6399933 -0.799998,0 -1.386664,0.4266656 -1.853329,0.9599975 0,-0.4133322 -0.333333,-0.9199976 -1.039998,-0.9199976 -0.666664,0 -0.999997,0.5066654 -0.999997,1.0666639 z m 11.75998,-0.106666 c 0,0.759998 0.359999,1.13333 1.093331,1.13333 0.693331,0 1.039997,-0.373332 1.039997,-1.13333 V 4.708565 h 1.226664 c 0.706664,0 1.079997,-0.3599991 1.079997,-1.0533307 0,-0.7333315 -0.373333,-1.0799973 -1.079997,-1.0799973 h -4.573322 c -0.733332,0 -1.106664,0.3466658 -1.106664,1.0799973 0,0.6933316 0.373332,1.0533307 1.106664,1.0533307 h 1.21333 z M 66.46257,3.3352351 C 66.289237,2.8152364 65.929238,2.5485704 65.395906,2.5485704 c -0.706665,0 -1.066664,0.3599991 -1.066664,1.066664 0,0.133333 0.02667,0.2799993 0.06667,0.4266656 l 2.82666,7.83998 c 0.253332,0.706665 0.653331,1.066664 1.199997,1.066664 0.586665,0 1.01333,-0.386666 1.29333,-1.17333 l 2.733326,-7.7066474 c 0.05333,-0.1066664 0.09333,-0.2533327 0.09333,-0.3866657 0,-0.5733319 -0.613332,-1.1199972 -1.159997,-1.1199972 -0.519999,0 -0.826664,0.266666 -1.013331,0.7866647 -0.653331,1.8533287 -1.266663,3.9866566 -1.933328,5.8666519 z m 7.333296,4.6799882 c -0.693331,0 -1.106664,0.5199987 -1.106664,1.066664 0,0.7066648 0.373333,1.0266637 1.106664,1.0266637 h 2.439994 c 0.746665,0 1.106664,-0.3199989 1.106664,-1.0266637 0,-0.6933316 -0.359999,-1.066664 -1.106664,-1.066664 z m 10.973313,2.2133277 c -0.426666,0.426666 -0.986664,0.573332 -1.599996,0.573332 -1.733329,0 -2.62666,-1.5333295 -2.62666,-3.1599921 0,-1.5866627 0.853331,-3.159992 2.613327,-3.159992 0.613332,0 1.21333,0.2133328 1.626662,0.6266651 0.186667,0.1999995 0.546666,0.3199992 0.813332,0.3199992 0.586665,0 1.05333,-0.4266656 1.05333,-1.1066639 0,-0.3466658 -0.146666,-0.6533317 -0.413332,-0.9066644 -0.879998,-0.799998 -1.906662,-1.1599971 -3.039992,-1.1599971 -3.253325,0 -4.893321,2.7466598 -4.893321,5.4666529 0,2.6933263 1.599996,5.3733193 4.826654,5.3733193 1.159997,0 2.173328,-0.413332 3.039993,-1.186663 0.293332,-0.266666 0.399999,-0.573332 0.399999,-0.919998 0,-0.559998 -0.306666,-1.0799972 -1.066664,-1.0799972 -0.28,0 -0.493333,0.08 -0.733332,0.3199992 z m 5.893307,-5.119987 c -2.279994,0 -3.466658,1.8399953 -3.466658,3.9066568 0,2.0799952 1.186664,4.0533232 3.466658,4.0533232 2.253327,0 3.466658,-1.866662 3.466658,-3.9733234 0,-2.0533282 -1.199997,-3.9866566 -3.466658,-3.9866566 z m 0,1.8933285 c 0.946664,0 1.359996,1.2399969 1.359996,2.1733279 0,0.9466646 -0.413332,2.0266616 -1.359996,2.0266616 -0.946664,0 -1.359997,-1.3199968 -1.359997,-2.2533277 0,-0.9599976 0.413333,-1.9466618 1.359997,-1.9466618 z m 4.439983,4.9199875 c 0,0.679998 0.333333,1.026664 0.999998,1.026664 0.706665,0 1.039997,-0.346666 1.039997,-1.026664 V 8.2018895 c 0,-0.7866647 0.519999,-1.1866637 1.053331,-1.1866637 0.479999,0 0.986664,0.3866657 0.986664,1.1866637 V 11.92188 c 0,0.679998 0.359999,1.026664 1.026661,1.026664 0.69333,0 1.04,-0.346666 1.04,-1.026664 V 7.9752234 c 0.08,-0.6399984 0.56,-0.9599976 1.04,-0.9599976 0.48,0 0.98666,0.3866657 0.98666,1.1866637 V 11.92188 c 0,0.679998 0.36,1.026664 1.02667,1.026664 0.69333,0 1.03999,-0.346666 1.03999,-1.026664 V 7.8285571 c 0,-1.8533287 -1.10666,-2.6133267 -2.23999,-2.6133267 -0.84,0 -1.69333,0.4133323 -2.12,1.1066638 -0.35999,-0.8133312 -1.02666,-1.1333304 -1.719991,-1.1333304 -0.799998,0 -1.653329,0.4266656 -2.119995,0.9599975 0,-0.4133322 -0.333332,-0.9199976 -1.039997,-0.9199976 -0.666665,0 -0.999998,0.5066654 -0.999998,1.0666639 z m 11.533301,2.679993 c 0,0.706665 0.33333,1.066664 1,1.066664 0.28,0 0.86666,-0.226666 0.86666,-0.813331 v -2.879993 c 0.34667,0.706665 1.16,1.106664 1.85333,1.106664 1.48,0 3.05333,-1.826662 3.05333,-4.013323 0,-2.6133268 -1.4,-3.9733233 -2.72,-3.9733233 -0.77333,0 -1.42666,0.2799993 -1.99999,1.0666639 0,-0.6933315 -0.33333,-1.0533306 -1.04,-1.0533306 -0.69333,0 -1.01333,0.3599991 -1.01333,1.0533306 z m 3.47999,-3.533324 c -0.96,0 -1.38666,-1.026664 -1.38666,-2.0266616 0,-0.9466643 0.42666,-2.0399949 1.38666,-2.0399949 0.88,0 1.18667,1.1733304 1.18667,2.0933281 0,0.9333314 -0.30667,1.9733284 -1.18667,1.9733284 z m 6.27997,-4.7599881 c 0,-0.7066648 -0.32,-1.026664 -1.02666,-1.026664 -0.68,0 -1.01333,0.3199992 -1.01333,1.026664 v 3.559991 c 0,2.0133281 1.15999,3.1599921 2.38666,3.1599921 0.73333,0 1.49333,-0.399999 2.05332,-1.146664 v 0.399999 c 0.0133,0.599999 0.42667,0.839998 0.78667,0.839998 0.69333,0 1.02666,-0.346666 1.02666,-0.986664 V 6.268561 c 0,-0.7066648 -0.33333,-1.0533306 -1.02666,-1.0533306 -0.74667,0 -0.98666,0.3866657 -0.98666,1.0533306 v 2.799993 c 0,1.279997 -0.64,1.973328 -1.26667,1.973328 -0.46666,0 -0.92,-0.239999 -0.92,-1.5466624 z m 5.02666,-0.1199997 c 0,0.5999985 0.4,0.7866647 0.93333,0.8399979 v 3.1999919 c 0,1.759996 0.44,2.82666 2.34666,2.82666 0.72,0 1.10666,-0.346666 1.10666,-0.999998 0,-0.666665 -0.38666,-0.999997 -1.10666,-0.999997 -0.25333,0 -0.28,-0.266666 -0.28,-0.826665 V 7.0552257 h 0.6 c 0.70666,0 1.04,-0.1866662 1.04,-0.8533312 0,-0.6933315 -0.36,-0.8666644 -1.06667,-0.8666644 h -0.57333 V 4.8152314 c 0,-0.666665 -0.34667,-1.0133308 -1.04,-1.0133308 -0.68,0 -1.02666,0.3466658 -1.02666,1.0133308 v 0.5199987 c -0.54667,0.066666 -0.93333,0.266666 -0.93333,0.8533311 z m 8.42665,-1.1199971 c -2.22667,0 -3.45333,1.9333284 -3.45333,3.95999 0,2.1999949 1.30666,4.0666559 3.65332,4.0666559 1.22667,0 2.21333,-0.453332 2.88,-1.279996 0.17333,-0.186667 0.22666,-0.373333 0.22666,-0.613332 0,-0.613332 -0.33333,-0.879998 -0.75999,-0.879998 -0.70667,0 -1.13334,0.826665 -2.16,0.826665 -0.57333,0 -1.75999,-0.413333 -1.75999,-1.6133296 h 3.05332 c 1.02666,0 1.65333,0 1.65333,-1.026664 0,-2.0666615 -1.18666,-3.4399913 -3.33332,-3.4399913 z m -1.26667,3.0799922 c 0,-0.8266646 0.68,-1.2666635 1.29333,-1.2666635 0.58667,0 1.17333,0.4133323 1.17333,1.2666635 z m 5.57333,3.7733237 c 0,0.679998 0.34667,1.026664 1.02666,1.026664 0.70667,0 1.02667,-0.346666 1.02667,-1.026664 V 8.2018895 c 0,-0.5866652 0.58666,-0.9999975 1.09333,-0.9999975 0.13333,0 0.21333,0.026667 0.30666,0.04 0.13334,0.026667 0.30667,0.04 0.49334,0.04 0.61333,0 1.05333,-0.4933321 1.05333,-1.0399974 0,-0.5466652 -0.4,-1.1333304 -1.46667,-1.1333304 -0.55999,0 -1.42666,0.5466653 -1.65333,0.9866641 -0.0267,-0.626665 -0.43999,-0.8799977 -0.85333,-0.8799977 -0.67999,0 -1.02666,0.3466658 -1.02666,1.0666639 z"
     id="text2"
     aria-label="Videoton TV-Computer&#10;&#10;&#10;" />
</svg>
