<?xml version="1.0" encoding="UTF-8" standalone="no"?>
<svg
   viewBox="0 0 200 40"
   version="1.1"
   id="svg1"
   sodipodi:docname="uzebox.svg"
   inkscape:version="1.3.2 (091e20e, 2023-11-25)"
   xmlns:inkscape="http://www.inkscape.org/namespaces/inkscape"
   xmlns:sodipodi="http://sodipodi.sourceforge.net/DTD/sodipodi-0.dtd"
   xmlns="http://www.w3.org/2000/svg"
   xmlns:svg="http://www.w3.org/2000/svg">
  <defs
     id="defs1">
    <rect
       x="0.30349014"
       y="0.60698027"
       width="199.08953"
       height="38.846737"
       id="rect3" />
    <rect
       x="0.60698027"
       y="0.60698027"
       width="198.78604"
       height="39.150228"
       id="rect2" />
    <rect
       x="0.91047041"
       y="0.60698027"
       width="198.17906"
       height="38.846737"
       id="rect1" />
  </defs>
  <sodipodi:namedview
     id="namedview1"
     pagecolor="#020202"
     bordercolor="#000000"
     borderopacity="0.25"
     inkscape:showpageshadow="2"
     inkscape:pageopacity="0.0"
     inkscape:pagecheckerboard="0"
     inkscape:deskcolor="#d1d1d1"
     inkscape:zoom="3.295"
     inkscape:cx="101.36571"
     inkscape:cy="-0.75872534"
     inkscape:window-width="1400"
     inkscape:window-height="864"
     inkscape:window-x="209"
     inkscape:window-y="25"
     inkscape:window-maximized="0"
     inkscape:current-layer="svg1" />
  <path
     style="font-weight:bold;font-size:13.3333px;font-family:BPreplay;-inkscape-font-specification:'BPreplay Bold';letter-spacing:0px;white-space:pre;fill:#ffffff;stroke-width:2.64567;stroke-linecap:square;stroke-opacity:0.988722;paint-order:markers fill stroke"
     d="m 1.0627325,8.8152213 c 0,3.1733257 1.8133287,4.2799887 4.0666563,4.2799887 2.2266611,0 4.1599895,-1.09333 4.1599895,-4.2799887 V 3.7219008 c 0,-0.7866647 -0.3733324,-1.1466638 -1.1199971,-1.1466638 -0.7466648,0 -1.1199972,0.3599991 -1.1199972,1.1466638 v 4.9999874 c 0,1.6799958 -0.7733314,2.1333278 -1.7999955,2.1333278 -1.0399973,0 -1.959995,-0.479999 -1.959995,-2.1333278 V 3.7219008 c 0,-0.7866647 -0.3599991,-1.1466638 -1.1066639,-1.1466638 -0.7466648,0 -1.1199971,0.3599991 -1.1199971,1.1466638 z M 11.329371,5.1885638 c -0.706665,0 -1.039997,0.3199992 -1.039997,1.026664 0,0.6933316 0.333332,0.9199977 1.039997,0.9199977 h 1.839995 l -2.706659,4.0399895 c -0.213333,0.306666 -0.32,0.479999 -0.32,0.746665 0,0.679998 0.413333,1.026664 1.279997,1.026664 h 3.813324 c 0.693331,0 1.039997,-0.333332 1.039997,-1.039997 0,-0.666665 -0.346666,-0.879998 -1.039997,-0.879998 H 12.929367 L 15.72936,6.9752259 c 0.239999,-0.3466658 0.346666,-0.5199987 0.346666,-0.8266646 0,-0.6533316 -0.386666,-0.9599975 -1.119997,-0.9599975 z m 8.826644,-0.1199997 c -2.226661,0 -3.453324,1.9333284 -3.453324,3.95999 0,2.1999949 1.306663,4.0666559 3.653324,4.0666559 1.226663,0 2.213327,-0.453332 2.879992,-1.279996 0.173333,-0.186667 0.226666,-0.373333 0.226666,-0.613332 0,-0.613332 -0.333332,-0.879998 -0.759998,-0.879998 -0.706664,0 -1.13333,0.826665 -2.159994,0.826665 -0.573332,0 -1.759996,-0.413333 -1.759996,-1.6133296 h 3.053326 c 1.026664,0 1.653329,0 1.653329,-1.026664 0,-2.0666615 -1.186664,-3.4399913 -3.333325,-3.4399913 z m -1.266663,3.0799922 c 0,-0.8266646 0.679998,-1.2666635 1.29333,-1.2666635 0.586665,0 1.17333,0.4133323 1.17333,1.2666635 z m 5.61332,3.8533237 c 0,0.706665 0.333333,1.066664 0.999998,1.066664 0.279999,0 0.866664,-0.226666 0.866664,-0.813331 v -0.426666 c 0.346666,0.839998 1.159997,1.25333 1.853329,1.25333 1.479996,0 3.053325,-1.826662 3.053325,-4.013323 0,-2.6133268 -1.399996,-3.9733233 -2.719993,-3.9733233 -0.773331,0 -1.426663,0.2799993 -1.999995,1.0799972 V 3.0952357 c 0,-0.6933316 -0.333332,-1.0533306 -1.039997,-1.0533306 -0.693332,0 -1.013331,0.359999 -1.013331,1.0533306 z m 3.479991,-0.933331 c -0.959997,0 -1.386663,-1.026664 -1.386663,-2.0266616 0,-0.9466643 0.426666,-2.0399949 1.386663,-2.0399949 0.879998,0 1.186664,1.1733304 1.186664,2.0933281 0,0.9333314 -0.306666,1.9733284 -1.186664,1.9733284 z m 7.43997,-5.959985 c -2.279994,0 -3.466658,1.8399953 -3.466658,3.9066568 0,2.0799952 1.186664,4.0533232 3.466658,4.0533232 2.253328,0 3.466658,-1.866662 3.466658,-3.9733234 0,-2.0533282 -1.199997,-3.9866566 -3.466658,-3.9866566 z m 0,1.8933285 c 0.946664,0 1.359996,1.2399969 1.359996,2.1733279 0,0.9466646 -0.413332,2.0266616 -1.359996,2.0266616 -0.946664,0 -1.359997,-1.3199968 -1.359997,-2.2533277 0,-0.9599976 0.413333,-1.9466618 1.359997,-1.9466618 z m 4.199995,4.0933235 c -0.213333,0.279999 -0.319999,0.599998 -0.319999,0.879997 0,0.639999 0.319999,0.946665 0.933331,0.946665 0.386666,0 0.733332,-0.186667 0.986664,-0.573332 0.439999,-0.599999 0.866665,-1.239997 1.29333,-1.839996 l 1.306664,1.826662 c 0.253332,0.413333 0.653331,0.613332 1.079997,0.613332 0.639998,0 0.959998,-0.333332 0.959998,-0.973331 0,-0.319999 -0.09333,-0.639998 -0.333333,-0.933331 L 43.702618,8.8818878 45.289281,6.9085594 c 0.186666,-0.2266661 0.266666,-0.4666655 0.266666,-0.7199982 0,-0.5866651 -0.479999,-1.0133307 -1.053331,-1.0133307 -0.386666,0 -0.706665,0.1733329 -0.933331,0.5066654 L 42.582621,7.3485583 41.635957,5.7085625 C 41.40929,5.3618967 41.089291,5.1885638 40.675959,5.1885638 c -0.546665,0 -1.039997,0.4266656 -1.039997,1.026664 0,0.2399994 0.06667,0.4933321 0.239999,0.6933316 l 1.573329,2.0399949 z"
     id="text2"
     aria-label="Uzebox" />
</svg>
