<?xml version="1.0" encoding="UTF-8" standalone="no"?>
<svg
   viewBox="0 0 200 40"
   version="1.1"
   id="svg1"
   sodipodi:docname="videopac.svg"
   inkscape:version="1.3.2 (091e20e, 2023-11-25)"
   xmlns:inkscape="http://www.inkscape.org/namespaces/inkscape"
   xmlns:sodipodi="http://sodipodi.sourceforge.net/DTD/sodipodi-0.dtd"
   xmlns="http://www.w3.org/2000/svg"
   xmlns:svg="http://www.w3.org/2000/svg">
  <defs
     id="defs1">
    <rect
       x="0.30349014"
       y="0.60698027"
       width="199.08953"
       height="38.846737"
       id="rect3" />
    <rect
       x="0.60698027"
       y="0.60698027"
       width="198.78604"
       height="39.150228"
       id="rect2" />
    <rect
       x="0.91047041"
       y="0.60698027"
       width="198.17906"
       height="38.846737"
       id="rect1" />
  </defs>
  <sodipodi:namedview
     id="namedview1"
     pagecolor="#020202"
     bordercolor="#000000"
     borderopacity="0.25"
     inkscape:showpageshadow="2"
     inkscape:pageopacity="0.0"
     inkscape:pagecheckerboard="0"
     inkscape:deskcolor="#d1d1d1"
     inkscape:zoom="3.295"
     inkscape:cx="101.36571"
     inkscape:cy="-0.75872534"
     inkscape:window-width="1400"
     inkscape:window-height="864"
     inkscape:window-x="209"
     inkscape:window-y="25"
     inkscape:window-maximized="0"
     inkscape:current-layer="svg1" />
  <path
     style="font-weight:bold;font-size:13.3333px;font-family:BPreplay;-inkscape-font-specification:'BPreplay Bold';letter-spacing:0px;white-space:pre;fill:#ffffff;stroke-width:2.64567;stroke-linecap:square;stroke-opacity:0.988722;paint-order:markers fill stroke"
     d="M 2.5293954,3.3352351 C 2.3560625,2.8152364 1.9960634,2.5485704 1.4627314,2.5485704 c -0.70666484,0 -1.06666393,0.3599991 -1.06666393,1.066664 0,0.133333 0.0266666,0.2799993 0.0666665,0.4266656 l 2.82665953,7.83998 c 0.2533327,0.706665 0.6533317,1.066664 1.199997,1.066664 0.5866651,0 1.0133307,-0.386666 1.29333,-1.17333 L 8.516047,4.0685666 C 8.5693801,3.9619002 8.60938,3.8152339 8.60938,3.6819009 c 0,-0.5733319 -0.6133317,-1.1199972 -1.159997,-1.1199972 -0.5199987,0 -0.8266646,0.266666 -1.0133308,0.7866647 C 5.7827205,5.2018971 5.1693887,7.335225 4.5027238,9.2152203 Z M 9.3427,11.908547 c 0,0.706665 0.359999,1.039997 1.039997,1.039997 0.693332,0 1.039998,-0.333332 1.039998,-1.039997 V 6.3218942 c 0,-0.6933315 -0.373333,-1.026664 -1.053331,-1.026664 -0.666665,0 -1.026664,0.3333325 -1.026664,1.026664 z M 9.1560338,3.3085685 c 0,0.666665 0.5333319,1.1866637 1.1866632,1.1866637 0.679999,0 1.199997,-0.5199987 1.199997,-1.1866637 0,-0.666665 -0.519998,-1.1866636 -1.199997,-1.1866636 -0.6533313,0 -1.1866632,0.5199986 -1.1866632,1.1866636 z M 17.089358,6.0952281 C 16.676026,5.4018966 15.889361,5.0818974 15.249363,5.0818974 c -1.45333,0 -2.839993,1.5999959 -2.839993,4.0266565 0,2.3733271 1.41333,3.9866561 2.826659,3.9866561 0.719999,0 1.439997,-0.413332 1.973329,-1.226663 v 0.306666 c 0,0.839998 0.573332,0.946664 0.933331,0.946664 0.679998,0 1.026664,-0.346666 1.026664,-0.986664 V 3.0952357 c 0,-0.6933316 -0.346666,-1.0666639 -1.026664,-1.0666639 -0.679999,0 -1.053331,0.3733323 -1.053331,1.0666639 z m -1.33333,5.0133209 c -0.839998,0 -1.25333,-0.973331 -1.25333,-1.9866618 0,-1.0266641 0.453332,-2.1066614 1.29333,-2.1066614 0.666665,0 1.33333,0.7599981 1.33333,2.0533282 0,1.29333 -0.706665,2.039995 -1.37333,2.039995 z m 7.866649,-6.0399849 c -2.226661,0 -3.453325,1.9333284 -3.453325,3.95999 0,2.1999949 1.306663,4.0666559 3.653324,4.0666559 1.226664,0 2.213328,-0.453332 2.879993,-1.279996 0.173333,-0.186667 0.226666,-0.373333 0.226666,-0.613332 0,-0.613332 -0.333333,-0.879998 -0.759998,-0.879998 -0.706665,0 -1.133331,0.826665 -2.159995,0.826665 -0.573332,0 -1.759995,-0.413333 -1.759995,-1.6133296 h 3.053325 c 1.026664,0 1.65333,0 1.65333,-1.026664 0,-2.0666615 -1.186664,-3.4399913 -3.333325,-3.4399913 z m -1.266664,3.0799922 c 0,-0.8266646 0.679998,-1.2666635 1.29333,-1.2666635 0.586665,0 1.173331,0.4133323 1.173331,1.2666635 z M 31.089326,5.108564 c -2.279995,0 -3.466658,1.8399953 -3.466658,3.9066568 0,2.0799952 1.186663,4.0533232 3.466658,4.0533232 2.253327,0 3.466658,-1.866662 3.466658,-3.9733234 0,-2.0533282 -1.199997,-3.9866566 -3.466658,-3.9866566 z m 0,1.8933285 c 0.946664,0 1.359996,1.2399969 1.359996,2.1733279 0,0.9466646 -0.413332,2.0266616 -1.359996,2.0266616 -0.946665,0 -1.359997,-1.3199968 -1.359997,-2.2533277 0,-0.9599976 0.413332,-1.9466618 1.359997,-1.9466618 z m 4.479985,7.5999805 c 0,0.706665 0.333333,1.066664 0.999997,1.066664 0.28,0 0.866665,-0.226666 0.866665,-0.813331 v -2.879993 c 0.346666,0.706665 1.159997,1.106664 1.853329,1.106664 1.479996,0 3.053325,-1.826662 3.053325,-4.013323 0,-2.6133268 -1.399996,-3.9733233 -2.719993,-3.9733233 -0.773331,0 -1.426663,0.2799993 -1.999995,1.0666639 0,-0.6933315 -0.333332,-1.0533306 -1.039997,-1.0533306 -0.693332,0 -1.013331,0.3599991 -1.013331,1.0533306 z m 3.479991,-3.533324 c -0.959997,0 -1.386663,-1.026664 -1.386663,-2.0266616 0,-0.9466643 0.426666,-2.0399949 1.386663,-2.0399949 0.879998,0 1.186664,1.1733304 1.186664,2.0933281 0,0.9333314 -0.306666,1.9733284 -1.186664,1.9733284 z m 5.053305,-5.5199861 c -0.426665,0.1733329 -0.693331,0.4666654 -0.693331,0.8399978 0,0.6799983 0.479999,0.8399979 0.986664,0.8399979 0.479999,0 0.919998,-0.1733329 1.466663,-0.1733329 0.746665,0 1.626663,0.4799988 1.626663,1.2666635 V 8.9752209 C 47.009267,8.6285551 46.302602,8.4285556 45.582604,8.4285556 c -1.706663,0 -2.70666,1.2533301 -2.70666,2.4533274 0,1.106664 0.866664,2.159994 2.38666,2.159994 0.746665,0 1.546663,-0.306666 2.173328,-0.973331 v 0.253333 c 0.04,0.546665 0.613332,0.719998 0.839998,0.719998 0.653332,0 1.039998,-0.493332 1.039998,-1.026664 V 8.0285566 c 0,-2.0399949 -1.679996,-2.8399928 -3.373325,-2.8399928 -0.613332,0 -1.25333,0.1199997 -1.839996,0.3599991 z m 0.866665,5.0666541 c 0,-0.426666 0.559998,-0.613332 1.119997,-0.613332 0.533332,0 1.119997,0.199999 1.119997,0.546665 0,0.466666 -0.639998,0.706665 -1.239997,0.706665 -0.493332,0 -0.999997,-0.213333 -0.999997,-0.639998 z m 8.98665,-3.4666582 c 0.506666,0 1.026664,0.2266661 1.426663,0.2266661 0.586666,0 0.973331,-0.3733324 0.973331,-0.9733309 0,-0.399999 -0.319999,-0.7733313 -0.759998,-0.9733308 -0.559998,-0.2533327 -1.146663,-0.3066659 -1.653329,-0.3066659 -2.013328,0 -3.71999,1.5733293 -3.71999,3.9333234 0,2.2799943 1.639995,4.0133233 3.746657,4.0133233 0.613332,0 1.279996,-0.16 1.906662,-0.573332 0.319999,-0.239999 0.546665,-0.519999 0.546665,-0.919998 0,-0.546665 -0.506666,-0.973331 -0.959998,-0.973331 -0.133333,0 -0.333332,0.04 -0.479999,0.146667 -0.306665,0.213333 -0.679998,0.293332 -0.999997,0.293332 -0.919998,0 -1.679996,-0.853331 -1.679996,-1.9333281 0,-1.1866637 0.719998,-1.9599951 1.653329,-1.9599951 z"
     id="text2"
     aria-label="Videopac&#10;&#10;" />
</svg>
