<?xml version="1.0" encoding="UTF-8" standalone="no"?>
<svg
   viewBox="0 0 200 40"
   version="1.1"
   id="svg1"
   sodipodi:docname="vircon32.svg"
   inkscape:version="1.3.2 (091e20e, 2023-11-25)"
   xmlns:inkscape="http://www.inkscape.org/namespaces/inkscape"
   xmlns:sodipodi="http://sodipodi.sourceforge.net/DTD/sodipodi-0.dtd"
   xmlns="http://www.w3.org/2000/svg"
   xmlns:svg="http://www.w3.org/2000/svg">
  <defs
     id="defs1">
    <rect
       x="0.30349014"
       y="0.60698027"
       width="199.08953"
       height="38.846737"
       id="rect3" />
    <rect
       x="0.60698027"
       y="0.60698027"
       width="198.78604"
       height="39.150228"
       id="rect2" />
    <rect
       x="0.91047041"
       y="0.60698027"
       width="198.17906"
       height="38.846737"
       id="rect1" />
  </defs>
  <sodipodi:namedview
     id="namedview1"
     pagecolor="#020202"
     bordercolor="#000000"
     borderopacity="0.25"
     inkscape:showpageshadow="2"
     inkscape:pageopacity="0.0"
     inkscape:pagecheckerboard="0"
     inkscape:deskcolor="#d1d1d1"
     inkscape:zoom="3.295"
     inkscape:cx="101.36571"
     inkscape:cy="-0.75872534"
     inkscape:window-width="1400"
     inkscape:window-height="864"
     inkscape:window-x="209"
     inkscape:window-y="25"
     inkscape:window-maximized="0"
     inkscape:current-layer="svg1" />
  <path
     style="font-weight:bold;font-size:13.3333px;font-family:BPreplay;-inkscape-font-specification:'BPreplay Bold';letter-spacing:0px;white-space:pre;fill:#ffffff;stroke-width:2.64567;stroke-linecap:square;stroke-opacity:0.988722;paint-order:markers fill stroke"
     d="M 2.5293954,3.3352351 C 2.3560625,2.8152364 1.9960634,2.5485704 1.4627314,2.5485704 c -0.70666484,0 -1.06666393,0.3599991 -1.06666393,1.066664 0,0.133333 0.0266666,0.2799993 0.0666665,0.4266656 l 2.82665953,7.83998 c 0.2533327,0.706665 0.6533317,1.066664 1.199997,1.066664 0.5866651,0 1.0133307,-0.386666 1.29333,-1.17333 L 8.516047,4.0685666 C 8.5693801,3.9619002 8.60938,3.8152339 8.60938,3.6819009 c 0,-0.5733319 -0.6133317,-1.1199972 -1.159997,-1.1199972 -0.5199987,0 -0.8266646,0.266666 -1.0133308,0.7866647 C 5.7827205,5.2018971 5.1693887,7.335225 4.5027238,9.2152203 Z M 9.3427,11.908547 c 0,0.706665 0.359999,1.039997 1.039997,1.039997 0.693332,0 1.039998,-0.333332 1.039998,-1.039997 V 6.3218942 c 0,-0.6933315 -0.373333,-1.026664 -1.053331,-1.026664 -0.666665,0 -1.026664,0.3333325 -1.026664,1.026664 z M 9.1560338,3.3085685 c 0,0.666665 0.5333319,1.1866637 1.1866632,1.1866637 0.679999,0 1.199997,-0.5199987 1.199997,-1.1866637 0,-0.666665 -0.519998,-1.1866636 -1.199997,-1.1866636 -0.6533313,0 -1.1866632,0.5199986 -1.1866632,1.1866636 z M 12.702702,11.92188 c 0,0.679998 0.346666,1.026664 1.026665,1.026664 0.706664,0 1.026664,-0.346666 1.026664,-1.026664 V 8.2018895 c 0,-0.5866652 0.586665,-0.9999975 1.09333,-0.9999975 0.133333,0 0.213333,0.026667 0.306666,0.04 0.133333,0.026667 0.306666,0.04 0.493332,0.04 0.613332,0 1.053331,-0.4933321 1.053331,-1.0399974 0,-0.5466652 -0.399999,-1.1333304 -1.466663,-1.1333304 -0.559999,0 -1.426663,0.5466653 -1.653329,0.9866641 -0.02667,-0.626665 -0.439999,-0.8799977 -0.853331,-0.8799977 -0.679999,0 -1.026665,0.3466658 -1.026665,1.0666639 z m 8.826646,-4.7733212 c 0.506665,0 1.026664,0.2266661 1.426663,0.2266661 0.586665,0 0.973331,-0.3733324 0.973331,-0.9733309 0,-0.399999 -0.32,-0.7733313 -0.759998,-0.9733308 -0.559999,-0.2533327 -1.146664,-0.3066659 -1.65333,-0.3066659 -2.013328,0 -3.71999,1.5733293 -3.71999,3.9333234 0,2.2799943 1.639996,4.0133233 3.746657,4.0133233 0.613332,0 1.279997,-0.16 1.906662,-0.573332 0.319999,-0.239999 0.546665,-0.519999 0.546665,-0.919998 0,-0.546665 -0.506665,-0.973331 -0.959997,-0.973331 -0.133333,0 -0.333333,0.04 -0.479999,0.146667 -0.306666,0.213333 -0.679998,0.293332 -0.999998,0.293332 -0.919997,0 -1.679995,-0.853331 -1.679995,-1.9333281 0,-1.1866637 0.719998,-1.9599951 1.653329,-1.9599951 z M 27.929339,5.108564 c -2.279994,0 -3.466658,1.8399953 -3.466658,3.9066568 0,2.0799952 1.186664,4.0533232 3.466658,4.0533232 2.253328,0 3.466658,-1.866662 3.466658,-3.9733234 0,-2.0533282 -1.199997,-3.9866566 -3.466658,-3.9866566 z m 0,1.8933285 c 0.946664,0 1.359997,1.2399969 1.359997,2.1733279 0,0.9466646 -0.413333,2.0266616 -1.359997,2.0266616 -0.946664,0 -1.359996,-1.3199968 -1.359996,-2.2533277 0,-0.9599976 0.413332,-1.9466618 1.359996,-1.9466618 z m 4.439986,4.9199875 c 0,0.679998 0.333332,1.026664 0.999997,1.026664 0.706665,0 1.039997,-0.346666 1.039997,-1.026664 V 8.2018895 c 0,-0.7866647 0.519999,-1.1866637 1.053331,-1.1866637 0.479999,0 0.986664,0.3866657 0.986664,1.1866637 V 11.92188 c 0,0.679998 0.359999,1.026664 1.026664,1.026664 0.693332,0 1.039998,-0.346666 1.039998,-1.026664 V 7.8285571 c 0,-1.9599951 -1.226664,-2.6399933 -2.253328,-2.6399933 -0.799998,0 -1.386663,0.4266656 -1.853329,0.9599975 0,-0.4133322 -0.333332,-0.9199976 -1.039997,-0.9199976 -0.666665,0 -0.999997,0.5066654 -0.999997,1.0666639 z M 42.555969,2.6552368 c -1.65333,0 -2.853327,1.2266636 -2.853327,2.5066604 0,0.6266651 0.346666,0.9599975 1.106664,0.9599975 0.653332,0 0.813332,-0.5599985 0.826665,-0.7199981 0.01333,-0.1066664 0.08,-0.666665 0.866664,-0.666665 0.533332,0 0.839998,0.3599991 0.839998,0.8799978 0,0.4266655 -0.226666,1.0399973 -0.586665,1.1466637 -0.133333,0.026667 -0.333332,0.026667 -0.386666,0.026667 -0.746664,0 -1.13333,0.2133328 -1.13333,0.8799978 0,0.6399984 0.373332,0.9066644 1.13333,0.9066644 h 0.439999 c 0.599999,0.093333 0.879998,0.7599981 0.879998,1.29333 0,0.7199981 -0.559999,1.0933311 -1.119997,1.0933311 -0.413332,0 -0.773331,-0.253333 -0.999998,-0.773332 -0.186666,-0.4266655 -0.626665,-0.6666649 -0.999997,-0.6666649 -0.519999,0 -0.986664,0.3733324 -0.986664,1.0666639 0,0.399999 0.133333,0.826665 0.386665,1.186664 0.506666,0.693331 1.439997,1.319996 2.613327,1.319996 2.013328,0 3.239992,-1.559996 3.239992,-3.093325 0,-0.9599976 -0.479999,-1.9066619 -1.533329,-2.4799938 0.813331,-0.5199987 1.17333,-1.2933301 1.17333,-2.0799947 0,-1.3866632 -1.146664,-2.7866597 -2.906659,-2.7866597 z m 4.199991,3.0799923 c 0,0.5333319 0.359999,1.2266635 1.09333,1.2266635 0.706665,0 1.053331,-0.7066649 1.053331,-1.1733303 0,-0.666665 0.466665,-0.9866642 0.946664,-0.9866642 0.466666,0 0.946665,0.2933326 0.946665,0.799998 0,0.3866656 -0.133333,0.7999979 -0.399999,1.1466637 l -3.239992,4.3866552 c -0.186666,0.253333 -0.293333,0.533332 -0.293333,0.786665 0,0.679998 0.399999,1.026664 1.239997,1.026664 h 3.946657 c 0.679998,0 1.026664,-0.373332 1.026664,-1.053331 0,-0.666664 -0.319999,-1.026664 -1.013331,-1.026664 h -2.146661 c 0.893331,-1.1999966 1.199997,-1.5866622 2.066661,-2.733326 0.599999,-0.8133313 0.973331,-1.7866622 0.973331,-2.62666 0,-1.7066624 -1.533329,-2.8133263 -3.066659,-2.8133263 -1.573329,0 -3.133325,1.1599971 -3.133325,3.0399924 z"
     id="text2"
     aria-label="Vircon32&#10;&#10;&#10;&#10;&#10;&#10;&#10;&#10;" />
</svg>
