<?xml version="1.0" encoding="UTF-8" standalone="no"?>
<svg
   viewBox="0 0 200 40"
   version="1.1"
   id="svg1"
   sodipodi:docname="wasm4.svg"
   inkscape:version="1.3.2 (091e20e, 2023-11-25)"
   xmlns:inkscape="http://www.inkscape.org/namespaces/inkscape"
   xmlns:sodipodi="http://sodipodi.sourceforge.net/DTD/sodipodi-0.dtd"
   xmlns="http://www.w3.org/2000/svg"
   xmlns:svg="http://www.w3.org/2000/svg">
  <defs
     id="defs1">
    <rect
       x="0.30349014"
       y="0.60698027"
       width="199.08953"
       height="38.846737"
       id="rect3" />
    <rect
       x="0.60698027"
       y="0.60698027"
       width="198.78604"
       height="39.150228"
       id="rect2" />
    <rect
       x="0.91047041"
       y="0.60698027"
       width="198.17906"
       height="38.846737"
       id="rect1" />
  </defs>
  <sodipodi:namedview
     id="namedview1"
     pagecolor="#020202"
     bordercolor="#000000"
     borderopacity="0.25"
     inkscape:showpageshadow="2"
     inkscape:pageopacity="0.0"
     inkscape:pagecheckerboard="0"
     inkscape:deskcolor="#d1d1d1"
     inkscape:zoom="3.295"
     inkscape:cx="101.36571"
     inkscape:cy="-0.75872534"
     inkscape:window-width="1400"
     inkscape:window-height="864"
     inkscape:window-x="209"
     inkscape:window-y="25"
     inkscape:window-maximized="0"
     inkscape:current-layer="svg1" />
  <path
     style="font-weight:bold;font-size:13.3333px;font-family:BPreplay;-inkscape-font-specification:'BPreplay Bold';letter-spacing:0px;white-space:pre;fill:#ffffff;stroke-width:2.64567;stroke-linecap:square;stroke-opacity:0.988722;paint-order:markers fill stroke"
     d="M 2.7427282,3.5352346 C 2.6227285,2.9219028 2.2493961,2.5619037 1.6493976,2.5619037 c -0.5599985,0 -1.07999723,0.399999 -1.07999723,1.0799973 L 2.1293964,11.76188 c 0.133333,0.719999 0.7466648,1.213331 1.3866632,1.213331 0.5466653,0 1.1866637,-0.386666 1.3999964,-1.239997 L 6.116053,6.9485593 7.4893829,11.92188 c 0.1999995,0.733332 0.7733314,1.026664 1.3333299,1.026664 0.666665,0 1.2533302,-0.453332 1.3733302,-1.119997 0.479998,-2.6533266 0.986664,-5.29332 1.453329,-7.9466466 0.02667,-0.08 0.02667,-0.1199997 0.02667,-0.1599996 v -0.08 c 0,-0.6533317 -0.506665,-1.1066639 -1.106664,-1.1066639 -0.6533316,0 -0.9999974,0.3599991 -1.1066638,1.0133308 L 8.6893798,8.6152218 7.3827165,3.4819014 C 7.2227169,2.8819029 6.8093846,2.5619037 6.1560529,2.5619037 c -0.6533317,0 -1.0799973,0.3199992 -1.2533302,0.9199977 C 4.4627239,5.0952307 4.1427247,7.0952256 3.6893925,8.6952216 Z M 15.836027,6.268561 c 0.479999,1.4133298 0.573332,1.5866627 0.933331,2.6399934 H 14.87603 Z m 2.199995,5.999985 c 0.173332,0.439999 0.519998,0.679998 1.026664,0.679998 0.666665,0 1.039997,-0.439999 1.039997,-1.039997 0,-0.133333 -0.02667,-0.319999 -2.973326,-8.3733124 -0.226666,-0.6266651 -0.679998,-0.9466643 -1.29333,-0.9466643 -0.613332,0 -1.066664,0.3199992 -1.29333,0.9466643 l -2.799993,7.9199804 c -0.04,0.133333 -0.08,0.293332 -0.08,0.439998 0,0.546666 0.293333,1.053331 1.013331,1.053331 0.546665,0 0.933331,-0.293332 1.133331,-0.879998 0.119999,-0.319999 0.226666,-0.653331 0.359999,-0.999997 h 3.399991 z m 6.746654,-7.3866481 c 0.239999,0.1999995 0.506665,0.3333325 0.839998,0.3333325 0.613332,0 1.053331,-0.5733319 1.053331,-1.1199972 0,-0.4133323 -0.213333,-0.7599981 -0.599999,-1.0399974 -0.666665,-0.5066654 -1.479996,-0.7733314 -2.319994,-0.7733314 -1.893329,0 -3.146659,1.5333295 -3.146659,3.0266591 0,1.7999954 1.599996,2.5599935 2.94666,3.1866586 1.066663,0.4933321 1.426663,0.799998 1.426663,1.2533301 0,0.7599978 -0.639999,1.1466638 -1.37333,1.1466638 -0.426666,0 -0.893331,-0.146666 -1.25333,-0.373332 -0.253333,-0.146667 -0.519999,-0.226666 -0.786665,-0.226666 -0.693332,0 -1.039997,0.319999 -1.039997,1.026664 0,0.439998 0.199999,0.786664 0.613331,1.05333 0.733332,0.479999 1.559996,0.733332 2.466661,0.733332 2.053328,0 3.639991,-1.279997 3.639991,-3.4399916 0,-1.6399958 -1.146664,-2.3733273 -2.759993,-3.159992 -0.826665,-0.399999 -1.639996,-0.5999985 -1.639996,-1.2533301 0,-0.5866652 0.346665,-0.7599981 0.893331,-0.7599981 0.386665,0 0.719998,0.1466663 1.039997,0.3866657 z M 31.98266,3.8019006 C 31.729327,2.9885693 31.195995,2.5352371 30.515997,2.5352371 c -0.759998,0 -1.226664,0.4933321 -1.386663,1.4399964 L 27.90267,11.601881 c -0.01333,0.106666 -0.01333,0.199999 -0.01333,0.293332 0,0.706665 0.399999,1.039998 1.039997,1.039998 0.693332,0 0.986664,-0.386666 1.093331,-1.039998 l 0.853331,-5.0666534 1.41333,5.1599874 c 0.186666,0.653331 0.586665,0.959997 1.106664,0.959997 0.466665,0 0.893331,-0.319999 1.09333,-0.959997 0.519999,-1.61333 1.026664,-3.5066582 1.559996,-5.1333208 l 0.679999,5.0533208 c 0.09333,0.693331 0.426665,1.026664 1.119997,1.026664 0.599998,0 1.05333,-0.399999 1.05333,-1.066664 0,-0.01333 -0.01333,-0.02667 -0.01333,-0.04 v -0.05333 L 37.742645,3.9885668 C 37.609312,3.0552358 37.11598,2.5619037 36.369316,2.5619037 c -0.693332,0 -1.226664,0.4133323 -1.479997,1.2266636 l -1.466663,4.7866546 z m 8.959977,4.2133227 c -0.693332,0 -1.106664,0.5199987 -1.106664,1.066664 0,0.7066648 0.373332,1.0266637 1.106664,1.0266637 h 2.439994 c 0.746664,0 1.106663,-0.3199989 1.106663,-1.0266637 0,-0.6933316 -0.359999,-1.066664 -1.106663,-1.066664 z m 8.279978,3.7866567 c 0,0.759998 0.399999,1.146664 1.053331,1.146664 0.693332,0 1.066664,-0.386666 1.066664,-1.146664 v -1.106663 c 0.653332,0 0.986664,-0.346666 0.986664,-1.0133313 0,-0.7066648 -0.333332,-1.0533306 -0.999997,-1.0533306 V 4.4152324 c 0,-0.9199977 -0.599999,-1.466663 -1.359997,-1.466663 -0.599998,0 -1.066664,0.2933326 -1.41333,0.8533312 l -3.093325,4.9866541 c -0.186666,0.2533327 -0.253333,0.533332 -0.253333,0.7733313 0,0.613332 0.413332,1.146664 1.21333,1.146664 h 2.799993 z m 0,-5.3199862 v 2.1466613 h -1.239996 z"
     id="text2"
     aria-label="WASM-4&#10;&#10;&#10;&#10;&#10;" />
</svg>
