<?xml version="1.0" encoding="UTF-8" standalone="no"?>
<svg
   viewBox="0 0 200 40"
   version="1.1"
   id="svg1"
   sodipodi:docname="wonderswan.svg"
   inkscape:version="1.3.2 (091e20e, 2023-11-25)"
   xmlns:inkscape="http://www.inkscape.org/namespaces/inkscape"
   xmlns:sodipodi="http://sodipodi.sourceforge.net/DTD/sodipodi-0.dtd"
   xmlns="http://www.w3.org/2000/svg"
   xmlns:svg="http://www.w3.org/2000/svg">
  <defs
     id="defs1">
    <rect
       x="0.30349014"
       y="0.60698027"
       width="199.08953"
       height="38.846737"
       id="rect3" />
    <rect
       x="0.60698027"
       y="0.60698027"
       width="198.78604"
       height="39.150228"
       id="rect2" />
    <rect
       x="0.91047041"
       y="0.60698027"
       width="198.17906"
       height="38.846737"
       id="rect1" />
  </defs>
  <sodipodi:namedview
     id="namedview1"
     pagecolor="#020202"
     bordercolor="#000000"
     borderopacity="0.25"
     inkscape:showpageshadow="2"
     inkscape:pageopacity="0.0"
     inkscape:pagecheckerboard="0"
     inkscape:deskcolor="#d1d1d1"
     inkscape:zoom="3.295"
     inkscape:cx="101.36571"
     inkscape:cy="-0.75872534"
     inkscape:window-width="1400"
     inkscape:window-height="864"
     inkscape:window-x="209"
     inkscape:window-y="25"
     inkscape:window-maximized="0"
     inkscape:current-layer="svg1" />
  <path
     style="font-weight:bold;font-size:13.3333px;font-family:BPreplay;-inkscape-font-specification:'BPreplay Bold';letter-spacing:0px;white-space:pre;fill:#ffffff;stroke-width:2.64567;stroke-linecap:square;stroke-opacity:0.988722;paint-order:markers fill stroke"
     d="M 2.7427282,3.5352346 C 2.6227285,2.9219028 2.2493961,2.5619037 1.6493976,2.5619037 c -0.5599985,0 -1.07999723,0.399999 -1.07999723,1.0799973 L 2.1293964,11.76188 c 0.133333,0.719999 0.7466648,1.213331 1.3866632,1.213331 0.5466653,0 1.1866637,-0.386666 1.3999964,-1.239997 L 6.116053,6.9485593 7.4893829,11.92188 c 0.1999995,0.733332 0.7733314,1.026664 1.3333299,1.026664 0.666665,0 1.2533302,-0.453332 1.3733302,-1.119997 0.479998,-2.6533266 0.986664,-5.29332 1.453329,-7.9466466 0.02667,-0.08 0.02667,-0.1199997 0.02667,-0.1599996 v -0.08 c 0,-0.6533317 -0.506665,-1.1066639 -1.106664,-1.1066639 -0.6533316,0 -0.9999974,0.3599991 -1.1066638,1.0133308 L 8.6893798,8.6152218 7.3827165,3.4819014 C 7.2227169,2.8819029 6.8093846,2.5619037 6.1560529,2.5619037 c -0.6533317,0 -1.0799973,0.3199992 -1.2533302,0.9199977 C 4.4627239,5.0952307 4.1427247,7.0952256 3.6893925,8.6952216 Z M 15.369354,5.108564 c -2.279994,0 -3.466658,1.8399953 -3.466658,3.9066568 0,2.0799952 1.186664,4.0533232 3.466658,4.0533232 2.253328,0 3.466658,-1.866662 3.466658,-3.9733234 0,-2.0533282 -1.199997,-3.9866566 -3.466658,-3.9866566 z m 0,1.8933285 c 0.946664,0 1.359997,1.2399969 1.359997,2.1733279 0,0.9466646 -0.413333,2.0266616 -1.359997,2.0266616 -0.946664,0 -1.359997,-1.3199968 -1.359997,-2.2533277 0,-0.9599976 0.413333,-1.9466618 1.359997,-1.9466618 z m 4.439985,4.9199875 c 0,0.679998 0.333332,1.026664 0.999997,1.026664 0.706665,0 1.039997,-0.346666 1.039997,-1.026664 V 8.2018895 c 0,-0.7866647 0.519999,-1.1866637 1.053331,-1.1866637 0.479999,0 0.986664,0.3866657 0.986664,1.1866637 V 11.92188 c 0,0.679998 0.359999,1.026664 1.026664,1.026664 0.693332,0 1.039998,-0.346666 1.039998,-1.026664 V 7.8285571 c 0,-1.9599951 -1.226664,-2.6399933 -2.253328,-2.6399933 -0.799998,0 -1.386663,0.4266656 -1.853329,0.9599975 0,-0.4133322 -0.333332,-0.9199976 -1.039997,-0.9199976 -0.666665,0 -0.999997,0.5066654 -0.999997,1.0666639 z M 31.595978,6.0952281 C 31.182646,5.4018966 30.395981,5.0818974 29.755983,5.0818974 c -1.45333,0 -2.839993,1.5999959 -2.839993,4.0266565 0,2.3733271 1.41333,3.9866561 2.82666,3.9866561 0.719998,0 1.439996,-0.413332 1.973328,-1.226663 v 0.306666 c 0,0.839998 0.573332,0.946664 0.933331,0.946664 0.679998,0 1.026664,-0.346666 1.026664,-0.986664 V 3.0952357 c 0,-0.6933316 -0.346666,-1.0666639 -1.026664,-1.0666639 -0.679998,0 -1.053331,0.3733323 -1.053331,1.0666639 z m -1.33333,5.0133209 c -0.839997,0 -1.25333,-0.973331 -1.25333,-1.9866618 0,-1.0266641 0.453333,-2.1066614 1.29333,-2.1066614 0.666665,0 1.33333,0.7599981 1.33333,2.0533282 0,1.29333 -0.706665,2.039995 -1.37333,2.039995 z m 7.866649,-6.0399849 c -2.226661,0 -3.453325,1.9333284 -3.453325,3.95999 0,2.1999949 1.306664,4.0666559 3.653325,4.0666559 1.226663,0 2.213327,-0.453332 2.879992,-1.279996 0.173333,-0.186667 0.226666,-0.373333 0.226666,-0.613332 0,-0.613332 -0.333332,-0.879998 -0.759998,-0.879998 -0.706665,0 -1.13333,0.826665 -2.159994,0.826665 -0.573332,0 -1.759996,-0.413333 -1.759996,-1.6133296 h 3.053326 c 1.026664,0 1.653329,0 1.653329,-1.026664 0,-2.0666615 -1.186664,-3.4399913 -3.333325,-3.4399913 z m -1.266663,3.0799922 c 0,-0.8266646 0.679998,-1.2666635 1.29333,-1.2666635 0.586665,0 1.17333,0.4133323 1.17333,1.2666635 z m 5.57332,3.7733237 c 0,0.679998 0.346666,1.026664 1.026664,1.026664 0.706665,0 1.026664,-0.346666 1.026664,-1.026664 V 8.2018895 c 0,-0.5866652 0.586665,-0.9999975 1.093331,-0.9999975 0.133333,0 0.213333,0.026667 0.306666,0.04 0.133333,0.026667 0.306666,0.04 0.493332,0.04 0.613332,0 1.05333,-0.4933321 1.05333,-1.0399974 0,-0.5466652 -0.399999,-1.1333304 -1.466663,-1.1333304 -0.559998,0 -1.426663,0.5466653 -1.653329,0.9866641 -0.02667,-0.626665 -0.439999,-0.8799977 -0.853331,-0.8799977 -0.679998,0 -1.026664,0.3466658 -1.026664,1.0666639 z m 9.573319,-7.0399821 c 0.239999,0.1999995 0.506665,0.3333325 0.839998,0.3333325 0.613332,0 1.05333,-0.5733319 1.05333,-1.1199972 0,-0.4133323 -0.213332,-0.7599981 -0.599998,-1.0399974 -0.666665,-0.5066654 -1.479996,-0.7733314 -2.319994,-0.7733314 -1.893329,0 -3.146659,1.5333295 -3.146659,3.0266591 0,1.7999954 1.599996,2.5599935 2.946659,3.1866586 1.066664,0.4933321 1.426663,0.799998 1.426663,1.2533301 0,0.7599978 -0.639998,1.1466638 -1.373329,1.1466638 -0.426666,0 -0.893332,-0.146666 -1.253331,-0.373332 -0.253332,-0.146667 -0.519998,-0.226666 -0.786664,-0.226666 -0.693332,0 -1.039998,0.319999 -1.039998,1.026664 0,0.439998 0.2,0.786664 0.613332,1.05333 0.733332,0.479999 1.559996,0.733332 2.466661,0.733332 2.053328,0 3.63999,-1.279997 3.63999,-3.4399916 0,-1.6399958 -1.146663,-2.3733273 -2.759993,-3.159992 -0.826664,-0.399999 -1.639996,-0.5999985 -1.639996,-1.2533301 0,-0.5866652 0.346666,-0.7599981 0.893332,-0.7599981 0.386665,0 0.719998,0.1466663 1.039997,0.3866657 z m 4.759985,1.0666639 C 56.555925,5.4285632 56.235926,5.1752305 55.702594,5.1752305 c -0.706665,0 -1.026664,0.3333325 -1.026664,1.0666639 0,0.1599996 0.226666,0.8799978 1.879995,5.8133186 0.2,0.573332 0.599999,0.893331 1.159997,0.893331 0.546665,0 0.973331,-0.306666 1.133331,-0.866664 l 0.97333,-3.3866584 c 0.519999,1.5333294 0.533332,1.8799954 1.026665,3.3599914 0.199999,0.586665 0.559998,0.879998 1.066663,0.879998 0.466666,0 0.879998,-0.266666 1.066664,-0.839998 1.466663,-4.2933225 1.746663,-5.2533201 1.813329,-5.4933195 l -0.01333,0.093333 c 0.06667,-0.1733329 0.09333,-0.3199992 0.09333,-0.4799988 0,-0.7066648 -0.226666,-1.0533306 -0.986664,-1.0533306 -0.533332,0 -0.893331,0.2533327 -1.066664,0.7866646 l -0.893331,3.693324 C 61.435913,8.1085564 61.502579,7.5618911 60.995914,6.0418949 60.849248,5.4818964 60.249249,5.1885638 59.822583,5.1885638 c -0.466665,0 -0.906664,0.2799993 -1.09333,0.8133312 l -1.013331,3.7599905 z m 9.573309,-0.3999989 c -0.426665,0.1733329 -0.693331,0.4666654 -0.693331,0.8399978 0,0.6799983 0.479998,0.8399979 0.986664,0.8399979 0.479999,0 0.919997,-0.1733329 1.466663,-0.1733329 0.746664,0 1.626662,0.4799988 1.626662,1.2666635 V 8.9752209 C 69.249226,8.6285551 68.542562,8.4285556 67.822563,8.4285556 c -1.706662,0 -2.706659,1.2533301 -2.706659,2.4533274 0,1.106664 0.866664,2.159994 2.38666,2.159994 0.746665,0 1.546663,-0.306666 2.173328,-0.973331 v 0.253333 c 0.04,0.546665 0.613332,0.719998 0.839998,0.719998 0.653332,0 1.039997,-0.493332 1.039997,-1.026664 V 8.0285566 c 0,-2.0399949 -1.679995,-2.8399928 -3.373325,-2.8399928 -0.613331,0 -1.25333,0.1199997 -1.839995,0.3599991 z m 0.866665,5.0666541 c 0,-0.426666 0.559998,-0.613332 1.119997,-0.613332 0.533332,0 1.119997,0.199999 1.119997,0.546665 0,0.466666 -0.639998,0.706665 -1.239997,0.706665 -0.493332,0 -0.999997,-0.213333 -0.999997,-0.639998 z m 5.573329,1.306663 c 0,0.679998 0.333333,1.026664 0.999998,1.026664 0.706665,0 1.039997,-0.346666 1.039997,-1.026664 V 8.2018895 c 0,-0.7866647 0.519999,-1.1866637 1.053331,-1.1866637 0.479999,0 0.986664,0.3866657 0.986664,1.1866637 V 11.92188 c 0,0.679998 0.359999,1.026664 1.026664,1.026664 0.693332,0 1.039997,-0.346666 1.039997,-1.026664 V 7.8285571 c 0,-1.9599951 -1.226663,-2.6399933 -2.253327,-2.6399933 -0.799998,0 -1.386663,0.4266656 -1.853329,0.9599975 0,-0.4133322 -0.333332,-0.9199976 -1.039997,-0.9199976 -0.666665,0 -0.999998,0.5066654 -0.999998,1.0666639 z"
     id="text2"
     aria-label="WonderSwan" />
</svg>
