<?xml version="1.0" encoding="UTF-8" standalone="no"?>
<svg
   viewBox="0 0 200 40"
   version="1.1"
   id="svg1"
   sodipodi:docname="x68000.svg"
   inkscape:version="1.3.2 (091e20e, 2023-11-25)"
   xmlns:inkscape="http://www.inkscape.org/namespaces/inkscape"
   xmlns:sodipodi="http://sodipodi.sourceforge.net/DTD/sodipodi-0.dtd"
   xmlns="http://www.w3.org/2000/svg"
   xmlns:svg="http://www.w3.org/2000/svg">
  <defs
     id="defs1">
    <rect
       x="0.30349014"
       y="0.60698027"
       width="199.08953"
       height="38.846737"
       id="rect3" />
    <rect
       x="0.60698027"
       y="0.60698027"
       width="198.78604"
       height="39.150228"
       id="rect2" />
    <rect
       x="0.91047041"
       y="0.60698027"
       width="198.17906"
       height="38.846737"
       id="rect1" />
  </defs>
  <sodipodi:namedview
     id="namedview1"
     pagecolor="#020202"
     bordercolor="#000000"
     borderopacity="0.25"
     inkscape:showpageshadow="2"
     inkscape:pageopacity="0.0"
     inkscape:pagecheckerboard="0"
     inkscape:deskcolor="#d1d1d1"
     inkscape:zoom="3.295"
     inkscape:cx="101.36571"
     inkscape:cy="-0.75872534"
     inkscape:window-width="1400"
     inkscape:window-height="864"
     inkscape:window-x="209"
     inkscape:window-y="25"
     inkscape:window-maximized="0"
     inkscape:current-layer="svg1" />
  <path
     style="font-weight:bold;font-size:13.3333px;font-family:BPreplay;-inkscape-font-specification:'BPreplay Bold';letter-spacing:0px;white-space:pre;fill:#ffffff;stroke-width:2.64567;stroke-linecap:square;stroke-opacity:0.988722;paint-order:markers fill stroke"
     d="m 4.9293893,4.8818979 c 0.2399994,0.1999995 0.5066654,0.3333325 0.8399979,0.3333325 0.6133318,0 1.0533307,-0.5733319 1.0533307,-1.1199972 0,-0.4133323 -0.2133328,-0.7599981 -0.5999985,-1.0399974 C 5.5560544,2.5485704 4.7427232,2.2819044 3.9027253,2.2819044 c -1.8933286,0 -3.14665874,1.5333295 -3.14665874,3.0266591 0,1.7999954 1.59999594,2.5599935 2.94665924,3.1866586 1.066664,0.4933321 1.426663,0.799998 1.426663,1.2533301 0,0.7599978 -0.6399983,1.1466638 -1.3733298,1.1466638 -0.4266656,0 -0.8933311,-0.146666 -1.2533302,-0.373332 -0.2533327,-0.146667 -0.5199987,-0.226666 -0.7866647,-0.226666 -0.6933315,0 -1.03999734,0.319999 -1.03999734,1.026664 0,0.439998 0.1999995,0.786664 0.61333174,1.05333 0.7333315,0.479999 1.5599961,0.733332 2.4666605,0.733332 2.0533281,0 3.6399908,-1.279997 3.6399908,-3.4399916 0,-1.6399958 -1.1466638,-2.3733273 -2.759993,-3.159992 C 3.8093922,6.1085614 2.9960609,5.9085619 2.9960609,5.2552303 c 0,-0.5866652 0.3466658,-0.7599981 0.8933311,-0.7599981 0.3866657,0 0.7199982,0.1466663 1.0399973,0.3866657 z M 8.3293814,11.92188 c 0,0.679998 0.3333325,1.026664 0.9999974,1.026664 0.7066652,0 1.0399972,-0.346666 1.0399972,-1.026664 V 8.2018895 c 0,-0.7866647 0.519999,-1.1866637 1.053331,-1.1866637 0.479999,0 0.986664,0.3866657 0.986664,1.1866637 V 11.92188 c 0,0.679998 0.359999,1.026664 1.026664,1.026664 0.693332,0 1.039998,-0.346666 1.039998,-1.026664 V 7.8285571 c 0,-1.9599951 -1.226664,-2.6399933 -2.253328,-2.6399933 -0.799998,0 -1.386663,0.4266656 -1.853329,0.9599975 V 3.2285687 c 0,-0.6933316 -0.333332,-1.066664 -1.0399972,-1.066664 -0.6666649,0 -0.9999974,0.3733324 -0.9999974,1.066664 z M 16.502683,5.5485629 c -0.426665,0.1733329 -0.693331,0.4666654 -0.693331,0.8399978 0,0.6799983 0.479999,0.8399979 0.986664,0.8399979 0.479999,0 0.919998,-0.1733329 1.466663,-0.1733329 0.746665,0 1.626662,0.4799988 1.626662,1.2666635 V 8.9752209 C 19.409343,8.6285551 18.702678,8.4285556 17.98268,8.4285556 c -1.706663,0 -2.70666,1.2533301 -2.70666,2.4533274 0,1.106664 0.866664,2.159994 2.38666,2.159994 0.746665,0 1.546663,-0.306666 2.173328,-0.973331 v 0.253333 c 0.04,0.546665 0.613332,0.719998 0.839998,0.719998 0.653332,0 1.039997,-0.493332 1.039997,-1.026664 V 8.0285566 c 0,-2.0399949 -1.679995,-2.8399928 -3.373324,-2.8399928 -0.613332,0 -1.25333,0.1199997 -1.839996,0.3599991 z m 0.866665,5.0666541 c 0,-0.426666 0.559998,-0.613332 1.119997,-0.613332 0.533332,0 1.119997,0.199999 1.119997,0.546665 0,0.466666 -0.639998,0.706665 -1.239997,0.706665 -0.493332,0 -0.999997,-0.213333 -0.999997,-0.639998 z m 5.573324,1.306663 c 0,0.679998 0.346666,1.026664 1.026664,1.026664 0.706665,0 1.026664,-0.346666 1.026664,-1.026664 V 8.2018895 c 0,-0.5866652 0.586665,-0.9999975 1.09333,-0.9999975 0.133333,0 0.213333,0.026667 0.306666,0.04 0.133333,0.026667 0.306666,0.04 0.493332,0.04 0.613332,0 1.053331,-0.4933321 1.053331,-1.0399974 0,-0.5466652 -0.399999,-1.1333304 -1.466663,-1.1333304 -0.559998,0 -1.426663,0.5466653 -1.653329,0.9866641 -0.02667,-0.626665 -0.439999,-0.8799977 -0.853331,-0.8799977 -0.679998,0 -1.026664,0.3466658 -1.026664,1.0666639 z m 5.62666,2.679993 c 0,0.706665 0.333332,1.066664 0.999997,1.066664 0.28,0 0.866665,-0.226666 0.866665,-0.813331 v -2.879993 c 0.346666,0.706665 1.159997,1.106664 1.853329,1.106664 1.479996,0 3.053325,-1.826662 3.053325,-4.013323 0,-2.6133268 -1.399996,-3.9733233 -2.719993,-3.9733233 -0.773331,0 -1.426663,0.2799993 -1.999995,1.0666639 0,-0.6933315 -0.333332,-1.0533306 -1.039997,-1.0533306 -0.693332,0 -1.013331,0.3599991 -1.013331,1.0533306 z m 3.479991,-3.533324 c -0.959997,0 -1.386663,-1.026664 -1.386663,-2.0266616 0,-0.9466643 0.426666,-2.0399949 1.386663,-2.0399949 0.879998,0 1.186664,1.1733304 1.186664,2.0933281 0,0.9333314 -0.306666,1.9733284 -1.186664,1.9733284 z m 6.853316,0.16 c -0.16,0.239999 -0.226666,0.493332 -0.226666,0.759998 0,0.639998 0.333332,0.97333 0.959997,0.97333 0.426666,0 0.759998,-0.173332 0.999998,-0.559998 l 2.079994,-3.2533252 2.239995,3.2799912 c 0.279999,0.36 0.586665,0.533332 0.986664,0.533332 0.639998,0 0.959997,-0.306665 0.959997,-0.959997 0,-0.266666 -0.09333,-0.519999 -0.266666,-0.786665 L 43.995959,7.3085584 45.969287,4.2685661 c 0.12,-0.1866662 0.2,-0.399999 0.2,-0.6266651 0,-0.5999985 -0.506665,-1.066664 -1.053331,-1.066664 -0.399999,0 -0.693331,0.1733329 -0.906664,0.5199987 -0.493332,0.7733314 -0.999998,1.6533292 -1.506663,2.4533272 L 40.995967,3.0419025 C 40.769301,2.70857 40.449301,2.575237 40.089302,2.575237 c -0.559998,0 -1.05333,0.4266656 -1.05333,1.0399974 0,0.2266661 0.06667,0.4533322 0.213332,0.666665 l 2.173328,3.1733253 z M 52.209271,4.7352316 c 0.226666,-0.2266661 0.319999,-0.4533322 0.319999,-0.7199982 0,-0.6799983 -0.493332,-1.066664 -1.093331,-1.066664 -0.279999,0 -0.559998,0.133333 -0.799998,0.3199992 -1.599995,1.4933296 -3.186658,3.6399908 -3.186658,6.0533181 0,1.9466613 1.119997,3.7733233 3.279992,3.7733233 2.026661,0 3.319991,-1.719995 3.319991,-3.5999904 0,-1.466663 -0.839998,-2.933326 -2.54666,-2.933326 -0.346666,0 -0.706665,0 -1.079997,0.1999995 0.386665,-0.8799978 1.17333,-1.4799962 1.786662,-2.0266615 z m -2.653327,4.7733212 c 0,-0.6666649 0.359999,-1.3466632 1.146664,-1.3466632 0.866664,0 1.25333,0.6799983 1.25333,1.3599965 0,0.7333319 -0.439999,1.4399969 -1.226663,1.5066629 -0.759999,-0.02667 -1.173331,-0.773331 -1.173331,-1.5199962 z m 5.319983,0.2799993 c 0,1.9066619 1.319997,3.3066579 3.266659,3.3066579 1.813328,0 3.213325,-1.506662 3.213325,-3.2799913 0,-0.9599975 -0.679999,-2.093328 -1.399997,-2.4399938 0.586665,-0.3733324 1.026664,-1.1599971 1.026664,-1.8799952 0,-1.6399959 -1.21333,-2.7866597 -2.853326,-2.7866597 -1.586662,0 -2.919992,1.199997 -2.919992,2.7866597 0,0.7866646 0.399999,1.5866626 1.01333,1.959995 -0.773331,0.4399989 -1.346663,1.3999965 -1.346663,2.3333274 z m 3.266659,-1.2399968 c 0.586665,0 1.026664,0.5466653 1.026664,1.2266635 0,0.6399982 -0.399999,1.1866642 -1.026664,1.1866642 -0.666665,0 -1.079998,-0.546666 -1.079998,-1.2133308 0,-0.6399983 0.426666,-1.1999969 1.079998,-1.1999969 z m -0.04,-2.0666615 c -0.493332,0 -0.759998,-0.4399989 -0.759998,-0.9199976 0,-0.5066654 0.386665,-0.7733314 0.773331,-0.7733314 0.346666,0 0.693332,0.266666 0.693332,0.7733314 0,0.4666654 -0.28,0.9199976 -0.706665,0.9199976 z m 7.773315,-3.826657 c -2.613327,0 -3.519992,3.0799923 -3.519992,5.2533201 0,2.2399941 0.866665,5.1866531 3.546658,5.1866531 2.573327,0 3.493325,-3.079992 3.493325,-5.2133197 0,-2.1866611 -0.853331,-5.2266535 -3.466658,-5.2266535 z m 0.02667,8.3333122 c -0.999997,0 -1.359996,-1.8533285 -1.359996,-3.0666588 0,-1.1199972 0.279999,-3.1333254 1.373329,-3.1333254 0.973331,0 1.319997,1.8933285 1.319997,3.159992 0,1.066664 -0.346666,3.0399922 -1.33333,3.0399922 z M 73.94254,2.6552368 c -2.613327,0 -3.519992,3.0799923 -3.519992,5.2533201 0,2.2399941 0.866665,5.1866531 3.546658,5.1866531 2.573327,0 3.493325,-3.079992 3.493325,-5.2133197 0,-2.1866611 -0.853332,-5.2266535 -3.466658,-5.2266535 z m 0.02667,8.3333122 c -0.999997,0 -1.359996,-1.8533285 -1.359996,-3.0666588 0,-1.1199972 0.279999,-3.1333254 1.373329,-3.1333254 0.973331,0 1.319997,1.8933285 1.319997,3.159992 0,1.066664 -0.346666,3.0399922 -1.33333,3.0399922 z m 8.039976,-8.3333122 c -2.613326,0 -3.519991,3.0799923 -3.519991,5.2533201 0,2.2399941 0.866665,5.1866531 3.546658,5.1866531 2.573327,0 3.493324,-3.079992 3.493324,-5.2133197 0,-2.1866611 -0.853331,-5.2266535 -3.466658,-5.2266535 z m 0.02667,8.3333122 c -0.999998,0 -1.359997,-1.8533285 -1.359997,-3.0666588 0,-1.1199972 0.28,-3.1333254 1.37333,-3.1333254 0.973331,0 1.319997,1.8933285 1.319997,3.159992 0,1.066664 -0.346666,3.0399922 -1.33333,3.0399922 z"
     id="text2"
     aria-label="Sharp X68000&#10;" />
</svg>
