<?xml version="1.0" encoding="UTF-8" standalone="no"?>
<svg
   viewBox="0 0 200 40"
   version="1.1"
   id="svg1"
   sodipodi:docname="zx81.svg"
   inkscape:version="1.3.2 (091e20e, 2023-11-25)"
   xmlns:inkscape="http://www.inkscape.org/namespaces/inkscape"
   xmlns:sodipodi="http://sodipodi.sourceforge.net/DTD/sodipodi-0.dtd"
   xmlns="http://www.w3.org/2000/svg"
   xmlns:svg="http://www.w3.org/2000/svg">
  <defs
     id="defs1">
    <rect
       x="0.30349014"
       y="0.60698027"
       width="199.08953"
       height="38.846737"
       id="rect3" />
    <rect
       x="0.60698027"
       y="0.60698027"
       width="198.78604"
       height="39.150228"
       id="rect2" />
    <rect
       x="0.91047041"
       y="0.60698027"
       width="198.17906"
       height="38.846737"
       id="rect1" />
  </defs>
  <sodipodi:namedview
     id="namedview1"
     pagecolor="#020202"
     bordercolor="#000000"
     borderopacity="0.25"
     inkscape:showpageshadow="2"
     inkscape:pageopacity="0.0"
     inkscape:pagecheckerboard="0"
     inkscape:deskcolor="#d1d1d1"
     inkscape:zoom="3.295"
     inkscape:cx="101.36571"
     inkscape:cy="-0.75872534"
     inkscape:window-width="1400"
     inkscape:window-height="864"
     inkscape:window-x="209"
     inkscape:window-y="25"
     inkscape:window-maximized="0"
     inkscape:current-layer="svg1" />
  <path
     style="font-weight:bold;font-size:13.3333px;font-family:BPreplay;-inkscape-font-specification:'BPreplay Bold';letter-spacing:0px;white-space:pre;fill:#ffffff;stroke-width:2.64567;stroke-linecap:square;stroke-opacity:0.988722;paint-order:markers fill stroke"
     d="m 0.79606646,11.001882 c -0.13333299,0.226667 -0.22666609,0.506666 -0.22666609,0.813332 0,0.759998 0.35999909,1.13333 1.03999733,1.13333 h 5.4799862 c 0.7199982,0 1.0933306,-0.359999 1.0933306,-1.09333 0,-0.679999 -0.3733324,-1.039998 -1.0933306,-1.039998 H 3.5027263 L 7.6760491,4.5352321 C 7.8627153,4.2418995 8.0227149,3.908567 8.0227149,3.5885678 8.0227149,3.0285692 7.6760491,2.575237 6.782718,2.575237 H 1.8227305 c -0.7199981,0 -1.07999724,0.3466658 -1.07999724,1.0799973 0,0.6933316 0.35999914,1.0533307 1.07999724,1.0533307 h 3.1466587 z m 8.09332094,0.226667 c -0.1599996,0.239999 -0.2266661,0.493332 -0.2266661,0.759998 0,0.639998 0.3333325,0.97333 0.9599976,0.97333 0.4266651,0 0.7599981,-0.173332 0.9999971,-0.559998 l 2.079995,-3.2533252 2.239994,3.2799912 c 0.28,0.36 0.586666,0.533332 0.986665,0.533332 0.639998,0 0.959997,-0.306665 0.959997,-0.959997 0,-0.266666 -0.09333,-0.519999 -0.266666,-0.786665 L 13.982708,7.3085584 15.956036,4.2685661 c 0.12,-0.1866662 0.2,-0.399999 0.2,-0.6266651 0,-0.5999985 -0.506666,-1.066664 -1.053331,-1.066664 -0.399999,0 -0.693332,0.1733329 -0.906664,0.5199987 -0.493332,0.7733314 -0.999998,1.6533292 -1.506663,2.4533272 L 10.982715,3.0419025 C 10.756049,2.70857 10.43605,2.575237 10.076051,2.575237 c -0.5599985,0 -1.0533306,0.4266656 -1.0533306,1.0399974 0,0.2266661 0.066666,0.4533322 0.2133328,0.666665 L 11.409381,7.4552247 Z M 18.356024,8.0152233 c -0.693332,0 -1.106664,0.5199987 -1.106664,1.066664 0,0.7066648 0.373333,1.0266637 1.106664,1.0266637 h 2.439994 c 0.746665,0 1.106664,-0.3199989 1.106664,-1.0266637 0,-0.6933316 -0.359999,-1.066664 -1.106664,-1.066664 z m 4.613321,1.7733288 c 0,1.9066619 1.319997,3.3066579 3.266659,3.3066579 1.813328,0 3.213325,-1.506662 3.213325,-3.2799913 0,-0.9599975 -0.679998,-2.093328 -1.399997,-2.4399938 0.586666,-0.3733324 1.026665,-1.1599971 1.026665,-1.8799952 0,-1.6399959 -1.213331,-2.7866597 -2.853327,-2.7866597 -1.586662,0 -2.919992,1.199997 -2.919992,2.7866597 0,0.7866646 0.399999,1.5866626 1.013331,1.959995 -0.773332,0.4399989 -1.346664,1.3999965 -1.346664,2.3333274 z m 3.266659,-1.2399968 c 0.586665,0 1.026664,0.5466653 1.026664,1.2266635 0,0.6399982 -0.399999,1.1866642 -1.026664,1.1866642 -0.666665,0 -1.079998,-0.546666 -1.079998,-1.2133308 0,-0.6399983 0.426666,-1.1999969 1.079998,-1.1999969 z m -0.04,-2.0666615 c -0.493332,0 -0.759998,-0.4399989 -0.759998,-0.9199976 0,-0.5066654 0.386665,-0.7733314 0.773331,-0.7733314 0.346666,0 0.693332,0.266666 0.693332,0.7733314 0,0.4666654 -0.28,0.9199976 -0.706665,0.9199976 z m 5.639985,5.3599862 c 0,0.639999 0.426665,1.106664 1.079997,1.106664 0.639999,0 1.066664,-0.466665 1.066664,-1.106664 V 4.3885658 c 0,-0.4266656 -0.04,-0.7199982 -0.106666,-0.8133313 -0.12,-0.3199992 -0.439999,-0.6266651 -0.933331,-0.6266651 l -1.959995,0.533332 c -0.613332,0.1733329 -0.879998,0.6266651 -0.879998,1.066664 0,0.5866652 0.466665,0.9866642 1.013331,0.9866642 0.239999,0 0.479998,-0.066667 0.719998,-0.1599996 z"
     id="text2"
     aria-label="ZX-81&#10;&#10;&#10;&#10;&#10;&#10;&#10;" />
</svg>
