<?xml version="1.0" encoding="UTF-8" standalone="no"?>
<svg
   viewBox="0 0 200 40"
   version="1.1"
   id="svg1"
   sodipodi:docname="zxspectrum.svg"
   inkscape:version="1.3.2 (091e20e, 2023-11-25)"
   xmlns:inkscape="http://www.inkscape.org/namespaces/inkscape"
   xmlns:sodipodi="http://sodipodi.sourceforge.net/DTD/sodipodi-0.dtd"
   xmlns="http://www.w3.org/2000/svg"
   xmlns:svg="http://www.w3.org/2000/svg">
  <defs
     id="defs1">
    <rect
       x="0.30349014"
       y="0.60698027"
       width="199.08953"
       height="38.846737"
       id="rect3" />
    <rect
       x="0.60698027"
       y="0.60698027"
       width="198.78604"
       height="39.150228"
       id="rect2" />
    <rect
       x="0.91047041"
       y="0.60698027"
       width="198.17906"
       height="38.846737"
       id="rect1" />
  </defs>
  <sodipodi:namedview
     id="namedview1"
     pagecolor="#020202"
     bordercolor="#000000"
     borderopacity="0.25"
     inkscape:showpageshadow="2"
     inkscape:pageopacity="0.0"
     inkscape:pagecheckerboard="0"
     inkscape:deskcolor="#d1d1d1"
     inkscape:zoom="3.295"
     inkscape:cx="101.36571"
     inkscape:cy="-0.75872534"
     inkscape:window-width="1400"
     inkscape:window-height="864"
     inkscape:window-x="209"
     inkscape:window-y="25"
     inkscape:window-maximized="0"
     inkscape:current-layer="svg1" />
  <path
     style="font-weight:bold;font-size:13.3333px;font-family:BPreplay;-inkscape-font-specification:'BPreplay Bold';letter-spacing:0px;white-space:pre;fill:#ffffff;stroke-width:2.64567;stroke-linecap:square;stroke-opacity:0.988722;paint-order:markers fill stroke"
     d="m 0.79606646,11.001882 c -0.13333299,0.226667 -0.22666609,0.506666 -0.22666609,0.813332 0,0.759998 0.35999909,1.13333 1.03999733,1.13333 h 5.4799862 c 0.7199982,0 1.0933306,-0.359999 1.0933306,-1.09333 0,-0.679999 -0.3733324,-1.039998 -1.0933306,-1.039998 H 3.5027263 L 7.6760491,4.5352321 C 7.8627153,4.2418995 8.0227149,3.908567 8.0227149,3.5885678 8.0227149,3.0285692 7.6760491,2.575237 6.782718,2.575237 H 1.8227305 c -0.7199981,0 -1.07999724,0.3466658 -1.07999724,1.0799973 0,0.6933316 0.35999914,1.0533307 1.07999724,1.0533307 h 3.1466587 z m 8.09332094,0.226667 c -0.1599996,0.239999 -0.2266661,0.493332 -0.2266661,0.759998 0,0.639998 0.3333325,0.97333 0.9599976,0.97333 0.4266651,0 0.7599981,-0.173332 0.9999971,-0.559998 l 2.079995,-3.2533252 2.239994,3.2799912 c 0.28,0.36 0.586666,0.533332 0.986665,0.533332 0.639998,0 0.959997,-0.306665 0.959997,-0.959997 0,-0.266666 -0.09333,-0.519999 -0.266666,-0.786665 L 13.982708,7.3085584 15.956036,4.2685661 c 0.12,-0.1866662 0.2,-0.399999 0.2,-0.6266651 0,-0.5999985 -0.506666,-1.066664 -1.053331,-1.066664 -0.399999,0 -0.693332,0.1733329 -0.906664,0.5199987 -0.493332,0.7733314 -0.999998,1.6533292 -1.506663,2.4533272 L 10.982715,3.0419025 C 10.756049,2.70857 10.43605,2.575237 10.076051,2.575237 c -0.5599985,0 -1.0533306,0.4266656 -1.0533306,1.0399974 0,0.2266661 0.066666,0.4533322 0.2133328,0.666665 L 11.409381,7.4552247 Z M 24.342691,4.8818979 c 0.239999,0.1999995 0.506665,0.3333325 0.839998,0.3333325 0.613331,0 1.05333,-0.5733319 1.05333,-1.1199972 0,-0.4133323 -0.213332,-0.7599981 -0.599998,-1.0399974 -0.666665,-0.5066654 -1.479996,-0.7733314 -2.319994,-0.7733314 -1.893329,0 -3.146659,1.5333295 -3.146659,3.0266591 0,1.7999954 1.599996,2.5599935 2.946659,3.1866586 1.066664,0.4933321 1.426663,0.799998 1.426663,1.2533301 0,0.7599978 -0.639998,1.1466638 -1.37333,1.1466638 -0.426665,0 -0.893331,-0.146666 -1.25333,-0.373332 -0.253332,-0.146667 -0.519998,-0.226666 -0.786664,-0.226666 -0.693332,0 -1.039998,0.319999 -1.039998,1.026664 0,0.439998 0.2,0.786664 0.613332,1.05333 0.733331,0.479999 1.559996,0.733332 2.46666,0.733332 2.053329,0 3.639991,-1.279997 3.639991,-3.4399916 0,-1.6399958 -1.146664,-2.3733273 -2.759993,-3.159992 -0.826664,-0.399999 -1.639996,-0.5999985 -1.639996,-1.2533301 0,-0.5866652 0.346666,-0.7599981 0.893331,-0.7599981 0.386666,0 0.719999,0.1466663 1.039998,0.3866657 z m 3.413325,9.7199751 c 0,0.706665 0.333332,1.066664 0.999997,1.066664 0.279999,0 0.866665,-0.226666 0.866665,-0.813331 v -2.879993 c 0.346665,0.706665 1.159997,1.106664 1.853328,1.106664 1.479997,0 3.053326,-1.826662 3.053326,-4.013323 0,-2.6133268 -1.399997,-3.9733233 -2.719993,-3.9733233 -0.773332,0 -1.426663,0.2799993 -1.999995,1.0666639 0,-0.6933315 -0.333333,-1.0533306 -1.039998,-1.0533306 -0.693331,0 -1.01333,0.3599991 -1.01333,1.0533306 z m 3.479991,-3.533324 c -0.959998,0 -1.386663,-1.026664 -1.386663,-2.0266616 0,-0.9466643 0.426665,-2.0399949 1.386663,-2.0399949 0.879998,0 1.186664,1.1733304 1.186664,2.0933281 0,0.9333314 -0.306666,1.9733284 -1.186664,1.9733284 z m 7.426634,-5.9999849 c -2.226661,0 -3.453324,1.9333284 -3.453324,3.95999 0,2.1999949 1.306663,4.0666559 3.653324,4.0666559 1.226663,0 2.213328,-0.453332 2.879993,-1.279996 0.173332,-0.186667 0.226666,-0.373333 0.226666,-0.613332 0,-0.613332 -0.333333,-0.879998 -0.759998,-0.879998 -0.706665,0 -1.133331,0.826665 -2.159995,0.826665 -0.573332,0 -1.759996,-0.413333 -1.759996,-1.6133296 h 3.053326 c 1.026664,0 1.653329,0 1.653329,-1.026664 0,-2.0666615 -1.186663,-3.4399913 -3.333325,-3.4399913 z m -1.266663,3.0799922 c 0,-0.8266646 0.679998,-1.2666635 1.29333,-1.2666635 0.586665,0 1.17333,0.4133323 1.17333,1.2666635 z m 8.986645,-0.9999975 c 0.506665,0 1.026664,0.2266661 1.426663,0.2266661 0.586665,0 0.973331,-0.3733324 0.973331,-0.9733309 0,-0.399999 -0.319999,-0.7733313 -0.759998,-0.9733308 C 47.46262,5.1752305 46.875955,5.1218973 46.36929,5.1218973 c -2.013329,0 -3.719991,1.5733293 -3.719991,3.9333234 0,2.2799943 1.639996,4.0133233 3.746657,4.0133233 0.613332,0 1.279997,-0.16 1.906662,-0.573332 0.319999,-0.239999 0.546665,-0.519999 0.546665,-0.919998 0,-0.546665 -0.506665,-0.973331 -0.959997,-0.973331 -0.133333,0 -0.333333,0.04 -0.479999,0.146667 -0.306666,0.213333 -0.679998,0.293332 -0.999997,0.293332 -0.919998,0 -1.679996,-0.853331 -1.679996,-1.9333281 0,-1.1866637 0.719998,-1.9599951 1.653329,-1.9599951 z m 2.866668,-0.9599976 c 0,0.5999985 0.399999,0.7866647 0.933331,0.8399979 v 3.1999919 c 0,1.759996 0.439999,2.82666 2.346661,2.82666 0.719998,0 1.106664,-0.346666 1.106664,-0.999998 0,-0.666665 -0.386666,-0.999997 -1.106664,-0.999997 -0.253333,0 -0.279999,-0.266666 -0.279999,-0.826665 V 7.0552257 h 0.599998 c 0.706665,0 1.039997,-0.1866662 1.039997,-0.8533312 0,-0.6933315 -0.359999,-0.8666644 -1.066664,-0.8666644 H 52.249284 V 4.8152314 c 0,-0.666665 -0.346666,-1.0133308 -1.039998,-1.0133308 -0.679998,0 -1.026664,0.3466658 -1.026664,1.0133308 v 0.5199987 c -0.546665,0.066666 -0.933331,0.266666 -0.933331,0.8533311 z m 5.386645,5.7333188 c 0,0.679998 0.346666,1.026664 1.026664,1.026664 0.706665,0 1.026664,-0.346666 1.026664,-1.026664 V 8.2018895 c 0,-0.5866652 0.586665,-0.9999975 1.09333,-0.9999975 0.133333,0 0.213333,0.026667 0.306666,0.04 0.133333,0.026667 0.306666,0.04 0.493332,0.04 0.613332,0 1.053331,-0.4933321 1.053331,-1.0399974 0,-0.5466652 -0.399999,-1.1333304 -1.466663,-1.1333304 -0.559998,0 -1.426663,0.5466653 -1.653329,0.9866641 -0.02667,-0.626665 -0.439999,-0.8799977 -0.853331,-0.8799977 -0.679998,0 -1.026664,0.3466658 -1.026664,1.0666639 z m 7.586657,-5.6133191 c 0,-0.7066648 -0.319999,-1.026664 -1.026664,-1.026664 -0.679998,0 -1.013331,0.3199992 -1.013331,1.026664 v 3.559991 c 0,2.0133281 1.159997,3.1599921 2.386661,3.1599921 0.733331,0 1.493329,-0.399999 2.053328,-1.146664 v 0.399999 c 0.01333,0.599999 0.426665,0.839998 0.786665,0.839998 0.693331,0 1.026664,-0.346666 1.026664,-0.986664 V 6.268561 c 0,-0.7066648 -0.333333,-1.0533306 -1.026664,-1.0533306 -0.746665,0 -0.986665,0.3866657 -0.986665,1.0533306 v 2.799993 c 0,1.279997 -0.639998,1.973328 -1.266663,1.973328 -0.466666,0 -0.919998,-0.239999 -0.919998,-1.5466624 z m 5.493325,5.6133191 c 0,0.679998 0.333333,1.026664 0.999998,1.026664 0.706665,0 1.039997,-0.346666 1.039997,-1.026664 V 8.2018895 c 0,-0.7866647 0.519999,-1.1866637 1.053331,-1.1866637 0.479999,0 0.986664,0.3866657 0.986664,1.1866637 V 11.92188 c 0,0.679998 0.359999,1.026664 1.026664,1.026664 0.693332,0 1.039998,-0.346666 1.039998,-1.026664 V 7.9752234 c 0.08,-0.6399984 0.559998,-0.9599976 1.039997,-0.9599976 0.479999,0 0.986664,0.3866657 0.986664,1.1866637 V 11.92188 c 0,0.679998 0.359999,1.026664 1.026664,1.026664 0.693332,0 1.039998,-0.346666 1.039998,-1.026664 V 7.8285571 c 0,-1.8533287 -1.106664,-2.6133267 -2.239995,-2.6133267 -0.839998,0 -1.693329,0.4133323 -2.119994,1.1066638 C 73.235905,5.508563 72.56924,5.1885638 71.875908,5.1885638 c -0.799998,0 -1.653329,0.4266656 -2.119995,0.9599975 0,-0.4133322 -0.333332,-0.9199976 -1.039997,-0.9199976 -0.666665,0 -0.999998,0.5066654 -0.999998,1.0666639 z"
     id="text2"
     aria-label="ZX Spectrum&#10;&#10;&#10;&#10;&#10;&#10;&#10;&#10;" />
</svg>
