<?xml version="1.0" encoding="UTF-8" standalone="no"?>
<!-- Generator: Gravit.io -->

<svg
   style="isolation:isolate"
   viewBox="0 0 54 54"
   width="54pt"
   height="54pt"
   version="1.1"
   id="svg2"
   sodipodi:docname="battery=charging.svg"
   inkscape:version="1.3.2 (091e20e, 2023-11-25)"
   xmlns:inkscape="http://www.inkscape.org/namespaces/inkscape"
   xmlns:sodipodi="http://sodipodi.sourceforge.net/DTD/sodipodi-0.dtd"
   xmlns="http://www.w3.org/2000/svg"
   xmlns:svg="http://www.w3.org/2000/svg">
  <sodipodi:namedview
     id="namedview2"
     pagecolor="#070707"
     bordercolor="#000000"
     borderopacity="0.25"
     inkscape:showpageshadow="2"
     inkscape:pageopacity="0.0"
     inkscape:pagecheckerboard="0"
     inkscape:deskcolor="#d1d1d1"
     inkscape:document-units="pt"
     showguides="false"
     inkscape:zoom="3.2777778"
     inkscape:cx="36.305084"
     inkscape:cy="35.847457"
     inkscape:window-width="1376"
     inkscape:window-height="682"
     inkscape:window-x="209"
     inkscape:window-y="25"
     inkscape:window-maximized="0"
     inkscape:current-layer="svg2" />
  <defs
     id="defs1">
    <clipPath
       id="_clipPath_5BYvVxY5nmAOg44WgUmx4DyOOJ3R7PhB">
      <rect
         width="54"
         height="54"
         id="rect1" />
    </clipPath>
  </defs>
  <g
     clip-path="url(#_clipPath_5BYvVxY5nmAOg44WgUmx4DyOOJ3R7PhB)"
     id="g2"
     transform="matrix(0,-1,-1,0,54,54)">
    <rect
       width="54"
       height="54"
       style="fill:#000000"
       fill-opacity="0"
       id="rect2"
       x="0"
       y="0" />
    <path
       d="m 12,53.88983 v -44.4266759 0 h 8 v -9.35298458 0 H 34 V 9.4631541 h 8 V 53.88983 Z M 28.522,29.192106 h 3.487 c 0.416,0 0.791,0.341384 0.91,0.851121 0.172,0.513245 0.062,1.09313 -0.25,1.454389 l -8.007,9.206845 c -0.353,0.402178 -0.87,0.436082 -1.248,0.07366 -0.378,-0.361258 -0.516,-1.019475 -0.331,-1.581823 l 2.405,-7.373659 h -3.515 c -0.389,0 -0.762,-0.341384 -0.909,-0.851122 -0.147,-0.513244 -0.036,-1.09313 0.278,-1.454389 l 8.005,-9.206844 c 0.354,-0.404517 0.87,-0.434913 1.248,-0.07366 0.379,0.361259 0.516,1.017137 0.332,1.581824 z"
       fill-rule="evenodd"
       fill="#ffffff"
       id="path2"
       style="stroke-width:1.08126" />
  </g>
</svg>
